<?xml version="1.0" encoding="utf-8"?>
<!-- Generator: Adobe Illustrator 20.1.0, SVG Export Plug-In . SVG Version: 6.00 Build 0)  -->
<svg version="1.1" id="Layer_1" xmlns="http://www.w3.org/2000/svg" xmlns:xlink="http://www.w3.org/1999/xlink" x="0px" y="0px"
	 viewBox="0 0 205.4 153" style="enable-background:new 0 0 205.4 153;" xml:space="preserve">
<style type="text/css">
	.st0{fill:#F78F20;}
	.st1{fill:#FFFFFF;}
	.st2{fill:#231F20;}
	.st3{fill:#2677BD;}
	.st4{fill:#15A54A;}
	.st5{fill:#EDBC77;}
	.st6{fill:#761118;}
	.st7{fill:#74411B;}
	.st8{fill:#EF4237;}
	.st9{fill:#F3F2F3;}
	.st10{fill:#76A942;}
	.st11{fill:#15B49A;}
	.st12{fill:#036562;}
	.st13{fill:#FDB716;}
</style>
<g>
	<path class="st7" d="M175.4,146.3L175.4,146.3c-1.6,0-2.9-1.3-2.9-2.9L172.2,43c0-1.6,1.3-2.9,2.9-2.9l0,0c1.6,0,2.9,1.3,2.9,2.9
		l0.3,100.5C178.3,145,177,146.3,175.4,146.3z"/>
	<path class="st7" d="M30.9,146.3L30.9,146.3c-1.6,0-2.9-1.3-2.9-2.9L27.7,43c0-1.6,1.3-2.9,2.9-2.9h0c1.6,0,2.9,1.3,2.9,2.9
		l0.3,100.5C33.8,145,32.5,146.3,30.9,146.3z"/>
	<g>
		<path class="st13" d="M193.5,100.6l-181.4,0.5c-2.5,0-4.5-2-4.5-4.4L7.4,13.5c0-2.5,2-4.5,4.4-4.5l181.4-0.5c2.5,0,4.5,2,4.5,4.4
			l0.2,83.2C198,98.5,196,100.5,193.5,100.6z"/>
	</g>
</g>
</svg>
