
<svg xmlns="http://www.w3.org/2000/svg" viewBox="0 0 492.1 68.3" enable-background="new 0 0 492.1 68.3"><style type="text/css">.st0{fill:none;} .st1{fill:#F7BC60;} .st2{fill:#FFFFFF;}</style><pattern id="Unnamed_Pattern" width="69" height="69" x="-150" y="340.3" patternUnits="userSpaceOnUse" viewBox="2.1 -70.9 69 69" overflow="visible"><path d="M2.1-70.9h69v69h-69z" class="st0"/><path d="M2.1-70.9h69v69h-69z" class="st1"/><path d="M61.8-71.7c0 .1 0 .1 0 .2-.1.1-.1.1-.2.1-.1.1-.1.3-.1.4-.2.1 0 .2 0 .3 0 0 0 .1 0 .2s0 .3.1.4c.1.2.3.4.4.5.2.1.4.6.6.6.2 0 .4-.1.5-.1.2 0 .4 0 .6-.1.2-.1.1-.3.3-.5.1-.1.3 0 .4-.1.2-.1.3-.3.4-.5 0-.1 0-.1 0-.2s.1-.2.1-.3c0-.1-.1-.1-.1-.2s0-.2 0-.3c0-.2 0-.4-.1-.5-.4-.7-1.2-.9-2-.8-.2 0-.3.1-.4.2-.2.1-.1.2-.3.2-.1 0-.2.1-.2.2 0 .3 0 .3 0 .3 0 .1 0 .1 0 0M54.1-71.7c0 .1 0 .1 0 .2-.1.1-.1.1-.2.1-.1.1-.1.3-.1.4-.2.1 0 .2 0 .3 0 0 0 .1 0 .2s0 .3.1.4c.1.2.3.4.4.5.2.1.4.6.6.6.2 0 .4-.1.5-.1.2 0 .4 0 .6-.1.2-.1.1-.3.3-.5.1-.1.3 0 .4-.1.2-.1.3-.3.4-.5 0-.1 0-.1 0-.2s.1-.2.1-.3c0-.1-.1-.1-.1-.2s0-.2 0-.3c0-.2 0-.4-.1-.5-.4-.7-1.2-.9-2-.8-.2 0-.3.1-.4.2-.2.1-.1.2-.3.2-.1 0-.2.1-.2.2 0 .3 0 .3 0 .3 0 .1 0 .1 0 0M46.4-71.7c0 .1 0 .1 0 .2-.1.1-.1.1-.2.1-.1.1-.1.3-.1.4-.2.1 0 .2 0 .3 0 0 0 .1 0 .2s0 .3.1.4c.1.2.3.4.4.5.2.1.4.6.6.6.2 0 .4-.1.5-.1.2 0 .4 0 .6-.1.2-.1.1-.3.3-.5.1-.1.3 0 .4-.1.2-.1.3-.3.4-.5 0-.1 0-.1 0-.2s.1-.2.1-.3c0-.1-.1-.1-.1-.2s0-.2 0-.3c0-.2 0-.4-.1-.5-.4-.7-1.2-.9-2-.8-.2 0-.3.1-.4.2-.2.1-.1.2-.3.2-.1 0-.2.1-.2.2 0 .3 0 .3 0 .3 0 .1 0 .1 0 0M38.8-71.7c0 .1 0 .1 0 .2-.1.1-.1.1-.2.1-.1.1-.1.3-.1.4-.2.1 0 .2 0 .3 0 0 0 .1 0 .2s0 .3.1.4c.1.2.3.4.4.5.2.1.4.6.6.6.2 0 .4-.1.5-.1.2 0 .4 0 .6-.1.2-.1.1-.3.3-.5.1-.1.3 0 .4-.1.2-.1.3-.3.4-.5 0-.1 0-.1 0-.2s.1-.2.1-.3c0-.1-.1-.1-.1-.2s0-.2 0-.3c0-.2 0-.4-.1-.5-.4-.7-1.2-.9-2-.8-.2 0-.3.1-.4.2-.2.1-.1.2-.3.2-.1 0-.2.1-.2.2 0 .3 0 .3 0 .3 0 .1 0 .1 0 0M31.1-71.7c0 .1 0 .1 0 .2-.1.1-.1.1-.2.1-.1.1-.1.3-.1.4-.2.1 0 .2 0 .3 0 0 0 .1 0 .2s0 .3.1.4c.1.2.3.4.4.5.2.1.4.6.6.6.2 0 .4-.1.5-.1.2 0 .4 0 .6-.1.2-.1.1-.3.3-.5.1-.1.3 0 .4-.1.2-.1.3-.3.4-.5 0-.1 0-.1 0-.2s.1-.2.1-.3c0-.1-.1-.1-.1-.2s0-.2 0-.3c0-.2 0-.4-.1-.5-.4-.7-1.2-.9-2-.8-.2 0-.3.1-.4.2-.2.1-.1.2-.3.2-.1 0-.2.1-.2.2 0 .3 0 .3 0 .3 0 .1 0 .1 0 0M23.4-71.7c0 .1 0 .1 0 .2-.1.1-.1.1-.2.1-.1.1-.1.3-.1.4-.2.1 0 .2 0 .3 0 0 0 .1 0 .2s0 .3.1.4c.1.2.3.4.4.5.2.1.4.6.6.6.2 0 .4-.1.5-.1.2 0 .4 0 .6-.1.2-.1.1-.3.3-.5.1-.1.3 0 .4-.1.2-.1.3-.3.4-.5 0-.1 0-.1 0-.2s.1-.2.1-.3c0-.1-.1-.1-.1-.2s0-.2 0-.3c0-.2 0-.4-.1-.5-.4-.7-1.2-.9-2-.8-.2 0-.3.1-.4.2-.2.1-.1.2-.3.2-.1 0-.2.1-.2.2 0 .3 0 .3 0 .3 0 .1 0 .1 0 0M15.8-71.7c0 .1 0 .1 0 .2-.1.1-.1.1-.2.1-.1.1-.1.3-.1.4-.2.1 0 .2 0 .3 0 0 0 .1 0 .2s0 .3.1.4c.1.2.3.4.4.5.2.1.4.6.6.6.2 0 .4-.1.5-.1.2 0 .4 0 .6-.1.2-.1.1-.3.3-.5.1-.1.3 0 .4-.1.2-.1.3-.3.4-.5 0-.1 0-.1 0-.2s.1-.2.1-.3c0-.1-.1-.1-.1-.2s0-.2 0-.3c0-.2 0-.4-.1-.5-.4-.7-1.2-.9-2-.8-.2 0-.3.1-.4.2-.2.1-.1.2-.3.2-.1 0-.2.1-.2.2 0 .3 0 .3 0 .3 0 .1 0 .1 0 0M8.1-71.7c0 .1 0 .1 0 .2-.1.1-.1.1-.2.2s-.1.3-.1.4c-.2.1 0 .2 0 .3 0 0 0 .1 0 .2s0 .3.1.4c.1.2.3.4.4.5.2.1.4.6.6.6.2 0 .4-.1.5-.1.2 0 .4 0 .6-.1.2-.1.1-.3.3-.5.1-.1.3 0 .4-.1.2-.1.3-.3.4-.5 0-.1 0-.1 0-.2s.1-.2.1-.3c0-.1-.1-.1-.1-.2s0-.2 0-.3c0-.2 0-.4-.1-.5-.4-.7-1.2-.9-2-.8-.2 0-.3.1-.4.2-.2.1-.1.2-.3.2-.1 0-.2.1-.2.2 0 .2 0 .2 0 .2 0 .1 0 .1 0 0M.4-71.7c0 .1 0 .1 0 .2-.1.1-.1.1-.2.1-.1.1-.1.3-.1.4-.2.1 0 .2 0 .3 0 0 0 .1 0 .2s0 .3.1.4c.1.2.3.4.4.5.2.2.4.6.6.7.2 0 .4-.1.5-.1.2 0 .4 0 .6-.1.2-.1.1-.3.3-.5.1-.1.3 0 .4-.1.2-.1.3-.3.4-.5 0-.1 0-.1 0-.2s.1-.2.1-.3c0-.1-.1-.1-.1-.2s0-.2 0-.3c0-.2 0-.4-.1-.5-.4-.7-1.2-.9-2-.8-.2 0-.3.1-.4.2-.2.1-.1.2-.3.2-.1 0-.2.1-.2.2 0 .2 0 .2 0 .2 0 .1 0 .1 0 0M69.4-71.7c0 .1 0 .1 0 .2-.1.1-.1.1-.2.1-.1.1-.1.3-.1.4-.2.1 0 .2 0 .3 0 0 0 .1 0 .2s0 .3.1.4c.1.2.3.4.4.5.2.1.4.6.6.6.2 0 .4-.1.5-.1.2 0 .4 0 .6-.1.2-.1.1-.3.3-.5.1-.1.3 0 .4-.1.2-.1.3-.3.4-.5 0-.1 0-.1 0-.2s.1-.2.1-.3c0-.1-.1-.1-.1-.2s0-.2 0-.3c0-.2 0-.4-.1-.5-.4-.7-1.2-.9-2-.8-.2 0-.3.1-.4.2-.2.1-.1.2-.3.2-.1 0-.2.1-.2.2 0 .3 0 .3 0 .3 0 .1 0 .1 0 0M.5-71.7c0 .1 0 .1 0 .2-.1.1-.1.1-.2.1-.1.1-.1.3-.1.4-.2.1 0 .2 0 .3 0 0 0 .1 0 .2s0 .3.1.4c.1.2.3.4.4.5.2.2.3.6.6.7.2 0 .4-.1.5-.1.2 0 .4 0 .6-.1.2-.1.1-.3.3-.5.1-.1.3 0 .4-.1.2-.1.3-.3.4-.5 0-.1 0-.1 0-.2s.1-.2.1-.3c0-.1-.1-.1-.1-.2s0-.2 0-.3c0-.2 0-.4-.1-.5-.4-.7-1.2-.9-2-.8-.2 0-.3.1-.4.2-.2.1-.1.2-.3.2-.1 0-.2.1-.2.2 0 .2 0 .2 0 .2 0 .1 0 .1 0 0M69.4-64c0 .1 0 .1 0 .2-.1.1-.1.1-.2.1-.1.1-.1.3-.1.4-.2.1 0 .2 0 .3 0 0 0 .1 0 .2s0 .3.1.4c.1.2.3.4.4.5.2.1.4.6.6.6.2 0 .4-.1.5-.1.2 0 .4 0 .6-.1.2-.1.1-.3.3-.5.1-.1.3 0 .4-.1.2-.1.3-.3.4-.5 0-.1 0-.1 0-.2s.1-.2.1-.3c0-.1-.1-.1-.1-.2s0-.2 0-.3c0-.2 0-.4-.1-.5-.4-.7-1.2-.9-2-.8-.2 0-.3.1-.4.2-.2.1-.1.2-.3.2-.1 0-.2.1-.2.2 0 .3 0 .2 0 .3M61.8-64c0 .1 0 .1 0 .2-.1.1-.1.1-.2.1-.1.1-.1.3-.1.4-.2.1 0 .2 0 .3 0 0 0 .1 0 .2s0 .3.1.4c.1.2.3.4.4.5.2.1.4.6.6.6.2 0 .4-.1.5-.1.2 0 .4 0 .6-.1.2-.1.1-.3.3-.5.1-.1.3 0 .4-.1.2-.1.3-.3.4-.5 0-.1 0-.1 0-.2s.1-.2.1-.3c0-.1-.1-.1-.1-.2s0-.2 0-.3c0-.2 0-.4-.1-.5-.4-.7-1.2-.9-2-.8-.2 0-.3.1-.4.2-.2.1-.1.2-.3.2-.1 0-.2.1-.2.2 0 .3 0 .2 0 .3M54.1-64c0 .1 0 .1 0 .2-.1.1-.1.1-.2.1-.1.1-.1.3-.1.4-.2.1 0 .2 0 .3 0 0 0 .1 0 .2s0 .3.1.4c.1.2.3.4.4.5.2.1.4.6.6.6.2 0 .4-.1.5-.1.2 0 .4 0 .6-.1.2-.1.1-.3.3-.5.1-.1.3 0 .4-.1.2-.1.3-.3.4-.5 0-.1 0-.1 0-.2s.1-.2.1-.3c0-.1-.1-.1-.1-.2s0-.2 0-.3c0-.2 0-.4-.1-.5-.4-.7-1.2-.9-2-.8-.2 0-.3.1-.4.2-.2.1-.1.2-.3.2-.1 0-.2.1-.2.2 0 .3 0 .2 0 .3M46.5-64c0 .1 0 .1 0 .2-.1.1-.1.1-.2.1-.1.1-.1.3-.1.4-.2.1 0 .2 0 .3 0 0 0 .1 0 .2s0 .3.1.4c.1.2.3.4.4.5.2.1.4.6.6.6.2 0 .4-.1.5-.1.2 0 .4 0 .6-.1.2-.1.1-.3.3-.5.1-.1.3 0 .4-.1.2-.1.3-.3.4-.5 0-.1 0-.1 0-.2s.1-.2.1-.3c0-.1-.1-.1-.1-.2s0-.2 0-.3c0-.2 0-.4-.1-.5-.4-.7-1.2-.9-2-.8-.2 0-.3.1-.4.2-.2.1-.1.2-.3.2-.1 0-.2.1-.2.2 0 .3 0 .2 0 .3M38.8-64c0 .1 0 .1 0 .2-.1.1-.1.1-.2.1-.1.1-.1.3-.1.4-.2.1 0 .2 0 .3 0 0 0 .1 0 .2s0 .3.1.4c.1.2.3.4.4.5.2.1.4.6.6.6.2 0 .4-.1.5-.1.2 0 .4 0 .6-.1.2-.1.1-.3.3-.5.1-.1.3 0 .4-.1.2-.1.3-.3.4-.5 0-.1 0-.1 0-.2s.1-.2.1-.3c0-.1-.1-.1-.1-.2s0-.2 0-.3c0-.2 0-.4-.1-.5-.4-.7-1.2-.9-2-.8-.2 0-.3.1-.4.2-.2.1-.1.2-.3.2-.1 0-.2.1-.2.2 0 .3 0 .2 0 .3M31.1-64c0 .1 0 .1 0 .2-.1.1-.1.1-.2.1-.1.1-.1.3-.1.4-.2.1 0 .2 0 .3 0 0 0 .1 0 .2s0 .3.1.4c.1.2.3.4.4.5.2.1.4.6.6.6.2 0 .4-.1.5-.1.2 0 .4 0 .6-.1.2-.1.1-.3.3-.5.1-.1.3 0 .4-.1.2-.1.3-.3.4-.5 0-.1 0-.1 0-.2s.1-.2.1-.3c0-.1-.1-.1-.1-.2s0-.2 0-.3c0-.2 0-.4-.1-.5-.4-.7-1.2-.9-2-.8-.2 0-.3.1-.4.2-.2.1-.1.2-.3.2-.1 0-.2.1-.2.2 0 .3 0 .2 0 .3M23.5-64c0 .1 0 .1 0 .2-.1.1-.1.1-.2.1-.1.1-.1.3-.1.4-.2.1 0 .2 0 .3 0 0 0 .1 0 .2s0 .3.1.4c.1.2.3.4.4.5.2.1.4.6.6.6.2 0 .4-.1.5-.1.2 0 .4 0 .6-.1.2-.1.1-.3.3-.5.1-.1.3 0 .4-.1.2-.1.3-.3.4-.5 0-.1 0-.1 0-.2s.1-.2.1-.3c0-.1-.1-.1-.1-.2s0-.2 0-.3c0-.2 0-.4-.1-.5-.4-.7-1.2-.9-2-.8-.2 0-.3.1-.4.2-.2.1-.1.2-.3.2-.1 0-.2.1-.2.2 0 .3 0 .2 0 .3M15.8-64c0 .1 0 .1 0 .2-.1.1-.1.1-.2.1-.1.1-.1.3-.1.4-.2.1 0 .2 0 .3 0 0 0 .1 0 .2s0 .3.1.4c.1.2.3.4.4.5.2.1.4.6.6.6.2 0 .4-.1.5-.1.2 0 .4 0 .6-.1.2-.1.1-.3.3-.5.1-.1.3 0 .4-.1.2-.1.3-.3.4-.5 0-.1 0-.1 0-.2s.1-.2.1-.3c0-.1-.1-.1-.1-.2s0-.2 0-.3c0-.2 0-.4-.1-.5-.4-.7-1.2-.9-2-.8-.2 0-.3.1-.4.2-.2.1-.1.2-.3.2-.1 0-.2.1-.2.2 0 .3 0 .2 0 .3M8.2-64c0 .1 0 .1 0 .2-.1.1-.2.1-.2.1-.1.1-.1.3-.1.4-.2.1 0 .2 0 .3 0 0 0 .1 0 .2s0 .3.1.4c0 .2.2.4.3.5.2.1.4.6.6.6.2 0 .4-.1.5-.1.2 0 .4 0 .6-.1.2-.1.1-.3.3-.5.1-.1.3 0 .4-.1.2-.1.3-.3.4-.5 0-.1 0-.1 0-.2s.1-.2.1-.3c0-.1-.1-.1-.1-.2s0-.2 0-.3c0-.2 0-.4-.1-.5-.4-.7-1.2-.9-2-.8-.2 0-.3.1-.4.2-.2.1-.1.2-.3.2-.1 0-.2.1-.2.2.1.3.1.2.1.3-.1 0-.1 0 0 0M.5-64c0 .1 0 .1 0 .2-.1.1-.1.1-.2.1-.1.1-.1.3-.1.4-.2.1 0 .2 0 .3 0 0 0 .1 0 .2s0 .3.1.4c.1.2.3.4.4.5.2.1.4.6.6.6.2 0 .4-.1.5-.1.2 0 .4 0 .6-.1.2-.1.1-.3.3-.5.1 0 .3.1.4 0 .2-.1.3-.3.4-.5 0-.1 0-.1 0-.2s.1-.2.1-.3c0-.1-.1-.1-.1-.2s0-.2 0-.3c0-.2 0-.4-.1-.5-.4-.7-1.2-.9-2-.8-.2 0-.3.1-.4.2-.2.1-.1.2-.3.2-.1 0-.2.1-.2.2 0 .2 0 .1 0 .2M69.4-56.3c0 .1 0 .1 0 .2-.1.1-.1.1-.2.1-.1.1-.1.3-.1.4-.2.1 0 .2 0 .3 0 0 0 .1 0 .2s0 .3.1.4c.1.2.3.4.4.5.2.1.4.6.6.6.2 0 .4-.1.5-.1.2 0 .4 0 .6-.1.2-.1.1-.3.3-.5.1-.1.3 0 .4-.1.2-.1.3-.3.4-.5 0-.1 0-.1 0-.2s.1-.2.1-.3c0-.1-.1-.1-.1-.2s0-.2 0-.3c0-.2 0-.4-.1-.5-.4-.7-1.2-.9-2-.8-.2 0-.3.1-.4.2-.2.1-.1.2-.3.2-.1 0-.2.1-.2.2 0 .2 0 .2 0 .3M61.8-56.3c0 .1 0 .1 0 .2-.1.1-.1.1-.2.1-.1.1-.1.3-.1.4-.2.1 0 .2 0 .3 0 0 0 .1 0 .2s0 .3.1.4c.1.2.3.4.4.5.2.1.4.6.6.6.2 0 .4-.1.5-.1.2 0 .4 0 .6-.1.2-.1.1-.3.3-.5.1-.1.3 0 .4-.1.2-.1.3-.3.4-.5 0-.1 0-.1 0-.2s.1-.2.1-.3c0-.1-.1-.1-.1-.2s0-.2 0-.3c0-.2 0-.4-.1-.5-.4-.7-1.2-.9-2-.8-.2 0-.3.1-.4.2-.2.1-.1.2-.3.2-.1 0-.2.1-.2.2 0 .2 0 .2 0 .3M54.1-56.3c0 .1 0 .1 0 .2-.1 0-.1 0-.2.1s-.1.3-.1.4c-.2.1 0 .2 0 .3 0 0 0 .1 0 .2s0 .3.1.4c.1.2.3.4.4.5.2.1.4.6.6.6.2 0 .4-.1.5-.1.2 0 .4 0 .6-.1.2-.1.1-.3.3-.5.1-.1.3 0 .4-.1.2-.1.3-.3.4-.5 0-.1 0-.1 0-.2s.1-.2.1-.3c0-.1-.1-.1-.1-.2s0-.2 0-.3c0-.2 0-.4-.1-.5-.4-.7-1.2-.9-2-.8-.2 0-.3.1-.4.2-.2.1-.1.2-.3.2-.1 0-.2.1-.2.2 0 .2 0 .2 0 .3M46.5-56.3c0 .1 0 .1 0 .2-.1.1-.1.1-.2.1-.1.1-.1.3-.1.4-.2.1 0 .2 0 .3 0 0 0 .1 0 .2s0 .3.1.4c.1.2.3.4.4.5.2.1.4.6.6.6.2 0 .4-.1.5-.1.2 0 .4 0 .6-.1.2-.1.1-.3.3-.5.1-.1.3 0 .4-.1.2-.1.3-.3.4-.5 0-.1 0-.1 0-.2s.1-.2.1-.3c0-.1-.1-.1-.1-.2s0-.2 0-.3c0-.2 0-.4-.1-.5-.4-.7-1.2-.9-2-.8-.2 0-.3.1-.4.2-.2.1-.1.2-.3.2-.1 0-.2.1-.2.2 0 .2 0 .2 0 .3M38.8-56.3c0 .1 0 .1 0 .2-.1.1-.1.1-.2.1-.1.1-.1.3-.1.4-.2.1 0 .2 0 .3 0 0 0 .1 0 .2s0 .3.1.4c.1.2.3.4.4.5.2.1.4.6.6.6.2 0 .4-.1.5-.1.2 0 .4 0 .6-.1.2-.1.1-.3.3-.5.1-.1.3 0 .4-.1.2-.1.3-.3.4-.5 0-.1 0-.1 0-.2s.1-.2.1-.3c0-.1-.1-.1-.1-.2s0-.2 0-.3c0-.2 0-.4-.1-.5-.4-.7-1.2-.9-2-.8-.2 0-.3.1-.4.2-.2.1-.1.2-.3.2-.1 0-.2.1-.2.2 0 .2 0 .2 0 .3M31.1-56.3c0 .1 0 .1 0 .2-.1.1-.1.1-.2.1-.1.1-.1.3-.1.4-.2.1 0 .2 0 .3 0 0 0 .1 0 .2s0 .3.1.4c.1.2.3.4.4.5.2.1.4.6.6.6.2 0 .4-.1.5-.1.2 0 .4 0 .6-.1.2-.1.1-.3.3-.5.1-.1.3 0 .4-.1.2-.1.3-.3.4-.5 0-.1 0-.1 0-.2s.1-.2.1-.3c0-.1-.1-.1-.1-.2s0-.2 0-.3c0-.2 0-.4-.1-.5-.4-.7-1.2-.9-2-.8-.2 0-.3.1-.4.2-.2.1-.1.2-.3.2-.1 0-.2.1-.2.2 0 .2 0 .2 0 .3M23.5-56.3c0 .1 0 .1 0 .2-.1.1-.1.1-.2.1-.1.1-.1.3-.1.4-.2.1 0 .2 0 .3 0 0 0 .1 0 .2s0 .3.1.4c.1.2.3.4.4.5.2.1.4.6.6.6.2 0 .4-.1.5-.1.2 0 .4 0 .6-.1.2-.1.1-.3.3-.5.1-.1.3 0 .4-.1.2-.1.3-.3.4-.5 0-.1 0-.1 0-.2s.1-.2.1-.3c0-.1-.1-.1-.1-.2s0-.2 0-.3c0-.2 0-.4-.1-.5-.4-.7-1.2-.9-2-.8-.2 0-.3.1-.4.2-.2.1-.1.2-.3.2-.1 0-.2.1-.2.2 0 .2 0 .2 0 .3M15.8-56.3c0 .1 0 .1 0 .2-.1.1-.1.1-.2.1-.1.1-.1.3-.1.4-.2.1 0 .2 0 .3 0 0 0 .1 0 .2s0 .3.1.4c.1.2.3.4.4.5.2.1.4.6.6.6.2 0 .4-.1.5-.1.2 0 .4 0 .6-.1.2-.1.1-.3.3-.5.1-.1.3 0 .4-.1.2-.1.3-.3.4-.5 0-.1 0-.1 0-.2s.1-.2.1-.3c0-.1-.1-.1-.1-.2s0-.2 0-.3c0-.2 0-.4-.1-.5-.4-.7-1.2-.9-2-.8-.2 0-.3.1-.4.2-.2.1-.1.2-.3.2-.1 0-.2.1-.2.2 0 .2 0 .2 0 .3M8.2-56.3c0 .1 0 .1 0 .2-.1 0-.2 0-.2.1-.1.1-.1.3-.1.4-.2.1 0 .2 0 .3 0 0 0 .1 0 .2s0 .3.1.4c.1.2.3.4.4.5.2.1.4.6.6.6.2 0 .4-.1.5-.1.2 0 .4 0 .6-.1.2-.1.1-.3.3-.5.1-.1.3 0 .4-.1.2-.1.3-.3.4-.5 0-.1 0-.1 0-.2s.1-.2.1-.3c0-.1-.1-.1-.1-.2s0-.2 0-.3c0-.2 0-.4-.1-.5-.4-.7-1.2-.9-2-.8-.2 0-.3.1-.4.2-.2.1-.1.2-.3.2-.1 0-.2.1-.2.2 0 .2 0 .2 0 .3-.1 0-.1 0 0 0M.5-56.3c0 .1 0 .1 0 .2-.1.1-.1.1-.2.1-.1.1-.1.3-.1.4-.2.1 0 .2 0 .3 0 0 0 .1 0 .2s0 .3.1.4c.1.2.3.4.4.5.2.1.4.6.6.6.2 0 .4-.1.5-.1.2 0 .4 0 .6-.1.2-.1.1-.3.3-.5.1-.1.3 0 .4-.1.2-.1.3-.3.4-.5 0-.1 0-.1 0-.2s.1-.2.1-.3c0-.1-.1-.1-.1-.2s0-.2 0-.3c0-.2 0-.4-.1-.5-.4-.7-1.2-.9-2-.8-.2 0-.3.1-.4.2-.2.1-.1.2-.3.2-.1 0-.2.1-.2.2 0 .2 0 .2 0 .3M69.4-48.7c0 .1 0 .1 0 .2-.1.1-.1.1-.2.1-.1.1-.1.3-.1.4-.2.1 0 .2 0 .3 0 0 0 .1 0 .2s0 .3.1.4c.1.2.3.4.4.5.2.1.4.6.6.6.2 0 .4-.1.5-.1.2 0 .4 0 .6-.1.2-.1.1-.3.3-.5.1-.1.3 0 .4-.1.2-.1.3-.3.4-.5 0-.1 0-.1 0-.2s.1-.2.1-.3c0-.1-.1-.1-.1-.2s0-.2 0-.3c0-.2 0-.4-.1-.5-.4-.7-1.2-.9-2-.8-.2 0-.3.1-.4.2-.2.1-.1.2-.3.2-.1 0-.2.1-.2.2 0 .3 0 .2 0 .3M61.8-48.7c0 .1 0 .1 0 .2-.1.1-.1.1-.2.1-.1.1-.1.3-.1.4-.2.1 0 .2 0 .3 0 0 0 .1 0 .2s0 .3.1.4c.1.2.3.4.4.5.2.1.4.6.6.6.2 0 .4-.1.5-.1.2 0 .4 0 .6-.1.2-.1.1-.3.3-.5.1-.1.3 0 .4-.1.2-.1.3-.3.4-.5 0-.1 0-.1 0-.2s.1-.2.1-.3c0-.1-.1-.1-.1-.2s0-.2 0-.3c0-.2 0-.4-.1-.5-.4-.7-1.2-.9-2-.8-.2 0-.3.1-.4.2-.2.1-.1.2-.3.2-.1 0-.2.1-.2.2 0 .3 0 .2 0 .3M54.1-48.7c0 .1 0 .1 0 .2-.1.1-.1.1-.2.1-.1.1-.1.3-.1.4-.2.1 0 .2 0 .3 0 0 0 .1 0 .2s0 .3.1.4c.1.2.3.4.4.5.2.1.4.6.6.6.2 0 .4-.1.5-.1.2 0 .4 0 .6-.1.2-.1.1-.3.3-.5.1-.1.3 0 .4-.1.2-.1.3-.3.4-.5 0-.1 0-.1 0-.2s.1-.2.1-.3c0-.1-.1-.1-.1-.2s0-.2 0-.3c0-.2 0-.4-.1-.5-.4-.7-1.2-.9-2-.8-.2 0-.3.1-.4.2-.2.1-.1.2-.3.2-.1 0-.2.1-.2.2 0 .3 0 .2 0 .3M46.5-48.7c0 .1 0 .1 0 .2-.1.1-.1.1-.2.1-.1.1-.1.3-.1.4-.2.1 0 .2 0 .3 0 0 0 .1 0 .2s0 .3.1.4c.1.2.3.4.4.5.2.1.4.6.6.6.2 0 .4-.1.5-.1.2 0 .4 0 .6-.1.2-.1.1-.3.3-.5.1-.1.3 0 .4-.1.2-.1.3-.3.4-.5 0-.1 0-.1 0-.2s.1-.2.1-.3c0-.1-.1-.1-.1-.2s0-.2 0-.3c0-.2 0-.4-.1-.5-.4-.7-1.2-.9-2-.8-.2 0-.3.1-.4.2-.2.1-.1.2-.3.2-.1 0-.2.1-.2.2 0 .3 0 .2 0 .3M38.8-48.7c0 .1 0 .1 0 .2-.1.1-.1.1-.2.1-.1.1-.1.3-.1.4-.2.1 0 .2 0 .3 0 0 0 .1 0 .2s0 .3.1.4c.1.2.3.4.4.5.2.1.4.6.6.6.2 0 .4-.1.5-.1.2 0 .4 0 .6-.1.2-.1.1-.3.3-.5.1-.1.3 0 .4-.1.2-.1.3-.3.4-.5 0-.1 0-.1 0-.2s.1-.2.1-.3c0-.1-.1-.1-.1-.2s0-.2 0-.3c0-.2 0-.4-.1-.5-.4-.7-1.2-.9-2-.8-.2 0-.3.1-.4.2-.2.1-.1.2-.3.2-.1 0-.2.1-.2.2 0 .3 0 .2 0 .3M31.1-48.7c0 .1 0 .1 0 .2-.1.1-.1.1-.2.1-.1.1-.1.3-.1.4-.2.1 0 .2 0 .3 0 0 0 .1 0 .2s0 .3.1.4c.1.2.3.4.4.5.2.1.4.6.6.6.2 0 .4-.1.5-.1.2 0 .4 0 .6-.1.2-.1.1-.3.3-.5.1-.1.3 0 .4-.1.2-.1.3-.3.4-.5 0-.1 0-.1 0-.2s.1-.2.1-.3c0-.1-.1-.1-.1-.2s0-.2 0-.3c0-.2 0-.4-.1-.5-.4-.7-1.2-.9-2-.8-.2 0-.3.1-.4.2-.2.1-.1.2-.3.2-.1 0-.2.1-.2.2 0 .3 0 .2 0 .3M23.5-48.7c0 .1 0 .1 0 .2-.1.1-.1.1-.2.1-.1.1-.1.3-.1.4-.2.1 0 .2 0 .3 0 0 0 .1 0 .2s0 .3.1.4c.1.2.3.4.4.5.2.1.4.6.6.6.2 0 .4-.1.5-.1.2 0 .4 0 .6-.1.2-.1.1-.3.3-.5.1-.1.3 0 .4-.1.2-.1.3-.3.4-.5 0-.1 0-.1 0-.2s.1-.2.1-.3c0-.1-.1-.1-.1-.2s0-.2 0-.3c0-.2 0-.4-.1-.5-.4-.7-1.2-.9-2-.8-.2 0-.3.1-.4.2-.2.1-.1.2-.3.2-.1 0-.2.1-.2.2 0 .3 0 .2 0 .3M15.8-48.7c0 .1 0 .1 0 .2-.1.1-.1.1-.2.1-.1.1-.1.3-.1.4-.2.1 0 .2 0 .3 0 0 0 .1 0 .2s0 .3.1.4c.1.2.3.4.4.5.2.1.4.6.6.6.2 0 .4-.1.5-.1.2 0 .4 0 .6-.1.2-.1.1-.3.3-.5.1-.1.3 0 .4-.1.2-.1.3-.3.4-.5 0-.1 0-.1 0-.2s.1-.2.1-.3c0-.1-.1-.1-.1-.2s0-.2 0-.3c0-.2 0-.4-.1-.5-.4-.7-1.2-.9-2-.8-.2 0-.3.1-.4.2-.2.1-.1.2-.3.2-.1 0-.2.1-.2.2 0 .3 0 .2 0 .3M8.2-48.7c0 .1 0 .1 0 .2-.1.1-.2.1-.2.1-.1.1-.1.3-.1.4-.2.1 0 .2 0 .3 0 0 0 .1 0 .2s0 .3.1.4c.1.2.3.4.4.5.1.2.3.6.5.6s.4-.1.5-.1c.2 0 .4 0 .6-.1.2-.1.1-.3.3-.5.1-.1.3 0 .4-.1.2-.1.3-.3.4-.5 0-.1 0-.1 0-.2s.1-.2.1-.3c0-.1-.1-.1-.1-.2s0-.2 0-.3c0-.2 0-.4-.1-.5-.4-.7-1.2-.9-2-.8-.2 0-.3.1-.4.2-.2.1-.1.2-.3.2-.1 0-.2.1-.2.2.1.3.1.2.1.3-.1 0-.1 0 0 0M.5-48.7c0 .1 0 .1 0 .2-.1.1-.1.1-.2.1-.1.1-.1.3-.1.4-.2.1 0 .2 0 .3 0 0 0 .1 0 .2s0 .3.1.4c.1.2.3.4.4.5.2.2.3.6.6.6.2 0 .4-.1.5-.1.2 0 .4 0 .6-.1.2-.1.1-.3.3-.5.1-.1.3 0 .4-.1.2-.1.3-.3.4-.5 0-.1 0-.1 0-.2s.1-.2.1-.3c0-.1-.1-.1-.1-.2s0-.2 0-.3c0-.2 0-.4-.1-.5-.4-.7-1.2-.9-2-.8-.2 0-.3.1-.4.2-.2.1-.1.2-.3.2-.1 0-.2.1-.2.2 0 .3 0 .2 0 .3M69.4-41c0 .1 0 .1 0 .2-.1.1-.1.1-.2.1-.1.1-.1.3-.1.4-.2.1 0 .2 0 .3 0 0 0 .1 0 .2s0 .3.1.4c.1.2.3.4.4.5.2.1.4.6.6.6.2 0 .4-.1.5-.1.2 0 .4 0 .6-.1.2-.1.1-.3.3-.5.1-.1.3 0 .4-.1.2-.1.3-.3.4-.5 0-.1 0-.1 0-.2s.1-.2.1-.3c0-.1-.1-.1-.1-.2s0-.2 0-.3c0-.2 0-.4-.1-.5-.4-.7-1.2-.9-2-.8-.2 0-.3.1-.4.2-.2.1-.1.2-.3.2-.1 0-.2.1-.2.2 0 .2 0 .2 0 .3M61.8-41c0 .1 0 .1 0 .2-.1.1-.1.1-.2.1-.1.1-.1.3-.1.4-.2.1 0 .2 0 .3 0 0 0 .1 0 .2s0 .3.1.4c.1.2.3.4.4.5.2.1.4.6.6.6.2 0 .4-.1.5-.1.2 0 .4 0 .6-.1.2-.1.1-.3.3-.5.1-.1.3 0 .4-.1.2-.1.3-.3.4-.5 0-.1 0-.1 0-.2s.1-.2.1-.3c0-.1-.1-.1-.1-.2s0-.2 0-.3c0-.2 0-.4-.1-.5-.4-.7-1.2-.9-2-.8-.2 0-.3.1-.4.2-.2.1-.1.2-.3.2-.1 0-.2.1-.2.2 0 .2 0 .2 0 .3M54.1-41c0 .1 0 .1 0 .2-.1.1-.1.1-.2.1-.1.1-.1.3-.1.4-.2.1 0 .2 0 .3 0 0 0 .1 0 .2s0 .3.1.4c.1.2.3.4.4.5.2.1.4.6.6.6.2 0 .4-.1.5-.1.2 0 .4 0 .6-.1.2-.1.1-.3.3-.5.1-.1.3 0 .4-.1.2-.1.3-.3.4-.5 0-.1 0-.1 0-.2s.1-.2.1-.3c0-.1-.1-.1-.1-.2s0-.2 0-.3c0-.2 0-.4-.1-.5-.4-.7-1.2-.9-2-.8-.2 0-.3.1-.4.2-.2.1-.1.2-.3.2-.1 0-.2.1-.2.2 0 .2 0 .2 0 .3M46.5-41c0 .1 0 .1 0 .2-.1.1-.1.1-.2.1-.1.1-.1.3-.1.4-.2.1 0 .2 0 .3 0 0 0 .1 0 .2s0 .3.1.4c.1.2.3.4.4.5.2.1.4.6.6.6.2 0 .4-.1.5-.1.2 0 .4 0 .6-.1.2-.1.1-.3.3-.5.1-.1.3 0 .4-.1.2-.1.3-.3.4-.5 0-.1 0-.1 0-.2s.1-.2.1-.3c0-.1-.1-.1-.1-.2s0-.2 0-.3c0-.2 0-.4-.1-.5-.4-.7-1.2-.9-2-.8-.2 0-.3.1-.4.2-.2.1-.1.2-.3.2-.1 0-.2.1-.2.2 0 .2 0 .2 0 .3M38.8-41c0 .1 0 .1 0 .2-.1.1-.1.1-.2.1-.1.1-.1.3-.1.4-.2.1 0 .2 0 .3 0 0 0 .1 0 .2s0 .3.1.4c.1.2.3.4.4.5.2.1.4.6.6.6.2 0 .4-.1.5-.1.2 0 .4 0 .6-.1.2-.1.1-.3.3-.5.1-.1.3 0 .4-.1.2-.1.3-.3.4-.5 0-.1 0-.1 0-.2s.1-.2.1-.3c0-.1-.1-.1-.1-.2s0-.2 0-.3c0-.2 0-.4-.1-.5-.4-.7-1.2-.9-2-.8-.2 0-.3.1-.4.2-.2.1-.1.2-.3.2-.1 0-.2.1-.2.2 0 .2 0 .2 0 .3M31.1-41c0 .1 0 .1 0 .2-.1.1-.1.1-.2.1-.1.1-.1.3-.1.4-.2.1 0 .2 0 .3 0 0 0 .1 0 .2s0 .3.1.4c.1.2.3.4.4.5.2.1.4.6.6.6.2 0 .4-.1.5-.1.2 0 .4 0 .6-.1.2-.1.1-.3.3-.5.1-.1.3 0 .4-.1.2-.1.3-.3.4-.5 0-.1 0-.1 0-.2s.1-.2.1-.3c0-.1-.1-.1-.1-.2s0-.2 0-.3c0-.2 0-.4-.1-.5-.4-.7-1.2-.9-2-.8-.2 0-.3.1-.4.2-.2.1-.1.2-.3.2-.1 0-.2.1-.2.2 0 .2 0 .2 0 .3M23.5-41c0 .1 0 .1 0 .2-.1.1-.1.1-.2.1-.1.1-.1.3-.1.4-.2.1 0 .2 0 .3 0 0 0 .1 0 .2s0 .3.1.4c.1.2.3.4.4.5.2.1.4.6.6.6.2 0 .4-.1.5-.1.2 0 .4 0 .6-.1.2-.1.1-.3.3-.5.1-.1.3 0 .4-.1.2-.1.3-.3.4-.5 0-.1 0-.1 0-.2s.1-.2.1-.3c0-.1-.1-.1-.1-.2s0-.2 0-.3c0-.2 0-.4-.1-.5-.4-.7-1.2-.9-2-.8-.2 0-.3.1-.4.2-.2.1-.1.2-.3.2-.1 0-.2.1-.2.2 0 .2 0 .2 0 .3M15.8-41c0 .1 0 .1 0 .2-.1.1-.1.1-.2.1-.1.1-.1.3-.1.4-.2.1 0 .2 0 .3 0 0 0 .1 0 .2s0 .3.1.4c.1.2.3.4.4.5.2.1.4.6.6.6.2 0 .4-.1.5-.1.2 0 .4 0 .6-.1.2-.1.1-.3.3-.5.1-.1.3 0 .4-.1.2-.1.3-.3.4-.5 0-.1 0-.1 0-.2s.1-.2.1-.3c0-.1-.1-.1-.1-.2s0-.2 0-.3c0-.2 0-.4-.1-.5-.4-.7-1.2-.9-2-.8-.2 0-.3.1-.4.2-.2.1-.1.2-.3.2-.1 0-.2.1-.2.2 0 .2 0 .2 0 .3M8.2-41c0 .1 0 .1 0 .2-.1 0-.2 0-.2.1-.1.1-.1.3-.1.4-.2.1 0 .2 0 .3 0 0 0 .1 0 .2s0 .3.1.4c.1.2.3.4.4.5.2.1.4.6.6.6.2 0 .4-.1.5-.1.2 0 .4 0 .6-.1.2-.1.1-.3.3-.5.1-.1.3 0 .4-.1.2-.1.3-.3.4-.5 0-.1 0-.1 0-.2s.1-.2.1-.3c0-.1-.1-.1-.1-.2s0-.2 0-.3c0-.2 0-.4-.1-.5-.4-.7-1.2-.9-2-.8-.2 0-.3.1-.4.2-.2.1-.1.2-.3.2-.1 0-.2.1-.2.2 0 .2 0 .2 0 .3-.1 0-.1 0 0 0M.5-41c0 .1 0 .1 0 .2-.1.1-.1.1-.2.1-.1.1-.1.3-.1.4-.2.1 0 .2 0 .3 0 0 0 .1 0 .2s0 .3.1.4c.1.2.3.4.4.5.2.1.4.6.6.6.2 0 .4-.1.5-.1.2 0 .4 0 .6-.1.2-.1.1-.3.3-.5.1 0 .3 0 .4 0 .2-.1.3-.3.4-.5 0-.1 0-.1 0-.2s.1-.2.1-.3c0-.1-.1-.1-.1-.2s0-.2 0-.3c0-.2 0-.4-.1-.5-.4-.7-1.2-.9-2-.8-.2 0-.3.1-.4.2-.2.1-.1.2-.3.2-.1 0-.2.1-.2.2s0 .1 0 .2M69.4-33.4c0 .1 0 .1 0 .2-.1.1-.1.1-.2.1-.1.1-.1.3-.1.4-.2.1 0 .2 0 .3 0 0 0 .1 0 .2s0 .3.1.4c.1.2.3.4.4.5.2.1.4.6.6.6.2 0 .4-.1.5-.1.2 0 .4 0 .6-.1.2-.1.1-.3.3-.5.1-.1.3 0 .4-.1.2-.1.3-.3.4-.5 0-.1 0-.1 0-.2s.1-.2.1-.3c0-.1-.1-.1-.1-.2s0-.2 0-.3c0-.2 0-.4-.1-.5-.4-.7-1.2-.9-2-.8-.2 0-.3.1-.4.2-.2.1-.1.2-.3.2-.1 0-.2.1-.2.2 0 .3 0 .2 0 .3M61.8-33.4c0 .1 0 .1 0 .2-.1.1-.1.1-.2.1-.1.1-.1.3-.1.4-.2.1 0 .2 0 .3 0 0 0 .1 0 .2s0 .3.1.4c.1.2.3.4.4.5.2.1.4.6.6.6.2 0 .4-.1.5-.1.2 0 .4 0 .6-.1.2-.1.1-.3.3-.5.1-.1.3 0 .4-.1.2-.1.3-.3.4-.5 0-.1 0-.1 0-.2s.1-.2.1-.3c0-.1-.1-.1-.1-.2s0-.2 0-.3c0-.2 0-.4-.1-.5-.4-.7-1.2-.9-2-.8-.2 0-.3.1-.4.2-.2.1-.1.2-.3.2-.1 0-.2.1-.2.2 0 .3 0 .2 0 .3M54.1-33.4c0 .1 0 .1 0 .2-.1.1-.1.1-.2.1-.1.1-.1.3-.1.4-.2.1 0 .2 0 .3 0 0 0 .1 0 .2s0 .3.1.4c.1.2.3.4.4.5.2.1.4.6.6.6.2 0 .4-.1.5-.1.2 0 .4 0 .6-.1.2-.1.1-.3.3-.5.1-.1.3 0 .4-.1.2-.1.3-.3.4-.5 0-.1 0-.1 0-.2s.1-.2.1-.3c0-.1-.1-.1-.1-.2s0-.2 0-.3c0-.2 0-.4-.1-.5-.4-.7-1.2-.9-2-.8-.2 0-.3.1-.4.2-.2.1-.1.2-.3.2-.1 0-.2.1-.2.2 0 .3 0 .2 0 .3M46.5-33.4c0 .1 0 .1 0 .2-.1.1-.1.1-.2.1-.1.1-.1.3-.1.4-.2.1 0 .2 0 .3 0 0 0 .1 0 .2s0 .3.1.4c.1.2.3.4.4.5.2.1.4.6.6.6.2 0 .4-.1.5-.1.2 0 .4 0 .6-.1.2-.1.1-.3.3-.5.1-.1.3 0 .4-.1.2-.1.3-.3.4-.5 0-.1 0-.1 0-.2s.1-.2.1-.3c0-.1-.1-.1-.1-.2s0-.2 0-.3c0-.2 0-.4-.1-.5-.4-.7-1.2-.9-2-.8-.2 0-.3.1-.4.2-.2.1-.1.2-.3.2-.1 0-.2.1-.2.2 0 .3 0 .2 0 .3M38.8-33.4c0 .1 0 .1 0 .2-.1.1-.1.1-.2.1-.1.1-.1.3-.1.4-.2.1 0 .2 0 .3 0 0 0 .1 0 .2s0 .3.1.4c.1.2.3.4.4.5.2.1.4.6.6.6.2 0 .4-.1.5-.1.2 0 .4 0 .6-.1.2-.1.1-.3.3-.5.1-.1.3 0 .4-.1.2-.1.3-.3.4-.5 0-.1 0-.1 0-.2s.1-.2.1-.3c0-.1-.1-.1-.1-.2s0-.2 0-.3c0-.2 0-.4-.1-.5-.4-.7-1.2-.9-2-.8-.2 0-.3.1-.4.2-.2.1-.1.2-.3.2-.1 0-.2.1-.2.2 0 .3 0 .2 0 .3M31.1-33.4c0 .1 0 .1 0 .2-.1.1-.1.1-.2.1-.1.1-.1.3-.1.4-.2.1 0 .2 0 .3 0 0 0 .1 0 .2s0 .3.1.4c.1.2.3.4.4.5.2.1.4.6.6.6.2 0 .4-.1.5-.1.2 0 .4 0 .6-.1.2-.1.1-.3.3-.5.1-.1.3 0 .4-.1.2-.1.3-.3.4-.5 0-.1 0-.1 0-.2s.1-.2.1-.3c0-.1-.1-.1-.1-.2s0-.2 0-.3c0-.2 0-.4-.1-.5-.4-.7-1.2-.9-2-.8-.2 0-.3.1-.4.2-.2.1-.1.2-.3.2-.1 0-.2.1-.2.2 0 .3 0 .2 0 .3M23.5-33.4c0 .1 0 .1 0 .2-.1.1-.1.1-.2.1-.1.1-.1.3-.1.4-.2.1 0 .2 0 .3 0 0 0 .1 0 .2s0 .3.1.4c.1.2.3.4.4.5.2.1.4.6.6.6.2 0 .4-.1.5-.1.2 0 .4 0 .6-.1.2-.1.1-.3.3-.5.1-.1.3 0 .4-.1.2-.1.3-.3.4-.5 0-.1 0-.1 0-.2s.1-.2.1-.3c0-.1-.1-.1-.1-.2s0-.2 0-.3c0-.2 0-.4-.1-.5-.4-.7-1.2-.9-2-.8-.2 0-.3.1-.4.2-.2.1-.1.2-.3.2-.1 0-.2.1-.2.2 0 .3 0 .2 0 .3M15.8-33.4c0 .1 0 .1 0 .2-.1.1-.1.1-.2.1-.1.1-.1.3-.1.4-.2.1 0 .2 0 .3 0 0 0 .1 0 .2s0 .3.1.4c.1.2.3.4.4.5.2.1.4.6.6.6.2 0 .4-.1.5-.1.2 0 .4 0 .6-.1.2-.1.1-.3.3-.5.1-.1.3 0 .4-.1.2-.1.3-.3.4-.5 0-.1 0-.1 0-.2s.1-.2.1-.3c0-.1-.1-.1-.1-.2s0-.2 0-.3c0-.2 0-.4-.1-.5-.4-.7-1.2-.9-2-.8-.2 0-.3.1-.4.2-.2.1-.1.2-.3.2-.1 0-.2.1-.2.2 0 .3 0 .2 0 .3M8.2-33.4c0 .1 0 .1 0 .2-.1.1-.2.1-.2.1-.1.1-.1.3-.1.4-.2.1 0 .2 0 .3 0 0 0 .1 0 .2s0 .3.1.4c.1.2.3.4.4.5.2.1.4.6.6.6.2 0 .4-.1.5-.1.2 0 .4 0 .6-.1.2-.1.1-.3.3-.5.1-.1.3 0 .4-.1.2-.1.3-.3.4-.5 0-.1 0-.1 0-.2s.1-.2.1-.3c0-.1-.1-.1-.1-.2s0-.2 0-.3c0-.2 0-.4-.1-.5-.4-.7-1.2-.9-2-.8-.2 0-.3.1-.4.2-.2.1-.1.2-.3.2-.1 0-.2.1-.2.2 0 .3 0 .2 0 .3-.1 0-.1 0 0 0M.5-33.4c0 .1 0 .1 0 .2-.1.1-.1.1-.2.1-.1.1-.1.3-.1.4-.2.1 0 .2 0 .3 0 0 0 .1 0 .2s0 .3.1.4c.1.2.3.4.4.5.2.1.4.6.6.6.2 0 .4-.1.5-.1.2 0 .4 0 .6-.1.2-.1.1-.3.3-.5.1-.1.3 0 .4-.1.2-.1.3-.3.4-.5 0-.1 0-.1 0-.2s.1-.2.1-.3c0-.1-.1-.1-.1-.2s0-.2 0-.3c0-.2 0-.4-.1-.5-.4-.7-1.2-.9-2-.8-.2 0-.3.1-.4.2-.2.1-.1.2-.3.2-.1 0-.2.1-.2.2 0 .3 0 .2 0 .3M69.4-25.7c0 .1 0 .1 0 .2-.1.1-.1.1-.2.1-.1.1-.1.3-.1.4-.2.1 0 .2 0 .3 0 0 0 .1 0 .2s0 .3.1.4c.1.2.3.4.4.5.2.1.4.6.6.6.2 0 .4-.1.5-.1.2 0 .4 0 .6-.1.2-.1.1-.3.3-.5.1-.1.3 0 .4-.1.2-.1.3-.3.4-.5 0-.1 0-.1 0-.2s.1-.2.1-.3c0-.1-.1-.1-.1-.2s0-.2 0-.3c0-.2 0-.4-.1-.5-.4-.7-1.2-.9-2-.8-.2 0-.3.1-.4.2-.2.1-.1.2-.3.2-.1 0-.2.1-.2.2 0 .2 0 .2 0 .3M61.8-25.7c0 .1 0 .1 0 .2-.1.1-.1.1-.2.1-.1.1-.1.3-.1.4-.2.1 0 .2 0 .3 0 0 0 .1 0 .2s0 .3.1.4c.1.2.3.4.4.5.2.1.4.6.6.6.2 0 .4-.1.5-.1.2 0 .4 0 .6-.1.2-.1.1-.3.3-.5.1-.1.3 0 .4-.1.2-.1.3-.3.4-.5 0-.1 0-.1 0-.2s.1-.2.1-.3c0-.1-.1-.1-.1-.2s0-.2 0-.3c0-.2 0-.4-.1-.5-.4-.7-1.2-.9-2-.8-.2 0-.3.1-.4.2-.2.1-.1.2-.3.2-.1 0-.2.1-.2.2 0 .2 0 .2 0 .3M54.1-25.7c0 .1 0 .1 0 .2-.1.1-.1.1-.2.1-.1.1-.1.3-.1.4-.2.1 0 .2 0 .3 0 0 0 .1 0 .2s0 .3.1.4c.1.2.3.4.4.5.2.1.4.6.6.6.2 0 .4-.1.5-.1.2 0 .4 0 .6-.1.2-.1.1-.3.3-.5.1-.1.3 0 .4-.1.2-.1.3-.3.4-.5 0-.1 0-.1 0-.2s.1-.2.1-.3c0-.1-.1-.1-.1-.2s0-.2 0-.3c0-.2 0-.4-.1-.5-.4-.7-1.2-.9-2-.8-.2 0-.3.1-.4.2-.2.1-.1.2-.3.2-.1 0-.2.1-.2.2 0 .2 0 .2 0 .3M46.5-25.7c0 .1 0 .1 0 .2-.1.1-.1.1-.2.1-.1.1-.1.3-.1.4-.2.1 0 .2 0 .3 0 0 0 .1 0 .2s0 .3.1.4c.1.2.3.4.4.5.2.1.4.6.6.6.2 0 .4-.1.5-.1.2 0 .4 0 .6-.1.2-.1.1-.3.3-.5.1-.1.3 0 .4-.1.2-.1.3-.3.4-.5 0-.1 0-.1 0-.2s.1-.2.1-.3c0-.1-.1-.1-.1-.2s0-.2 0-.3c0-.2 0-.4-.1-.5-.4-.7-1.2-.9-2-.8-.2 0-.3.1-.4.2-.2.1-.1.2-.3.2-.1 0-.2.1-.2.2 0 .2 0 .2 0 .3M38.8-25.7c0 .1 0 .1 0 .2-.1.1-.1.1-.2.1-.1.1-.1.3-.1.4-.2.1 0 .2 0 .3 0 0 0 .1 0 .2s0 .3.1.4c.1.2.3.4.4.5.2.1.4.6.6.6.2 0 .4-.1.5-.1.2 0 .4 0 .6-.1.2-.1.1-.3.3-.5.1-.1.3 0 .4-.1.2-.1.3-.3.4-.5 0-.1 0-.1 0-.2s.1-.2.1-.3c0-.1-.1-.1-.1-.2s0-.2 0-.3c0-.2 0-.4-.1-.5-.4-.7-1.2-.9-2-.8-.2 0-.3.1-.4.2-.2.1-.1.2-.3.2-.1 0-.2.1-.2.2 0 .2 0 .2 0 .3M31.1-25.7c0 .1 0 .1 0 .2-.1.1-.1.1-.2.1-.1.1-.1.3-.1.4-.2.1 0 .2 0 .3 0 0 0 .1 0 .2s0 .3.1.4c.1.2.3.4.4.5.2.1.4.6.6.6.2 0 .4-.1.5-.1.2 0 .4 0 .6-.1.2-.1.1-.3.3-.5.1-.1.3 0 .4-.1.2-.1.3-.3.4-.5 0-.1 0-.1 0-.2s.1-.2.1-.3c0-.1-.1-.1-.1-.2s0-.2 0-.3c0-.2 0-.4-.1-.5-.4-.7-1.2-.9-2-.8-.2 0-.3.1-.4.2-.2.1-.1.2-.3.2-.1 0-.2.1-.2.2 0 .2 0 .2 0 .3M23.5-25.7c0 .1 0 .1 0 .2-.1.1-.1.1-.2.1-.1.1-.1.3-.1.4-.2.1 0 .2 0 .3 0 0 0 .1 0 .2s0 .3.1.4c.1.2.3.4.4.5.2.1.4.6.6.6.2 0 .4-.1.5-.1.2 0 .4 0 .6-.1.2-.1.1-.3.3-.5.1-.1.3 0 .4-.1.2-.1.3-.3.4-.5 0-.1 0-.1 0-.2s.1-.2.1-.3c0-.1-.1-.1-.1-.2s0-.2 0-.3c0-.2 0-.4-.1-.5-.4-.7-1.2-.9-2-.8-.2 0-.3.1-.4.2-.2.1-.1.2-.3.2-.1 0-.2.1-.2.2 0 .2 0 .2 0 .3M15.8-25.7c0 .1 0 .1 0 .2-.1.1-.1.1-.2.1-.1.1-.1.3-.1.4-.2.1 0 .2 0 .3 0 0 0 .1 0 .2s0 .3.1.4c.1.2.3.4.4.5.2.1.4.6.6.6.2 0 .4-.1.5-.1.2 0 .4 0 .6-.1.2-.1.1-.3.3-.5.1-.1.3 0 .4-.1.2-.1.3-.3.4-.5 0-.1 0-.1 0-.2s.1-.2.1-.3c0-.1-.1-.1-.1-.2s0-.2 0-.3c0-.2 0-.4-.1-.5-.4-.7-1.2-.9-2-.8-.2 0-.3.1-.4.2-.2.1-.1.2-.3.2-.1 0-.2.1-.2.2 0 .2 0 .2 0 .3M8.2-25.7c0 .1 0 .1 0 .2-.1.1-.2 0-.2.1-.1.1-.1.3-.1.4-.2.1 0 .2 0 .3 0 0 0 .1 0 .2s0 .3.1.4c0 .1.2.3.3.5.2.1.4.6.6.6.2 0 .4-.1.5-.1.2 0 .4 0 .6-.1.2-.1.1-.3.3-.5.1-.1.3 0 .4-.1.2-.1.3-.3.4-.5 0-.1 0-.1 0-.2s.1-.2.1-.3c0-.1-.1-.1-.1-.2s0-.2 0-.3c0-.2 0-.4-.1-.5-.4-.7-1.2-.9-2-.8-.2 0-.3.1-.4.2-.2.1-.1.2-.3.2-.1 0-.2.1-.2.2.1.2.1.2.1.3-.1 0-.1 0 0 0M.5-25.7c0 .1 0 .1 0 .2-.1.1-.1.1-.2.1-.1.1-.1.3-.1.4-.2.1 0 .2 0 .3 0 0 0 .1 0 .2s0 .3.1.4c.1.2.3.4.4.5.2.1.3.5.6.6.2 0 .4-.1.5-.1.2 0 .4 0 .6-.1.2-.1.1-.3.3-.5.1-.1.3 0 .4-.1.2-.1.3-.3.4-.5 0-.1 0-.1 0-.2s.1-.2.1-.3c0-.1-.1-.1-.1-.2s0-.2 0-.3c0-.2 0-.4-.1-.5-.4-.7-1.2-.9-2-.8-.2 0-.3.1-.4.2-.2.1-.1.2-.3.2-.1 0-.2.1-.2.2 0 .2 0 .2 0 .3M69.4-18.1c0 .1 0 .1 0 .2-.1.1-.1.1-.2.1-.1.1-.1.3-.1.4-.2.1 0 .2 0 .3 0 0 0 .1 0 .2s0 .3.1.4c.1.2.3.4.4.5.2.1.4.6.6.6.2 0 .4-.1.5-.1.2 0 .4 0 .6-.1.2-.1.1-.3.3-.5.1-.1.3 0 .4-.1.2-.1.3-.3.4-.5 0-.1 0-.1 0-.2s.1-.2.1-.3c0-.1-.1-.1-.1-.2s0-.2 0-.3c0-.2 0-.4-.1-.5-.4-.7-1.2-.9-2-.8-.2 0-.3.1-.4.2-.2.1-.1.2-.3.2-.1 0-.2.1-.2.2 0 .3 0 .2 0 .3 0 .1 0 0 0 0M61.8-18.1c0 .1 0 .1 0 .2-.1.1-.1.1-.2.1-.1.1-.1.3-.1.4-.2.1 0 .2 0 .3 0 0 0 .1 0 .2s0 .3.1.4c.1.2.3.4.4.5.2.1.4.6.6.6.2 0 .4-.1.5-.1.2 0 .4 0 .6-.1.2-.1.1-.3.3-.5.1-.1.3 0 .4-.1.2-.1.3-.3.4-.5 0-.1 0-.1 0-.2s.1-.2.1-.3c0-.1-.1-.1-.1-.2s0-.2 0-.3c0-.2 0-.4-.1-.5-.4-.7-1.2-.9-2-.8-.2 0-.3.1-.4.2-.2.1-.1.2-.3.2-.1 0-.2.1-.2.2 0 .3 0 .2 0 .3 0 .1 0 0 0 0M54.1-18.1c0 .1 0 .1 0 .2-.1.1-.1.1-.2.1-.1.1-.1.3-.1.4-.2.1 0 .2 0 .3 0 0 0 .1 0 .2s0 .3.1.4c.1.2.3.4.4.5.2.1.4.6.6.6.2 0 .4-.1.5-.1.2 0 .4 0 .6-.1.2-.1.1-.3.3-.5.1-.1.3 0 .4-.1.2-.1.3-.3.4-.5 0-.1 0-.1 0-.2s.1-.2.1-.3c0-.1-.1-.1-.1-.2s0-.2 0-.3c0-.2 0-.4-.1-.5-.4-.7-1.2-.9-2-.8-.2 0-.3.1-.4.2-.2.1-.1.2-.3.2-.1 0-.2.1-.2.2 0 .3 0 .2 0 .3 0 .1 0 0 0 0M46.5-18.1c0 .1 0 .1 0 .2-.1.1-.1.1-.2.1-.1.1-.1.3-.1.4-.2.1 0 .2 0 .3 0 0 0 .1 0 .2s0 .3.1.4c.1.2.3.4.4.5.2.1.4.6.6.6.2 0 .4-.1.5-.1.2 0 .4 0 .6-.1.2-.1.1-.3.3-.5.1-.1.3 0 .4-.1.2-.1.3-.3.4-.5 0-.1 0-.1 0-.2s.1-.2.1-.3c0-.1-.1-.1-.1-.2s0-.2 0-.3c0-.2 0-.4-.1-.5-.4-.7-1.2-.9-2-.8-.2 0-.3.1-.4.2-.2.1-.1.2-.3.2-.1 0-.2.1-.2.2 0 .3 0 .2 0 .3 0 .1 0 0 0 0M38.8-18.1c0 .1 0 .1 0 .2-.1.1-.1.1-.2.1-.1.1-.1.3-.1.4-.2.1 0 .2 0 .3 0 0 0 .1 0 .2s0 .3.1.4c.1.2.3.4.4.5.2.1.4.6.6.6.2 0 .4-.1.5-.1.2 0 .4 0 .6-.1.2-.1.1-.3.3-.5.1-.1.3 0 .4-.1.2-.1.3-.3.4-.5 0-.1 0-.1 0-.2s.1-.2.1-.3c0-.1-.1-.1-.1-.2s0-.2 0-.3c0-.2 0-.4-.1-.5-.4-.7-1.2-.9-2-.8-.2 0-.3.1-.4.2-.2.1-.1.2-.3.2-.1 0-.2.1-.2.2 0 .3 0 .2 0 .3 0 .1 0 0 0 0M31.1-18.1c0 .1 0 .1 0 .2-.1.1-.1.1-.2.1-.1.1-.1.3-.1.4-.2.1 0 .2 0 .3 0 0 0 .1 0 .2s0 .3.1.4c.1.2.3.4.4.5.2.1.4.6.6.6.2 0 .4-.1.5-.1.2 0 .4 0 .6-.1.2-.1.1-.3.3-.5.1-.1.3 0 .4-.1.2-.1.3-.3.4-.5 0-.1 0-.1 0-.2s.1-.2.1-.3c0-.1-.1-.1-.1-.2s0-.2 0-.3c0-.2 0-.4-.1-.5-.4-.7-1.2-.9-2-.8-.2 0-.3.1-.4.2-.2.1-.1.2-.3.2-.1 0-.2.1-.2.2 0 .3 0 .2 0 .3 0 .1 0 0 0 0M23.5-18.1c0 .1 0 .1 0 .2-.1.1-.1.1-.2.1-.1.1-.1.3-.1.4-.2.1 0 .2 0 .3 0 0 0 .1 0 .2s0 .3.1.4c.1.2.3.4.4.5.2.1.4.6.6.6.2 0 .4-.1.5-.1.2 0 .4 0 .6-.1.2-.1.1-.3.3-.5.1-.1.3 0 .4-.1.2-.1.3-.3.4-.5 0-.1 0-.1 0-.2s.1-.2.1-.3c0-.1-.1-.1-.1-.2s0-.2 0-.3c0-.2 0-.4-.1-.5-.4-.7-1.2-.9-2-.8-.2 0-.3.1-.4.2-.2.1-.1.2-.3.2-.1 0-.2.1-.2.2 0 .3 0 .2 0 .3 0 .1 0 0 0 0M15.8-18.1c0 .1 0 .1 0 .2-.1.1-.1.1-.2.1-.1.1-.1.3-.1.4-.2.1 0 .2 0 .3 0 0 0 .1 0 .2s0 .3.1.4c.1.2.3.4.4.5.2.1.4.6.6.6.2 0 .4-.1.5-.1.2 0 .4 0 .6-.1.2-.1.1-.3.3-.5.1-.1.3 0 .4-.1.2-.1.3-.3.4-.5 0-.1 0-.1 0-.2s.1-.2.1-.3c0-.1-.1-.1-.1-.2s0-.2 0-.3c0-.2 0-.4-.1-.5-.4-.7-1.2-.9-2-.8-.2 0-.3.1-.4.2-.2.1-.1.2-.3.2-.1 0-.2.1-.2.2 0 .3 0 .2 0 .3 0 .1 0 0 0 0M8.2-18.1c0 .1 0 .1 0 .2-.1.1-.2.1-.2.1-.1.1-.1.3-.1.4-.2.1 0 .2 0 .3 0 0 0 .1 0 .2s0 .3.1.4c0 .2.2.4.3.5.2.1.4.6.6.6.2 0 .4-.1.5-.1.2 0 .4 0 .6-.1.2-.1.1-.3.3-.5.1-.1.3 0 .4-.1.2-.1.3-.3.4-.5 0-.1 0-.1 0-.2s.1-.2.1-.3c0-.1-.1-.1-.1-.2s0-.2 0-.3c0-.2 0-.4-.1-.5-.4-.7-1.2-.9-2-.8-.2 0-.3.1-.4.2-.2.1-.1.2-.3.2-.1 0-.2.1-.2.2.1.3.1.2.1.3-.1.1-.1 0 0 0M.5-18.1c0 .1 0 .1 0 .2-.1.1-.1.1-.2.1-.1.1-.1.3-.1.4-.2.1 0 .2 0 .3 0 0 0 .1 0 .2s0 .3.1.4c.1.2.3.4.4.5.2.1.4.6.6.6.2 0 .4-.1.5-.1.2 0 .4 0 .6-.1.2-.1.1-.3.3-.5.1 0 .3.1.4.1.2-.1.3-.3.4-.5 0-.1 0-.1 0-.2s.1-.2.1-.3c0-.1-.1-.1-.1-.2s0-.2 0-.3c0-.2 0-.4-.1-.5-.4-.7-1.2-.9-2-.8-.2 0-.3.1-.4.2-.2.1-.1.2-.3.2-.1 0-.2.1-.2.2s0 0 0 .1M69.4-10.4c0 .1 0 .1 0 .2-.1.1-.1.1-.2.1-.1.1-.1.3-.1.4-.2.1 0 .2 0 .3 0 0 0 .1 0 .2s0 .3.1.4c.1.2.3.4.4.5.2.1.4.6.6.6.2 0 .4-.1.5-.1.2 0 .4 0 .6-.1.2-.1.1-.3.3-.5.1-.1.3 0 .4-.1.2-.1.3-.3.4-.5 0-.1 0-.1 0-.2s.1-.2.1-.3c0-.1-.1-.1-.1-.2s0-.2 0-.3c0-.2 0-.4-.1-.5-.4-.7-1.2-.9-2-.8-.2 0-.3.1-.4.2-.2.1-.1.2-.3.2-.1 0-.2.1-.2.2 0 .2 0 .2 0 .3M61.8-10.4c0 .1 0 .1 0 .2-.1.1-.1.1-.2.1-.1.1-.1.3-.1.4-.2.1 0 .2 0 .3 0 0 0 .1 0 .2s0 .3.1.4c.1.2.3.4.4.5.2.1.4.6.6.6.2 0 .4-.1.5-.1.2 0 .4 0 .6-.1.2-.1.1-.3.3-.4.1-.1.3 0 .4-.1.2-.1.3-.3.4-.5 0-.1 0-.1 0-.2s.1-.2.1-.3c0-.1-.1-.1-.1-.2s0-.2 0-.3c0-.2 0-.4-.1-.5-.4-.7-1.2-.9-2-.8-.2 0-.3.1-.4.2-.2.1-.1.2-.3.2-.1 0-.2.1-.2.2s0 .1 0 .2M54.1-10.4c0 .1 0 .1 0 .2-.1.1-.1.1-.2.1-.1.1-.1.3-.1.4-.2.1 0 .2 0 .3 0 0 0 .1 0 .2s0 .3.1.4c.1.2.3.4.4.5.2.1.4.6.6.6.2 0 .4-.1.5-.1.2 0 .4 0 .6-.1.2-.1.1-.3.3-.5.1-.1.3 0 .4-.1.2-.1.3-.3.4-.5 0-.1 0-.1 0-.2s.1-.2.1-.3c0-.1-.1-.1-.1-.2s0-.2 0-.3c0-.2 0-.4-.1-.5-.4-.7-1.2-.9-2-.8-.2 0-.3.1-.4.2-.2.1-.1.2-.3.2-.1 0-.2.1-.2.2 0 .2 0 .2 0 .3M46.5-10.4c0 .1 0 .1 0 .2-.1.1-.1.1-.2.1-.1.1-.1.3-.1.4-.2.1 0 .2 0 .3 0 0 0 .1 0 .2s0 .3.1.4c.1.2.3.4.4.5.2.1.4.6.6.6.2 0 .4-.1.5-.1.2 0 .4 0 .6-.1.2-.1.1-.3.3-.5.1-.1.3 0 .4-.1.2-.1.3-.3.4-.5 0-.1 0-.1 0-.2s.1-.2.1-.3c0-.1-.1-.1-.1-.2s0-.2 0-.3c0-.2 0-.4-.1-.5-.4-.7-1.2-.9-2-.8-.2 0-.3.1-.4.2-.2.1-.1.2-.3.2-.1 0-.2.1-.2.2 0 .2 0 .2 0 .3M38.8-10.4c0 .1 0 .1 0 .2-.1.1-.1.1-.2.1-.1.1-.1.3-.1.4-.2.1 0 .2 0 .3 0 0 0 .1 0 .2s0 .3.1.4c.1.2.3.4.4.5.2.1.4.6.6.6.2 0 .4-.1.5-.1.2 0 .4 0 .6-.1.2-.1.1-.3.3-.4.1-.1.3 0 .4-.1.2-.1.3-.3.4-.5 0-.1 0-.1 0-.2s.1-.2.1-.3c0-.1-.1-.1-.1-.2s0-.2 0-.3c0-.2 0-.4-.1-.5-.4-.7-1.2-.9-2-.8-.2 0-.3.1-.4.2-.2.1-.1.2-.3.2-.1 0-.2.1-.2.2s0 .1 0 .2M31.1-10.4c0 .1 0 .1 0 .2-.1.1-.1.1-.2.1-.1.1-.1.3-.1.4-.2.1 0 .2 0 .3 0 0 0 .1 0 .2s0 .3.1.4c.1.2.3.4.4.5.2.1.4.6.6.6.2 0 .4-.1.5-.1.2 0 .4 0 .6-.1.2-.1.1-.3.3-.5.1-.1.3 0 .4-.1.2-.1.3-.3.4-.5 0-.1 0-.1 0-.2s.1-.2.1-.3c0-.1-.1-.1-.1-.2s0-.2 0-.3c0-.2 0-.4-.1-.5-.4-.7-1.2-.9-2-.8-.2 0-.3.1-.4.2-.2.1-.1.2-.3.2-.1 0-.2.1-.2.2 0 .2 0 .2 0 .3M23.5-10.4c0 .1 0 .1 0 .2-.1.1-.1.1-.2.1-.1.1-.1.3-.1.4-.2.1 0 .2 0 .3 0 0 0 .1 0 .2s0 .3.1.4c.1.2.3.4.4.5.2.1.4.6.6.6.2 0 .4-.1.5-.1.2 0 .4 0 .6-.1.2-.1.1-.3.3-.5.1-.1.3 0 .4-.1.2-.1.3-.3.4-.5 0-.1 0-.1 0-.2s.1-.2.1-.3c0-.1-.1-.1-.1-.2s0-.2 0-.3c0-.2 0-.4-.1-.5-.4-.7-1.2-.9-2-.8-.2 0-.3.1-.4.2-.2.1-.1.2-.3.2-.1 0-.2.1-.2.2 0 .2 0 .2 0 .3M15.8-10.4c0 .1 0 .1 0 .2-.1.1-.1.1-.2.1-.1.1-.1.3-.1.4-.2.1 0 .2 0 .3 0 0 0 .1 0 .2s0 .3.1.4c.1.2.3.4.4.5.2.1.4.6.6.6.2 0 .4-.1.5-.1.2 0 .4 0 .6-.1.2-.1.1-.3.3-.4.1-.1.3 0 .4-.1.2-.1.3-.3.4-.5 0-.1 0-.1 0-.2s.1-.2.1-.3c0-.1-.1-.1-.1-.2s0-.2 0-.3c0-.2 0-.4-.1-.5-.4-.7-1.2-.9-2-.8-.2 0-.3.1-.4.2-.2.1-.1.2-.3.2-.1 0-.2.1-.2.2s0 .1 0 .2M8.2-10.4c0 .1 0 .1 0 .2-.1.1-.2 0-.2.1-.1.1-.1.3-.1.3-.2.1 0 .2 0 .3 0 0 0 .1 0 .2s0 .3.1.4c0 .2.2.4.3.6.2.1.4.6.6.6.2 0 .4-.1.5-.1.2 0 .4 0 .6-.1.2-.1.1-.3.3-.5.1-.1.3 0 .4-.1.2-.1.3-.3.4-.5 0-.1 0-.1 0-.2s.1-.2.1-.3c0-.1-.1-.1-.1-.2s0-.2 0-.3c0-.2 0-.4-.1-.5-.4-.7-1.2-.9-2-.8-.2 0-.3.1-.4.2-.2.1-.1.2-.3.2-.1 0-.2.1-.2.2.1.2.1.2.1.3-.1 0-.1 0 0 0M.5-10.4c0 .1 0 .1 0 .2-.1.1-.1.1-.2.1 0 .1-.1.3-.1.3-.2.1 0 .2 0 .3 0 0 0 .1 0 .2s0 .3.1.4c.1.2.3.4.4.5.2.2.3.6.6.7.2 0 .4-.1.5-.1.2 0 .4 0 .6-.1.2-.1.1-.3.3-.4.1-.1.3 0 .4-.1.2-.1.3-.3.4-.5 0-.1 0-.1 0-.2s.1-.2.1-.3c0-.1-.1-.1-.1-.2s0-.2 0-.3c0-.2 0-.4-.1-.5-.4-.7-1.2-.9-2-.8-.2 0-.3.1-.4.2-.2.1-.1.2-.3.2-.1 0-.2.1-.2.2s0 .1 0 .2M69.4-2.8c0 .1 0 .1 0 .2-.1.1-.1.1-.2.1-.1.1-.1.3-.1.4-.2.1 0 .2 0 .3 0 0 0 .1 0 .2s0 .3.1.4c.1.2.3.4.4.5.2.2.4.6.6.7.2 0 .4-.1.5-.1.2 0 .4 0 .6-.1.2-.1.1-.3.3-.5.1-.1.3 0 .4-.1.2-.1.3-.3.4-.5 0-.1 0-.1 0-.2s.1-.2.1-.3c0-.1-.1-.1-.1-.2s0-.2 0-.3c0-.2 0-.4-.1-.5-.4-.7-1.2-.9-2-.8-.2 0-.3.1-.4.2-.2.1-.1.2-.3.2-.1 0-.2.1-.2.2 0 .2 0 .1 0 .2M61.8-2.8c0 .1 0 .1 0 .2-.1.1-.1.1-.2.1-.1.1-.1.3-.1.4-.2.1 0 .2 0 .3 0 0 0 .1 0 .2s0 .3.1.4c0 .2.2.4.4.5.2.1.4.6.6.6.2 0 .4-.1.5-.1.2 0 .4 0 .6-.1.2-.1.1-.3.3-.5.1-.1.3 0 .4-.1.2-.1.3-.3.4-.5 0-.1 0-.1 0-.2s.1-.2.1-.3c0-.1-.1-.1-.1-.2s0-.2 0-.3c0-.2 0-.4-.1-.5-.4-.7-1.2-.9-2-.8-.2 0-.3.1-.4.2-.2.1-.1.2-.3.2-.1 0-.2.1-.2.2 0 .3 0 .2 0 .3 0 .1 0 0 0 0M54.1-2.8c0 .1 0 .1 0 .2-.1.1-.1.1-.2.1-.1.1-.1.3-.1.4-.2.1 0 .2 0 .3 0 0 0 .1 0 .2s0 .3.1.4c.1.2.2.4.4.5.2.1.4.6.6.6.2 0 .4-.1.5-.1.2 0 .4 0 .6-.1.2-.1.1-.3.3-.5.1-.1.3 0 .4-.1.2.1.3-.1.4-.3 0-.1 0-.1 0-.2s.1-.2.1-.3c0-.1-.1-.1-.1-.2s0-.2 0-.3c0-.2 0-.4-.1-.5-.4-.7-1.2-.9-2-.8-.2 0-.3.1-.4.2-.2.1-.1.2-.3.2-.1 0-.2.1-.2.2s0 0 0 .1M46.5-2.8c0 .1 0 .1 0 .2-.1.1-.1.1-.2.1-.1.1-.1.3-.1.4-.2.1 0 .2 0 .3 0 0 0 .1 0 .2s0 .3.1.4c.1.2.3.4.4.5.1.2.3.6.5.7.2 0 .4-.1.5-.1.2 0 .4 0 .6-.1.2-.1.1-.3.3-.5.1-.1.3 0 .4-.1.2-.1.3-.3.4-.5 0-.1 0-.1 0-.2s.1-.2.1-.3c0-.1-.1-.1-.1-.2s0-.2 0-.3c0-.2 0-.4-.1-.5-.4-.7-1.2-.9-2-.8-.2 0-.3.1-.4.2-.2.1-.1.2-.3.2-.1 0-.2.1-.2.2.1.2.1.1.1.2M38.8-2.8c0 .1 0 .1 0 .2-.1.1-.1.1-.2.1-.1.1-.1.3-.1.4-.2.1 0 .2 0 .3 0 0 0 .1 0 .2s0 .3.1.4c0 .2.2.4.4.5.2.1.4.6.6.6.2 0 .4-.1.5-.1.2 0 .4 0 .6-.1.2-.1.1-.3.3-.5.1-.1.3 0 .4-.1.2-.1.3-.3.4-.5 0-.1 0-.1 0-.2s.1-.2.1-.3c0-.1-.1-.1-.1-.2s0-.2 0-.3c0-.2 0-.4-.1-.5-.4-.7-1.2-.9-2-.8-.2 0-.3.1-.4.2-.2.1-.1.2-.3.2-.1 0-.2.1-.2.2 0 .3 0 .2 0 .3 0 .1 0 0 0 0M31.1-2.8c0 .1 0 .1 0 .2-.1.1-.1.1-.2.1-.1.1-.1.3-.1.4-.2.1 0 .2 0 .3 0 0 0 .1 0 .2s0 .3.1.4c.1.2.2.4.4.5.2.1.4.6.6.6.2 0 .4-.1.5-.1.2 0 .4 0 .6-.1.2-.1.1-.3.3-.5.1-.1.3 0 .4-.1.2-.1.3-.3.4-.5 0-.1 0-.1 0-.2s.1-.2.1-.3c0-.1-.1-.1-.1-.2s0-.2 0-.3c0-.2 0-.4-.1-.5-.4-.7-1.2-.9-2-.8-.2 0-.3.1-.4.2-.2.1-.1.2-.3.2-.1 0-.2.1-.2.2 0 .3 0 .2 0 .3 0 .1 0 0 0 0M23.5-2.8c0 .1 0 .1 0 .2-.1.1-.1.1-.2.1-.1.1-.1.3-.1.4-.2.1 0 .2 0 .3 0 0 0 .1 0 .2s0 .3.1.4c.1.2.3.4.4.5.1.2.3.6.6.7.2 0 .4-.1.5-.1.2 0 .4 0 .6-.1.2-.1.1-.3.3-.5.1-.1.3 0 .4-.1.2-.1.3-.3.4-.5 0-.1 0-.1 0-.2s.1-.2.1-.3c0-.1-.1-.1-.1-.2s0-.2 0-.3c0-.2 0-.4-.1-.5-.4-.7-1.2-.9-2-.8-.2 0-.3.1-.4.2-.2.1-.1.2-.3.2-.1 0-.2.1-.2.2 0 .2 0 .1 0 .2M15.8-2.8c0 .1 0 .1 0 .2-.1.1-.1.1-.2.1-.1.1-.1.3-.1.4-.2.1 0 .2 0 .3 0 0 0 .1 0 .2s0 .3.1.4c.1.2.2.4.4.5.2.1.4.6.6.6.2 0 .4-.1.5-.1.2 0 .4 0 .6-.1.2-.1.1-.3.3-.5.1-.1.3 0 .4-.1.2-.1.3-.3.4-.5 0-.1 0-.1 0-.2s.1-.2.1-.3c0-.1-.1-.1-.1-.2s0-.2 0-.3c0-.2 0-.4-.1-.5-.4-.7-1.2-.9-2-.8-.2 0-.3.1-.4.2-.2.1-.1.2-.3.2-.1 0-.2.1-.2.2 0 .3 0 .2 0 .3 0 .1 0 0 0 0M8.2-2.8c0 .1 0 .1 0 .2-.1.1-.2.1-.2.1-.1.1-.1.3-.1.4-.2.1 0 .2 0 .3 0 0 0 .1 0 .2s0 .3.1.4c0 .2.2.4.3.5.2.2.4.6.6.7.2 0 .4-.1.5-.1.2 0 .4 0 .6-.1.2-.1.1-.3.3-.5.1-.1.3 0 .4-.1.2-.1.3-.3.4-.5 0-.1 0-.1 0-.2s.1-.2.1-.3c0-.1-.1-.1-.1-.2s0-.2 0-.3c0-.2 0-.4-.1-.5-.4-.7-1.2-.9-2-.8 0 .1-.2.2-.3.2-.2.1-.1.2-.3.3-.1 0-.2.1-.2.2s0 0 0 .1c-.1.1-.1 0 0 0M.5-2.8c0 .1 0 .1 0 .2-.1.1-.1.1-.2.1 0 .1-.1.3-.1.4-.2.1 0 .2 0 .3 0 0 0 .1 0 .2s0 .3.1.4c0 .2.2.4.4.5.2.2.3.6.6.7.2 0 .4-.1.5-.1.2 0 .4 0 .6-.1.2-.1.1-.3.3-.5.1-.1.3 0 .4-.1.2 0 .3-.2.4-.4 0-.1 0-.1 0-.2s.1-.2.1-.3c0-.1-.1-.1-.1-.2s0-.2 0-.3c0-.2 0-.4-.1-.5-.4-.7-1.2-.9-2-.8-.1 0-.2.1-.4.1-.1.1-.1.2-.3.3-.1 0-.2.1-.2.2s0 0 0 .1" class="st2"/></pattern><path d="M287.9 20.4l.1-.2-.1.2c-2.6-1.7-6.2-2.6-9.8-2.6-8.2 0-14 4.1-17.9 9.7-3.8 5.7-5.6 13-5.6 19.6 0 4.7.7 9.1 3.6 13.1 1.4 1.9 4.9 6.6 16 6.6 7.7 0 11.4-2 13.4-3.2l.3-.5c.4-1.7 1.7-9.4 2.2-11.3l-.4-.3c-3.9 3.1-8.1 5.4-13 5.4-3.2 0-5.7-.8-7.4-2.2-1.7-1.5-2.5-3.7-2.5-6.3 0-1 .1-1.9.2-2.9v-.2h.2c7.6-.2 11.4-.3 17.7-.3 2.1 0 4.4 0 7.2 0l.5-.3c.6-2.9 1.3-6.3 1.3-10.4.1-3.7-.3-10.2-6-13.9zm-5 16v.2l-7.4.1-7.3.1.1-.2v-.1c.1-.5.3-1.1.5-1.7.5-1.6 1.2-3.4 2.5-5 .2-.3.5-.6.7-.8 2.3-2.5 4.4-2.9 5.8-2.9 2 0 3.4.8 4.3 2 .2.2.3.4.4.6.5.8.7 1.7.8 2.6.1.3.1.7.1 1 0 1.4-.2 2.8-.5 4.1zm-28.7-8.3l-.5.5-7.3-.2-3.4 15.9c-.5 2-1.5 7-1.5 8.6 0 1.5.5 2.5 1.3 3.1.8.6 1.8.8 2.6.8 2 0 2.7-.6 4.1-1.1l.2.2-1.8 9.1-.6.6c-2.5.5-4.4 1-7 1-6.8 0-11.7-2.3-11.7-10.2 0-3.7 1.5-10.4 2.6-15.4l2.7-12.6-5.7.2-.3-.5 1.7-8.9.5-.3h5.8l2.3-11.7.5-.5c5.8-1.5 7.5-2.2 12.8-4l.3.3-1.8 7.6-1.8 8.5 7.5-.2.2.4-1.7 8.8zm89.9-15l-.4.4h-19.2l-3.1 16 16.8-.5.3.4c-1.4 4.6-1.7 5.9-2.6 9.9l-.4.4h-16l-2.1 11.1-2.7 14.5-.3.3-14 .4-.2-.4 2.4-12.3 3.6-17.4c2.8-13.5 3.6-17.8 6.2-32.5l.4-.4H333l12.8-.3.2.3-1.9 10.1zm27.1 7.8c-2.7-1.9-6.9-2.9-12.8-2.9-2.9 0-5.8.3-8.7.8-2.6.5-4.2.9-5.6 1.3l-.4.4-1.9 9.7.6.4c1.2-.6 3-1.3 5.4-2.1 2.4-.9 4.6-1.3 6.6-1.3 2.9 0 5.2.4 6.7 1.2 1.6.8 2.7 2.7 2.7 4.7 0 .5 0 .9-.1 1.3s-.1.6-.1.8v.2s-.9.1-2 .2c-.7.1-1.5.2-2.5.3-1.6.2-3.5.4-5.1.7-3.9.6-14.8 2.3-18 9.6-3.4 6-2.8 13.9.5 17.8 1.2 1.4 3 2.6 5.4 3.1.1 0 .5.1.6.1 9.4 1.5 16.2-6.7 16.2-6.7l-1 5.1.4.4 10.6-.4.4-.4 6.2-31.2c.1-.7.2-1.4.3-2.3.1-.9.1-1.6.1-2.2 0-3.9-1.8-6.7-4.5-8.6zm-10.8 31.3s-2.5 4-6.2 5.4c-3.7 1.4-6.3.3-7.3-1.1-.8-1.1-2.6-4.6.7-8.5 3.3-4 14.4-4.2 14.4-4.2l-1.6 8.4zm51.3-34.8l-2.6 13.4-.5.5c-.7-.1-1.7-.2-2.8-.2-3.5 0-8.5 1.1-12.3 6.3l-5.5 28-.4.3-11.5.3-.3-.3 9.1-46.8.5-.5 11.5-1.1.5.5-1.3 6.8.6-.5c2.4-2.2 4.5-3.7 6.9-5 2.4-1.3 4.7-2 7.1-2 .2 0 .5 0 .7 0l.3.3zm62.1 11.8c0 2.8-.6 5.8-1.3 8.6l-5.4 27.5-.4.3-12.1.4-.3-.4s6.2-30.4 6.2-31.9c0-1.4-.7-5.1-4.6-5.1-3 0-6.2 3.1-6.2 3.1l-6.6 33.6-.4.3-5.2.2-4.7.2-2.3.1-.1-.2-.1-.2s.9-4.6 2.1-10.4c1.8-9 4.1-20.6 4.1-21.6 0-1.4-.7-5.1-4.6-5.1-3 0-6.2 3.1-6.2 3.1l-6.6 33.6-.4.3-1.9.1-10.3.3-.3-.4 9.1-46.8.5-.5 12.1-1.1.5.5-1.3 6.6s5.8-6.4 13.3-6.6c7-.1 8.4 6.6 8.4 6.6s6.9-6.7 14.3-6.6c3.8.2 10.7 1.8 10.7 11.5zm-253.7-8.3c-2.7-1.9-6.9-2.9-12.8-2.9-2.9 0-5.8.3-8.7.8-2.6.5-4.2.9-5.6 1.3l-.4.4-1.9 9.7.6.4c1.2-.6 3-1.3 5.4-2.1 2.4-.9 4.6-1.3 6.6-1.3 2.9 0 5.2.4 6.7 1.2 1.6.8 2.7 2.7 2.7 4.7 0 .5 0 .9-.1 1.3s-.1.6-.1.8v.2s-1 .1-2 .2c-.7.1-1.5.2-2.5.3-1.6.2-3.5.4-5.1.7-3.9.6-14.7 2.3-18 9.6-3.4 6-2.8 13.9.5 17.8 1.2 1.4 3 2.6 5.4 3.1.1 0 .5.1.6.1 9.4 1.5 16.2-6.7 16.2-6.7l-1 5.1.4.4 10.6-.4.4-.4 6.2-31.2c.1-.7.2-1.4.3-2.3.1-.9.1-1.6.1-2.2 0-3.9-1.8-6.7-4.5-8.6zm-10.9 31.3s-2.5 4-6.2 5.4c-3.7 1.4-6.3.3-7.3-1.1-.8-1.1-2.6-4.6.7-8.5 3.3-4 14.4-4.2 14.4-4.2l-1.6 8.4zm-25.5-24.1l-.5.5-7.3-.2-3.4 15.9c-.5 2-1.5 7-1.5 8.6 0 1.5.5 2.5 1.3 3.1.8.6 1.8.8 2.6.8 2 0 2.7-.6 4.1-1.1l.2.2-1.8 9.1-.6.6c-2.5.5-4.4 1-7 1-6.8 0-11.7-2.3-11.7-10.2 0-3.7 1.5-10.4 2.6-15.4l2.7-12.6-5.7.2-.3-.5 1.7-8.9.5-.3h5.8l2.3-11.7.5-.5c5.8-1.5 7.5-2.2 12.8-4l.3.3-1.8 7.6-1.8 8.5 7.5-.2.2.4-1.7 8.8zM156.4 6.5l-2.2 11.4-.5.2c-.9-1.2-1.4-1.7-2.6-2.7-2.7-2.1-6-3.3-9.3-3.3-2.6 0-4.7.8-6.2 2.1s-2.3 3.3-2.3 5.4c0 4 2.8 6 7.6 8.9l1.9 1.1c4.1 2.7 10.5 6.8 10.5 16.2 0 10.6-6.8 21.3-23.2 21.3-4 0-7.9-.7-11.7-2.1-2.6-1-3.8-1.8-5.3-3l-.1-.7 2.2-11.1.5-.2c1 1.3 2.2 2.3 4.1 3.5 3.9 2.6 7.7 2.9 9.3 2.9 5.8 0 10.3-3.3 10.3-8.4 0-4.6-3.6-6.9-7.4-9.1l-2.6-1.6c-4.1-2.7-9.8-6.4-9.8-15.5 0-3.5 1-8.6 4.1-12.7 4.1-5.5 10.6-7.4 17.1-7.4 8.4 0 13.2 3 15.5 4.4l.1.4zM45.2 49.7c0 3.1-2.1 5.9-5.5 8-3.4 2.1-8.2 3.4-13.5 3.4-5.3 0-10-1.3-13.4-3.4-3.4-2.1-5.4-4.9-5.4-8 0-3.1 2-5.9 5.4-8 3.4-2.1 8.1-3.3 13.4-3.3 5.3 0 10 1.3 13.5 3.3 3.4 2 5.5 4.8 5.5 8zM32.9 18.6c0-3.1 2-5.9 5.4-8 3.4-2.1 8.1-3.3 13.4-3.3 5.3 0 10 1.3 13.5 3.3 3.4 2.1 5.5 4.9 5.5 8 0 3.1-2.1 5.9-5.5 8C61.7 28.7 57 30 51.7 30c-5.3 0-10-1.3-13.4-3.4-3.4-2.1-5.4-4.9-5.4-8zm63.2 31.1c0 3.1-2.1 5.9-5.5 8-3.4 2.1-8.2 3.4-13.5 3.4-5.3 0-10-1.3-13.4-3.4-3.4-2.1-5.4-4.9-5.4-8 0-3.1 2-5.9 5.4-8 3.4-2.1 8.1-3.3 13.4-3.3 5.3 0 10 1.3 13.5 3.3 3.5 2 5.5 4.8 5.5 8zM77.2 31.1c-2.4 0-4.6.2-6.8.6 4.7-3.4 7.6-8 7.6-13.2C78 8.2 66.3 0 51.7 0 37.2 0 25.5 8.2 25.5 18.5c0 5.1 2.9 9.8 7.6 13.2-2.2-.4-4.5-.6-6.9-.6C11.6 31.1 0 39.3 0 49.6s11.6 18.7 26.1 18.7c12.4 0 22.8-6.1 25.6-14.2 2.8 8.2 13 14.2 25.4 14.2 14.6 0 26.4-8.4 26.4-18.7 0-10.3-11.8-18.5-26.3-18.5zM30.5 18.5c0-4.5 3.5-7.7 5.5-9.1C40.1 6.5 45.7 5 51.7 5s11.6 1.6 15.8 4.5c2.1 1.5 5.6 4.6 5.6 9.1 0 7.6-9.9 13.7-21.4 13.7-6 0-11.5-1.6-15.6-4.5-3.6-2.6-5.6-5.9-5.6-9.3zm-4.4 44.9c-6 0-11.5-1.6-15.6-4.5C6.9 56.3 5 53 5 49.6c0-4.5 3.5-7.6 5.5-9.1 4.1-2.9 9.7-4.5 15.7-4.5s11.6 1.6 15.8 4.5c2.1 1.5 5.6 4.6 5.6 9.1-.1 7.6-9.9 13.8-21.5 13.8zM45 36.6c2.1.4 4.4.6 6.7.6 2.4 0 4.6-.2 6.8-.6-3.2 2.3-5.6 5.3-6.7 8.6-1.2-3.3-3.6-6.2-6.8-8.6zm32.1 26.8c-6 0-11.5-1.6-15.6-4.5-3.5-2.5-5.5-5.8-5.5-9.2 0-4.5 3.5-7.6 5.5-9.1 4.1-2.9 9.7-4.5 15.7-4.5s11.6 1.6 15.8 4.5c2.1 1.5 5.6 4.6 5.6 9.1-.1 7.5-10 13.7-21.5 13.7zM492.1 24.9c0 4-2.9 7-6.7 7-3.8 0-6.7-3-6.7-7 0-4.1 2.8-7.1 6.7-7.1 3.8 0 6.7 3.1 6.7 7.1zm-12.5-.1c0 3.4 2.6 6.2 5.8 6.2 3.2 0 5.8-2.8 5.8-6.2 0-1.6-.6-3.3-1.7-4.4-1-1.1-2.6-1.8-4.1-1.8-3.3.1-5.8 2.7-5.8 6.2zm5.5-3.9c.8 0 1.2 0 1.7.2.8.3 1.4 1.1 1.4 2 0 1-.6 1.7-1.6 2l1.6 3.8h-1.1l-1.5-3.6H483.9v3.6h-1v-8h2.2zm-.1 3.5c1 0 1.4-.1 1.7-.3.3-.2.5-.6.5-1.1 0-.6-.3-1-.8-1.2-.3-.1-.7-.2-1.6-.2h-.8v2.7h1z" class="st2"/></svg>