<?xml version="1.0" encoding="utf-8"?>
<!-- Generator: Adobe Illustrator 20.1.0, SVG Export Plug-In . SVG Version: 6.00 Build 0)  -->
<svg version="1.1" id="Layer_1" xmlns="http://www.w3.org/2000/svg" xmlns:xlink="http://www.w3.org/1999/xlink" x="0px" y="0px"
	 viewBox="0 0 171.5 78.5" style="enable-background:new 0 0 171.5 78.5;" xml:space="preserve">
<style type="text/css">
	.st0{fill:#F78F20;}
	.st1{fill:#FFFFFF;}
	.st2{fill:#231F20;}
	.st3{fill:#2677BD;}
	.st4{fill:#15A54A;}
	.st5{fill:#EDBC77;}
	.st6{fill:#761118;}
	.st7{fill:#74411B;}
	.st8{fill:#EF4237;}
	.st9{fill:#F3F2F3;}
	.st10{fill:#76A942;}
	.st11{fill:#15B49A;}
	.st12{fill:#036562;}
	.st13{fill:#FDB716;}
</style>
<g>
	<g>
		<g>
			<g>
				<path class="st2" d="M8.3,60.5v0.2c-0.2,0-0.4,0-0.5,0.1c-0.2,0.1-0.3,0.2-0.3,0.3c0,0.1,0,0.1,0,0.2c0,0.1,0.1,0.2,0.1,0.3
					L9.3,66l1.2-3.2L10,61.3c-0.1-0.3-0.3-0.4-0.5-0.5c-0.1-0.1-0.3-0.1-0.5-0.1v-0.2h3.1v0.2c-0.3,0-0.5,0-0.6,0.1
					c-0.2,0.1-0.3,0.2-0.3,0.4c0,0.1,0,0.1,0,0.2c0,0.1,0.1,0.2,0.1,0.3L13,66l1.4-3.9c0.1-0.2,0.1-0.4,0.2-0.6c0-0.1,0-0.2,0-0.2
					c0-0.2-0.1-0.4-0.3-0.4c-0.1,0-0.3-0.1-0.5-0.1v-0.2h2.3v0.2c-0.2,0-0.4,0.1-0.5,0.1c-0.2,0.1-0.3,0.3-0.4,0.6L14,64.9l-0.5,1.3
					l-0.7,2.1h-0.2L12.1,67l-1.3-3.6L9,68.3H8.9L8,65.9l-1-2.7c-0.4-1.1-0.7-1.8-0.8-2.1c-0.2-0.3-0.4-0.4-0.7-0.4v-0.2H8.3z"/>
				<path class="st2" d="M16.7,68c0.3,0,0.5-0.1,0.6-0.2c0.1-0.1,0.1-0.4,0.1-0.8v-5.4c0-0.2,0-0.4-0.1-0.5C17.3,61,17.2,61,16.9,61
					c0,0-0.1,0-0.1,0c0,0-0.1,0-0.1,0v-0.2c0.2,0,0.4-0.1,0.6-0.2c0.2-0.1,0.4-0.1,0.5-0.1l0.5-0.2l0,0v3.5c0.2-0.3,0.4-0.5,0.6-0.6
					c0.3-0.2,0.7-0.3,1.1-0.3c0.6,0,1,0.3,1.2,0.8c0.1,0.3,0.2,0.6,0.2,1.1V67c0,0.4,0,0.7,0.1,0.8c0.1,0.1,0.3,0.2,0.6,0.2v0.2
					h-2.4V68c0.3,0,0.5-0.1,0.6-0.2c0.1-0.1,0.1-0.4,0.1-0.8v-2.3c0-0.4-0.1-0.7-0.2-0.9c-0.1-0.2-0.4-0.3-0.7-0.3
					c-0.3,0-0.6,0.1-0.9,0.3c-0.3,0.2-0.4,0.3-0.4,0.4V67c0,0.4,0,0.7,0.1,0.8c0.1,0.1,0.3,0.2,0.6,0.2v0.2h-2.5V68z"/>
				<path class="st2" d="M22.9,68c0.4,0,0.7-0.1,0.8-0.2c0.1-0.1,0.2-0.4,0.2-0.8v-2.7c0-0.2,0-0.4-0.1-0.5
					c-0.1-0.2-0.2-0.2-0.4-0.2c0,0-0.1,0-0.1,0c0,0-0.2,0-0.3,0.1v-0.2l0.2-0.1c0.7-0.2,1.1-0.4,1.4-0.5c0.1,0,0.2-0.1,0.2-0.1
					c0,0,0,0.1,0,0.1v4c0,0.4,0.1,0.7,0.2,0.8c0.1,0.1,0.3,0.2,0.7,0.2v0.2h-2.7V68z M23.8,60.5c0.1-0.1,0.3-0.2,0.4-0.2
					c0.2,0,0.3,0.1,0.4,0.2c0.1,0.1,0.2,0.3,0.2,0.4c0,0.2-0.1,0.3-0.2,0.4c-0.1,0.1-0.3,0.2-0.4,0.2c-0.2,0-0.3-0.1-0.4-0.2
					c-0.1-0.1-0.2-0.3-0.2-0.4C23.7,60.7,23.7,60.6,23.8,60.5z"/>
				<path class="st2" d="M29.2,63v0.4H28l0,3.2c0,0.3,0,0.5,0.1,0.6c0.1,0.3,0.3,0.4,0.5,0.4c0.1,0,0.3,0,0.4-0.1
					c0.1-0.1,0.2-0.2,0.3-0.3l0.1,0.1l-0.1,0.2c-0.2,0.3-0.4,0.4-0.6,0.6c-0.2,0.1-0.4,0.2-0.6,0.2c-0.4,0-0.7-0.2-0.9-0.6
					c-0.1-0.2-0.1-0.5-0.1-0.9v-3.4h-0.6c0,0,0,0,0,0c0,0,0,0,0,0c0,0,0-0.1,0-0.1c0,0,0.1-0.1,0.2-0.1c0.3-0.2,0.4-0.4,0.6-0.5
					c0.1-0.1,0.4-0.5,0.8-1.1c0,0,0.1,0,0.1,0c0,0,0,0,0,0.1V63H29.2z"/>
				<path class="st2" d="M33.9,63.4c0.4,0.4,0.6,0.9,0.6,1.6h-3.6c0,0.9,0.2,1.5,0.6,1.9c0.4,0.4,0.8,0.6,1.3,0.6
					c0.4,0,0.7-0.1,1-0.3c0.3-0.2,0.5-0.5,0.7-0.9l0.2,0.1c-0.2,0.5-0.4,0.9-0.9,1.3c-0.4,0.4-0.9,0.6-1.6,0.6
					c-0.7,0-1.3-0.3-1.6-0.8c-0.4-0.5-0.6-1.1-0.6-1.8c0-0.8,0.2-1.4,0.7-2s1-0.8,1.7-0.8C33,62.9,33.5,63.1,33.9,63.4z M31.2,63.9
					c-0.1,0.2-0.2,0.5-0.3,0.8h2.4c0-0.4-0.1-0.7-0.2-0.8c-0.2-0.3-0.5-0.5-0.9-0.5C31.7,63.3,31.4,63.5,31.2,63.9z"/>
				<path class="st2" d="M35.4,68c0.3,0,0.5-0.1,0.6-0.2c0.1-0.1,0.1-0.4,0.1-0.8v-5.4c0-0.2,0-0.4-0.1-0.5C36,61,35.9,61,35.7,61
					c0,0-0.1,0-0.1,0c0,0-0.1,0-0.1,0v-0.2c0.2,0,0.4-0.1,0.6-0.2c0.2-0.1,0.4-0.1,0.5-0.1l0.5-0.2l0,0v3.5c0.2-0.3,0.4-0.5,0.6-0.6
					c0.3-0.2,0.7-0.3,1.1-0.3c0.6,0,1,0.3,1.2,0.8c0.1,0.3,0.2,0.6,0.2,1.1V67c0,0.4,0,0.7,0.1,0.8c0.1,0.1,0.3,0.2,0.6,0.2v0.2
					h-2.4V68c0.3,0,0.5-0.1,0.6-0.2c0.1-0.1,0.1-0.4,0.1-0.8v-2.3c0-0.4-0.1-0.7-0.2-0.9c-0.1-0.2-0.4-0.3-0.7-0.3
					c-0.3,0-0.6,0.1-0.9,0.3c-0.3,0.2-0.4,0.3-0.4,0.4V67c0,0.4,0,0.7,0.1,0.8c0.1,0.1,0.3,0.2,0.6,0.2v0.2h-2.5V68z"/>
				<path class="st2" d="M43.2,62.9v3.6c0,0.3,0,0.5,0.1,0.6c0.1,0.3,0.4,0.4,0.8,0.4c0.3,0,0.5-0.1,0.7-0.3
					c0.1-0.1,0.3-0.2,0.4-0.4v-3.1c0-0.3-0.1-0.5-0.2-0.6c-0.1-0.1-0.3-0.1-0.7-0.2v-0.2h1.8v4c0,0.3,0,0.4,0.1,0.5
					c0.1,0.1,0.3,0.1,0.6,0.1v0.2c-0.2,0.1-0.4,0.1-0.5,0.1c-0.1,0-0.3,0.1-0.5,0.2c-0.1,0-0.3,0.1-0.6,0.2c0,0,0,0,0,0
					c0,0,0,0,0-0.1v-0.9c-0.3,0.3-0.5,0.5-0.7,0.7c-0.3,0.2-0.7,0.3-1,0.3c-0.3,0-0.6-0.1-0.9-0.3c-0.3-0.2-0.4-0.6-0.4-1.2v-2.9
					c0-0.3-0.1-0.5-0.2-0.6c-0.1-0.1-0.3-0.1-0.5-0.1v-0.2H43.2z"/>
				<path class="st2" d="M47.6,68c0.3,0,0.6-0.1,0.7-0.2c0.1-0.1,0.2-0.3,0.2-0.6v-2.5c0-0.4,0-0.6-0.1-0.8
					c-0.1-0.2-0.2-0.2-0.4-0.2c0,0-0.1,0-0.1,0c-0.1,0-0.1,0-0.2,0v-0.2c0.2-0.1,0.4-0.2,0.7-0.2c0.2-0.1,0.4-0.1,0.5-0.2
					c0.2-0.1,0.4-0.2,0.6-0.2c0,0,0,0,0,0c0,0,0,0.1,0,0.1v0.9c0.2-0.3,0.5-0.6,0.7-0.8c0.2-0.2,0.5-0.3,0.7-0.3
					c0.2,0,0.3,0.1,0.5,0.2c0.1,0.1,0.2,0.3,0.2,0.4c0,0.2,0,0.3-0.1,0.4c-0.1,0.1-0.2,0.2-0.3,0.2c-0.1,0-0.3-0.1-0.4-0.2
					c-0.1-0.1-0.3-0.2-0.3-0.2c-0.1,0-0.3,0.1-0.5,0.3c-0.2,0.2-0.3,0.4-0.3,0.7v2.5c0,0.3,0.1,0.5,0.2,0.7c0.1,0.1,0.4,0.2,0.7,0.2
					v0.2h-2.8V68z"/>
				<path class="st2" d="M52.4,66.4h0.2c0.1,0.4,0.2,0.8,0.3,1c0.3,0.4,0.6,0.6,1.2,0.6c0.3,0,0.5-0.1,0.7-0.2
					c0.2-0.2,0.2-0.4,0.2-0.6c0-0.2,0-0.3-0.1-0.5c-0.1-0.1-0.3-0.3-0.5-0.4l-0.6-0.4c-0.5-0.2-0.8-0.5-1-0.7
					c-0.2-0.3-0.3-0.5-0.3-0.9c0-0.4,0.2-0.8,0.5-1c0.3-0.3,0.7-0.4,1.1-0.4c0.2,0,0.4,0,0.7,0.1c0.2,0.1,0.4,0.1,0.4,0.1
					c0.1,0,0.1,0,0.1,0c0,0,0.1,0,0.1-0.1h0.1l0,1.6h-0.2c-0.1-0.4-0.2-0.6-0.3-0.9c-0.2-0.4-0.6-0.6-1-0.6c-0.3,0-0.5,0.1-0.6,0.2
					c-0.2,0.2-0.2,0.4-0.2,0.6c0,0.3,0.3,0.7,0.8,0.9l0.7,0.4c0.8,0.4,1.2,0.9,1.2,1.5c0,0.4-0.2,0.8-0.5,1.1
					c-0.3,0.3-0.8,0.4-1.3,0.4c-0.2,0-0.5,0-0.8-0.1c-0.3-0.1-0.5-0.1-0.5-0.1c0,0-0.1,0-0.1,0c0,0-0.1,0.1-0.1,0.1h-0.1V66.4z"/>
				<path class="st2" d="M59.5,63v0.4h-1.1l0,3.2c0,0.3,0,0.5,0.1,0.6c0.1,0.3,0.3,0.4,0.5,0.4c0.1,0,0.3,0,0.4-0.1
					c0.1-0.1,0.2-0.2,0.3-0.3l0.1,0.1l-0.1,0.2c-0.2,0.3-0.4,0.4-0.6,0.6s-0.4,0.2-0.6,0.2c-0.4,0-0.7-0.2-0.9-0.6
					c-0.1-0.2-0.1-0.5-0.1-0.9v-3.4h-0.6c0,0,0,0,0,0c0,0,0,0,0,0c0,0,0-0.1,0-0.1c0,0,0.1-0.1,0.2-0.1c0.3-0.2,0.4-0.4,0.6-0.5
					c0.1-0.1,0.4-0.5,0.8-1.1c0,0,0.1,0,0.1,0c0,0,0,0,0,0.1V63H59.5z"/>
				<path class="st2" d="M62.6,69.1c-0.3,0.3-0.6,0.6-0.9,0.7l-0.1-0.2c0.4-0.2,0.6-0.4,0.7-0.7c0.1-0.2,0.2-0.4,0.2-0.6
					c0-0.1,0-0.1-0.1-0.1c0,0-0.1,0-0.1,0l-0.4,0c-0.2,0-0.3-0.1-0.4-0.2c-0.1-0.1-0.2-0.3-0.2-0.4c0-0.2,0.1-0.3,0.2-0.4
					c0.1-0.1,0.3-0.2,0.5-0.2c0.2,0,0.4,0.1,0.6,0.3c0.2,0.2,0.3,0.4,0.3,0.8C63,68.4,62.9,68.8,62.6,69.1z"/>
				<path class="st2" d="M66.8,67.9c0.5,0,0.8-0.1,0.9-0.2c0.1-0.1,0.2-0.4,0.2-0.8v-5.1c0-0.4-0.1-0.7-0.2-0.8
					c-0.1-0.1-0.4-0.2-0.9-0.2v-0.2H70c0.9,0,1.7,0.1,2.2,0.4c0.5,0.3,0.8,0.8,0.8,1.5c0,0.5-0.2,1-0.6,1.2c-0.2,0.2-0.5,0.3-1,0.4
					c0.5,0.1,1,0.3,1.4,0.6c0.4,0.3,0.6,0.7,0.6,1.3c0,0.9-0.4,1.5-1.2,1.9c-0.4,0.2-1,0.3-1.6,0.3h-3.8V67.9z M71.1,63.8
					c0.5-0.2,0.7-0.6,0.7-1.2c0-0.7-0.3-1.2-0.8-1.4C70.7,61,70.2,61,69.6,61c-0.2,0-0.4,0-0.4,0.1c-0.1,0-0.1,0.2-0.1,0.3V64l1.1,0
					C70.5,63.9,70.8,63.9,71.1,63.8z M71.5,67.4c0.4-0.2,0.6-0.7,0.6-1.3c0-0.6-0.2-1.1-0.7-1.3c-0.5-0.2-1.1-0.4-1.8-0.4
					c-0.2,0-0.3,0-0.3,0c0,0-0.1,0-0.2,0v2.9c0,0.2,0.1,0.3,0.2,0.4c0.1,0.1,0.4,0.1,0.8,0.1C70.6,67.7,71.1,67.6,71.5,67.4z"/>
				<path class="st2" d="M74.7,68c0.3,0,0.6-0.1,0.7-0.2c0.1-0.1,0.2-0.3,0.2-0.6v-5.5c0-0.2,0-0.4-0.1-0.5
					c-0.1-0.2-0.2-0.2-0.5-0.2c-0.1,0-0.1,0-0.2,0c-0.1,0-0.1,0-0.2,0.1v-0.2c0.5-0.1,1.1-0.3,1.8-0.5c0,0,0,0,0,0c0,0,0,0.1,0,0.1
					v6.8c0,0.3,0.1,0.5,0.2,0.6c0.1,0.1,0.3,0.2,0.7,0.2v0.2h-2.7V68z"/>
				<path class="st2" d="M79.1,65.7c0.3-0.2,1-0.5,2.1-0.9v-0.5c0-0.4,0-0.6-0.1-0.8c-0.1-0.3-0.4-0.4-0.8-0.4c-0.2,0-0.4,0-0.5,0.1
					c-0.2,0.1-0.3,0.2-0.3,0.4c0,0,0,0.1,0,0.2c0,0.1,0,0.2,0,0.2c0,0.2-0.1,0.4-0.2,0.4c-0.1,0-0.2,0.1-0.3,0.1
					c-0.2,0-0.3-0.1-0.4-0.2c-0.1-0.1-0.1-0.2-0.1-0.4c0-0.3,0.2-0.5,0.5-0.8c0.3-0.3,0.8-0.4,1.4-0.4c0.7,0,1.2,0.2,1.5,0.7
					c0.1,0.3,0.2,0.6,0.2,1.1v2.3c0,0.2,0,0.4,0,0.5c0,0.1,0.1,0.2,0.3,0.2c0.1,0,0.2,0,0.2,0c0.1,0,0.2-0.1,0.3-0.2v0.3
					c-0.1,0.1-0.3,0.3-0.4,0.4c-0.2,0.1-0.4,0.2-0.6,0.2c-0.3,0-0.4-0.1-0.6-0.2c-0.1-0.2-0.2-0.4-0.2-0.6c-0.3,0.2-0.5,0.4-0.7,0.6
					c-0.3,0.2-0.7,0.3-1,0.3c-0.3,0-0.6-0.1-0.8-0.3c-0.2-0.2-0.4-0.5-0.4-0.9C78.3,66.5,78.6,66,79.1,65.7z M81.2,65
					c-0.4,0.1-0.8,0.3-1.1,0.5c-0.5,0.3-0.8,0.7-0.8,1.1c0,0.3,0.1,0.6,0.3,0.8c0.1,0.1,0.3,0.2,0.5,0.2c0.2,0,0.5-0.1,0.7-0.2
					c0.2-0.1,0.3-0.3,0.3-0.5V65z"/>
				<path class="st2" d="M87.3,63.2c0.3,0.2,0.5,0.5,0.5,0.8c0,0.1,0,0.2-0.1,0.3c-0.1,0.1-0.2,0.2-0.4,0.2c-0.1,0-0.2,0-0.3-0.1
					c-0.1-0.1-0.2-0.2-0.2-0.4l-0.1-0.3c0-0.2-0.1-0.3-0.3-0.4c-0.1-0.1-0.3-0.1-0.5-0.1c-0.4,0-0.8,0.2-1.1,0.6
					c-0.3,0.4-0.4,0.9-0.4,1.5c0,0.6,0.2,1.1,0.5,1.5c0.3,0.5,0.8,0.7,1.3,0.7c0.4,0,0.7-0.1,1-0.4c0.2-0.1,0.4-0.4,0.6-0.7l0.2,0.1
					c-0.2,0.5-0.4,0.8-0.7,1.1c-0.5,0.5-1,0.8-1.6,0.8c-0.6,0-1.1-0.2-1.6-0.7c-0.5-0.5-0.7-1.1-0.7-1.9c0-0.8,0.2-1.4,0.7-2
					c0.5-0.6,1.1-0.8,1.9-0.8C86.6,62.8,87,63,87.3,63.2z"/>
				<path class="st2" d="M88.6,68c0.4,0,0.6-0.1,0.7-0.2c0.1-0.1,0.2-0.3,0.2-0.6v-5.7c0-0.3,0-0.4-0.1-0.5C89.3,61,89.2,61,89,61
					c-0.1,0-0.1,0-0.2,0s-0.1,0-0.2,0v-0.2l0.5-0.1c0.4-0.1,0.7-0.2,1-0.3c0.2-0.1,0.3-0.1,0.3-0.1c0,0,0,0,0,0c0,0,0,0,0,0.1v4.7
					l1.6-1.4c0.1-0.1,0.2-0.2,0.2-0.2c0-0.1,0.1-0.1,0.1-0.2c0-0.1,0-0.1-0.1-0.2c-0.1,0-0.2,0-0.5-0.1V63h2.3v0.2
					c-0.4,0-0.8,0.1-1,0.3c-0.3,0.1-0.7,0.5-1.5,1.2l-0.3,0.3l1,1.4c0.5,0.7,0.9,1.1,1.2,1.4c0.3,0.2,0.6,0.4,0.9,0.4v0.1h-2.5V68
					l0.2,0c0.1,0,0.1,0,0.2,0s0.1-0.1,0.1-0.1c0,0,0-0.1,0-0.1c0,0,0-0.1-0.1-0.1l-1.7-2.3v2.1c0,0.3,0.1,0.4,0.3,0.5
					c0.1,0.1,0.3,0.1,0.6,0.1v0.1h-2.7V68z"/>
				<path class="st2" d="M94.6,61v-0.2c0.4-0.1,0.8-0.2,1.2-0.3c0.3-0.1,0.5-0.2,0.6-0.2c0,0,0,0,0,0.1v3.4c0.1-0.2,0.2-0.4,0.4-0.5
					c0.3-0.3,0.7-0.4,1.2-0.4c0.6,0,1,0.2,1.4,0.7c0.4,0.5,0.6,1.1,0.6,1.8c0,0.8-0.3,1.5-0.8,2c-0.5,0.6-1.2,0.9-2,0.9
					c-0.4,0-0.8-0.1-1.2-0.2c-0.4-0.2-0.6-0.3-0.6-0.5v-6c0-0.2,0-0.4-0.1-0.5C95.3,61,95.1,61,94.9,61L94.6,61z M96.8,67.7
					c0.3,0.1,0.5,0.1,0.7,0.1c0.5,0,0.9-0.2,1.2-0.6c0.3-0.4,0.4-0.9,0.4-1.4c0-0.6-0.1-1.1-0.4-1.5c-0.2-0.5-0.6-0.7-1.1-0.7
					c-0.3,0-0.5,0.1-0.8,0.2c-0.3,0.2-0.4,0.4-0.4,0.6v2.9C96.4,67.5,96.5,67.7,96.8,67.7z"/>
				<path class="st2" d="M102.4,62.9v3.6c0,0.3,0,0.5,0.1,0.6c0.1,0.3,0.4,0.4,0.8,0.4c0.3,0,0.5-0.1,0.7-0.3
					c0.1-0.1,0.3-0.2,0.4-0.4v-3.1c0-0.3-0.1-0.5-0.2-0.6s-0.3-0.1-0.7-0.2v-0.2h1.8v4c0,0.3,0,0.4,0.1,0.5c0.1,0.1,0.3,0.1,0.6,0.1
					v0.2c-0.2,0.1-0.4,0.1-0.5,0.1c-0.1,0-0.3,0.1-0.5,0.2c-0.1,0-0.3,0.1-0.6,0.2c0,0,0,0,0,0c0,0,0,0,0-0.1v-0.9
					c-0.3,0.3-0.5,0.5-0.7,0.7c-0.3,0.2-0.7,0.3-1,0.3c-0.3,0-0.6-0.1-0.9-0.3c-0.3-0.2-0.4-0.6-0.4-1.2v-2.9c0-0.3-0.1-0.5-0.2-0.6
					c-0.1-0.1-0.3-0.1-0.5-0.1v-0.2H102.4z"/>
				<path class="st2" d="M106.7,68c0.3,0,0.6-0.1,0.7-0.2c0.1-0.1,0.2-0.3,0.2-0.6v-2.5c0-0.4,0-0.6-0.1-0.8
					c-0.1-0.2-0.2-0.2-0.4-0.2c0,0-0.1,0-0.1,0c-0.1,0-0.1,0-0.2,0v-0.2c0.2-0.1,0.4-0.2,0.7-0.2c0.2-0.1,0.4-0.1,0.5-0.2
					c0.2-0.1,0.4-0.2,0.6-0.2c0,0,0,0,0,0c0,0,0,0.1,0,0.1v0.9c0.2-0.3,0.5-0.6,0.7-0.8c0.2-0.2,0.5-0.3,0.7-0.3
					c0.2,0,0.3,0.1,0.5,0.2c0.1,0.1,0.2,0.3,0.2,0.4c0,0.2,0,0.3-0.1,0.4c-0.1,0.1-0.2,0.2-0.3,0.2c-0.1,0-0.3-0.1-0.4-0.2
					c-0.1-0.1-0.3-0.2-0.3-0.2c-0.1,0-0.3,0.1-0.5,0.3c-0.2,0.2-0.3,0.4-0.3,0.7v2.5c0,0.3,0.1,0.5,0.2,0.7c0.1,0.1,0.4,0.2,0.7,0.2
					v0.2h-2.8V68z"/>
				<path class="st2" d="M111,68c0.3,0,0.5-0.1,0.6-0.2c0.1-0.1,0.2-0.3,0.2-0.7v-2.9c0-0.2,0-0.4-0.1-0.5c-0.1-0.1-0.2-0.2-0.4-0.2
					c0,0-0.1,0-0.1,0c0,0-0.1,0-0.1,0v-0.2c0.2,0,0.5-0.2,1.1-0.3l0.5-0.2c0,0,0,0,0,0c0,0,0,0,0,0.1v0.8c0.3-0.3,0.6-0.5,0.8-0.7
					c0.3-0.2,0.6-0.3,0.9-0.3c0.3,0,0.5,0.1,0.7,0.2c0.4,0.3,0.6,0.8,0.6,1.5v2.6c0,0.3,0.1,0.5,0.2,0.6c0.1,0.1,0.3,0.2,0.5,0.2
					v0.2H114V68c0.3,0,0.5-0.1,0.6-0.2c0.1-0.1,0.2-0.4,0.2-0.7v-2.4c0-0.3-0.1-0.6-0.2-0.8c-0.1-0.2-0.3-0.3-0.7-0.3
					c-0.2,0-0.4,0.1-0.7,0.2c-0.1,0.1-0.3,0.2-0.5,0.4v3.2c0,0.3,0.1,0.5,0.2,0.5c0.1,0.1,0.3,0.1,0.6,0.1v0.2H111V68z"/>
				<path class="st3" d="M126.2,68.2l-0.5-0.6c-0.7,0.6-1.6,0.8-2.6,0.8c-0.7,0-1.3-0.1-1.8-0.4c-0.6-0.3-1-0.7-1.3-1.2
					s-0.5-1.1-0.5-1.7c0-0.6,0.2-1.2,0.5-1.8c0.4-0.6,1-1,1.9-1.3c-0.5-0.8-0.7-1.5-0.7-2c0-0.4,0.1-0.7,0.3-1.1
					c0.2-0.3,0.5-0.6,0.9-0.8c0.4-0.2,0.8-0.3,1.2-0.3c0.7,0,1.2,0.2,1.6,0.6c0.4,0.4,0.6,0.9,0.6,1.4c0,1-0.7,1.9-2.2,2.6
					c0.7,1.2,1.5,2.3,2.4,3.3c0.2-0.2,0.3-0.5,0.4-0.7c0.1-0.2,0.1-0.5,0.2-0.8c0-0.3,0.1-0.7,0.1-1.1l0-0.5h1.3
					c0,1.5-0.4,2.8-1.3,3.8c0.4,0.5,0.9,1,1.4,1.5H126.2z M125.1,66.8c-0.6-0.8-1.1-1.4-1.5-2c-0.4-0.5-0.8-1.2-1.2-2
					c-0.6,0.2-1,0.5-1.2,0.9c-0.2,0.3-0.3,0.7-0.3,1.1c0,0.4,0.1,0.9,0.3,1.3c0.2,0.4,0.5,0.7,0.9,1c0.4,0.2,0.8,0.3,1.3,0.3
					C123.9,67.4,124.5,67.2,125.1,66.8z M123.2,61.7c1-0.4,1.4-1,1.4-1.7c0-0.3-0.1-0.5-0.3-0.7c-0.2-0.2-0.4-0.3-0.8-0.3
					c-0.4,0-0.6,0.1-0.8,0.3s-0.2,0.5-0.2,0.7C122.6,60.4,122.8,61,123.2,61.7z"/>
				<path class="st2" d="M133.2,60.5v0.2c-0.2,0-0.4,0-0.5,0.1c-0.2,0.1-0.3,0.2-0.3,0.3c0,0.1,0,0.1,0,0.2c0,0.1,0.1,0.2,0.1,0.3
					l1.7,4.3l1.2-3.2l-0.5-1.4c-0.1-0.3-0.3-0.4-0.5-0.5c-0.1-0.1-0.3-0.1-0.5-0.1v-0.2h3.1v0.2c-0.3,0-0.5,0-0.6,0.1
					c-0.2,0.1-0.3,0.2-0.3,0.4c0,0.1,0,0.1,0,0.2c0,0.1,0.1,0.2,0.1,0.3l1.7,4.3l1.4-3.9c0.1-0.2,0.1-0.4,0.2-0.6c0-0.1,0-0.2,0-0.2
					c0-0.2-0.1-0.4-0.3-0.4c-0.1,0-0.3-0.1-0.5-0.1v-0.2h2.3v0.2c-0.2,0-0.4,0.1-0.5,0.1c-0.2,0.1-0.3,0.3-0.4,0.6l-1.2,3.4
					l-0.5,1.3l-0.7,2.1h-0.2L137,67l-1.3-3.6l-1.8,4.9h-0.2l-0.9-2.4l-1-2.7c-0.4-1.1-0.7-1.8-0.8-2.1c-0.2-0.3-0.4-0.4-0.7-0.4
					v-0.2H133.2z"/>
				<path class="st2" d="M141,65.7c0.3-0.2,1-0.5,2.1-0.9v-0.5c0-0.4,0-0.6-0.1-0.8c-0.1-0.3-0.4-0.4-0.8-0.4c-0.2,0-0.4,0-0.5,0.1
					c-0.2,0.1-0.3,0.2-0.3,0.4c0,0,0,0.1,0,0.2c0,0.1,0,0.2,0,0.2c0,0.2-0.1,0.4-0.2,0.4c-0.1,0-0.2,0.1-0.3,0.1
					c-0.2,0-0.3-0.1-0.4-0.2c-0.1-0.1-0.1-0.2-0.1-0.4c0-0.3,0.2-0.5,0.5-0.8c0.3-0.3,0.8-0.4,1.4-0.4c0.7,0,1.2,0.2,1.5,0.7
					c0.1,0.3,0.2,0.6,0.2,1.1v2.3c0,0.2,0,0.4,0,0.5c0,0.1,0.1,0.2,0.3,0.2c0.1,0,0.2,0,0.2,0c0.1,0,0.2-0.1,0.3-0.2v0.3
					c-0.1,0.1-0.3,0.3-0.4,0.4c-0.2,0.1-0.4,0.2-0.6,0.2c-0.3,0-0.4-0.1-0.6-0.2c-0.1-0.2-0.2-0.4-0.2-0.6c-0.3,0.2-0.5,0.4-0.7,0.6
					c-0.3,0.2-0.7,0.3-1,0.3c-0.3,0-0.6-0.1-0.8-0.3c-0.2-0.2-0.4-0.5-0.4-0.9C140.2,66.5,140.5,66,141,65.7z M143.1,65
					c-0.4,0.1-0.8,0.3-1.1,0.5c-0.5,0.3-0.8,0.7-0.8,1.1c0,0.3,0.1,0.6,0.3,0.8c0.1,0.1,0.3,0.2,0.5,0.2c0.2,0,0.5-0.1,0.7-0.2
					c0.2-0.1,0.3-0.3,0.3-0.5V65z"/>
				<path class="st2" d="M145.6,68c0.3,0,0.6-0.1,0.7-0.2c0.1-0.1,0.2-0.3,0.2-0.6v-2.5c0-0.4,0-0.6-0.1-0.8
					c-0.1-0.2-0.2-0.2-0.4-0.2c0,0-0.1,0-0.1,0c-0.1,0-0.1,0-0.2,0v-0.2c0.2-0.1,0.4-0.2,0.7-0.2c0.2-0.1,0.4-0.1,0.5-0.2
					c0.2-0.1,0.4-0.2,0.6-0.2c0,0,0,0,0,0c0,0,0,0.1,0,0.1v0.9c0.2-0.3,0.5-0.6,0.7-0.8c0.2-0.2,0.5-0.3,0.7-0.3
					c0.2,0,0.3,0.1,0.5,0.2c0.1,0.1,0.2,0.3,0.2,0.4c0,0.2,0,0.3-0.1,0.4c-0.1,0.1-0.2,0.2-0.3,0.2c-0.1,0-0.3-0.1-0.4-0.2
					c-0.1-0.1-0.3-0.2-0.3-0.2c-0.1,0-0.3,0.1-0.5,0.3c-0.2,0.2-0.3,0.4-0.3,0.7v2.5c0,0.3,0.1,0.5,0.2,0.7c0.1,0.1,0.4,0.2,0.7,0.2
					v0.2h-2.8V68z"/>
				<path class="st2" d="M150.2,68c0.3,0,0.6-0.1,0.7-0.2c0.1-0.1,0.2-0.3,0.2-0.6v-2.5c0-0.4,0-0.6-0.1-0.8
					c-0.1-0.2-0.2-0.2-0.4-0.2c0,0-0.1,0-0.1,0c-0.1,0-0.1,0-0.2,0v-0.2c0.2-0.1,0.4-0.2,0.7-0.2c0.2-0.1,0.4-0.1,0.5-0.2
					c0.2-0.1,0.4-0.2,0.6-0.2c0,0,0,0,0,0c0,0,0,0.1,0,0.1v0.9c0.2-0.3,0.5-0.6,0.7-0.8c0.2-0.2,0.5-0.3,0.7-0.3
					c0.2,0,0.3,0.1,0.5,0.2c0.1,0.1,0.2,0.3,0.2,0.4c0,0.2,0,0.3-0.1,0.4c-0.1,0.1-0.2,0.2-0.3,0.2c-0.1,0-0.3-0.1-0.4-0.2
					c-0.1-0.1-0.3-0.2-0.3-0.2c-0.1,0-0.3,0.1-0.5,0.3c-0.2,0.2-0.3,0.4-0.3,0.7v2.5c0,0.3,0.1,0.5,0.2,0.7c0.1,0.1,0.4,0.2,0.7,0.2
					v0.2h-2.8V68z"/>
				<path class="st2" d="M158.7,63.4c0.4,0.4,0.6,0.9,0.6,1.6h-3.6c0,0.9,0.2,1.5,0.6,1.9c0.4,0.4,0.8,0.6,1.3,0.6
					c0.4,0,0.7-0.1,1-0.3c0.3-0.2,0.5-0.5,0.7-0.9l0.2,0.1c-0.2,0.5-0.4,0.9-0.9,1.3c-0.4,0.4-0.9,0.6-1.6,0.6
					c-0.7,0-1.3-0.3-1.6-0.8c-0.4-0.5-0.6-1.1-0.6-1.8c0-0.8,0.2-1.4,0.7-2c0.4-0.5,1-0.8,1.7-0.8C157.8,62.9,158.3,63.1,158.7,63.4
					z M156,63.9c-0.1,0.2-0.2,0.5-0.3,0.8h2.4c0-0.4-0.1-0.7-0.2-0.8c-0.2-0.3-0.5-0.5-0.9-0.5C156.5,63.3,156.2,63.5,156,63.9z"/>
				<path class="st2" d="M160.7,68c0.3,0,0.5-0.1,0.6-0.2c0.1-0.1,0.2-0.3,0.2-0.7v-2.9c0-0.2,0-0.4-0.1-0.5
					c-0.1-0.1-0.2-0.2-0.4-0.2c0,0-0.1,0-0.1,0c0,0-0.1,0-0.1,0v-0.2c0.2,0,0.5-0.2,1.1-0.3l0.5-0.2c0,0,0,0,0,0c0,0,0,0,0,0.1v0.8
					c0.3-0.3,0.6-0.5,0.8-0.7c0.3-0.2,0.6-0.3,0.9-0.3c0.3,0,0.5,0.1,0.7,0.2c0.4,0.3,0.6,0.8,0.6,1.5v2.6c0,0.3,0.1,0.5,0.2,0.6
					c0.1,0.1,0.3,0.2,0.5,0.2v0.2h-2.4V68c0.3,0,0.5-0.1,0.6-0.2c0.1-0.1,0.2-0.4,0.2-0.7v-2.4c0-0.3-0.1-0.6-0.2-0.8
					c-0.1-0.2-0.3-0.3-0.7-0.3c-0.2,0-0.4,0.1-0.7,0.2c-0.1,0.1-0.3,0.2-0.5,0.4v3.2c0,0.3,0.1,0.5,0.2,0.5c0.1,0.1,0.3,0.1,0.6,0.1
					v0.2h-2.5V68z"/>
				<path class="st3" d="M100.3,73.5h-1.6l-0.3,0.8h-1l1.4-4.1h1.2l1.4,4.1h-1L100.3,73.5z M100,72.6l-0.5-1.5L99,72.6H100z"/>
				<path class="st3" d="M105.6,71.1h-1.1v3.3h-1v-3.3h-1.1v-0.8h3.2V71.1z"/>
				<path class="st3" d="M109.8,71.1h-1.1v3.3h-1v-3.3h-1.1v-0.8h3.2V71.1z"/>
				<path class="st3" d="M110.7,72.3c0-1.2,0.7-2.1,2.1-2.1c1.4,0,2.1,1,2.1,2.1c0,1.2-0.7,2.1-2.1,2.1
					C111.4,74.4,110.7,73.5,110.7,72.3z M113.9,72.3c0-0.7-0.4-1.3-1.1-1.3c-0.7,0-1.1,0.6-1.1,1.3c0,0.8,0.4,1.3,1.1,1.3
					C113.5,73.6,113.9,73,113.9,72.3z"/>
				<path class="st3" d="M117.5,72.8h-0.5v1.5h-1v-4.1h1.7c1,0,1.6,0.4,1.6,1.3c0,0.6-0.3,1-0.8,1.2l1,1.6h-1.1L117.5,72.8z
					 M117.1,72h0.7c0.4,0,0.6-0.2,0.6-0.5c0-0.3-0.2-0.5-0.6-0.5h-0.7V72z"/>
				<path class="st3" d="M124.2,70.2v4.1H123l-1.5-2.5v2.5h-1v-4.1h1.1l1.5,2.5v-2.5H124.2z"/>
				<path class="st3" d="M128.3,73.5v0.8h-2.7v-4.1h2.7V71h-1.7v0.9h1.5v0.8h-1.5v0.9H128.3z"/>
				<path class="st3" d="M131.6,72.7v1.6h-0.9v-1.6l-1.4-2.5h1l0.9,1.6l0.9-1.6h1L131.6,72.7z"/>
				<path class="st3" d="M133.9,74.1v-0.9c0.5,0.3,1,0.4,1.5,0.4c0.4,0,0.6-0.2,0.6-0.4c0-0.3-0.2-0.3-0.6-0.4l-0.4-0.1
					c-0.5-0.1-1.1-0.4-1.1-1.2c0-0.9,0.5-1.3,1.5-1.3c0.6,0,1,0.1,1.4,0.3v0.8c-0.4-0.2-0.8-0.3-1.4-0.3c-0.4,0-0.5,0.2-0.5,0.4
					c0,0.3,0.1,0.3,0.6,0.4l0.4,0.1c0.6,0.2,1.2,0.4,1.2,1.3c0,0.8-0.6,1.3-1.6,1.3C134.9,74.4,134.4,74.3,133.9,74.1z"/>
				<path class="st3" d="M142.5,73.5h-1.6l-0.3,0.8h-1l1.4-4.1h1.2l1.4,4.1h-1L142.5,73.5z M142.2,72.6l-0.5-1.5l-0.5,1.5H142.2z"/>
				<path class="st3" d="M147.9,71.1h-1.1v3.3h-1v-3.3h-1.1v-0.8h3.2V71.1z"/>
				<path class="st3" d="M153.2,73.5v0.8h-2.5v-4.1h1v3.3H153.2z"/>
				<path class="st3" d="M157,73.5h-1.6l-0.3,0.8h-1l1.4-4.1h1.2l1.4,4.1h-1L157,73.5z M156.7,72.6l-0.5-1.5l-0.5,1.5H156.7z"/>
				<path class="st3" d="M165.1,70.2l-1,4.1h-1.2l-0.7-2.8l-0.7,2.8h-1.2l-1-4.1h0.9l0.7,3l0.8-3h1.1l0.8,3l0.7-3H165.1z"/>
			</g>
			<g>
				<g>
					<rect x="31" y="4.9" class="st1" width="107.9" height="49.2"/>
					<path class="st2" d="M138.2,5.6v47.7H31.8V5.6H138.2 M139.7,4.1h-1.5H31.8h-1.5v1.5v47.7v1.5h1.5h106.4h1.5v-1.5V5.6V4.1
						L139.7,4.1z"/>
				</g>
				<rect x="34.7" y="9" class="st3" width="100.2" height="41.6"/>
				<path class="st1" d="M41.6,15.6h9.9v1.2c0,0-0.4,0-1.9,0c-1.5,0-1.4,1.4-0.9,3.1c0.5,1.6,6.2,18.2,6.2,18.2L59.9,24
					c0,0-0.9-3.3-1.5-5.1c-0.7-1.8-2.6-2.1-3.5-2.1v-1.2h11V17c0,0-1.3,0-2.7,0c-1.4,0-1.8,0.6-0.8,3.7s6.1,17.5,6.1,17.5l6.4-18.3
					c0,0,0-0.2,0-1.2S74.3,17,71.4,17v-1.3h28.1V17c0,0-0.7,0-2.2,0s-1.5,1-1,2.7c0.5,1.7,6.4,18.5,6.4,18.5l5-14.1
					c0,0-1.2-3.1-1.9-5c-0.7-1.9-1.5-2-3.3-2v-1.3h10.9V17c0,0-1.2,0-2.7,0c-1.5,0-2,0.8-1.2,2.9c0.8,2.1,6.5,18.3,6.5,18.3
					s4.9-14.5,6.2-18.2c1.1-3.3-1.2-3-2.9-3v-1.2h8.6v1.5c0,0-0.9,0-1.7,0c-0.8,0-1.8,1-2.6,3.8l-8.1,23.2h-0.4l-6.5-17.7l-6.4,17.7
					h-0.7l-7-19.6c0,0-2,4.2-6,4.2c0,0,8.2,0.8,8.2,7.7s-7.8,7.6-10.1,7.6c-2.3,0-11.7,0-11.7,0V23.2l-7.2,20.9h-0.7l-6.3-17.8
					l-6.5,17.8h-0.9c0,0-8.3-23.8-8.9-25.4C44,17,42.9,17,41.6,17V15.6z M78.5,28.4c0,0,3.7,0,7.1,0s5.6-3,5.6-5.8s-1.6-5.5-6.7-5.5
					c-4.8,0-6,0-6,1.6S78.5,28.4,78.5,28.4z M78.5,29.9c0,0,0,9.3,0,11s2.2,1.9,2.9,1.9s3,0,6.1,0c3,0,5.4-2.8,5.4-6.5
					c0-3.7-2.1-6.5-6.3-6.5C82.5,29.9,78.5,29.9,78.5,29.9z"/>
			</g>
		</g>
	</g>
</g>
</svg>
