<?xml version="1.0" encoding="utf-8"?>
<!-- Generator: Adobe Illustrator 19.2.1, SVG Export Plug-In . SVG Version: 6.00 Build 0)  -->
<svg version="1.1" id="Lanigan_Logo" xmlns="http://www.w3.org/2000/svg" xmlns:xlink="http://www.w3.org/1999/xlink" x="0px"
	 y="0px" viewBox="0 0 398.7 115.3" style="enable-background:new 0 0 398.7 115.3;" xml:space="preserve">
<style type="text/css">
	.st0{fill:#FFFFFF;}
</style>
<g>
	<path class="st0" d="M60.1,82H3.7L4,77.8l6.3-0.7c2.3-0.2,3.2-0.7,3.2-1.7v-63c0-1-0.6-1.2-3.2-1.6L4,10.1L3.7,6h30.8l-0.4,4.1
		l-7.4,0.7c-2.3,0.2-3.2,0.7-3.2,1.7v65h3c24.1,0,25.7-0.7,27-5.2l3.6-14.5h5.6L60.1,82z"/>
	<path class="st0" d="M110.1,83.8c-4.4,0-7.8-2.7-7.8-9h-0.5c-4.6,5-9.4,9-15.2,9c-8,0-14.8-6-14.8-14.1c0-10.2,9.2-15.8,31-21.2
		v-1.1c0.1-13-4.5-16.4-12.4-16.4c-4.6,0-9.6,1.9-9.6,3.2c0,0.6,2.4,2.6,2.4,5.6c0,2.8-2.4,5.5-6,5.5c-3.4,0-5.8-2.2-5.8-5.4
		c0-5.8,12.7-14.1,22.5-14.1c13.5,0,18.2,5.5,17.5,23.7l-1,23.2c-0.1,2.8,0.9,4.3,2.7,4.3c1.7,0,3.6-1.3,6.2-3.4l2.1,2.7
		C117.6,80.9,114,83.8,110.1,83.8z M102.6,52.4c-16.3,4.3-21.9,8.8-21.9,15.2c0,5.8,4.1,9.4,9.2,9.4c4.3,0,7.9-2.7,11.9-6.3
		L102.6,52.4z"/>
	<path class="st0" d="M159.9,82l0.4-4.1l5-0.5c2.6-0.1,3-0.7,3-1.8V49c0-12-4.4-15.7-11.7-15.7c-5.6,0-11.1,3.3-14.5,6.1v36.3
		c0,1,0.5,1.6,3.3,1.7l5.6,0.5l0.4,4.1h-26.3l0.4-4.1l4.9-0.5c2.2-0.1,3-0.6,3-1.8V41.1c0-5.6-0.6-6.3-3.8-7.2l-5.1-0.7l0.1-3.3
		l17.5-4v8.8h0.6c6.2-5.2,12.7-8.8,19.5-8.8c3.6,0,7.5,1.2,10.2,3.9c3.2,3.2,4.5,7.7,4.5,13.5v32.2c0,1,0.5,1.6,3.6,1.8l4.9,0.5
		l0.4,4.1L159.9,82L159.9,82z"/>
	<path class="st0" d="M190.9,82l0.4-4.1l5.1-0.5c2.1-0.1,3-0.6,3-1.8V41.4c0-5.8-0.7-6.6-4.1-7.4l-4.9-0.7l0.2-3.3l17.4-4v49.8
		c0,1,0.6,1.6,3.4,1.7l5.1,0.5l0.4,4.1L190.9,82L190.9,82z M202.4,15c-4.1,0-6.2-3.3-6.2-6.8s2.1-6.8,6.2-6.8s6.2,3.2,6.2,6.8
		C208.6,11.7,206.6,15,202.4,15z"/>
	<path class="st0" d="M263,33.8v0.6c2.2,2.7,3.8,6,3.8,10.8c0,10.6-9.5,19.3-21.4,19.3c-2.3,0-5.1-0.2-6.7-0.7
		c-1.9,1-5.7,3.4-5.7,6.3c0,3.2,3.2,5.6,7.7,5.6c4,0,11.4-0.2,14.1-0.2c10.9,0,17.9,6.9,17.9,15.6c0,12.8-12.8,21.7-30,21.7
		c-13.1,0-21.5-6-21.5-14.5c0-7.5,5.7-11.9,11.4-14.4v-0.5c-4.5-0.9-7.8-4.7-7.8-8.8c0-4.9,4.6-9.2,9.9-11.7c0-0.2,0.1-0.2,0.1-0.4
		c-6.2-2.8-10.3-8.6-10.3-16.8c0-11.2,9.1-19.9,21.5-19.9c5.4,0,9.7,1.2,13.6,3l16.5,0.1V36L263,33.8z M251.3,84.2
		c-4.7-0.1-5.1,0.1-14.1,0.2c-2.7,1.1-7.9,5-7.9,11.1c0,8.2,7.8,12.8,17.8,12.8c10.1,0,17.4-5.8,17.4-13.3
		C264.5,88.8,261.2,84.5,251.3,84.2z M253.4,32.8c-2.1-1.9-4.6-3-7.7-3c-7.4,0-12.3,6.1-12.3,14.5c0,6.1,2.1,10.9,5.2,13.9
		c1.9,1.6,4.3,2.6,6.8,2.6c3.4,0,6-0.9,7.9-2.7c2.9-2.6,4.4-6.9,4.4-12.5C257.8,40,256.3,35.5,253.4,32.8z"/>
	<path class="st0" d="M318.5,83.8c-4.4,0-7.8-2.7-7.8-9h-0.5c-4.6,5-9.4,9-15.2,9c-8,0-14.8-6-14.8-14.1c0-10.2,9.2-15.8,31-21.2
		v-1.1c0.1-13-4.5-16.4-12.4-16.4c-4.6,0-9.6,1.9-9.6,3.2c0,0.6,2.4,2.6,2.4,5.6c0,2.8-2.4,5.5-6,5.5c-3.4,0-5.8-2.2-5.8-5.4
		c0-5.8,12.7-14.1,22.5-14.1c13.5,0,18.2,5.5,17.5,23.7l-1,23.2c-0.1,2.8,0.9,4.3,2.7,4.3c1.7,0,3.6-1.3,6.2-3.4l2.1,2.7
		C326,80.9,322.4,83.8,318.5,83.8z M310.9,52.4c-16.3,4.3-21.9,8.8-21.9,15.2c0,5.8,4.1,9.4,9.2,9.4c4.3,0,7.9-2.7,11.9-6.3
		L310.9,52.4z"/>
	<path class="st0" d="M368.2,82l0.4-4.1l5-0.5c2.6-0.1,3-0.7,3-1.8V49c0-12-4.4-15.7-11.7-15.7c-5.6,0-11.1,3.3-14.5,6.1v36.3
		c0,1,0.5,1.6,3.3,1.7l5.6,0.5l0.4,4.1h-26.3l0.4-4.1l4.9-0.5c2.2-0.1,3-0.6,3-1.8V41.1c0-5.6-0.6-6.3-3.8-7.2l-5.1-0.7l0.1-3.3
		l17.5-4v8.8h0.6c6.2-5.2,12.7-8.8,19.5-8.8c3.6,0,7.5,1.2,10.2,3.9c3.2,3.2,4.5,7.7,4.5,13.5v32.2c0,1,0.5,1.6,3.6,1.8l4.9,0.5
		l0.4,4.1L368.2,82L368.2,82z"/>
</g>
</svg>
