<?xml version="1.0" encoding="utf-8"?>
<!-- Generator: Adobe Illustrator 21.1.0, SVG Export Plug-In . SVG Version: 6.00 Build 0)  -->
<svg version="1.1" id="Layer_1" xmlns="http://www.w3.org/2000/svg" xmlns:xlink="http://www.w3.org/1999/xlink" x="0px" y="0px"
	 viewBox="0 0 161.7 45.8" style="enable-background:new 0 0 161.7 45.8;" xml:space="preserve">
<style type="text/css">
	.st0{fill:#0075DB;}
</style>
<g id="XMLID_6_">
	<g>
		<g id="XMLID_83_">
			<polygon id="XMLID_92_" class="st0" points="40.9,34.2 40,34.2 40,35.6 39.8,35.6 39.8,34.2 39,34.2 39,33.9 40.9,33.9 
				40.9,34.2 40.9,34.2 40.9,34.2 			"/>
			<polygon id="XMLID_91_" class="st0" points="43.7,35.6 43.4,35.6 43.4,34.3 43.4,34.3 42.6,35.3 41.7,34.3 41.7,34.3 41.7,35.6 
				41.4,35.6 41.4,33.9 41.8,33.9 42.6,35 43.4,33.9 43.7,33.9 43.7,35.6 43.7,35.6 43.7,35.6 			"/>
			<path id="XMLID_90_" class="st0" d="M21.4,15.1c-9,9.5-12.8,16.5-12.9,16.7l-0.3,0c0,0,0,0,0,0c-1.5-2.6-2.3-5.6-2.3-8.8
				c0-9.9,8-18,18-18h0c1.4,0,2.7,0.2,4,0.5c1.3,0.3,2.5,0.7,3.7,1.3c0,0,3.4-3.6,6.3-3.7c1.4,0,2.5,0.5,3.1,1.5l-0.7,0.1
				c-0.1-0.2-0.3-0.4-0.5-0.6c-2.3-1.7-7.3,3.1-7.3,3.1c2.1,1.2,4,2.8,5.5,4.7l0.1,0.2c0,0-4.4,6-11.5,11.8L21.4,15.1L21.4,15.1z"/>
			<path id="XMLID_89_" class="st0" d="M8.4,31.8c0.6,0.9,1.1,1.9,1.1,1.9l0.1,0.2c-2.3,3.1-3.3,5.8-2.4,7.3l-0.7,0.1
				c-0.8-1.1-1-2.6-0.6-4.3c0.4-1.6,0.9-2.9,1.4-3.8c0.3-0.6,0.5-1,0.8-1.4L8.4,31.8C8.4,31.8,8.4,31.8,8.4,31.8L8.4,31.8z"/>
			<path id="XMLID_88_" class="st0" d="M9,42.1c2.5,0,6.1-3.5,6.1-3.5c-2.1-1.2-4-2.8-5.5-4.7l-0.1-0.2c0,0,4.4-6,11.5-11.8l5.2,8.8
				c8.7-9.2,12.6-16,12.9-16.7l0.3,0c0,0,0,0,0,0c1.5,2.6,2.3,5.6,2.3,8.8c0,9.9-8,18-18,18h0c-1.4,0-2.7-0.2-4-0.5
				c-1.3-0.3-2.5-0.7-3.7-1.3c0,0-3.4,3.6-6.3,3.7c-1.4,0-2.5-0.5-3.1-1.5l0.7-0.1c0.1,0.2,0.3,0.4,0.5,0.6C8.2,42,8.6,42.1,9,42.1
				L9,42.1z"/>
			<path id="XMLID_87_" class="st0" d="M41.1,4.5c0.8,1.1,1,2.6,0.6,4.3c-0.4,1.6-0.9,2.9-1.4,3.8c-0.3,0.6-0.5,1-0.8,1.4l-0.3,0
				c0,0,0,0,0,0c-0.6-0.9-1.1-1.9-1.1-1.9L38,11.9c2.3-3.1,3.3-5.8,2.4-7.3L41.1,4.5L41.1,4.5z"/>
			<polygon id="XMLID_86_" class="st0" points="81.4,40.8 64.9,18.8 64.9,40.8 56.4,40.8 56.4,5 64.4,5 80.9,27.1 80.9,5 89.4,5 
				89.4,40.8 81.4,40.8 			"/>
			<polygon id="XMLID_85_" class="st0" points="113.2,12.3 113.2,40.8 104.1,40.8 104.1,12.3 93.4,12.3 93.4,5 124,5 124,12.3 
				113.2,12.3 			"/>
			<path id="XMLID_84_" class="st0" d="M155.7,8.6l-3.4,7.1c-3.8-2.2-8.5-3.7-11.5-3.7c-2.4,0-3.9,0.9-3.9,2.6
				c0,6.2,18.9,2.7,18.9,15.6c0,7.2-6.3,10.9-14.3,10.9c-6,0-12.1-2.3-16.4-5.7l3.5-7c3.7,3.2,9.2,5.4,12.9,5.4
				c2.9,0,4.7-1.1,4.7-3.1c0-6.3-18.9-2.6-18.9-15.2c0-6.6,5.7-10.8,14.3-10.8C146.8,4.6,152,6.2,155.7,8.6L155.7,8.6z"/>
		</g>
	</g>
</g>
</svg>
