<svg id="Layer_1" data-name="Layer 1" xmlns="http://www.w3.org/2000/svg" viewBox="0 0 724.24 131.4"><defs><style>.cls-1{fill:#00502f;}.cls-2{fill:#717073;}</style></defs><title>Caldwell-and-langford-insurance-logo</title><path class="cls-1" d="M409.9,45a16.82,16.82,0,0,0-2.52-1.14,4.73,4.73,0,0,0,1.09-1.95,1.11,1.11,0,0,0,0-.46c-.47-1.07-1-2.12-1.52-3.15l-.55-.85s-2.23-1.65-6,.3c0,0-2.2-1-.43-3A5,5,0,0,1,401,33.11c.69-.62,1.44-1.56-.44-2l.76-1.52c-.75-1-1.54-1.94-2.37-2.89a3,3,0,0,1-2.45,1.1s-.14-1.45-1.11-1-1.82-.62-1.82-1.47-.89-1-1.62-.55a1.37,1.37,0,0,1-1.91-1.26c0-1,.78-1.15,1.51-.9a19.23,19.23,0,0,0,3.51.09A57.76,57.76,0,0,0,390,18.34c-1.26-.24-2.76-.37-3.5.14-1.42,1-2.09-.43-2.09-1.29s-2.45-3.61-4.74-4a1.9,1.9,0,0,1-1.75-2c-.87-.39-1.76-.75-2.65-1.08-.94.8-2.7,1.67-6,2.1,0,0,.8-.75-.72-2.28s-3.11-2.46-5.06-2.27-2.56.43-2,.94,1.3,2.31.73,2.5-3.32-.69-3.87-2.07-1.08-2.6-2.92-2.6a1.5,1.5,0,0,0-1.58,2.07c.25.38.35,1-.15,1.22s-1.27.18-1.24-1.15a9.14,9.14,0,0,0-.41-2.32c-1.22,0-2.46.13-3.66.23a10.16,10.16,0,0,1-.51,3.24c-1.05,3.08-1.09-2.16-.95-2.49,0-.11-.17-.34-.54-.53-1.41.18-2.82.42-4.21.68-.39.21-.55.21-.64.15-.57.12-1.14.24-1.71.39-.36.65,0,1.38-.59.88a1,1,0,0,1-.37-.65l-1.72.48a2.27,2.27,0,0,0,.12,1.82c.36.4,1.88,1.3.94,2.13s-2.52-.4-2.6-1.14-.47-.47-.81-.25-.82-.15-1-1.16a2,2,0,0,0-.08-.3,62.06,62.06,0,0,0-6.4,2.73c.6.09,1.13.18,1.21.39.18.5-1.2.36-2.6.8s-1.89.75-.51,1.37,1,.47,1,.47-.86.14-.64,2-1.7,2.48-1,2.75c2,.8,3.87-.86,4.19-.46s-.79,2.39-2.24,2.35-1.91,1.25-1.52,1.84a6.25,6.25,0,0,0,.81.95,1.35,1.35,0,0,0-.37,1.29c.21.77.07,2.29-.69,2.68s-1.27.73-1.34-.25a2.09,2.09,0,0,1,.65-1.87.39.39,0,0,0-.33-.69c-.22.07-.33-.35-.37-.54s-.93-.58-1,0-.29,1.65-1,1.58-1.16-.95-.77-1.38.29-.71,0-1-1-.33.65-1.49A27.3,27.3,0,0,0,324.44,21a2.84,2.84,0,0,0-1.05-.69c-.71-.29-.86-.42-.39-.57s1.73-.43,2-1.41,0-1.66-1-1.44a15.19,15.19,0,0,0-2.17.71s.11-.6-.14-.82a3.37,3.37,0,0,0-3.14,3.71,2.61,2.61,0,0,1-1,.59c-.77.29-1,1.05-.59,2a5.27,5.27,0,0,1,.33,2.1s-1.7-.84-1.42,1.51.55,2.27.22,2.92-1.29,1.49-1.66,1.41-.11-1.6-1.12-1.38-.8,1.2-.51,1.66-.79.18-1.08-.17a5.19,5.19,0,0,0-1.7-.76s-.33-3.36-1.72-2.83c-.55.67-1.09,1.33-1.61,2a4.67,4.67,0,0,0,.19,1.22c.5,1.91,3.07,2.49,2.39,3.68a1.38,1.38,0,0,1-2.47-.53c0-.94-.89-1.6-.75-2.68a4.3,4.3,0,0,0,0-.88,57.25,57.25,0,0,0-3.37,5.06l.12,0a4.59,4.59,0,0,1-.42.47c-.65,1.11-1.26,2.25-1.84,3.4l.11,0c1.11.21.06.55-.45.68-.43.88-.83,1.78-1.22,2.69.52,1,1.83,1.89,2.46,3.1.8,1.52-.32.5-.62.29s-2.12-.07-2.49,1,.65,1.51.21,2.06.29,1.27.62,1.38,1.7-.91,1.78-.58-.76,2.39-.69,3-1.16,1.91-.94,2.24,1.26.94,1.52,1.4-1,.43-1.31,1,1.09,1.31,1,1.86-1.09.6-1.09,1,1.24,2.92,2.2,2.92,1.48-2.06,2-1.95.93.11.86,1.11.69,2.49.07,3.4-.33,3.37,2.27,2.46c0,0,1.34.94,2.22.14s1.29.62,2.06.43a1.34,1.34,0,0,0,1-.83,4.38,4.38,0,0,1,1.31.75c.21.33,2.27.54,2.27.54s-.29,2.21,1.67,2.17S319,70,319,70s-2.2-.65-1.48-2.16,1.7-.65,1.7-.65l.36-.58s-.83-.94-.54-1.69c0,0,3,5.2,3.54,6.09s1.76,2.11,4.91,2.43a40.52,40.52,0,0,0,6.65-.25,25.14,25.14,0,0,1,5.49,3c1.69,1.23,4.8,3.9,5.67,4.15s2.06-.14,2.78,1,2.46,2.27,3,5.92-.36,10.69-5.38,11.24c0,0-.62-.81-1.31-.81s-.47.45,0,.73.29.64,0,.64-.32-.64-.9-.43-.89.12-.68-.1-.11-.37-.29-.33a13.64,13.64,0,0,1-1.49.82c-.57.18-.62,0,.47-.49s1.2-1,1.52-1.2.08-.62-.8-.44a5.86,5.86,0,0,0-2.6,1.49c-.33.46-1,.29-.55-.18a20.14,20.14,0,0,1,1.66-2c.47-.28-.19-.68-.64-.5a10.18,10.18,0,0,0-2.56,3.24c-.18.72-.43.61-.43-.21a1.74,1.74,0,0,0-1.52-1.6c-.65,0-.89.47-.54.62a1.53,1.53,0,0,1,.87,1.44,8.12,8.12,0,0,0-1.73-.36c-.4,0-.65-.71-.9-.31s.07,1.18-.25,1.21a13,13,0,0,1-1.91-.65,3.43,3.43,0,0,0-1.84.29,1,1,0,0,1-1.27-.36c-.25-.46-.76-.33-.73.29s-.62,1.09-1.15.29-5.25-1.84-5.78-1.84-.69.43,0,.79,3.64,1.4,4,2-1.69-.36-3.78-.8-2.54-.47-2.54-.18,1.23.5,1.34.87-2.46-.47-3.73-.55-1.44-.25-1.4.11,2,1.41,2.82,1.6a49.6,49.6,0,0,1-5.38-.73c-1.27-.36-2.3-.87-2.46-.5s.93,1.12,1.15,1.58a17.16,17.16,0,0,0-4-.22q1.25,1.66,2.61,3.22c3,.15,8.12.3,14.14.07,0,0-.42.89,2.19.51s10.34.09,10.42.47-5.07.67-5.69.67-1.47,0-1.44.29,2,1,12.07-.29c0,0-.85.63-.88.93s-.51.46-1.86.29a7.56,7.56,0,0,0-3.63.42c-.38.3-.8.37-2,.3s-1.61-.56-2.87-.56-2.63.88-4,.79-3.8-1.21-8.48-.88c-1.94.15-3.52.28-4.74.41l.76.73.61,0a52.49,52.49,0,0,0,6.58-.55c.8-.08,3.38.16,4.05.66,0,0-1.39.25-2.2.34s-1.3.3-1.17.67a.56.56,0,0,0,0,.71c.29.34,0,.38-.64.76s-1.13,1.05-.66,1.28,1.09.66.18,1.43l-.11.09.34.23a1.4,1.4,0,0,0,.94-1.08c.18-1.18-1.64-1,.09-1.74s0-1.76,1.1-1.63.42-.38,2-.25.76-.42,1.82-.39,2.7-1.05,3.84-.76a8.84,8.84,0,0,0,5.19.22c2-.67,1.22.34.51.63a6.34,6.34,0,0,1-2.66.46c-1.18,0-3.58-.07-3.5.3s2.36.55,3.88.29,1.47.3.12.6A18.52,18.52,0,0,0,329,113a8.78,8.78,0,0,1-4.57.68,4.91,4.91,0,0,0-3.63,1.71l.78.51a5.32,5.32,0,0,1,3-1.55c1.9,0,1.34.29,1.34.29s-1.39,1.21-.8,2.11c.33.49,0,.62-.56,1l.67.38a3.21,3.21,0,0,1,.6-.33c1.47-.59.59-.62.25-1s-.8-1.14,1.05-2.24.68.39,2.58-.62,3-1.45,3.42-1.4a18.18,18.18,0,0,0-3,2.58c-1,1.26-.66,1.39.42.66s2.71-1.89,3.29-2.28.13-1.27,1-1.39a16.47,16.47,0,0,0,2.74-.62c.46-.22.84-.26.51.54s-1.06,3.09-2.79,3.21-2.79-.46-4,1.93a9.74,9.74,0,0,1-2.17,2.92l1.17.51a5.67,5.67,0,0,0,2.14-2.78c.68-2.41,2.32-1,4.18-2a5.57,5.57,0,0,0,3-3.42c.25-1.09.75-1.43,2.28-2.11l6.11-2.7a17.84,17.84,0,0,1-3.33,1.73c-1.85.72-2.74,1.18-2.92,2.9a3.85,3.85,0,0,1-3.15,3.45c-1.95.57-3.71.9-4.6,3.8a3.92,3.92,0,0,1-1.44,2l.69.27a5.68,5.68,0,0,0,1.88-2.73c.63-2.48,4.39-2.87,5.36-3.24a4.32,4.32,0,0,0,3-3.54,2.13,2.13,0,0,1,2.19-2.24,3.9,3.9,0,0,0-1,3.54c.58,1.9-2.29,3.88-2.83,4.34s-2.15,1.78-3.41,1.7-3.71.46-3.93,1.73a7.53,7.53,0,0,0-.07.84l.84.29a1.43,1.43,0,0,1,0-.25c0-.81.38-2,2.83-2s3.37-.16,4.77-1.76c0,0-.76,1.18-.3,1.81s-.21.84-1,1.31a18.5,18.5,0,0,0-2.5,2l1.05.25a6.29,6.29,0,0,1,1.33-1.16c1.9-1.21,2.7-1.76,2.31-2.28s.17-1,.42-1.21a2.19,2.19,0,0,0,.16-1.74c-.21-.42,1.56-1.86,2-3.28s0-3,3-5.27-.93,1-.3,2.07,1.82,1.08.13,1.89-1.61,1.68-1.22,2.1a1.4,1.4,0,0,1-.59,2.07c-1,.55-1.22,2-1.39,2.66s-.8,1.6,0,1.34,1.14-1.64,1.1-2.19.42-1.22.71-1.22.34-.6.67-.6.76.55.93.88-1.26,1.05-1.1,1.44a2.09,2.09,0,0,0,1.52.88c.46,0,.29,1,0,1.18s-.73.46-.51.81.81.85-1,2.94l1.25.11a.58.58,0,0,1,.47-.28c.16,0,.3.14.41.33l1,0c-.12-.12-.24-.23-.37-.33-.84-.63-.93-2.11.12-2.24s.72,1,2.58,1.18c1.37.13,2.24.58,2.47,1.41.34,0,.66,0,1,0a1.9,1.9,0,0,0-.64-1,4,4,0,0,0-2.11-1c-.8-.25-1.3,0-2.11-.89S351,122,351,122s.67-.5.56-1a2,2,0,0,0-1-1.22c-.51-.25-.68-.5-.17-1s.8-.67,0-1.31-1.53-.88-1.24-1.56-.29-1.81.56-2,2.73-1.64,2-2.45-.08-1.21.21-1.61.67-1.43.93-1.39,0,1.1.37,1.35.73,1.23.47,1.48-.3,1-.76,1.3-.59,1.05-.13,1.18.51.38,0,.72-1.9,1.67-.8,3.08c.46.59.21,1.65.42,1.7a1,1,0,0,0,.46-1.45c-.46-.79.08-2.27,1.26-2.95s.46-1.13.21-1.39-1-.79.77-.93,3.54,1.61,3.88,2,.59.28.5-.18-1.27-2.15-3.84-2.58c0,0-.66-.08.39-.51s2.74-1.26,1.93-1.93c0,0,2.49,2,3.08,3.84a8.14,8.14,0,0,0,1.34,2.61c0,.18,0,.64-1.51.84s-2.67.47-2.67.77,1,1.19.3,1.3-1.13.51-1.13.93a4.43,4.43,0,0,0,1.08,1.77c.26.21.68-.21.46-.46s-.8-.88-.8-1.19,1.61-.93,1.69-1.22-.39-.68-.39-.68-.42-.38.3-.38a5.41,5.41,0,0,0,3.46-1s2.28,1.34,2.41,1.85-2,1.22-1.95,2.78,1.14,1.1.25,2.67a5.29,5.29,0,0,0-.45,1c.4-.06.79-.12,1.18-.2,0-.45.12-.92.24-.93s.34.36.54.79l1.33-.26a2.68,2.68,0,0,1-.13-1c0-1.31-1.35-1.17-1.35-1.17a1.92,1.92,0,0,1,.6-2.49c1.39-1.23.8-2.36-.13-2.62a6.08,6.08,0,0,1-3.75-5.23s3.75.14,3.41,1,.68,2.19,3.29,3.24-1.34,1-1.34,1.87,1.8,1.51,1.68,2.1-1,2.32-.46,2.45.72-1.44,1.14-2.11a1.41,1.41,0,0,0-.29-1.82c-.44-.21-.3-.51.38-.62s.93-.31.93-.56-.47-.29-.39-.63,1.52.6,2.2.6,1.25,0,.66.6-1.26,1.34-.66,1.59.83,1.06-.22,1.23a5.37,5.37,0,0,0-2.7,1.26c0,.21.66.52,1,1.35l1-.28a2.49,2.49,0,0,0-.62-.52c-.35-.18-1.11-.65,2-1.33a2.29,2.29,0,0,0-.23,1.47l.65-.22a1,1,0,0,1,.35-.92c.65-.53.58-.81.21-1.31s-.62-.83-.43-.94.51,0,.93.75.62,1,.13,1.25a1,1,0,0,0-.33.9l1.06-.4c0-.26,0-.6.28-.69.41-.19.06-.68-.08-.93s-.38-.31-.52-.82a.75.75,0,0,0-.8-.54c-.19,0,1.14-.81,1.1-1.13a3,3,0,0,0-1.95-1.61c-1.2-.4.55-.6.64-1.14s-.39-.39-.33-1.07a10.47,10.47,0,0,0,3.29,1.21c1.73.26,4.34,1.13,4.27,1.35s-.55-.11-1.1.21-.91,1.18.18,1.27a5,5,0,0,1,2.25.57l.88-.48a5.77,5.77,0,0,0-1.81-.66c-.8-.06.13-.47.55-.47s.58-.58-.13-.93-1.21-.25-1.24-.48,2.37-.44,2.47.65.79.27,1.33,1.11l.8-.38.16-.1c-.16-.07-1.16-.55-1.13-.9s.45-1-.58-1.21-6.28-.32-7.09-.45-5-1.74-6.18-2a3.31,3.31,0,0,0-1.95-1.27c-1.07-.11-.15-.39,1.53-.08s7.11,0,8.2-.1,1.67.14,1.75.81,1.13.93,1.62.66.83-.64,1.31,0a3.81,3.81,0,0,0,2.51.78c.74,0,.84,0,.74.78-.07.6,1,1.28,1.52,1.53l.8-.54c-.06,0-1.52-.63-1.37-1.3s2.1-.57,3.23-.1l1.06-.85a19.23,19.23,0,0,0-6.62-.34c-2.44.16,1.37-1.45,4.41-1,1.09.17,1-.87.65-1a16,16,0,0,0-8.33,1.14s-.29.14-.53-.52-.93-.89-3.76-.74-14.31.37-14.72-1.86c-.3-1.34,0,.78,3.75.61.9,0,2.53.19,3,.19s.48-.23.48-.27-.41-.46-3.25-.69-2-.67-1.68-.65a37,37,0,0,1,5.35.78c.61.33,2,.6,2.33,1a1.5,1.5,0,0,0,1.51.43c.47-.21-.7-.71-1.14-.94s-.87-.49-.87-.49a4.73,4.73,0,0,1,1.66.17,2.74,2.74,0,0,0,1.83.45c1.21,0,5.27.58,5.55-.22s-6.18-1-8.08-1.19-5.11-.35-5-.61,2.61.07,6.23.27,5.81-.09,6.88-.07a34.87,34.87,0,0,1,5.48.77c.35.2,1.17-.24,2.22-.21l8,.14c.7-.71,1.38-1.45,2-2.21l2.19-3.45s-.37-.78-1.49,0-3.75,2.46-3.75,2.46a15.23,15.23,0,0,1,3.24-3.71c1.63-1.12-2.2-2.34-4.62,3.71,0,0-.73-2.6-1.44-2.53s-1.7,1.71-2.67,1.6l1-1.76s-.07-.83-.65,0-1.51,2.36-1.51,2.36-.47-.69-.11-1.17.33-1.15-1.05-.29-.64.07-.45-.36-.29-1.33-1.27.21l-1,1.56s-.24-.73,0-.95.29-.83-.78-.47,0-.76.75-.91.62-.86.55-1.07-1.44-.33-3.33,1.58a13.29,13.29,0,0,1,2-2.74c.65-.4-.43-1.07-1-.64s-2.2,3-2.24,4.15a4.09,4.09,0,0,0-1.27-1.58c-.75-.47-.75.46-.47.68a1.32,1.32,0,0,1,.65,1.45,6.49,6.49,0,0,0-2.24.51,2.33,2.33,0,0,1,.87-1.46c.68-.4-.51-.54-.83-.25s-.65,0-1.44,1-.65-.22-.15-.62-.43-.79-.69-.07-.4,1.05-.58,1,.25-.91-.11-.94-1.48,0-.87-.29,0-.59-.82-.69c0,0,1.91-.49,1.8-1.19s-1.62-.51-3.69.44a15.83,15.83,0,0,1,2.36-2.35c.68-.36-.46-2.16-3.43,2-1.16,1.62-.54-.18,0-.69s-.29-.76-.65-.25a1.78,1.78,0,0,1-2.06.25c-.47-.36-.76.3-.33.66s-.07.84-.25.94,0-.51-.18-1.12-.95-.62-.84-.26,0,1-1.29-1.12-2.38-1.74-2.06-1.23,2,3.07,2,3.07-4.16-1.45-5.56-4.56-1.27-17.62,3.51-19.32,5.35.47,9.35-1.4,3.61-3.66,2.42-3.08-4.15,2.56-6.5,2.28-2.1-.48-.83-.91a16.63,16.63,0,0,0,3.65-2.42,6.61,6.61,0,0,1,3.82-.44c1.09.4,1.64-.15,1.74-.6a2.12,2.12,0,0,1,1.22-1.28,16,16,0,0,0,3.95-.65,24.55,24.55,0,0,1,3.78-1.23c.55,0,2.31-1.13,3.4-1.16s1.42-.62,1.85-.8a2,2,0,0,1,.71-.18s-.47,1.13,0,1.31,1.63-.3,1.63-.3a2.26,2.26,0,0,0,1.47,1c1.52.07,2-3.11,2.42-3.11,1.24,0,.95,1,1.78,1s.83-.86.83-1.2a4.69,4.69,0,0,0,2.68.58c1.3-.22,1.12-1.85.21-2.92s-.35-2-1.4-2.09-2.42-.66-2.67-1.34-.77-1.51-1.42-1.62c0,0,1.38-1.45,2-1.56a1.69,1.69,0,0,0,.53,2,2.51,2.51,0,0,0,2.32,0s-.22,1.53.57,1.53,1.09-.94,1.16-2.64a6.12,6.12,0,0,0,1.77.43c.83,0-.25-3.9-.58-4.27,0,0,2.4-.25,1.09-3s.94-.47,2.31-.29,1.49.35,1.49.35,1.16,1.16,2.21.73C411,48,410.46,46.49,409.9,45Zm-66.17,63.56a59.53,59.53,0,0,1-8.71,2.64s-.86-.51.29-.69,1.78-1.4,2.14-1.29a15.31,15.31,0,0,0,3.85-.4C342.47,108.51,346.4,107.27,343.72,108.55Zm19.94,1.62a10.6,10.6,0,0,1,4.81,1.88c1.11,1.08,3.6,1.81,3.75,2.35s-.69.25-.86.47-.32.93-.54,1-3.43-1.44-3.73-2-.51-.62-.11-1,0-1-1.65-1.51a6.22,6.22,0,0,0-2.11-.44S363.14,110.2,363.67,110.16Zm-4-62.51a5,5,0,0,0,.63,1.43c.23.18-.71,2.23-.9,2.35s-1.44-.65-1.92-.51c-.15,0,1.32-2.55,1.34-2.94S359.45,47.11,359.64,47.65ZM339.22,25.91c.38-.31.46-.91,0-.85s-.55-.91-.23-1.31,1.16-.6,1.49-.21.41.64,1,.34.62,0,.87.43,1.14,1.37,1.75,1.39.77-.83.69-.91-.33-.4,0-.64.55-.1,1,.55,1.14.41,1.19.11-.16-1.44.23-1.42,1.75,2.24,4.37,2.22-.23-1.48,1.68-1.84.41,1.8,2.22,1.7,1.92-2.83,1.92-3.22,1.12-.66,1.19.23.59.88.25,1.5-.87.58-.64.92.74,2-.6,2.36S356,26.88,355.7,27s.16,1.26-.18,1.29a2.68,2.68,0,0,1-1.42-.7c-.35-.3-1-.86-1.3-.2s.42,1.48.11,1.69-.68-.56-1,.05-.48,1.15-.82.78a10.59,10.59,0,0,1-1.18-2.63.77.77,0,0,0-1.36-.24c-.55.68.2,2.6-.14,2.8s-1.48-2.28-2.15-2.28-.82.7-1.23,1.44-.83,1.34-1.14,1.29-1.05-2.07-1-2.83,0-.88-.35-.84a3.54,3.54,0,0,0-1.5,1.6c-.12.52-.71.29-.55-.14a2.24,2.24,0,0,0,0-1.19,9.22,9.22,0,0,0-1.89-.29A6.18,6.18,0,0,1,339.22,25.91Zm17.45,23.58c.54-.14.43.26.18.71a2.63,2.63,0,0,1-.49.66,2.68,2.68,0,0,1-2.43-2,2.18,2.18,0,0,1,.77-1.6c.17-.09.58.84,1.06.75s.5.36.31.68A.55.55,0,0,0,356.67,49.49Zm-7.35,12.3c-.65-.35,0-.61.35-.67s.86-.77,1.09-.51-.09,2.49-.67,2.66C349.8,63.36,350,62.13,349.32,61.79Zm.08,7.46c-.29.77-4.05-3.22-4.6-4.09s-2.51-3.37-1.94-4.29,1.43.44,1.68.69A3.58,3.58,0,0,0,347,62C347.8,61.81,350.49,66.34,349.4,69.25Zm-.94-20.51c-.85.66.49.69,1.29,1.38s.28,1-.38.71a13.46,13.46,0,0,0-3.29-.71c-.4,0-.23.48-.23.48s-.71-.75-1-.71-.52-.71,1.34-5c0,0,1.63.69,4.09-1.23a3.84,3.84,0,0,0,1.66,3.9A12.74,12.74,0,0,0,348.46,48.74Zm-9,1.43c-.06.78-.43.5-.43.5-.28,0-.45-2.07,0-3.15s1.67.69,1.87,1.08S339.48,49.4,339.42,50.17Zm1.05,7.33c-.57-.23-.76-1.19-.32-1.26S340.47,57.5,340.47,57.5Zm-2.4-3.66a6,6,0,0,0-.17,2.24,2.17,2.17,0,0,1-.06,1.05c-.37.21-.8.06-1.63-3s-.65-3.25-.38-3.75.81-.92,1.24,0,.52,1.35,0,1.83-.63.74-.21.94S338.27,52.81,338.07,53.83ZM327.63,30.17c.28-.52,0-1.16,0-1.36s.33-.8.84-.66.19-.73-.07-.91-.75-.63.46-.71.64-1,.46-1.16-.21-.6.42-.1.77.18,1-.1.9-1.49,1.78-.94-.31,1.76.3,2.17,1-.25,1.4.23.11,1.18-.21,2.39-.55,2.06.34,2.12,1.89-.93,2.08-2.17c0,0,1,1.54.41,2.58s1.26,1.25.6,1.74-.7.54-1,.34a1.46,1.46,0,0,0-1.72-.47c-1,.41-2.65.13-2.83-1.33s-1.4-2.1-1.83-1.92-.78.17-.89-.11a.3.3,0,0,0-.57,0c-.06.29.25,1.21-.39,1.21S327.36,30.71,327.63,30.17Zm-1.77,29.5c.65-.06-.55,1.57-.17,4.26h-.83S325.19,59.73,325.86,59.67Zm0,11.27c-2.6-.49-2.8-2.12-3.44-3.26s-.51-1.2-.48-1.32a3.57,3.57,0,0,0,.43-1.36c0-.61.65-.43.88-.21a1.67,1.67,0,0,0,1,.32,2.22,2.22,0,0,1,2.41,1.11c.75,1.44,5.44,4.89,5.36,5.16S328.44,71.43,325.83,70.95Zm25.75,9.47s-.08.11-.82-1.22a2.69,2.69,0,0,0-3.27-1.34,7,7,0,0,1-4.41-1.28c-.75-.55-2.2-2.6-2.86-2.77a41.52,41.52,0,0,1-4.61-2c-1.91-.9-1.14.52-3.77-1.85s-2.52-3.1-2.37-3.38.54-.14.46.11.31.37.62.25.14-.91.17-1.31.31,0,.49,0,.37-.25.22-.82.11-.86.38-.86a.49.49,0,0,1,.48.54c-.06.32.34.45.54.49A7.45,7.45,0,0,0,334,62.44c0-.54-.41-1.4-.23-1.45s1.11,0,1.37-.23.15-.46-.57-.61.4-.75.42-1-.63-.2-1.41-.06-1.71-.33-1.26-.48.84-1.28-.19-1.41-.8,1.3-.8,1.3c-.69-.2-1,.31-1.17,1.09s-.69.55-.77.4A1.64,1.64,0,0,0,328,59.7c-.42.21-.23.52-.06.8s0,.5-.51.85,0,.94.17,1.17,0,2.35-.61,2.2-.22-4-.22-4.71a5,5,0,0,1,.58-1.81c.23-.62.17-1.09.4-1.17s1.11.53,1.57.46.11-.37.09-1.19.45,0,.85,0,1.2-1.8,1.38-2.91.51-.89.81-.54.82.57,1.88-.23.42-.43.74,1.91,1.86,4.61,2.64,5a6.21,6.21,0,0,1,2.23,2.29,74.51,74.51,0,0,0,4.6,6.9c.58.66,2.92,2.86,3,4.1s3.08,4.06,3.08,4.43a23.67,23.67,0,0,0,1,2.8A.34.34,0,0,1,351.58,80.42Zm3-3.84c-.34-.12-.17-2-1.14-2.95s-1.94-2.91-1.66-3.92.81-5.35.28-6.87a2.42,2.42,0,0,1,.46-2.66c.35-.4-.2-1.37.37-2.35s.46-.4,1.17-.37a3.7,3.7,0,0,0,2.14-.95c.58-.45,1.48-1.14,1,.52a46.06,46.06,0,0,0-1.34,8.64c0,2-.78,5.46-.74,7.47A9.88,9.88,0,0,1,354.57,76.58Zm2.67,33.1c-.29-.15-.72,0-1.3-.19a1.1,1.1,0,0,1-.69-1c0-.19.9,0,1.59.29A.66.66,0,0,1,357.24,109.68Zm.57-50.09c.4-3.64,1.17-4.78,1.17-4.78a.7.7,0,0,0,1.09.34c.8-.46-.06-2.46-.09-2.81s1.18-2.14,1.26-1.88.92.29.92.29a4.63,4.63,0,0,0,0,2.48c.08.92-.78,1.26-1.37,2.09s-.23,1.43.88,1.34,2.83.46,3.5-.15,1.26,0,1.72.55,0,.43-.73.22-2.93.81-3.74,1.12-.61,1.14,0,.89a23.72,23.72,0,0,1,3.37-.49c0,.4,0,1-.48,1.2-3,1.33-1.91,2.94-1.91,2.94-2,1.11-4.7,4.41-5.83,4.11S357.42,63.22,357.82,59.59Zm9.07,11.93c-5.44,1.59-8.67,4.46-9.07,4.38s-.23-4.36,1.8-7.07,6.49-5.21,6.49-5.21c-.52,2.29.38,2.64,1.4,1.26s.17-1.92.42-1.92,1-.6,1-.85.34-.3.82-.32.63.19.63.65a1.42,1.42,0,0,0,1,1.15c.48.11.85.11.8.58s.86.94,1.38.94,1-1.17,1.4-2.94a2.65,2.65,0,0,1,2.23-2.24c.43,0,.34.78.06,1.66s-.29,2.75-.46,3.12a5.44,5.44,0,0,1-2.55,1.51,7.5,7.5,0,0,0-3.66,2.3A29.83,29.83,0,0,1,366.88,71.52Zm12.53-18.15c-.31,0-.23-.4-.62-.31s-.8.61-1.28.61-.81-.25-.69-.46.6-1.36.6-1.36a5.68,5.68,0,0,0,1.57,0c.63-.15,1,.08,1.06.54S379.73,53.37,379.41,53.37ZM380.56,63c-.26.92-2.21,1.43-2.21,1.43a4.91,4.91,0,0,1,.61-4C379,60.33,380.81,62.06,380.56,63Zm9.67.09c-.09.54-1.05,1.84-1.57,1.92a36,36,0,0,0-4.17.86,24.8,24.8,0,0,1-4.9,1.22c-2,.23-3.58.69-4.2,1.32a2.39,2.39,0,0,1-2.67.45,13.7,13.7,0,0,1,6.1-3c4.2-1.09,4.46-3.17,4.71-3.37a1.94,1.94,0,0,1,1.67.17c.31.31-.29,1.36.11,1.69s1.55,1.09,2,.52.71-1.8,1.26-2.21S390.31,62.53,390.23,63.07Zm-6.12-10.92c.55-.18,1.18.45,1.18.45l-1.07.67Zm7.09,1.53c-.2-.05-.94.58-1.08.92s-.06.54-.49.52-.37-.5-.57-.27a2.4,2.4,0,0,1-1,.77c-.43.12-.88-.63-.31-1.09a2.9,2.9,0,0,0,.74-1.53,4.94,4.94,0,0,0,1.88-.32c.18-.06.35.53.69.62S391.4,53.75,391.2,53.69Zm2.44-11.36a2.06,2.06,0,0,0-1.56.3c-.51.25-.71-1.21-1.41-.86s-.31,1-.81,1.82-1-.14-1.56-.45-.46.55-1,.65,0-1.36,0-2.11-1.66-.86-2-.86-.25.9-.7,1.46-1.35.51-1,.1,0-1.26-.36-1.66-.7-.15-1.2.35-.41.86-.66.86-1.35-.3-1.35-.66-.1-.85-.36-1-.91-.61-1.3-.82-1,.4-1.51.75-.45,1.21-.8,1.72-.91,0-1.17-.4-.56-.61-.56-.26-.65,1.52-1,0-1-1.21-1.06-.91a1.42,1.42,0,0,1-1.36,1.05c-1,.16-.4-.8,0-1.1s.51-.82-.21-.71-.31-.7.25-1.22a2.64,2.64,0,0,1,2-.59c.65,0,1.21-.05.61-.56s-.09-1.41,0-1.16a.84.84,0,0,0,1,.3c.4-.21.7-1.1.09-1.26a1,1,0,0,1-.91-1c0-.46,1.16-.77,1.77-.4s1,0,.85-.37.65-.8,1-.7,1,.3,1.16.81.25,1.16.61,1.36a1.2,1.2,0,0,0,.75-.55,2.17,2.17,0,0,1,1.46-.86c.61-.1,1,.82,1.61.66s1.91.05,2.07,1a1.2,1.2,0,0,0,2.15.4c.56-1,1.27-.56,1.37-.26s.45.56.75.1,1-.15.82.2.19,2.47.65,1.82.86.4.86.61a1.6,1.6,0,0,0,1.35,1.1c.81,0,2,2,2,2.51A1,1,0,0,1,393.64,42.33Zm3.19,12.11c-.39.27-1.12,1.45-1.46,1.34s-.26-2.09-.06-2,.76-.2,1-.48.5,0,.66.27A.58.58,0,0,1,396.83,54.44Z"/><path class="cls-2" d="M399.61,20.26a64.47,64.47,0,0,0-91.18,91.18,64.47,64.47,0,0,0,91.18-91.18Zm-2.11,89.05a61.48,61.48,0,1,1-86.95-86.94,61.48,61.48,0,0,1,86.95,86.94Z"/><path class="cls-2" d="M32.61,78a14.91,14.91,0,0,1-5.92,5,17.51,17.51,0,0,1-7.27,1.51A19.37,19.37,0,0,1,12,83.12a16.62,16.62,0,0,1-5.79-3.86,17.6,17.6,0,0,1-3.76-5.92,21.44,21.44,0,0,1,0-15,17.68,17.68,0,0,1,3.76-5.89A17,17,0,0,1,12,48.6a19.19,19.19,0,0,1,7.45-1.41,17.67,17.67,0,0,1,6.74,1.28,13.42,13.42,0,0,1,5.49,4.29L29,55a9.92,9.92,0,0,0-4.24-3.66,12.82,12.82,0,0,0-5.28-1.15,15.62,15.62,0,0,0-6.24,1.21,14,14,0,0,0-4.75,3.31,14.86,14.86,0,0,0-3,5A18.64,18.64,0,0,0,5.43,72a14.82,14.82,0,0,0,3,5,13.89,13.89,0,0,0,4.75,3.31,15.51,15.51,0,0,0,6.24,1.2,12.69,12.69,0,0,0,2.8-.32,12,12,0,0,0,2.83-1,13.28,13.28,0,0,0,2.64-1.7A11.18,11.18,0,0,0,29.91,76Z"/><path class="cls-2" d="M53.07,48.1h3.41L71.42,83.6H67.71l-3.86-9.42H45L41,83.6H37.58Zm1.55,3.61L46.35,71.17h16.3Z"/><path class="cls-2" d="M80,48.1h3.31v32.5H99.91v3H80Z"/><path class="cls-2" d="M108.18,48.1h11A23.7,23.7,0,0,1,127,49.23a17.26,17.26,0,0,1,5.33,2.88A14.14,14.14,0,0,1,135.68,56a19,19,0,0,1,1.81,4.08,18.33,18.33,0,0,1,.72,3.54c.11,1,.16,1.8.16,2.23s0,1.18-.16,2.23a18.32,18.32,0,0,1-.72,3.53,19,19,0,0,1-1.81,4.09,14.13,14.13,0,0,1-3.36,3.89A17.55,17.55,0,0,1,127,82.48a24,24,0,0,1-7.82,1.12h-11Zm3.31,32.5h6.82a23.84,23.84,0,0,0,6.57-.87A15.13,15.13,0,0,0,130.19,77a12.5,12.5,0,0,0,3.55-4.59,15.33,15.33,0,0,0,1.3-6.59,15.36,15.36,0,0,0-1.3-6.6,12.57,12.57,0,0,0-3.55-4.59A15,15,0,0,0,124.88,52a23.7,23.7,0,0,0-6.57-.88h-6.82Z"/><path class="cls-2" d="M144.68,48.1h3.41l8.83,31.44h.1l9-31.44h4.21l9,31.44h.11L188.1,48.1h3.42L181.18,83.6h-4.05l-9-31.59H168l-9,31.59H155Z"/><path class="cls-2" d="M200.13,48.1h21.72v3H203.44V63.75h17.25v3H203.44V80.59h19.21v3H200.13Z"/><path class="cls-2" d="M233.37,48.1h3.31v32.5h16.55v3H233.37Z"/><path class="cls-2" d="M262,48.1h3.31v32.5h16.55v3H262Z"/><path class="cls-2" d="M429.9,48.1h3.32v32.5h16.55v3H429.9Z"/><path class="cls-2" d="M469.36,48.1h3.41l14.94,35.5H484l-3.86-9.42h-18.8l-4,9.42h-3.45Zm1.55,3.61-8.27,19.46h16.3Z"/><path class="cls-2" d="M496.34,48.1h4.26l21.62,31.09h.1V48.1h3.31V83.6h-4.26L499.75,52.51h-.1V83.6h-3.32Z"/><path class="cls-2" d="M568.13,81.3a22.78,22.78,0,0,1-6.44,2.47,31.28,31.28,0,0,1-6.8.73,19.34,19.34,0,0,1-7.44-1.38,16.73,16.73,0,0,1-5.8-3.86,17.66,17.66,0,0,1-3.76-5.92,21.44,21.44,0,0,1,0-15,17.75,17.75,0,0,1,3.76-5.89,17.1,17.1,0,0,1,5.8-3.89,19.16,19.16,0,0,1,7.44-1.41q7.93,0,12.79,4.92l-2.4,2.5a10.24,10.24,0,0,0-2-1.78,13.4,13.4,0,0,0-2.56-1.41,16.66,16.66,0,0,0-2.88-.9,14,14,0,0,0-3-.33,15.63,15.63,0,0,0-6.24,1.21,14.12,14.12,0,0,0-4.75,3.31,14.94,14.94,0,0,0-3,5,18.64,18.64,0,0,0,0,12.33,14.9,14.9,0,0,0,3,5,14,14,0,0,0,4.75,3.31,15.52,15.52,0,0,0,6.24,1.2,30.28,30.28,0,0,0,5.38-.45,13.7,13.7,0,0,0,4.56-1.66V67.46h-8.52v-3h11.82Z"/><path class="cls-2" d="M581.38,48.1h21.26v3h-18V63.75h16.7v3h-16.7V83.6h-3.31Z"/><path class="cls-2" d="M610.47,65.85a20.25,20.25,0,0,1,1.34-7.47,17.83,17.83,0,0,1,3.76-5.89,17.17,17.17,0,0,1,5.79-3.89,20.44,20.44,0,0,1,14.9,0A16.92,16.92,0,0,1,642,52.49a17.6,17.6,0,0,1,3.76,5.89,21.3,21.3,0,0,1,0,15A17.52,17.52,0,0,1,642,79.27a16.56,16.56,0,0,1-5.78,3.86,20.79,20.79,0,0,1-14.9,0,16.8,16.8,0,0,1-5.79-3.86,17.75,17.75,0,0,1-3.76-5.92A20.42,20.42,0,0,1,610.47,65.85Zm3.3,0a17.76,17.76,0,0,0,1,6.16,14.82,14.82,0,0,0,3,5,13.87,13.87,0,0,0,4.74,3.31,16.8,16.8,0,0,0,12.48,0A13.84,13.84,0,0,0,639.79,77a14.59,14.59,0,0,0,3-5,18.64,18.64,0,0,0,0-12.33,14.62,14.62,0,0,0-3-5A14,14,0,0,0,635,51.41a16.73,16.73,0,0,0-12.48,0,14,14,0,0,0-4.74,3.31,14.86,14.86,0,0,0-3,5A17.77,17.77,0,0,0,613.77,65.85Z"/><path class="cls-2" d="M658.09,48.1h9.33c.46,0,1.1,0,1.9,0a21.09,21.09,0,0,1,2.62.3,16.69,16.69,0,0,1,2.86.8,8,8,0,0,1,4.5,4.26,9.18,9.18,0,0,1,.76,3.92,9,9,0,0,1-.88,4.21,8.13,8.13,0,0,1-2.2,2.68A9.39,9.39,0,0,1,674,65.85a18.75,18.75,0,0,1-3.06.7l10.34,17h-3.76l-10-16.85h-6.17V83.6h-3.32Zm3.32,15.65h7a11.66,11.66,0,0,0,4.24-.65,7.21,7.21,0,0,0,2.53-1.61,5,5,0,0,0,1.22-2.06,6.13,6.13,0,0,0,0-4,5,5,0,0,0-1.22-2.06,7.07,7.07,0,0,0-2.53-1.6,11.65,11.65,0,0,0-4.24-.66h-7Z"/><path class="cls-2" d="M690.89,48.1h11a23.68,23.68,0,0,1,7.82,1.13A17.52,17.52,0,0,1,715,52.11,14.55,14.55,0,0,1,718.39,56a19.74,19.74,0,0,1,1.8,4.08,19.14,19.14,0,0,1,.73,3.54c.1,1,.16,1.8.16,2.23s-.05,1.18-.16,2.23a19.13,19.13,0,0,1-.73,3.53,19.68,19.68,0,0,1-1.8,4.09A14.54,14.54,0,0,1,715,79.59a17.82,17.82,0,0,1-5.35,2.89,24,24,0,0,1-7.82,1.12h-11Zm3.32,32.5H701a23.94,23.94,0,0,0,6.58-.87A15.26,15.26,0,0,0,712.91,77a12.66,12.66,0,0,0,3.55-4.59,15.48,15.48,0,0,0,1.3-6.59,15.5,15.5,0,0,0-1.3-6.6,12.73,12.73,0,0,0-3.55-4.59A15.16,15.16,0,0,0,707.59,52a23.79,23.79,0,0,0-6.58-.88H694.2Z"/><path class="cls-1" d="M440.16,104.27h2.4V122h-2.4Z"/><path class="cls-1" d="M463.61,104.27h3.15l9.76,14.56h0V104.27H479V122h-3l-9.86-14.57h0V122h-2.4Z"/><path class="cls-1" d="M500.54,118.28a4.42,4.42,0,0,0,3.75,1.9c1.58,0,3.54-1,3.54-3,0-4.08-8.74-1.55-8.74-8.46,0-2.08,1.76-5,6-5a6.12,6.12,0,0,1,5.11,2l-2,1.78a3.71,3.71,0,0,0-3.15-1.55c-2.65,0-3.45,1.6-3.45,2.71,0,4.48,8.73,1.8,8.73,8.18,0,3.43-2.75,5.48-6.15,5.48a6.8,6.8,0,0,1-5.66-2.45Z"/><path class="cls-1" d="M532.49,104.27v10.86c0,2.2,1.1,5.05,4.45,5.05s4.45-2.85,4.45-5.05V104.27h2.4V115.5a6.86,6.86,0,1,1-13.71,0V104.27Z"/><path class="cls-1" d="M564.51,104.27h6.23c4.53,0,5.68,2.72,5.68,5a4.75,4.75,0,0,1-4.36,4.68l5,8.09h-3l-4.51-7.81h-2.68V122h-2.4Zm2.4,7.8h3.15c1.9,0,3.8-.45,3.8-2.85s-1.9-2.85-3.8-2.85h-3.15Z"/><path class="cls-1" d="M601.84,104.27H604L611.6,122h-2.8L607,117.6h-8.43L596.83,122H594Zm4.3,11.23-3.31-8.13h0l-3.35,8.13Z"/><path class="cls-1" d="M630.39,104.27h3.15l9.76,14.56h0V104.27h2.4V122H642.7l-9.86-14.57h0V122h-2.4Z"/><path class="cls-1" d="M679.12,108.09a5.42,5.42,0,0,0-4.28-2c-4,0-6.61,3.18-6.61,7.21,0,3.73,2.48,6.91,6.61,6.91a5.45,5.45,0,0,0,4.63-2.38l2,1.53a8.25,8.25,0,0,1-6.71,3.1,9.12,9.12,0,0,1-9.11-9.16c0-5.5,3.78-9.46,9.24-9.46a7.76,7.76,0,0,1,6.2,2.75Z"/><path class="cls-1" d="M700.89,104.27h11.44v2.25h-9v5.28h8.41v2.26h-8.41v5.68h9.48V122H700.89Z"/></svg>