<?xml version="1.0" encoding="utf-8"?>
<!-- Generator: Adobe Illustrator 20.1.0, SVG Export Plug-In . SVG Version: 6.00 Build 0)  -->
<svg version="1.1" id="Layer_1" xmlns="http://www.w3.org/2000/svg" xmlns:xlink="http://www.w3.org/1999/xlink" x="0px" y="0px"
	 viewBox="0 0 319 123" style="enable-background:new 0 0 319 123;" xml:space="preserve">
<style type="text/css">
	.st0{fill:#E4B43A;}
	.st1{fill:#162C18;}
</style>
<path class="st0" d="M-25.4-514.8c-3.8,0,0.7,9.8,0.7,9.8c11,20.6,16.5,26.2,21.7,28.2s8.2,1.4,8.2,0.1c0-1.3-2.9-1.2-2.9-1.2
	c-12.8,0-31.1,13.5-37.6,16.3s-12.9,5.3-20.3,5.3s-11.5-3-11.5-6.7c0-3.7,3.9-6.2,3.9-6.2c5.7-3.4,16.9-5.2,30.6,1.9
	c13.7,7.1,21.9,13.6,30.8,13.6s11.2-5,9.9-8c-1.3-3-3.8-3.2-5.5-3.2s-2.5,0.5-2.5,0.5c-3,2-3.1,1-3.1,1s0-2.5,5.7-2.5
	c6.3,0,6.8,5.6,6.8,6.5s-0.8,7.6-11.9,7.6s-22.3-10.6-38-16.8s-29.9,2.8-23.1,8.9s26.3-0.8,35.8-6.9s19.6-12.3,30-12.3
	c0,0,4.6-0.2,4.6,2.2c0,2.1-4.2,4.1-13.1,0.1s-19.1-25.1-19.1-25.1s-5.9-14.9-0.2-14.9h0.7c5.6,0-0.2,14.9-0.2,14.9
	s-10.2,21.1-19.1,25.1s-13.1,1.9-13.1-0.1c0-2.5,4.6-2.2,4.6-2.2c10.4,0,20.6,6.1,30,12.3s29,13.1,35.8,6.9s-7.5-15.1-23.1-8.9
	s-26.8,16.8-38,16.8s-11.9-6.7-11.9-7.6s0.5-6.5,6.8-6.5c5.6,0,5.7,2.5,5.7,2.5s-0.1,1.1-3.1-1c0,0-0.8-0.5-2.5-0.5
	c-1.7,0-4.2,0.1-5.5,3.2c-1.3,3,1,8,9.9,8s17.1-6.5,30.8-13.6c13.7-7.1,24.9-5.3,30.6-1.9c0,0,3.9,2.5,3.9,6.2c0,3.7-4,6.7-11.5,6.7
	s-13.8-2.5-20.3-5.3s-24.8-16.3-37.6-16.3c0,0-2.9-0.2-2.9,1.2c0,1.3,3,2,8.2-0.1s10.7-7.7,21.7-28.2c0,0,4.4-9.8,0.7-9.8H-25.4z"/>
<g>
	<g>
		<path class="st1" d="M90.9-490.7c-0.9-6.2-2.6-10.3-5-12.2c-2.5-2-5.5-3-9-3h-2.1v49.4h8.4v2h-27v-2h8.4v-49.4h-2.2
			c-3.6,0-6.6,1-9,2.9c-2.4,2-4.1,6.1-5,12.2h-2.6l0.9-17.1h45.8l0.9,17.1H90.9z"/>
		<path class="st1" d="M143.5-458c-3.4,2.5-8.2,3.7-14.3,3.7h-28.3v-2h7.9v-49.4h-7.9v-2h26.6c6.2,0,11,1,14.3,3.1
			c3.4,2.1,5,5.3,5,9.6c0,3.4-1.4,6.2-4.1,8.5c-2.7,2.2-6.6,3.7-11.6,4.5c5.4,0.6,9.6,2.1,12.7,4.4c3.2,2.5,4.8,5.5,4.8,9.1
			C148.7-464.1,146.9-460.5,143.5-458z M133.9-503.2c-1.4-1.8-3.7-2.6-6.9-2.6h-8.1v22.8h7.6c3.2,0,5.6-1,7.1-3.1
			c1.5-2.1,2.3-5.1,2.3-9C136-498.8,135.3-501.5,133.9-503.2z M134.6-478c-1.8-2-4.5-3-8.1-3h-7.6v24.6h10.6c2.6,0,4.5-1.1,5.8-3.3
			c1.3-2.1,2-5.1,2-9C137.2-472.8,136.4-475.9,134.6-478z"/>
		<path class="st1" d="M205-453.4c-2.2,0-4.2-0.4-5.8-1.1c-3.1-1.4-5-4.1-5.8-7.8l-0.2-3.4c-0.2-2.6-0.4-4.8-0.7-6.8
			c-0.3-2-0.9-3.7-1.7-5c-1.7-2.8-4.5-4.2-8.4-4.2h-4.2v25.5h7.9v2h-26v-2h7.9v-49.4H160v-2h28.2c5.9,0,10.3,1,13.2,2.9
			c3,1.9,4.5,5,4.5,9.3c0,3.5-1.4,6.3-4.2,8.5c-2.8,2.2-7.1,3.7-12.7,4.6c6.7,1.4,10.9,3.8,12.6,7.3c0.9,1.8,1.6,3.7,2,5.8
			c0.4,2.1,0.6,4.3,0.7,6.7l0.1,3.9c0.3,1.2,1,2.1,1.9,2.6c0.5,0.3,1.3,0.4,2.6,0.4c0.9,0,2-0.1,3.4-0.2v1.8
			C209.5-453.7,207.1-453.4,205-453.4z M193-503.2c-1.4-1.8-3.7-2.6-7-2.6h-7.8v21.9h6.8c3.5,0,6-0.9,7.6-2.6
			c1.6-1.8,2.4-4.5,2.4-8.2C194.9-498.7,194.2-501.5,193-503.2z"/>
	</g>
	<g>
		<path class="st1" d="M-59.3-433c-0.2-1.5-0.6-2.4-1.2-2.9c-0.6-0.5-1.3-0.7-2.1-0.7h-0.5v11.7h2v0.5h-6.4v-0.5h2v-11.7H-66
			c-0.8,0-1.6,0.2-2.1,0.7c-0.6,0.5-1,1.4-1.2,2.9H-70l0.2-4.1h10.9l0.2,4.1H-59.3z"/>
		<path class="st1" d="M-51.3-424.4v-0.5h2l-1.1-3.4h-4.1l-1.2,3.4h1.9v0.5h-4v-0.5h1.5l4.5-12.5h0.7l4.3,12.5h1.5v0.5H-51.3z
			 M-52.4-434l-1.9,5.3h3.7L-52.4-434z"/>
		<path class="st1" d="M-35.3-436.6l-3.3,6v5.7h2.1v0.5H-43v-0.5h2v-5.3l-4-6.5h-1.4v-0.5h6.2v0.5h-1.9l3.2,5.5l3.1-5.5h-2v-0.5h4.1
			v0.5H-35.3z"/>
		<path class="st1" d="M-21.3-424.4h-10.5v-0.5h1.9v-11.7h-1.9v-0.5h6.3v0.5h-2v11.7h2.5c1.2,0,2-0.3,2.5-1c0.5-0.7,0.8-1.6,0.9-2.8
			h0.6L-21.3-424.4z"/>
		<path class="st1" d="M-9.2-426.1c-1.2,1.3-2.6,2-4.1,2c-1.6,0-2.9-0.7-4.1-2c-1.2-1.3-1.8-2.9-1.8-4.7c0-1.8,0.6-3.3,1.8-4.6
			c1.2-1.3,2.6-2,4.1-2c1.6,0,2.9,0.7,4.1,2c1.2,1.3,1.8,2.9,1.8,4.7C-7.4-428.9-8-427.4-9.2-426.1z M-10.2-433
			c0-1.3-0.3-2.2-0.8-2.9c-0.5-0.7-1.3-1-2.4-1c-1.1,0-1.8,0.3-2.4,1c-0.5,0.7-0.8,1.6-0.8,2.9v4.5c0,1.3,0.3,2.2,0.8,2.9
			c0.5,0.7,1.3,1,2.4,1s1.8-0.3,2.4-1c0.5-0.7,0.8-1.6,0.8-2.9V-433z"/>
		<path class="st1" d="M5.9-424.1c-0.6,0-1.1-0.1-1.5-0.3c-0.8-0.3-1.3-1-1.5-1.9l-0.1-0.8c0-0.6-0.1-1.1-0.2-1.6
			c-0.1-0.5-0.2-0.9-0.4-1.2c-0.4-0.7-1.1-1-2.1-1h-1v6.1h2v0.5h-6.5v-0.5h2v-11.7h-2v-0.5h7.1c1.5,0,2.6,0.2,3.3,0.7
			c0.8,0.4,1.1,1.2,1.1,2.2c0,0.8-0.3,1.5-1,2c-0.7,0.5-1.8,0.9-3.2,1.1c1.7,0.3,2.7,0.9,3.2,1.7c0.2,0.4,0.4,0.9,0.5,1.4
			c0.1,0.5,0.2,1,0.2,1.6l0,0.9c0.1,0.3,0.2,0.5,0.5,0.6c0.1,0.1,0.3,0.1,0.6,0.1c0.2,0,0.5,0,0.8-0.1v0.4
			C7-424.2,6.4-424.1,5.9-424.1z M2.8-435.9c-0.3-0.4-0.9-0.6-1.8-0.6h-2v5.2h1.7c0.9,0,1.5-0.2,1.9-0.6c0.4-0.4,0.6-1.1,0.6-2
			C3.3-434.9,3.2-435.5,2.8-435.9z"/>
		<path class="st1" d="M24.4-425.2c-0.8,0.6-1.9,0.9-3.4,0.9h-6.7v-0.5h1.9v-11.7h-1.9v-0.5h6.3c1.5,0,2.6,0.2,3.4,0.7
			c0.8,0.5,1.2,1.3,1.2,2.3c0,0.8-0.3,1.5-1,2c-0.6,0.5-1.6,0.9-2.8,1.1c1.3,0.1,2.3,0.5,3,1c0.8,0.6,1.1,1.3,1.1,2.2
			C25.6-426.7,25.2-425.8,24.4-425.2z M22.1-435.9c-0.3-0.4-0.9-0.6-1.6-0.6h-1.9v5.4h1.8c0.8,0,1.3-0.2,1.7-0.7
			c0.4-0.5,0.6-1.2,0.6-2.1C22.6-434.9,22.4-435.5,22.1-435.9z M22.3-430c-0.4-0.5-1.1-0.7-1.9-0.7h-1.8v5.9h2.5
			c0.6,0,1.1-0.3,1.4-0.8c0.3-0.5,0.5-1.2,0.5-2.1C22.9-428.7,22.7-429.5,22.3-430z"/>
		<path class="st1" d="M39.4-424.4H27.8v-0.5h2v-11.7h-2v-0.5h11.2l0.1,3.4h-0.6c-0.3-1.2-0.7-2-1.3-2.4c-0.6-0.4-1.4-0.6-2.6-0.6
			h-2.3v5.5H33c1,0,1.7-0.2,2-0.7c0.3-0.5,0.5-1,0.5-1.6h0.6v5.3h-0.6c0-0.7-0.2-1.3-0.5-1.7c-0.3-0.5-1-0.8-2.1-0.8h-0.6v5.8h2.7
			c1.3,0,2.2-0.3,2.8-0.9c0.5-0.6,0.9-1.5,1.1-2.7h0.6L39.4-424.4z"/>
		<path class="st1" d="M52.7-436.6v12.5h-0.6l-8.1-12.1v11.4h1.9v0.5h-4.3v-0.5h1.9v-11.7h-1.9v-0.5h4.9l5.6,8.3v-7.8h-1.8v-0.5h4.3
			v0.5H52.7z"/>
		<path class="st1" d="M67.8-424.4H57v-0.5h1.9v-11.7H57v-0.5h10.5l0.1,3.4h-0.5c-0.3-1.2-0.7-2-1.2-2.4c-0.5-0.4-1.3-0.6-2.4-0.6
			h-2.2v5.5h0.5c1,0,1.6-0.2,1.9-0.7c0.3-0.5,0.5-1,0.5-1.6h0.5v5.3h-0.5c0-0.7-0.2-1.3-0.5-1.7c-0.3-0.5-1-0.8-1.9-0.8h-0.5v5.8
			h2.5c1.2,0,2.1-0.3,2.6-0.9c0.5-0.6,0.8-1.5,1-2.7H68L67.8-424.4z"/>
		<path class="st1" d="M81-433.2c-0.3-1.4-0.7-2.3-1.2-2.8c-0.5-0.4-1.3-0.6-2.4-0.6h-2.2v5.5h0.5c1,0,1.6-0.2,1.9-0.7
			c0.3-0.5,0.5-1,0.5-1.6h0.5v5.3h-0.5c0-0.7-0.2-1.3-0.5-1.7c-0.3-0.5-1-0.8-1.9-0.8h-0.5v5.8h1.9v0.5h-6.2v-0.5h1.9v-11.7h-1.9
			v-0.5h10.5l0.1,3.9H81z"/>
		<path class="st1" d="M83-424.4v-0.5h1.9v-11.7H83v-0.5h6.2v0.5h-1.9v11.7h1.9v0.5H83z"/>
		<path class="st1" d="M101.9-433c-0.2-1.5-0.6-2.4-1.2-2.9c-0.6-0.5-1.3-0.7-2.1-0.7h-0.5v11.7h2v0.5h-6.4v-0.5h2v-11.7h-0.5
			c-0.8,0-1.6,0.2-2.1,0.7c-0.6,0.5-1,1.4-1.2,2.9h-0.6l0.2-4.1h10.9l0.2,4.1H101.9z"/>
		<path class="st1" d="M120.3-424.1c-0.5,0-1-0.1-1.4-0.3c-0.7-0.3-1.2-1-1.4-1.9l-0.1-0.8c0-0.6-0.1-1.1-0.2-1.6
			c-0.1-0.5-0.2-0.9-0.4-1.2c-0.4-0.7-1.1-1-2-1h-1v6.1h1.9v0.5h-6.2v-0.5h1.9v-11.7h-1.9v-0.5h6.7c1.4,0,2.5,0.2,3.1,0.7
			c0.7,0.4,1.1,1.2,1.1,2.2c0,0.8-0.3,1.5-1,2c-0.7,0.5-1.7,0.9-3,1.1c1.6,0.3,2.6,0.9,3,1.7c0.2,0.4,0.4,0.9,0.5,1.4
			c0.1,0.5,0.1,1,0.2,1.6l0,0.9c0.1,0.3,0.2,0.5,0.5,0.6c0.1,0.1,0.3,0.1,0.6,0.1c0.2,0,0.5,0,0.8-0.1v0.4
			C121.4-424.2,120.8-424.1,120.3-424.1z M117.5-435.9c-0.3-0.4-0.9-0.6-1.7-0.6h-1.9v5.2h1.6c0.8,0,1.4-0.2,1.8-0.6
			c0.4-0.4,0.6-1.1,0.6-2C117.9-434.9,117.8-435.5,117.5-435.9z"/>
		<path class="st1" d="M134.8-424.4H124v-0.5h1.9v-11.7H124v-0.5h10.5l0.1,3.4h-0.5c-0.3-1.2-0.7-2-1.2-2.4
			c-0.5-0.4-1.3-0.6-2.4-0.6h-2.2v5.5h0.5c1,0,1.6-0.2,1.9-0.7c0.3-0.5,0.5-1,0.5-1.6h0.5v5.3h-0.5c0-0.7-0.2-1.3-0.5-1.7
			c-0.3-0.5-1-0.8-1.9-0.8h-0.5v5.8h2.5c1.2,0,2.1-0.3,2.6-0.9c0.5-0.6,0.8-1.5,1-2.7h0.6L134.8-424.4z"/>
		<path class="st1" d="M144.4-425.2c-0.7,0.8-1.7,1.2-2.9,1.2c-0.6,0-1-0.1-1.5-0.2c-0.5-0.2-0.9-0.4-1.3-0.7l-0.9,0.8h-0.3v-3.8
			h0.6c0.2,1,0.6,1.8,1.2,2.5c0.6,0.7,1.3,1,2.3,1c0.8,0,1.5-0.3,2-0.8c0.6-0.5,0.8-1.1,0.8-1.9c0-0.8-0.3-1.4-0.9-1.8
			c-0.7-0.4-1.5-0.7-2.5-1c-1.2-0.3-2.1-0.8-2.6-1.4c-0.5-0.6-0.8-1.4-0.8-2.4c0-1,0.3-1.9,1-2.6c0.7-0.7,1.5-1,2.5-1
			c0.5,0,1,0.1,1.5,0.2c0.5,0.2,0.9,0.4,1.3,0.7l0.7-0.7h0.4v3.6h-0.6c-0.1-0.9-0.5-1.7-1-2.4c-0.6-0.6-1.3-0.9-2.2-0.9
			c-0.6,0-1.2,0.2-1.7,0.6s-0.7,0.9-0.7,1.5c0,0.7,0.2,1.2,0.7,1.4c0.5,0.2,1.2,0.5,2.1,0.7c1.5,0.4,2.5,0.9,3.1,1.5
			c0.6,0.6,0.9,1.6,0.9,2.7C145.5-427,145.1-426,144.4-425.2z"/>
		<path class="st1" d="M158.1-426.1c-1.2,1.3-2.6,2-4.1,2c-1.6,0-2.9-0.7-4.1-2c-1.2-1.3-1.8-2.9-1.8-4.7c0-1.8,0.6-3.3,1.8-4.6
			c1.2-1.3,2.6-2,4.1-2c1.6,0,2.9,0.7,4.1,2c1.2,1.3,1.8,2.9,1.8,4.7C159.8-428.9,159.3-427.4,158.1-426.1z M157.1-433
			c0-1.3-0.3-2.2-0.8-2.9c-0.5-0.7-1.3-1-2.4-1c-1.1,0-1.8,0.3-2.4,1c-0.5,0.7-0.8,1.6-0.8,2.9v4.5c0,1.3,0.3,2.2,0.8,2.9
			c0.5,0.7,1.3,1,2.4,1s1.8-0.3,2.4-1c0.5-0.7,0.8-1.6,0.8-2.9V-433z"/>
		<path class="st1" d="M173-436.6v8.1c0,1.6-0.4,2.7-1.1,3.4c-0.7,0.7-1.9,1-3.6,1c-1.7,0-2.9-0.4-3.6-1.1c-0.7-0.7-1.1-1.9-1.1-3.6
			v-7.8h-1.9v-0.5h6.2v0.5h-1.9v8.7c0,1.1,0.2,1.9,0.7,2.4c0.5,0.5,1.3,0.8,2.3,0.8c1.1,0,1.9-0.3,2.5-0.9c0.6-0.6,0.9-1.5,0.9-2.6
			v-8.4h-1.9v-0.5h4.4v0.5H173z"/>
		<path class="st1" d="M188.2-424.1c-0.5,0-1-0.1-1.4-0.3c-0.7-0.3-1.2-1-1.4-1.9l-0.1-0.8c0-0.6-0.1-1.1-0.2-1.6
			c-0.1-0.5-0.2-0.9-0.4-1.2c-0.4-0.7-1.1-1-2-1h-1v6.1h1.9v0.5h-6.2v-0.5h1.9v-11.7h-1.9v-0.5h6.7c1.4,0,2.5,0.2,3.1,0.7
			c0.7,0.4,1.1,1.2,1.1,2.2c0,0.8-0.3,1.5-1,2c-0.7,0.5-1.7,0.9-3,1.1c1.6,0.3,2.6,0.9,3,1.7c0.2,0.4,0.4,0.9,0.5,1.4
			c0.1,0.5,0.1,1,0.2,1.6l0,0.9c0.1,0.3,0.2,0.5,0.5,0.6c0.1,0.1,0.3,0.1,0.6,0.1c0.2,0,0.5,0,0.8-0.1v0.4
			C189.3-424.2,188.7-424.1,188.2-424.1z M185.4-435.9c-0.3-0.4-0.9-0.6-1.7-0.6h-1.9v5.2h1.6c0.8,0,1.4-0.2,1.8-0.6
			c0.4-0.4,0.6-1.1,0.6-2C185.8-434.9,185.7-435.5,185.4-435.9z"/>
		<path class="st1" d="M201.6-424.2l-0.8-0.9c-0.5,0.4-0.9,0.6-1.5,0.8c-0.6,0.2-1.2,0.3-1.7,0.3c-1.6,0-2.9-0.7-4.1-2
			c-1.2-1.3-1.8-2.8-1.8-4.6c0-1.8,0.6-3.4,1.8-4.7c1.2-1.3,2.6-2,4.3-2c0.6,0,1.2,0.1,1.7,0.3c0.5,0.2,0.9,0.4,1.2,0.7l0.7-0.8h0.4
			v3.7h-0.6c-0.3-1.3-0.7-2.2-1.4-2.7c-0.7-0.5-1.4-0.7-2.2-0.7c-1.1,0-1.9,0.4-2.4,1.1c-0.5,0.8-0.8,1.9-0.8,3.3v3.5
			c0,1.4,0.3,2.5,0.8,3.3c0.5,0.8,1.4,1.1,2.5,1.1c0.7,0,1.5-0.2,2.1-0.7c0.7-0.5,1.2-1.4,1.5-2.8h0.6v3.9H201.6z"/>
		<path class="st1" d="M215-424.4h-10.8v-0.5h1.9v-11.7h-1.9v-0.5h10.5l0.1,3.4h-0.5c-0.3-1.2-0.7-2-1.2-2.4
			c-0.5-0.4-1.3-0.6-2.4-0.6h-2.2v5.5h0.5c1,0,1.6-0.2,1.9-0.7c0.3-0.5,0.5-1,0.5-1.6h0.5v5.3h-0.5c0-0.7-0.2-1.3-0.5-1.7
			c-0.3-0.5-1-0.8-1.9-0.8h-0.5v5.8h2.5c1.2,0,2.1-0.3,2.6-0.9c0.5-0.6,0.8-1.5,1-2.7h0.6L215-424.4z"/>
	</g>
</g>
<g>
	<path class="st0" d="M61.5,16c-3.8,0,0.7,10.8,0.7,10.8c11,20.6,16.5,26.2,21.7,28.3c5.2,2.1,8.2,1.4,8.2,0.1S89.2,54,89.2,54
		c-12.8,0-31.1,13.5-37.6,16.3c-6.5,2.8-12.9,5.3-20.3,5.3s-11.5-3-11.5-6.7s3.9-6.2,3.9-6.2c5.7-3.4,16.9-5.2,30.6,1.9
		s21.9,13.6,30.8,13.6s11.2-5,9.9-8c-1.3-3-3.8-3.2-5.5-3.2c-1.7,0-2.5,0.5-2.5,0.5c-3,2-3.1,1-3.1,1s0-2.5,5.7-2.5
		c6.3,0,6.8,5.6,6.8,6.5s-0.8,7.6-11.9,7.6s-22.3-10.6-38-16.8S16.6,66,23.4,72.1s26.3-0.8,35.8-6.9s19.6-12.3,30-12.3
		c0,0,4.6-0.2,4.6,2.2c0,2.1-4.2,4.1-13.1,0.1S61.6,30.2,61.6,30.2s-5.9-14.9-0.2-14.9h0.7c5.6,0-0.2,14.9-0.2,14.9
		S51.6,51.3,42.7,55.3s-13.1,1.9-13.1-0.1c0-2.5,4.6-2.2,4.6-2.2c10.4,0,20.6,6.1,30,12.3s29,13.1,35.8,6.9S92.5,57,76.9,63.3
		s-26.8,16.8-38,16.8S27,73.4,27,72.5s0.5-6.5,6.8-6.5c5.6,0,5.7,2.5,5.7,2.5s-0.1,1.1-3.1-1c0,0-0.8-0.5-2.5-0.5
		c-1.7,0-4.2,0.1-5.5,3.2c-1.3,3,1,8,9.9,8s17.1-6.5,30.8-13.6s24.9-5.3,30.6-1.9c0,0,3.9,2.5,3.9,6.2s-4,6.7-11.5,6.7
		c-7.4,0-13.8-2.5-20.3-5.3C65.3,67.5,47,54,34.2,54c0,0-2.9-0.2-2.9,1.2s3,2,8.2-0.1c5.2-2.1,10.7-7.7,21.7-28.3
		c0,0,4.4-10.8,0.7-10.8H61.5z"/>
	<g>
		<g>
			<path class="st1" d="M177.8,41.1c-0.9-6.2-2.6-10.3-5-12.2c-2.5-2-5.5-3-9-3h-2.1v49.4h8.4v2h-27v-2h8.4V26h-2.2
				c-3.6,0-6.6,1-9,2.9c-2.4,2-4.1,6.1-5,12.2h-2.6l0.9-17.1h45.8l0.9,17.1H177.8z"/>
			<path class="st1" d="M230.4,73.8c-3.4,2.5-8.2,3.7-14.3,3.7h-28.3v-2h7.9V26h-7.9v-2h26.6c6.2,0,11,1,14.3,3.1
				c3.4,2.1,5,5.3,5,9.6c0,3.4-1.4,6.2-4.1,8.5c-2.7,2.2-6.6,3.7-11.6,4.5c5.4,0.6,9.6,2.1,12.7,4.4c3.2,2.5,4.8,5.5,4.8,9.1
				C235.6,67.7,233.9,71.3,230.4,73.8z M220.8,28.6c-1.4-1.8-3.7-2.6-6.9-2.6h-8.1v22.8h7.6c3.2,0,5.6-1,7.1-3.1
				c1.5-2.1,2.3-5.1,2.3-9C222.9,33,222.2,30.4,220.8,28.6z M221.5,53.8c-1.8-2-4.5-3-8.1-3h-7.6v24.6h10.6c2.6,0,4.5-1.1,5.8-3.3
				c1.3-2.1,2-5.1,2-9C224.1,59,223.3,55.9,221.5,53.8z"/>
			<path class="st1" d="M291.9,78.4c-2.2,0-4.2-0.4-5.8-1.1c-3.1-1.4-5-4.1-5.8-7.8l-0.2-3.4c-0.2-2.6-0.4-4.8-0.7-6.8
				c-0.3-2-0.9-3.7-1.7-5c-1.7-2.8-4.5-4.2-8.4-4.2H265v25.5h7.9v2h-26v-2h7.9V26h-7.9v-2h28.2c5.9,0,10.3,1,13.2,2.9
				c3,1.9,4.5,5,4.5,9.3c0,3.5-1.4,6.3-4.2,8.5c-2.8,2.2-7.1,3.7-12.7,4.6c6.7,1.4,10.9,3.8,12.6,7.3c0.9,1.8,1.6,3.7,2,5.8
				c0.4,2.1,0.6,4.3,0.7,6.7l0.1,3.9c0.3,1.2,1,2.1,1.9,2.6c0.5,0.3,1.3,0.4,2.6,0.4c0.9,0,2-0.1,3.4-0.2v1.8
				C296.4,78.1,294,78.4,291.9,78.4z M279.9,28.6c-1.4-1.8-3.7-2.6-7-2.6H265v21.9h6.8c3.5,0,6-0.9,7.6-2.6c1.6-1.8,2.4-4.5,2.4-8.2
				C281.8,33.2,281.1,30.4,279.9,28.6z"/>
		</g>
		<g>
			<path class="st1" d="M27.6,98.8c-0.2-1.5-0.6-2.4-1.2-2.9c-0.6-0.5-1.3-0.7-2.1-0.7h-0.5V107h2v0.5h-6.4V107h2V95.2h-0.5
				c-0.8,0-1.6,0.2-2.1,0.7c-0.6,0.5-1,1.4-1.2,2.9h-0.6l0.2-4.1H28l0.2,4.1H27.6z"/>
			<path class="st1" d="M35.6,107.5V107h2l-1.1-3.4h-4.1l-1.2,3.4h1.9v0.5h-4V107h1.5l4.5-12.5h0.7l4.3,12.5h1.5v0.5H35.6z
				 M34.5,97.8l-1.9,5.3h3.7L34.5,97.8z"/>
			<path class="st1" d="M51.6,95.2l-3.3,6v5.7h2.1v0.5h-6.5V107h2v-5.3l-4-6.5h-1.4v-0.5h6.2v0.5h-1.9l3.2,5.5l3.1-5.5h-2v-0.5h4.1
				v0.5H51.6z"/>
			<path class="st1" d="M65.6,107.5H55V107h1.9V95.2H55v-0.5h6.3v0.5h-2V107h2.5c1.2,0,2-0.3,2.5-1c0.5-0.7,0.8-1.6,0.9-2.8h0.6
				L65.6,107.5z"/>
			<path class="st1" d="M77.7,105.7c-1.2,1.3-2.6,2-4.1,2c-1.6,0-2.9-0.7-4.1-2c-1.2-1.3-1.8-2.9-1.8-4.7c0-1.8,0.6-3.3,1.8-4.6
				c1.2-1.3,2.6-2,4.1-2c1.6,0,2.9,0.7,4.1,2c1.2,1.3,1.8,2.9,1.8,4.7C79.5,102.9,78.9,104.4,77.7,105.7z M76.7,98.8
				c0-1.3-0.3-2.2-0.8-2.9c-0.5-0.7-1.3-1-2.4-1c-1.1,0-1.8,0.3-2.4,1c-0.5,0.7-0.8,1.6-0.8,2.9v4.5c0,1.3,0.3,2.2,0.8,2.9
				c0.5,0.7,1.3,1,2.4,1s1.8-0.3,2.4-1c0.5-0.7,0.8-1.6,0.8-2.9V98.8z"/>
			<path class="st1" d="M92.8,107.7c-0.6,0-1.1-0.1-1.5-0.3c-0.8-0.3-1.3-1-1.5-1.9l-0.1-0.8c0-0.6-0.1-1.1-0.2-1.6
				c-0.1-0.5-0.2-0.9-0.4-1.2c-0.4-0.7-1.1-1-2.1-1h-1v6.1h2v0.5h-6.5V107h2V95.2h-2v-0.5h7.1c1.5,0,2.6,0.2,3.3,0.7
				c0.8,0.4,1.1,1.2,1.1,2.2c0,0.8-0.3,1.5-1,2c-0.7,0.5-1.8,0.9-3.2,1.1c1.7,0.3,2.7,0.9,3.2,1.7c0.2,0.4,0.4,0.9,0.5,1.4
				c0.1,0.5,0.2,1,0.2,1.6l0,0.9c0.1,0.3,0.2,0.5,0.5,0.6c0.1,0.1,0.3,0.1,0.6,0.1c0.2,0,0.5,0,0.8-0.1v0.4
				C93.9,107.6,93.3,107.7,92.8,107.7z M89.7,95.9c-0.3-0.4-0.9-0.6-1.8-0.6h-2v5.2h1.7c0.9,0,1.5-0.2,1.9-0.6
				c0.4-0.4,0.6-1.1,0.6-2C90.2,96.9,90.1,96.3,89.7,95.9z"/>
			<path class="st1" d="M111.3,106.6c-0.8,0.6-1.9,0.9-3.4,0.9h-6.7V107h1.9V95.2h-1.9v-0.5h6.3c1.5,0,2.6,0.2,3.4,0.7
				c0.8,0.5,1.2,1.3,1.2,2.3c0,0.8-0.3,1.5-1,2c-0.6,0.5-1.6,0.9-2.8,1.1c1.3,0.1,2.3,0.5,3,1c0.8,0.6,1.1,1.3,1.1,2.2
				C112.5,105.1,112.1,106,111.3,106.6z M109,95.9c-0.3-0.4-0.9-0.6-1.6-0.6h-1.9v5.4h1.8c0.8,0,1.3-0.2,1.7-0.7
				c0.4-0.5,0.6-1.2,0.6-2.1C109.5,96.9,109.3,96.3,109,95.9z M109.2,101.8c-0.4-0.5-1.1-0.7-1.9-0.7h-1.8v5.9h2.5
				c0.6,0,1.1-0.3,1.4-0.8c0.3-0.5,0.5-1.2,0.5-2.1C109.8,103.1,109.6,102.3,109.2,101.8z"/>
			<path class="st1" d="M126.3,107.5h-11.6V107h2V95.2h-2v-0.5H126l0.1,3.4h-0.6c-0.3-1.2-0.7-2-1.3-2.4c-0.6-0.4-1.4-0.6-2.6-0.6
				h-2.3v5.5h0.6c1,0,1.7-0.2,2-0.7c0.3-0.5,0.5-1,0.5-1.6h0.6v5.3h-0.6c0-0.7-0.2-1.3-0.5-1.7c-0.3-0.5-1-0.8-2.1-0.8h-0.6v5.8h2.7
				c1.3,0,2.2-0.3,2.8-0.9c0.5-0.6,0.9-1.5,1.1-2.7h0.6L126.3,107.5z"/>
			<path class="st1" d="M139.6,95.2v12.5H139L131,95.6V107h1.9v0.5h-4.3V107h1.9V95.2h-1.9v-0.5h4.9l5.6,8.3v-7.8h-1.8v-0.5h4.3v0.5
				H139.6z"/>
			<path class="st1" d="M154.7,107.5h-10.8V107h1.9V95.2h-1.9v-0.5h10.5l0.1,3.4H154c-0.3-1.2-0.7-2-1.2-2.4
				c-0.5-0.4-1.3-0.6-2.4-0.6h-2.2v5.5h0.5c1,0,1.6-0.2,1.9-0.7c0.3-0.5,0.5-1,0.5-1.6h0.5v5.3h-0.5c0-0.7-0.2-1.3-0.5-1.7
				c-0.3-0.5-1-0.8-1.9-0.8h-0.5v5.8h2.5c1.2,0,2.1-0.3,2.6-0.9c0.5-0.6,0.8-1.5,1-2.7h0.6L154.7,107.5z"/>
			<path class="st1" d="M167.9,98.6c-0.3-1.4-0.7-2.3-1.2-2.8c-0.5-0.4-1.3-0.6-2.4-0.6h-2.2v5.5h0.5c1,0,1.6-0.2,1.9-0.7
				c0.3-0.5,0.5-1,0.5-1.6h0.5v5.3H165c0-0.7-0.2-1.3-0.5-1.7c-0.3-0.5-1-0.8-1.9-0.8h-0.5v5.8h1.9v0.5h-6.2V107h1.9V95.2h-1.9v-0.5
				h10.5l0.1,3.9H167.9z"/>
			<path class="st1" d="M169.9,107.5V107h1.9V95.2h-1.9v-0.5h6.2v0.5h-1.9V107h1.9v0.5H169.9z"/>
			<path class="st1" d="M188.8,98.8c-0.2-1.5-0.6-2.4-1.2-2.9c-0.6-0.5-1.3-0.7-2.1-0.7H185V107h2v0.5h-6.4V107h2V95.2h-0.5
				c-0.8,0-1.6,0.2-2.1,0.7c-0.6,0.5-1,1.4-1.2,2.9h-0.6l0.2-4.1h10.9l0.2,4.1H188.8z"/>
			<path class="st1" d="M207.2,107.7c-0.5,0-1-0.1-1.4-0.3c-0.7-0.3-1.2-1-1.4-1.9l-0.1-0.8c0-0.6-0.1-1.1-0.2-1.6
				c-0.1-0.5-0.2-0.9-0.4-1.2c-0.4-0.7-1.1-1-2-1h-1v6.1h1.9v0.5h-6.2V107h1.9V95.2h-1.9v-0.5h6.7c1.4,0,2.5,0.2,3.1,0.7
				c0.7,0.4,1.1,1.2,1.1,2.2c0,0.8-0.3,1.5-1,2c-0.7,0.5-1.7,0.9-3,1.1c1.6,0.3,2.6,0.9,3,1.7c0.2,0.4,0.4,0.9,0.5,1.4
				c0.1,0.5,0.1,1,0.2,1.6l0,0.9c0.1,0.3,0.2,0.5,0.5,0.6c0.1,0.1,0.3,0.1,0.6,0.1c0.2,0,0.5,0,0.8-0.1v0.4
				C208.3,107.6,207.7,107.7,207.2,107.7z M204.4,95.9c-0.3-0.4-0.9-0.6-1.7-0.6h-1.9v5.2h1.6c0.8,0,1.4-0.2,1.8-0.6
				c0.4-0.4,0.6-1.1,0.6-2C204.8,96.9,204.7,96.3,204.4,95.9z"/>
			<path class="st1" d="M221.7,107.5h-10.8V107h1.9V95.2h-1.9v-0.5h10.5l0.1,3.4H221c-0.3-1.2-0.7-2-1.2-2.4
				c-0.5-0.4-1.3-0.6-2.4-0.6h-2.2v5.5h0.5c1,0,1.6-0.2,1.9-0.7c0.3-0.5,0.5-1,0.5-1.6h0.5v5.3h-0.5c0-0.7-0.2-1.3-0.5-1.7
				c-0.3-0.5-1-0.8-1.9-0.8h-0.5v5.8h2.5c1.2,0,2.1-0.3,2.6-0.9c0.5-0.6,0.8-1.5,1-2.7h0.6L221.7,107.5z"/>
			<path class="st1" d="M231.3,106.6c-0.7,0.8-1.7,1.2-2.9,1.2c-0.6,0-1-0.1-1.5-0.2c-0.5-0.2-0.9-0.4-1.3-0.7l-0.9,0.8h-0.3v-3.8
				h0.6c0.2,1,0.6,1.8,1.2,2.5c0.6,0.7,1.3,1,2.3,1c0.8,0,1.5-0.3,2-0.8c0.6-0.5,0.8-1.1,0.8-1.9c0-0.8-0.3-1.4-0.9-1.8
				c-0.7-0.4-1.5-0.7-2.5-1c-1.2-0.3-2.1-0.8-2.6-1.4c-0.5-0.6-0.8-1.4-0.8-2.4c0-1,0.3-1.9,1-2.6c0.7-0.7,1.5-1,2.5-1
				c0.5,0,1,0.1,1.5,0.2c0.5,0.2,0.9,0.4,1.3,0.7l0.7-0.7h0.4v3.6h-0.6c-0.1-0.9-0.5-1.7-1-2.4c-0.6-0.6-1.3-0.9-2.2-0.9
				c-0.6,0-1.2,0.2-1.7,0.6s-0.7,0.9-0.7,1.5c0,0.7,0.2,1.2,0.7,1.4c0.5,0.2,1.2,0.5,2.1,0.7c1.5,0.4,2.5,0.9,3.1,1.5
				c0.6,0.6,0.9,1.6,0.9,2.7C232.4,104.8,232,105.8,231.3,106.6z"/>
			<path class="st1" d="M245,105.7c-1.2,1.3-2.6,2-4.1,2c-1.6,0-2.9-0.7-4.1-2c-1.2-1.3-1.8-2.9-1.8-4.7c0-1.8,0.6-3.3,1.8-4.6
				c1.2-1.3,2.6-2,4.1-2c1.6,0,2.9,0.7,4.1,2c1.2,1.3,1.8,2.9,1.8,4.7C246.8,102.9,246.2,104.4,245,105.7z M244,98.8
				c0-1.3-0.3-2.2-0.8-2.9c-0.5-0.7-1.3-1-2.4-1c-1.1,0-1.8,0.3-2.4,1c-0.5,0.7-0.8,1.6-0.8,2.9v4.5c0,1.3,0.3,2.2,0.8,2.9
				c0.5,0.7,1.3,1,2.4,1s1.8-0.3,2.4-1c0.5-0.7,0.8-1.6,0.8-2.9V98.8z"/>
			<path class="st1" d="M259.9,95.2v8.1c0,1.6-0.4,2.7-1.1,3.4c-0.7,0.7-1.9,1-3.6,1c-1.7,0-2.9-0.4-3.6-1.1
				c-0.7-0.7-1.1-1.9-1.1-3.6v-7.8h-1.9v-0.5h6.2v0.5H253v8.7c0,1.1,0.2,1.9,0.7,2.4c0.5,0.5,1.3,0.8,2.3,0.8c1.1,0,1.9-0.3,2.5-0.9
				c0.6-0.6,0.9-1.5,0.9-2.6v-8.4h-1.9v-0.5h4.4v0.5H259.9z"/>
			<path class="st1" d="M275.1,107.7c-0.5,0-1-0.1-1.4-0.3c-0.7-0.3-1.2-1-1.4-1.9l-0.1-0.8c0-0.6-0.1-1.1-0.2-1.6
				c-0.1-0.5-0.2-0.9-0.4-1.2c-0.4-0.7-1.1-1-2-1h-1v6.1h1.9v0.5h-6.2V107h1.9V95.2h-1.9v-0.5h6.7c1.4,0,2.5,0.2,3.1,0.7
				c0.7,0.4,1.1,1.2,1.1,2.2c0,0.8-0.3,1.5-1,2c-0.7,0.5-1.7,0.9-3,1.1c1.6,0.3,2.6,0.9,3,1.7c0.2,0.4,0.4,0.9,0.5,1.4
				c0.1,0.5,0.1,1,0.2,1.6l0,0.9c0.1,0.3,0.2,0.5,0.5,0.6c0.1,0.1,0.3,0.1,0.6,0.1c0.2,0,0.5,0,0.8-0.1v0.4
				C276.2,107.6,275.6,107.7,275.1,107.7z M272.3,95.9c-0.3-0.4-0.9-0.6-1.7-0.6h-1.9v5.2h1.6c0.8,0,1.4-0.2,1.8-0.6
				c0.4-0.4,0.6-1.1,0.6-2C272.7,96.9,272.6,96.3,272.3,95.9z"/>
			<path class="st1" d="M288.5,107.6l-0.8-0.9c-0.5,0.4-0.9,0.6-1.5,0.8c-0.6,0.2-1.2,0.3-1.7,0.3c-1.6,0-2.9-0.7-4.1-2
				c-1.2-1.3-1.8-2.8-1.8-4.6c0-1.8,0.6-3.4,1.8-4.7c1.2-1.3,2.6-2,4.3-2c0.6,0,1.2,0.1,1.7,0.3c0.5,0.2,0.9,0.4,1.2,0.7l0.7-0.8
				h0.4v3.7h-0.6c-0.3-1.3-0.7-2.2-1.4-2.7c-0.7-0.5-1.4-0.7-2.2-0.7c-1.1,0-1.9,0.4-2.4,1.1c-0.5,0.8-0.8,1.9-0.8,3.3v3.5
				c0,1.4,0.3,2.5,0.8,3.3c0.5,0.8,1.4,1.1,2.5,1.1c0.7,0,1.5-0.2,2.1-0.7c0.7-0.5,1.2-1.4,1.5-2.8h0.6v3.9H288.5z"/>
			<path class="st1" d="M301.9,107.5h-10.8V107h1.9V95.2h-1.9v-0.5h10.5l0.1,3.4h-0.5c-0.3-1.2-0.7-2-1.2-2.4
				c-0.5-0.4-1.3-0.6-2.4-0.6h-2.2v5.5h0.5c1,0,1.6-0.2,1.9-0.7c0.3-0.5,0.5-1,0.5-1.6h0.5v5.3h-0.5c0-0.7-0.2-1.3-0.5-1.7
				c-0.3-0.5-1-0.8-1.9-0.8h-0.5v5.8h2.5c1.2,0,2.1-0.3,2.6-0.9c0.5-0.6,0.8-1.5,1-2.7h0.6L301.9,107.5z"/>
		</g>
	</g>
</g>
</svg>
