<?xml version="1.0" encoding="utf-8"?>
<!-- Generator: Adobe Illustrator 20.1.0, SVG Export Plug-In . SVG Version: 6.00 Build 0)  -->
<svg version="1.1" id="Layer_1" xmlns="http://www.w3.org/2000/svg" xmlns:xlink="http://www.w3.org/1999/xlink" x="0px" y="0px"
	 viewBox="0 0 238.3 207.5" style="enable-background:new 0 0 238.3 207.5;" xml:space="preserve">
<style type="text/css">
	.st0{fill:#F78F20;}
	.st1{fill:#FFFFFF;}
	.st2{fill:#231F20;}
	.st3{fill:#2677BD;}
	.st4{fill:#15A54A;}
	.st5{fill:#EDBC77;}
	.st6{fill:#761118;}
	.st7{fill:#74411B;}
	.st8{fill:#EF4237;}
	.st9{fill:#F3F2F3;}
	.st10{fill:#76A942;}
	.st11{fill:#15B49A;}
	.st12{fill:#036562;}
	.st13{fill:#FDB716;}
</style>
<g>
	<g>
		<g>
			<g>
				<g>
					<path class="st0" d="M139.4,34.2c-1.1,0.8-2.6,1.9-4.5,3.4c-1.9,1.5-4.4,3.1-7.5,4.7c-3.1,1.6-6.9,3.2-11.3,4.7
						c-4.4,1.5-9.5,2.5-15.5,3.2c0,0.9,0,1.9,0.1,2.9c0.1,1,0.1,2.2,0.1,3.4c0,6.9-1.2,14.7-3.5,23.5c-2.3,8.8-5.9,17-10.6,24.6
						c-4.7,7.7-10.6,14.1-17.6,19.4c-7,5.2-15.3,7.9-24.9,7.9c-7.2,0-13.2-1.4-18-4.1c-4.8-2.7-8.6-6.2-11.5-10.4
						c-2.9-4.2-4.9-8.9-6.1-14C7.6,98.2,7,93.4,7,88.7c0-8.3,1.2-15.6,3.5-21.8c2.3-6.3,5.1-11.6,8.2-16.1c3.1-4.5,6.3-8,9.4-10.7
						c3.1-2.7,5.5-4.5,7-5.6c1.7-0.9,3.1-1.9,4-2.8c0.9-0.9,1.6-1.8,2.1-2.5c0.5-0.7,0.8-1.3,1.1-1.6c0.2-0.4,0.6-0.6,1.1-0.6
						c0.3,0,0.9,0.2,1.6,0.7c-0.3-0.8-0.6-1.7-0.7-2.7c-0.2-1-0.2-1.9-0.2-2.7c0-3.4,0.9-6.1,2.7-8.1c1.8-2,3.9-3.5,6.5-4.6
						c2.5-1.1,5-1.8,7.5-2.1C63.2,7.2,65.2,7,66.6,7c3.8,0,7.3,0.8,10.7,2.3c3.4,1.6,6.4,3.6,9.2,6.2c2.7,2.6,5.1,5.6,7,9
						c2,3.4,3.5,7.1,4.6,11c0.5-0.2,2.4-1.1,5.7-2.7c3.4-1.6,7.1-3.6,11.3-6c4.1-2.3,8.1-4.8,11.9-7.5c3.8-2.7,6.3-5.2,7.5-7.7
						c0.2-0.3,0.8-0.2,1.9,0.4c1.1,0.6,2.3,1.4,3.5,2.6c1.3,1.2,2.4,2.6,3.4,4.3c1,1.7,1.5,3.6,1.5,5.6c0,1.4-0.4,2.9-1.2,4.6
						C142.8,30.8,141.4,32.5,139.4,34.2z M43.6,125c6.7,0,12.5-2,17.2-6c4.8-4,8.7-8.9,11.9-14.8c3.1-5.9,5.4-12.2,6.9-19
						c1.5-6.8,2.2-13,2.2-18.7c0-3.6-0.1-6.8-0.4-9.6c-0.2-2.8-0.5-5.1-0.8-6.8c-1.6,0-3.6-0.3-6-0.8c-2.4-0.5-4.9-1.3-7.5-2.1
						c-2.6-0.9-5.1-1.9-7.5-3.2c-2.4-1.3-4.3-2.7-5.8-4.5c0.2,0.6,0.2,1.5,0.2,2.6c0,1.3-0.4,2.8-1.3,4.7c-0.9,1.9-3.2,3.9-7.2,6.1
						c-1.1,0.6-3,1.8-5.7,3.5c-2.7,1.7-5.6,4.2-8.4,7.5c-2.9,3.3-5.4,7.5-7.6,12.7c-2.2,5.2-3.3,11.5-3.3,19c0,3.3,0.4,6.7,1.3,10.1
						c0.9,3.4,2.2,6.6,4.1,9.5c1.9,2.9,4.3,5.2,7.2,7C36.1,124.1,39.5,125,43.6,125z M66.1,25.5c-0.8,0-1.7,0-2.7,0
						c-1,0-1.6,0.4-1.8,1.2c0,0.8,0.3,1.8,0.8,2.9c0.5,1.2,1.4,2.3,2.7,3.5c1.3,1.2,2.9,2.2,5,3.1c2.1,0.9,4.8,1.3,8.1,1.3
						c-0.9-3.4-2.4-6.3-4.5-8.6C71.8,26.7,69.3,25.5,66.1,25.5z"/>
					<path class="st0" d="M160.2,97.3c0.5,0.3,0.7,0.7,0.7,1.2c0,0.3-0.1,0.6-0.4,0.8c-0.2,0.2-0.4,0.5-0.4,0.8
						c-2.2,3.3-4.3,5.9-6.5,8c-2.1,2-4.6,3.9-7.4,5.6c-2.8,1.7-5.9,2.6-9.4,2.6c-2.2,0-3.9-0.5-5-1.4c-1.2-0.9-2-2-2.6-3.2
						c-0.6-1.2-0.9-2.4-1.1-3.6c-0.2-1.3-0.2-2.3-0.2-3.1c-2.7,3.3-5.6,6-8.8,8.2c-3.2,2.2-6.4,3.3-9.5,3.3c-2.5,0-4.6-0.5-6.3-1.6
						c-1.7-1.1-3.2-2.6-4.3-4.5c-1.2-1.9-2-4-2.6-6.3c-0.5-2.3-0.8-4.7-0.8-7c0-5.8,1.2-12,3.5-18.5c0.5-1.6,1.5-3.9,3.2-7.2
						c1.6-3.2,3.9-6.5,6.8-9.7c2.9-3.3,6.4-6.2,10.6-8.8c4.1-2.6,9-4,14.7-4.3c7,0,12.3,1,15.7,2.9c3.4,2,5.2,4.3,5.2,7.2
						c0,1.3-0.3,2.5-0.8,3.6c-0.6,1.2-1.2,2.2-1.9,3.2c-0.7,0.9-1.4,1.7-2.2,2.3c-0.8,0.6-1.3,0.9-1.6,0.9c-0.9-1.4-1.8-2.5-2.6-3.3
						c-0.8-0.8-1.9-1.5-3.3-2.1c-1.4-0.6-3.1-0.9-4.9-0.9c-4.5,0.2-8.6,1.8-12.2,4.8c-3.6,3-6.7,6.7-9.2,10.9
						c-2.5,4.2-4.4,8.6-5.6,13.1c-1.3,4.5-1.9,8.3-1.9,11.3c0,1.3,0.2,2.7,0.5,4.2c0.3,1.6,0.9,2.3,1.6,2.3c1.9,0,3.7-0.6,5.4-1.9
						c1.7-1.3,3.4-2.8,4.9-4.7c1.6-1.9,3-3.9,4.2-6.2c1.3-2.3,2.3-4.5,3.3-6.7c0.2-0.2,0.4-1.4,0.8-3.6c0.4-2.3,1.1-4.7,2.1-7.3
						c1-2.6,2.4-4.9,4.1-7c1.7-2.1,3.9-3.2,6.6-3.2c1.4,0,2.8,0.3,4.1,0.9c1.3,0.6,2.5,1.3,3.5,2.1c1,0.8,1.8,1.5,2.3,2.1
						c0.5,0.6,0.8,1,0.8,1.2c0,0.3-0.1,0.6-0.4,0.8c-0.2,0.2-0.6,0.6-1.1,1.2c-0.5,0.5-1.1,1.4-1.8,2.5c-0.7,1.1-1.5,2.6-2.5,4.5
						c-0.6,1.3-1.4,3.1-2.5,5.5c-1,2.4-2,4.9-3.1,7.4c-1,2.5-1.9,4.8-2.6,6.9c-0.7,2.1-1.1,3.6-1.1,4.6c0,0.6,0.3,0.9,0.9,0.9
						c0.8,0,1.8-0.2,2.9-0.6c1.2-0.4,2.3-0.8,3.4-1.3c3.1-1.7,5.6-3.2,7.3-4.5c1.7-1.3,3-2.3,3.9-3.1c0.9-0.8,1.5-1.4,1.9-1.8
						C159.3,97.5,159.8,97.3,160.2,97.3z"/>
					<path class="st0" d="M214.9,116.8c2.2,1.4,4.6,2.2,7.2,2.5c2.6,0.2,5-0.4,7.4-2c0,1.3-0.3,2.9-0.8,4.8c-0.6,2-1.4,3.9-2.6,5.7
						c-1.2,1.9-2.6,3.5-4.3,4.8c-1.7,1.3-3.8,2-6.3,2c-2.7,0-5.4-1-8.1-3.1c-2.7-2-5.5-4.5-8.2-7.5c-2.7-3-5.5-6.3-8.3-9.9
						c-2.8-3.6-5.6-6.9-8.4-9.9c-2.8-3-5.6-5.5-8.3-7.5c-2.7-2-5.4-3.1-8.1-3.1c-1.7,2.8-3,5.5-3.9,8.1c-0.9,2.6-1.6,4.9-2.2,7
						c-0.6,2.1-1.1,3.8-1.4,5c-0.3,1.3-0.7,1.9-1.2,1.9c-1.3,0-2.7-0.7-4.2-2.1c-1.6-1.4-2.3-3.8-2.3-7c0-1.9,0.2-4,0.7-6.5
						c0.5-2.4,1.1-5,1.9-7.9c0.8-2.8,1.7-5.7,2.7-8.6c1-2.9,2.1-5.7,3.2-8.3c0.9-2.8,2.2-6.6,3.8-11.3c1.6-4.7,3.2-9.6,5-14.7
						c1.8-5.1,3.6-10,5.3-14.7c1.7-4.7,3.2-8.4,4.5-11.3c0.3-0.8,0.5-1.9,0.5-3.3c0-1.1-0.1-2-0.4-2.7c-0.2-0.7-0.4-1.2-0.4-1.5
						c0-0.6,0.5-0.9,1.4-0.9c0.9,0,2.3,0.1,4.1,0.4c1.8,0.2,3.6,0.7,5.4,1.4c1.8,0.7,3.4,1.6,4.8,2.8c1.4,1.2,2.1,2.8,2.1,4.8
						c0,1.7-1.7,6.4-5,14.1c-3.4,7.7-8.5,18.9-15.4,33.6c2-2.8,4.1-5.6,6.3-8.2c2.2-2.7,4.3-5,6.5-7.2c2.1-2.1,4.1-3.8,6.1-5.2
						c2-1.3,3.8-2,5.5-2c1.4,0,3,0.3,4.8,0.8c1.8,0.6,3.5,1.3,5.2,2.3c1.6,1,3,2.3,4.1,3.8c1.1,1.5,1.6,3.2,1.6,5.3
						c0,1.3-0.7,3.2-2.2,5.8c-1.5,2.6-3.6,5.4-6.2,8.4c-2.7,3.1-5.8,6-9.5,8.9c-3.7,2.9-7.7,5.3-12.1,7.2c2,1.6,4.5,3.5,7.3,5.9
						c2.8,2.3,5.6,4.7,8.4,7.2c2.8,2.4,5.5,4.7,8.1,6.8C211.3,114.1,213.3,115.7,214.9,116.8z M168.2,90.3c0.5,0.2,1.3,0.2,2.3,0.2
						c3.3,0,6.2-0.9,8.8-2.8c2.6-1.9,4.9-4.1,6.9-6.8c2-2.7,3.7-5.4,4.9-8.3c1.3-2.9,2.1-5.4,2.6-7.6c0-0.8-0.1-1.6-0.2-2.3
						c-0.2-0.8-0.6-0.9-1.4-0.5c-3.1,3-5.8,5.7-8.1,8.1c-2.3,2.4-4.8,5.4-7.6,8.8C173.6,82.5,170.9,86.2,168.2,90.3z"/>
					<g>
						<path class="st0" d="M52.8,152.9l-0.2,0.8l0.3,0.4l0.1,1.1l0.1,0.4l-0.4,0.8l0.1,0.4h-0.6l0.2,0.4l-0.4,0.3l0.6,0.9l-0.5,0.3
							l-0.6,0.6l-0.8,0.4l-0.2-0.6l-0.3-0.3l-1.4,0.9l-0.6-0.1l-0.7-0.5l-1.1,0.2l-0.7,0.4l-0.4-0.1l-0.5-0.5l-0.4,0.6l-1.4,0.1
							l-2.6-0.4h-0.9l-0.9,0.4h-1.4l-1.6-0.6l-1.2,0.6l-0.9-0.4l-1.6,0.2l-3.6-0.1l-1.6,0.4l-0.3,0.3L26,161l-0.1,2.7l-0.2,1.6
							l-0.2,0.4l0.2,0.4l0.1,0.6l-0.1,0.9l0.4,0.5l0.7,0.4l-1.3,1.1l0.4-0.2h0.8l0.3,0.3l0.1,0.5l0.4-0.1l0.7-0.6l0.3,0.3l0.1,0.4
							l1.7-0.3l0.7-0.6l0.1-0.4h0.4l-0.6,1l0.3,0.1l0.3,0.4l0.9-0.6l0.4-0.1l0.2,0.6l0.5-0.1L34,170l0.5-0.8l0.4,0.1l0.5-0.1
							l0.1,0.4l0.6-0.1l0.1-0.5l0.5,0.2l0.4,0.5l0.1-0.7l3.1-0.1l0.8,0.1l0.6,0.4l0.4-0.2l2.5-0.2l0.4-0.2l0.4,0.4l0.1,0.4l0.2-0.1
							l0.1-0.4l0.4,0.3h0.4l0.4-0.3l1.1,1.3l0.4,0.3l-0.2,1.6l0.1,1.8l0.4,0.6l-0.2,0.4l0.2,1.4l-0.1,0.4v3.5l-0.4,0.7l-1.2,1.1
							l-0.8,0.3l-0.9-0.1l-0.4-0.3l-2.1,0.4l-1.9,0.1l-1.6-0.6l-0.3,0.3l-0.9,0.2l-1.9-0.1l-0.9,0.1L35,182l-1.8,0.4h-1l-0.8-0.2
							l-0.8,0.2l-3.6,0.1l-0.6,0.4l-0.5,0.7l-0.1,0.9l0.1,1.9l-0.1,0.9l-0.3,0.9l0.3,0.9l-0.3,0.8l0.3,1.1l-0.3,3.5l0.1,1.6l0.2,0.8
							l-0.3,0.7l0.3,0.9v0.9l-0.2,0.8l-0.4,0.8l-2.1,0.8l-0.6-0.1l-0.4-0.3l-0.4,0.2l-1.4-0.1l-0.6,0.4h-1.4l-0.6-0.2l-1.1,0.1
							l-0.4-0.2l-1.1,0.1l-0.4-0.4l-0.4,0.2l-0.9,0.1l-0.4-0.2v-0.9l-0.4,0.3l-0.2,0.4l-0.5-0.1l-0.4-0.6v-1.4l-0.1-0.5l0.1-0.4
							l0.2-0.1l-0.1-0.4l-0.2-0.1l0.1-0.9l-0.1-0.9l-0.3-0.8l0.4-0.5l-0.2-0.4v-1.3l0.2-1.4l-0.3-1.6l0.4-0.7l-0.1-1.2l-0.3-0.7
							l0.2-1.5v-1.6l-0.4-1.8l0.2-0.4l0.1-1l0.2-0.4l-0.4-0.6l0.3-0.4l-0.1-1.1l0.3-0.4l-0.3-0.3l-0.1-0.5l0.3-0.4l-0.1-1.3l0.3-0.8
							l-0.4-0.7l0.1-1.4l-0.1-0.8l0.1-0.3l0.4-0.1l-0.5-0.6l0.3-0.9l-0.4-0.7l0.2-2.8l-0.2-0.7l0.5-1.6l-0.1-0.1l-0.4,0.2v-0.4
							l0.3-0.4l-0.4-2.8l0.2-0.3l0.2-0.8l-0.2-1.3l-0.2-0.3l0.1-0.4l0.1-0.9l0.2-0.7l-0.3-4.8l0.2-3.4l0.3-1.5l1.9-0.6h0.9l0.8,0.3
							l0.9-0.2l2.4-0.2l1,0.6l0.5-0.1l0.3-0.3l0.4,0.3l2.7-0.2h4.5l0.6-0.2l1.3,0.4l2.6-0.3l0.8,0.3l1.1-0.3l3.5,0.3l0.4-0.3
							l0.8,0.1l3.3-0.1L43,146l0.1-0.5l1.8-0.4l0.9,0.1l1.6,0.4l0.6,0.3l0.8-0.4l0.7,0.1l2,1.1l0.4,0.1v0.9l0.5-0.1l-0.1-0.9
							l0.4-0.2l-0.1,0.8l0.2,0.3l-0.1,0.9l0.1,0.9l-0.3,0.9l0.2,0.4l-0.2,1.4l0.4,0.9L52.8,152.9z M12.6,179.8h-0.2v0.3h0.2V179.8z
							 M14,176h-0.3v0.3H14V176z M14.3,168.2h-0.2v0.3h0.2V168.2z M14.9,183.3l-0.3-0.2l-0.1,0.4l0.4,0.1V183.3z M15,155.5l-0.4,0.1
							l0.3,0.4h0.5v-0.6H15z M14.7,157.3l-0.1,0.3v0.4l0.4-0.2l-0.1-0.9L14.7,157.3z M14.6,172v0.6l0.3-0.1l0.1-0.4L14.6,172z
							 M14.8,170.7l0.3,0.3l0.3-0.4l-0.5-0.3L14.8,170.7z M15.3,177.7l0.2-0.3v-0.9l-0.3-0.3l-0.3,0.6l-0.1,0.9L15.3,177.7z
							 M15.1,164.4l-0.1,0.3l0.2,0.1l0.1-0.2L15.1,164.4z M15.4,163l0.2-0.2l0.1-0.4l-0.4,0.1l-0.2,0.2L15.4,163z M15.6,174.9
							l-0.4,0.1l-0.1,0.3l0.4,0.2l0.4-0.1l0.1-0.3l-0.1-0.4L15.6,174.9z M16,160.5l-0.4-0.1l-0.2,0.3l0.3,0.1h0.5L16,160.5z
							 M15.9,167.8l0.3-0.3l0.1-0.4l-0.2-0.4l-0.4,0.6l-0.1,0.4H15.9z M15.8,173.3l0.4-0.1l-0.1-0.4l-0.4-0.1l-0.2,0.3L15.8,173.3z
							 M15.5,182l0.2,0.3l0.3-0.1l0.1-0.3l-0.1-0.5h-0.5V182z M16.5,184.5l-0.3-0.3l-0.1,0.5L16.5,184.5z M16.1,158.7l0.1,0.4
							l0.5,0.1l-0.1-0.8h-0.4L16.1,158.7z M16.2,165.4l0.1,0.3l0.5-0.1l-0.1-0.4l-0.4-0.1L16.2,165.4z M16.6,170l0.4,0.2l0.4-0.1
							l0.1-0.5l-0.3-0.2l-0.4-0.1l-0.4,0.1L16.6,170z M17,171.4l-0.2-0.3l-0.2,0.4l0.3,0.2L17,171.4z M16.6,156.8l0.1,0.4l0.5-0.1
							v-0.4l-0.4-0.3L16.6,156.8z M16.8,190.9h-0.2v0.3h0.2V190.9z M17,155.2h0.4l-0.4-0.3V155.2z M17.5,161.8l0.2-0.3l0.1-0.5
							l-0.6,0.4l-0.1,0.4H17.5z M17.8,176.2l0.1-0.4l-0.1-0.4l-0.4-0.1l-0.2,0.3l-0.1,0.4l0.1,0.4l0.3,0.2L17.8,176.2z M18,159.5
							l-0.2-0.4l-0.4-0.1l-0.1,0.6l0.5,0.2l0.4-0.1L18,159.5z M18,174l-0.3,0.2v0.4l0.4,0.1l0.2-0.2l0.1-0.4L18,174z M18.1,179.5
							l0.4,0.1l0.4-0.1l-0.1-0.5l-0.8-0.5l-0.4,1.1L18.1,179.5z M18.3,166.8l0.2-0.3l0.1-0.9l-0.4-0.1l-0.5,0.8l-0.1,0.6L18.3,166.8
							z M18.2,180.3h-0.4l0.1,0.4L18.2,180.3z M18.6,201l-0.1-0.3l-0.3,0.1l0.1,0.4L18.6,201z M18.4,149.3l0.2,0.1l-0.3-0.4
							L18.4,149.3z M18.5,164.3l-0.2,0.2l0.4,0.1l0.3-0.2L18.5,164.3z M18.5,172.4l-0.1,0.4l0.4-0.1l0.1-0.4H18.5z M19.2,175.8
							l-0.4,0.1l-0.4,0.6H19L19.2,175.8z M18.7,183.9h-0.2l0.1,0.4h0.1V183.9z M19.4,153.9l-0.1-0.4l-0.3-0.4l-0.4-0.1l-0.1,0.4
							l0.1,0.4l0.3,0.3l0.5,0.1V153.9z M19.2,155.5l0.1-0.4l-0.6,0.1l0.1,0.4L19.2,155.5z M19.5,168.8l-0.3-0.3l-0.4-0.1l-0.1,0.4
							l0.4,0.4l0.5,0.1L19.5,168.8z M18.8,170.6l0.1,0.5l0.4-0.6l-0.3-0.3L18.8,170.6z M19.7,160.9l0.1-0.5h-0.6v0.6L19.7,160.9z
							 M19.2,173.3l0.2,0.4l0.4,0.2l0.4-0.1l-0.4-0.8l-0.4-0.1L19.2,173.3z M19.7,175.5l0.1-0.5l-0.4-0.2l-0.1,0.4v0.6L19.7,175.5z
							 M19.5,186.1l-0.3-0.2v0.4L19.5,186.1z M19.9,158.3l-0.1-0.3l-0.4-0.1v0.5l0.2,0.2l0.4,0.1L19.9,158.3z M19.7,194.8h-0.3v0.3
							h0.3V194.8z M20.2,165.9l0.4-0.1l0.1-0.4l-0.2-0.4l-0.4,0.1l-0.3,0.6L20.2,165.9z M20.2,178.3l0.4,0.1l0.4-0.1l-0.1-0.4
							l-0.2-0.2l-0.4-0.1l-0.2,0.3L20.2,178.3z M20.5,179.9v-0.4l-0.4-0.1v0.7L20.5,179.9z M20.2,149.9l0.4-0.2l-0.3-0.4L20.2,149.9
							z M21.2,169.8l-0.1-0.4l-0.4-0.1l-0.1,0.4l0.1,0.4l0.3,0.2l0.4-0.1L21.2,169.8z M20.9,153.1l0.4,0.2v-0.8l-0.5,0.1L20.9,153.1
							z M20.8,167.6v0.6l0.5,0.2l0.4-0.1l-0.2-0.5l-0.6-0.6L20.8,167.6z M21.3,189.1l-0.2-0.4l-0.2,0.5l0.2,0.3L21.3,189.1z
							 M21,182.5l-0.1,0.3h0.2L21,182.5z M21.5,187l-0.4,0.1l-0.1,0.4l0.2,0.1l0.4-0.1l0.4-0.6H21.5z M21.4,180.9l0.4,0.1v-0.4h-0.4
							L21.4,180.9z M21.5,160h0.4l-0.4-0.3V160z M21.8,192.2l0.2-0.4l-0.1-0.1l-0.5,0.6L21.8,192.2z M22,174.8l0.1-0.4l-0.4-0.8
							l-0.2,0.9l0.1,0.4L22,174.8z M21.8,157.6l-0.2,0.2l0.6,0.2v-0.5L21.8,157.6z M22,151.5l0.1-0.2h-0.4L22,151.5z M22.1,164.3
							h-0.2l-0.1,0.5l0.6-0.8L22.1,164.3z M21.9,178.8l0.1,0.4h0.5l0.4-0.2l-0.1-0.4l-0.3-0.2l-0.4-0.1L21.9,178.8z M22,149.5
							l0.4,0.1l0.4-0.1l-0.3-0.4L22,149.5z M22.3,172.2L22,172l0.1,0.5l0.4,0.1L22.3,172.2z M22.4,177.5l0.4-0.1l-0.2-0.4l-0.4,0.2
							l-0.2,0.4L22.4,177.5z M22.7,189.9l0.2-0.2v-0.4l-0.6,0.2l-0.1,0.4L22.7,189.9z M22.9,162.3h-0.4v0.4h0.3L22.9,162.3z M23,154
							l-0.4,0.1l0.2,0.4h0.5l0.3-0.3l-0.2-0.4L23,154z M22.7,175.1l0.3,0.4h0.4l-0.1-0.5l-0.4-0.3L22.7,175.1z M23.3,183.9l-0.1-0.4
							l-0.4-0.2l-0.2,0.3v0.4l0.4,0.2L23.3,183.9z M23.4,169.3l0.1-0.4l-0.1-0.4l-0.4-0.2l-0.2,0.8l0.1,0.4l0.3,0.2L23.4,169.3z
							 M23.5,182.1l0.1-0.4l-0.4-0.1l-0.2-0.2l-0.1,0.4l0.1,0.6L23.5,182.1z M23.5,173.9H23v0.4h0.3L23.5,173.9z M23.1,151.8
							l0.2,0.4l0.4,0.1l-0.1-0.6l-0.4-0.1L23.1,151.8z M24.7,157.3l-0.2-0.4l-0.8-0.6l-0.4-0.1l0.4,0.8h0.4l0.5,0.7L24.7,157.3z
							 M23.4,158.3l-0.1,0.8l0.6,0.1l0.1-0.8l-0.1-0.3l-0.4-0.1L23.4,158.3z M23.5,179.5l-0.2,0.4h0.5L23.5,179.5z M23.9,172
							l0.5-0.1l-0.1-0.5l-0.6-0.6l-0.1,0.3l-0.1,0.8L23.9,172z M24.1,173.5l-0.1-0.3l-0.4-0.1l-0.1,0.3l0.2,0.4l0.4,0.1V173.5z
							 M24.3,150l-0.2,0.4l0.3,0.4l0.2-0.1l0.1-0.6L24.3,150z M24.6,176.6l0.8,0.1v-0.5l-0.4-0.6h-0.5l-0.4,0.5l0.1,0.4L24.6,176.6z
							 M25,168.5l-0.6,0.5l0.3,0.2l0.6-0.4l-0.1-0.4L25,168.5z M25.8,153.2l-0.1-0.4l-0.8,0.1l-0.1,0.3l0.6,0.5h0.5V153.2z
							 M25.1,180.8l0.2-0.2l-0.6-0.1v0.4L25.1,180.8z M25.8,151.4l-0.4-0.8l-0.3-0.2v1l0.2,0.3l0.4,0.1V151.4z M25.7,177.8l-0.2,0.4
							v0.5l0.2,0.4l0.4-1.2L25.7,177.8z M25.7,172.5h0.4l0.1-0.4l-0.4-0.1L25.7,172.5z M26.5,155.8h-0.4l0.1,0.3l0.3,0.1V155.8z
							 M26.5,147.9l0.3-0.1l-0.4-0.1L26.5,147.9z M26.7,175l-0.2,0.4l0.3,0.3l0.5,0.1l0.1-0.4l-0.1-0.4l-0.2-0.2L26.7,175z
							 M27.6,152.5l0.4-0.1l-0.1-0.5l-0.4-0.1l-0.4,0.2l-0.1,0.4L27.6,152.5z M27.5,173.3l-0.4-0.1l0.1,0.4l0.4,0.1L27.5,173.3z
							 M28.1,157.3l0.1-0.4l-0.4,0.1l-0.1,0.3L28.1,157.3z M27.7,180.2v0.3H28v-0.3H27.7z M28.8,155.1l-0.1-0.4l-0.6-0.6l-0.3,0.3
							v0.4l0.2,0.4l0.8,0.4L28.8,155.1z M27.8,172l0.4,0.2v-0.3L27.8,172z M29.5,169.8l-0.3,0.3l-0.3-0.3l-0.6-0.1l-0.1-0.6l0.5-0.1
							l0.2,0.3l0.9,0.1L29.5,169.8z M28.7,174l-0.3,0.4v0.4l0.4,0.3l0.6-0.6l-0.1-0.5L28.7,174z M28.9,176.8l0.4,0.2v-0.5
							L28.9,176.8z M29.2,151.2l-0.1,0.3l0.1,0.3h0.4l0.4-0.3l-0.3-0.4L29.2,151.2z M29.2,178.8l0.2,0.4h0.4v-0.4l-0.2-0.2
							L29.2,178.8z M29.9,156.5l0.4-0.2l0.1-0.4l-0.4-0.1l-0.4,0.2l-0.1,0.4L29.9,156.5z M29.7,149h0.2v-0.3h-0.2V149z M30.7,154.1
							l-0.2-0.4l-0.3,0.2L30.7,154.1z M30.5,175.7l0.3,0.2l0.5-0.1l-0.1-0.4l-0.2-0.2l-0.4-0.1L30.5,175.7z M31.1,150.7l0.4,0.4h0.4
							l0.3-0.4l-0.4-0.2l-0.9-0.2L31.1,150.7z M31.6,177.8l-0.4,0.1l-0.2,0.3h0.8L31.6,177.8z M32.7,153.6l0.3-0.1l-0.4-0.1
							L32.7,153.6z M32.8,174.7v0.4l0.4-0.1l0.1-0.4l-0.4-0.2L32.8,174.7z M33.2,172.7l0.3-0.1l-0.1-0.2l-0.1,0.1V172.7z
							 M33.3,157.6l0.4,0.1l-0.3-0.4L33.3,157.6z M34,149.2l-0.4,0.2l-0.1,0.5l0.4,0.1l0.5-0.2v-0.5L34,149.2z M34.9,154.3v-0.6
							l-0.5,0.1l-0.6,0.5l0.4,0.3l0.6,0.1L34.9,154.3z M35.2,152.1l-0.1-0.4l-0.4-0.3l-0.2,0.4l0.1,0.4l0.4,0.3L35.2,152.1z
							 M35.7,150.7h-0.2v0.3h0.2V150.7z M35.9,148.8l-0.3-0.3l-0.1,0.7l0.4,0.1L35.9,148.8z M35.7,176.5l0.1,0.4l0.4-0.1l0.2-0.3
							l-0.4-0.3L35.7,176.5z M36.6,153.7l0.8-0.1l-0.1-0.8l-0.9,0.1l-0.2,0.2v0.4L36.6,153.7z M36.6,148.8l0.3,0.1l-0.3-0.4V148.8z
							 M37.3,158.3l0.1-0.4l-0.4,0.1l-0.2,0.4L37.3,158.3z M38,155.9l-0.1-0.4l-0.4-0.3l-0.6-0.1v0.4l0.4,0.6l0.4,0.1L38,155.9z
							 M38.6,152.8l0.4-0.1l0.2-0.4l0.1-0.5l-0.4-0.1l-0.1,0.4l-0.5,0.6L38.6,152.8z M38.7,149.8v0.4l0.3,0.3l0.4,0.1l0.1-0.4
							l-0.1-0.4l-0.2-0.3l-0.4-0.1L38.7,149.8z M39.7,157l-0.1-0.3h-0.4l-0.1,0.4l0.1,0.4l0.6-0.1L39.7,157z M39.8,155l0.4-0.6
							l-0.4-0.1l-0.4,0.2l-0.1,0.4l0.1,0.4L39.8,155z M39.8,177.3H40l0.2-0.4H40L39.8,177.3z M40.2,155.6l-0.3-0.2v0.4L40.2,155.6z
							 M41,151.7l0.9-0.1l-0.1-0.4l-0.3-0.2H41l-0.3,0.2l-0.1,0.4L41,151.7z M40.7,149.3l0.4,0.2V149l-0.4-0.4V149.3z M43.2,150.9
							l0.4-0.1l0.2-0.4l-0.4-0.1l-0.5,0.1l-0.1,0.4L43.2,150.9z M43.6,148l-0.4-0.1v0.4l0.2,0.4l0.3,0.1l0.3-0.3V148L43.6,148z
							 M43.7,155.5l0.4,0.2l0.4-0.1l0.1-0.6l-0.4-0.1l-0.3,0.1L43.7,155.5z M44.7,153.4l-0.1-0.8l-0.3-0.3l-0.4-0.1l0.2,1.2l0.3,0.2
							L44.7,153.4z M45.9,149.8l0.2-0.4l-0.9,0.1l0.3,0.4L45.9,149.8z M46.9,152.5l-0.4-0.1v0.4h0.3L46.9,152.5z M51.5,146l-0.9-0.1
							v-0.6l0.4,0.1l0.6,0.4L51.5,146z M51.8,158.2h-0.4v0.4h0.3L51.8,158.2z M52,151.6h-0.2v0.2H52V151.6z"/>
						<path class="st0" d="M110.7,151.5l0.4,0.7l0.1,0.9l-0.3,2l0.5,1.1l-0.7,2.4l-0.7,0.9l-1.5,0.3l-0.8-0.3l-0.3,0.2l-0.9,0.2
							l-2.4-0.1l-1.1,0.2l-1.2-0.1H100l-0.9-0.2l-0.4,0.1l-0.2,0.2l-0.6-0.4l-1.9,0.1l-0.5-0.6l-0.1,0.5l-3.4,0.1l-2.9,0.2l-0.4-0.1
							l-0.8-0.6l-2.1,0.4l-0.4,0.2l-0.1-0.8l-0.9,0.8l-0.9,0.4l-0.6,0.8l-0.4,0.3v1.2l-0.3,0.6l0.2,0.4l-0.1,0.9l0.2,0.4l-0.3,0.3
							l-0.1,0.5l1,1.8l0.4,0.5l0.8,0.2l0.8-0.5h1.7l0.3-0.1l0.4,0.1l1.8-0.1l0.5,0.4l0.5-0.3l1.1-0.1l0.4-0.2l0.9,0.5l0.4-0.2
							l0.1,0.4l0.4-0.1l0.1-0.3l1.6-0.1l1.6,0.4l0.4-0.1l0.2-0.3l2.6,0.2l0.6,0.2l1.3-0.4l2.9,0.4l0.8,0.9l-0.1,0.5l0.1,2.7
							l-0.1,0.7l-0.4,0.7l0.1,0.4l0.5,0.6v0.5l-0.4,0.1l-0.4-0.2l-0.4,0.1l0.4,0.6v0.5l0.3-0.1l0.1,0.2l0.2,2.3l-0.6,0.4l0.2,0.4
							l-0.1,0.9l-0.6,0.6l-0.4,0.1l-0.4-0.1l0.3-0.3l-0.1-0.4l-0.6,0.9l-0.4-0.1l-0.6-0.4v0.5l-1.9,0.1l-1.7-0.3l-0.8,0.3l-1.7-0.1
							l0.3-0.8l-0.4,0.1l-0.5,0.9l-1-0.3l-0.4,0.1l-0.5-0.1l-0.2-0.4l-0.3,0.4l-1.8,0.1l-0.3-0.8l-0.4-0.1l-0.1,0.4l0.1,0.4
							l-3.6,0.1l-1.6-0.1l-0.9-0.3l-0.9,0.4l-1.5,1.6v3.3l0.3,0.9l0.6,0.9l1.6,0.1l0.7,0.2l0.8-0.2h2.4l0.4-0.1l0.4,0.1l0.6,0.5
							l0.3-0.2l0.1-0.4h0.4l0.4,0.3l0.8-0.3h1.9l1.1,0.4l0.4-0.1l0.1-0.3l0.4-0.1l-0.1,0.4l0.2,0.2l0.8,0.3l0.1-0.4l-0.1-0.4
							l0.4-0.2l0.4,0.1l0.8,0.5l0.3,0.4l0.4-0.2l0.2-0.4l0.9,0.2l1.6-0.4l0.9-0.1v0.5l0.4,0.4l0.3-0.7l1.2,0.4l0.7-0.5l1-0.3
							l0.9,0.4h0.4l0.4-0.2l1.9,0.5l0.5,1.3l0.3,0.3l-0.2,0.7l0.1,1.3l0.1,0.3l0.4,0.2l-0.2,0.8l-0.3,2.7l-0.1,0.4l0.5,0.8l-0.1,0.4
							l-0.4,0.6l0.5,0.1l-0.3,1.3l-0.2,0.1v0.4l0.2,0.4l-0.1,0.4l-1.4,0.9l-0.2,0.3l-0.4-0.1l-1.4,0.3l-1.8-0.3l-0.9,0.2l-0.7-0.3
							l-0.4,0.1l-1.4-0.1l-0.4,0.1l-0.2,0.4l-1.9-0.8l-0.3,0.2l-0.1,0.4l-1-0.1l-0.7-0.4l-0.5,0.2h-0.4l-1.3-0.4l-0.4,0.1l-0.1-0.4
							l-0.3-0.1l-0.1,0.4l0.1,0.4l-0.8,0.1l-2.6-0.2l-0.9,0.1l-0.9,0.4l-0.4-0.1l-0.6-0.4l-0.2,0.3l-0.7,0.3l-0.9-0.2l-1.3-0.1
							l-0.4-0.1l-0.4,0.2l-1.9,0.1l-0.3,0.2l-1.1-0.4l-0.5,0.2l-1.8-0.1l-0.4,0.2l-0.6-0.6l-0.6,0.6l-1.7-0.2l-1.1,0.2l-1.2-0.2
							l-0.7,0.1l-0.4,0.2l-0.9-0.1l-0.6-0.4l-1.3,0.2l-0.7-0.3l-0.6-0.6l-0.4-0.6l0.2-0.4l0.4-0.2l-0.1-0.4l-0.3-0.1l-0.2-0.3
							l0.5-0.1l-0.1-0.9l-0.5-1.6L68,195l0.2-0.4l-0.4-0.9l0.2-0.7l-0.2-2.5l0.4-1.8v-0.9l-0.2-0.4l0.3-0.5l-0.4-0.9l0.3-0.4
							l-0.3-0.4l-0.2-0.8l0.3-0.9v-0.4l1-0.2l-0.9-0.3L68,182l0.1-0.4l0.2-0.2l-0.5-0.7l0.1-0.4l0.6-0.4l-0.8-0.4V179l0.5-1
							l-0.4-0.7l-0.1-0.8l0.1-1.6l-0.2-0.6V170l0.2-0.6l-0.4-2.6L68,166v-1.3l0.4-0.4l-0.4-1.6l0.1-0.4l0.4-0.1l0.4,0.3l-0.2-0.8
							l-0.5-0.6l-0.1-0.9l-0.3-0.8l0.3-0.8l-0.1-1.1l0.2-0.3l-0.2-0.7l-0.1-0.9l0.3-0.6l-0.3-1.2l0.2-2.5l-0.1-0.4l0.1-0.7v-1.9
							l0.4-1.8l0.4-0.7l0.4-0.2l6.4-0.2l0.8,0.5l0.2-0.3l0.4-0.1l0.9,0.2l0.2,0.2l2.3-0.5l0.6,0.2l-0.1,0.3h0.5l0.1-0.4l0.4-0.1
							l1.1,0.1l0.8,0.5l0.1-0.6h5.4l1.1,0.3l0.5-0.4l0.8,0.2l1.6-0.1l0.8,0.1l0.4,0.2l1.6-0.4l3.6,0.1l2.5-0.2l0.8,0.2l1.5-0.3
							l0.9,0.1l1.3,0.4l0.5-0.2h1.7l2,0.9l0.4,1.6l0.1,2.6l-0.4,0.6L110.7,151.5z M68.9,185.1l-0.1-0.5l-0.1,0.3L68.9,185.1z
							 M68.9,197.3h0.3V197h-0.3V197.3z M69.7,187.3l-0.1-0.5l-0.2-0.2l-0.4-0.1l0.4,0.6L69.7,187.3z M69.8,158.3l0.3,0.1l-0.3-0.4
							V158.3z M70.7,191.7l-0.1-0.4l-0.4-0.1l-0.1,0.4l0.3,0.3L70.7,191.7z M70.5,160.8l0.1,0.6l0.4-0.2l0.1-0.4l-0.4-0.1
							L70.5,160.8z M70.6,163.6l0.6-0.1l-0.6-0.4V163.6z M70.7,153.5h0.4V153h-0.4V153.5z M70.7,168.5l0.5-0.1l0.2-0.4l0.1-0.5
							l-0.4-0.1l-0.4,0.7L70.7,168.5z M70.7,196.2l0.6,0.3l0.1-0.7l-0.2-0.2l-0.3,0.3L70.7,196.2z M71,181.8l0.4-0.1l0.1-0.4
							l-0.1-0.7l-0.5,0.1l-0.1,0.3l0.1,0.4L71,181.8z M71.2,159.8l0.4-0.1l0.1-0.2l-0.4-0.3L71.2,159.8z M71.3,166.7l0.4-0.1v-0.3
							l-0.4-0.1V166.7z M71.3,173.5l0.6,0.1l0.3-0.8l-0.4-0.1l-0.4,0.4L71.3,173.5z M71.3,188.2h0.4v-0.4h-0.2L71.3,188.2z
							 M71.9,186.2l0.2-0.7l-0.2-0.3l-0.4-0.1l-0.1,0.4l0.1,0.5L71.9,186.2z M71.4,177.9h0.2v-0.3h-0.2V177.9z M72.1,157.8l-0.4,0.1
							l0.2,0.2L72.1,157.8z M72.3,156.5l-0.1-0.3l-0.3,0.1L72.3,156.5z M72.2,178.1l0.5-0.1l-0.1-0.4l-0.2-0.2l-0.4,0.4L72.2,178.1z
							 M72.4,191.3h0.7l-0.4-1l0.1-0.4l-0.4-0.1l-0.3,0.3l0.1,0.9L72.4,191.3z M72.2,182.8l0.6,0.2l0.4-0.2v-0.6l-0.5,0.1l-0.3,0.2
							L72.2,182.8z M72.3,162.3l0.1,0.4l0.8,0.3l-0.1-0.5l-0.4-0.3L72.3,162.3z M72.9,169.4v-0.2h-0.4L72.9,169.4z M72.7,160.6
							l0.6-0.4l0.1-0.4l-0.2-0.3l-0.6-0.1l-0.1,0.7L72.7,160.6z M72.6,180.4l0.6,0.2l-0.1-0.4l-0.3-0.2L72.6,180.4z M72.9,152.5h0.4
							v-0.4L73,152L72.9,152.5z M73,147.7l0.4,0.1l-0.2-0.4L73,147.7z M73,187.3l0.6,0.4l0.5,0.1l0.2-0.4v-0.4l-0.3-0.3l-0.7-0.1
							l-0.2,0.3L73,187.3z M73.7,195.7l-0.1-0.9l-0.5-0.1v0.7l0.2,0.3L73.7,195.7z M73.2,167.5h0.6l-0.2-0.5l-0.4-0.2V167.5z
							 M73.8,150.8v-1.1h-0.4l-0.1,0.4l0.1,0.4L73.8,150.8z M73.4,165.5l0.4,0.3h0.4l0.2-0.3l-0.4-0.4v-0.4h-0.4l-0.1,0.4
							L73.4,165.5z M73.4,172.6l0.1-0.1l0.7-0.3v-0.4h-0.5l-0.2,0.3L73.4,172.6z M73.7,194l0.5-0.1l-0.1-0.4l-0.4-0.1l-0.1,0.3
							L73.7,194z M73.7,156.9l0.2,0.8l0.3,0.2l0.4,0.1l0.1-1.1l-0.4-0.2H74L73.7,156.9z M73.7,159.4H74l-0.2-0.5L73.7,159.4z
							 M74.7,169.3l-0.4-0.3l-0.3,0.1l-0.2,0.4v0.4l0.2,0.4l0.4,0.1l0.2-0.8L74.7,169.3z M73.9,177.3l0.4,0.1l0.1-0.6l-0.4,0.1
							L73.9,177.3z M74.2,192.1l0.9,0.1l-0.4-0.6l-0.4-0.1l-0.1,0.3L74.2,192.1z M74.4,155.2l-0.2-0.2L74.4,155.2z M74.6,183.8v-0.3
							h-0.4L74.6,183.8z M74.3,161.9l0.4,0.3l0.8-1.1l-0.4-0.1l-0.4,0.1l-0.3,0.4L74.3,161.9z M74.7,175l0.1-0.5l-0.4-0.1l-0.1,0.4
							L74.7,175z M74.6,190.8l0.4-0.1l-0.1-0.8l0.1-0.5l-0.5-0.3l-0.1,0.4l0.3,0.7V190.8z M74.6,147.4l0.4-0.1v-0.4h-0.4V147.4z
							 M75.7,182.2l-0.2-0.4l-0.7-0.4l0.1,0.4l0.4,0.3L75.7,182.2z M74.9,175.6h0.2v-0.3h-0.2V175.6z M74.9,194.6l0.7,0.4l0.2-0.3
							v-0.9l-0.1-0.4l-0.4,0.1l-0.4,0.6V194.6z M75.7,154l-0.2-0.4l-0.4-0.2l-0.1,0.4l0.3,0.3H75.7z M75.1,188.7l0.4,0.1l0.2-0.4
							v-0.5l-0.4,0.1l-0.2,0.4L75.1,188.7z M75.8,151.6l-0.1-0.3l-0.4-0.1l-0.1,0.4l0.1,0.2L75.8,151.6z M75.2,171.1l0.3,0.3
							l0.5-0.1l0.1-0.4l-0.7-0.1L75.2,171.1z M75.4,166l0.1,0.5l0.3,0.1l0.3-0.2l-0.2-0.5L75.4,166z M76,164.2l0.3-0.6l-0.5-0.2
							l-0.3,0.2v0.4L76,164.2z M76.6,156.9l0.6-0.7l-0.6-0.4h-0.5l-0.3,0.2v0.6l0.4,0.2H76.6z M76.6,170l0.2-0.6v-0.9l-0.5-0.2
							l-0.3,0.1l-0.1,0.2v0.4l0.4,0.8L76.6,170z M76,178.8l0.4-0.1l0.1-0.5H76l-0.1,0.4L76,178.8z M76.8,191l-0.4-0.2l-0.6-0.1
							l0.1,0.5h0.4L76.8,191z M76,150.2h0.4v-0.4H76V150.2z M76.3,175.9l0.1,0.8l0.4-0.1l0.1-0.4l-0.1-0.4h-0.4L76.3,175.9z
							 M77.4,161.5l0.2-0.3l-0.1-0.4l-0.4-0.3h-0.6l0.6,0.6L77.4,161.5z M76.4,173.3l0.1,0.5l0.3,0.3v0.5l0.4-0.2l0.2-0.4v-0.5
							l-0.1-0.4h-0.5L76.4,173.3z M76.4,189l0.4-0.1l0.2-0.2l0.1-0.4l-0.4,0.1l-0.2,0.2V189z M76.9,154.1l0.1-0.4l-0.5-0.1v0.4
							L76.9,154.1z M76.7,146.2l0.6-0.1l-0.4-0.4L76.7,146.2z M77.2,153.2l0.2-0.4l-0.5-0.1L77.2,153.2z M76.9,193.2l0.5,0.8
							l0.4,0.1l0.1-0.3V193l-0.4-0.2h-0.4L76.9,193.2z M77.1,158.9l0.4-0.1v-0.3l-0.4-0.1V158.9z M77.4,166l0.6-0.6l0.1-0.4
							l-0.4-0.3l-0.5,0.6L77.4,166z M77.7,181.2L78,181v-0.5l-0.3-0.1h-0.5l0.1,0.5L77.7,181.2z M77.4,151.3l0.4-0.2l0.1-0.5
							l-0.4-0.2l-0.1,0.4V151.3z M77.7,172.6V172l-0.4,0.1v0.3L77.7,172.6z M77.4,185.9l0.8-0.3l0.1-0.4l-0.4-0.1l-0.4,0.1l-0.2,0.3
							L77.4,185.9z M78.2,170.1l-0.1,0.2l-0.2-0.2h-0.4l0.1,0.4l0.4,0.1l0.4-0.1L78.2,170.1z M77.9,178.4l-0.4-0.1l0.2,0.3
							L77.9,178.4z M77.4,179.5h0.4l-0.1-0.3l-0.3-0.1V179.5z M77.6,197.5l0.1,0.4l0.3,0.3l0.4,0.1l0.3-0.6l-0.2-0.3l-0.4-0.1
							L77.6,197.5z M78.4,164l-0.1-1.1l-0.3-0.3l-0.3,0.3v0.4l0.2,0.4L78.4,164z M78.2,168.4l0.5-0.1l0.4-0.8l-0.4-0.3l-0.4,0.1
							L78,168L78.2,168.4z M78.5,177.6v-0.4l-0.4-0.1v0.4L78.5,177.6z M78.5,190.8l0.1-0.4l0.6-0.4l-0.9-0.1l-0.1,0.4L78.5,190.8z
							 M79.2,175.3l-0.1-0.9l-0.5,0.1l-0.2,0.2l0.3,0.6H79.2z M78.7,153.2l0.1-0.3l-0.3-0.2l-0.1,0.3L78.7,153.2z M79.1,156l0.1-0.4
							l-0.2-0.4l-0.4-0.2l-0.2,0.3v0.4l0.2,0.3L79.1,156z M78.8,173.1l0.4-0.1l0.2-0.2l0.1-0.4l-0.6-0.3l-0.1,0.7V173.1z
							 M79.2,196.8v-0.4l-0.4,0.1L79.2,196.8z M79.6,154.3l-0.2-0.4l-0.4-0.1l0.1,0.5H79.6z M79.1,160.6l0.6-0.3v-0.5l-0.2-0.2
							l-0.4-0.1l-0.1,0.6L79.1,160.6z M79.1,180.4l0.4-0.3l0.1-0.5l-0.4,0.1l-0.2,0.3L79.1,180.4z M79.1,177.8h0.4l-0.1-0.6
							l-0.1,0.3L79.1,177.8z M79.3,195l0.5-0.1l0.2-0.4l-0.4-0.1l-0.4,0.2L79.3,195z M79.3,192.9l0.6,0.3l0.2-0.4v-0.5l-0.4-0.3
							l-0.3,0.4L79.3,192.9z M79.4,178.5l0.4-0.1L80,178h-0.4L79.4,178.5z M79.6,169.5h0.5l0.3-0.1l-0.1-0.5l-0.6,0.3L79.6,169.5z
							 M79.7,150.3H80l0.1-0.3l-0.4-0.1V150.3z M80.2,154.7l0.3-0.2l0.1-0.5h-0.9l0.1,0.5L80.2,154.7z M80,162.5h0.2l0.1-0.2
							l-0.4-0.1V162.5z M80.4,176.4l0.1-0.5H80l0.1,0.4L80.4,176.4z M80,196.8l0.1,0.5l0.2,0.3l0.3-0.1l0.2-0.3l0.1-0.6h-0.5
							L80,196.8z M80.8,167.3l0.1-0.4l-0.1-0.4l-0.4-0.2h-0.3l0.2,0.9L80.8,167.3z M80.4,148.8l-0.1-0.5l-0.1,0.3L80.4,148.8z
							 M80.2,174.3l0.5,0.1l0.4-0.2l-0.1-0.4l-0.6-0.1L80.2,174.3z M80.8,171.9h0.6v-0.6l-0.4-0.1l-0.4,0.1l-0.1,0.3L80.8,171.9z
							 M80.8,159.4l0.6,0.1l0.1-0.1v-0.5l-0.6-0.1l-0.1,0.4L80.8,159.4z M81,178.9l0.1,0.5l0.4,0.2l0.2-0.7l-0.4-0.1L81,178.9z
							 M81.2,151.8l0.5-0.1l0.1-0.4l-0.4-0.1l-0.2,0.2L81.2,151.8z M81.6,194.2v-0.5l-0.4,0.3L81.6,194.2z M81.4,176l0.4,0.6v0.5
							l0.4-0.2l0.1-0.4l-0.1-0.4l-0.3-0.2L81.4,176z M81.4,191.5l0.1,0.4h0.5l-0.2-0.4L81.4,191.5z M81.6,158h0.4l-0.4-0.3V158z
							 M82.2,170.3l-0.5-0.1l0.2,0.4L82.2,170.3z M81.9,149.4l0.4-0.1l0.1-0.4l-0.4,0.1L81.9,149.4z M81.9,196.3l1.1,0.3l0.1-0.9
							l-0.3-0.2l-0.7,0.4L81.9,196.3z M82.1,155.7l0.3,0.4l0.2-0.4H82.1z M82.4,175.1h0.4l-0.1-0.3l-0.3-0.1V175.1z M83.7,171.5V171
							h-0.5l0.1,0.4L83.7,171.5z M83.7,150.7v-0.2h-0.4L83.7,150.7z M83.7,175.3l0.6,0.5l0.2,0.4l0.1-0.4v-0.6l-0.7-0.2L83.7,175.3z
							 M83.9,157l-0.1-0.6l-0.1,0.4L83.9,157z M84.4,197.4l0.2,0.3H85l0.1-0.4L84.4,197.4z M85,157.2l0.2,0.4l0.4-0.1l0.2-0.3
							l-0.4-0.3L85,157.2z M85.4,200.2v-0.5l-0.2-0.2v0.5L85.4,200.2z M86,170l-0.1-0.3h-0.4l0.2,0.5L86,170z M85.8,174.7l0.5,0.6
							l0.4-0.1l0.3-0.7l-0.6-0.4l-0.4,0.1L85.8,174.7z M86.6,152l0.4-0.1l0.1-0.2h-0.4L86.6,152z M87.1,171.7l0.6-0.4l-0.1-0.4
							l-0.5,0.4L87.1,171.7z M87.7,176.3l0.6,0.3l0.1-0.5l-0.3-0.1L87.7,176.3z M88.2,173.6l0.5,0.9l0.4-0.3l0.2-0.4l-0.8-0.2
							L88.2,173.6z M88.2,196.2l0.3-0.1l-0.3-0.2V196.2z M89.2,172.8v-0.5l-0.4,0.3L89.2,172.8z M88.9,170.6l0.3-0.2l-0.3-0.2V170.6
							z M89.6,193.7l-0.1-0.3h-0.5l0.1,0.4l0.3,0.1L89.6,193.7z M89.7,155.6h0.6l-0.1-0.4l-0.3-0.2L89.7,155.6z M89.9,175.1l0.1,0.4
							l0.4,0.2l0.3-0.3v-0.3l-0.3-0.1L89.9,175.1z M90,173.1l0.5,0.3h0.4l-0.1-0.3v-0.5l-0.4-0.1l-0.2,0.3L90,173.1z M90.7,195.4
							h0.5V195l-0.4-0.1L90.7,195.4z M91.9,178.4L92,178l-0.6-0.6l0.1,0.9L91.9,178.4z M91.4,199.6l0.3,0.1l-0.3-0.4V199.6z
							 M92.2,174.5l0.4,0.1l0.3-0.2L93,174l-0.3-0.1l-0.4,0.1L92.2,174.5z M93,172.6l0.1-0.4l-0.3-0.3v0.5L93,172.6z M93.3,176.5
							l0.5,0.1v-0.4l-0.4,0.1L93.3,176.5z M94.7,173.3H95l-0.1-0.4L94.7,173.3z M95.4,171.4L95,171l0.1,0.5L95.4,171.4z M95.2,178
							l0.4,0.1l0.2-0.4h-0.4L95.2,178z M95.8,193.3l0.1-0.4l-0.4-0.3l-0.1,0.5L95.8,193.3z M96.2,176.3l0.2-0.4l-0.1-0.4l-0.4-0.2
							l-0.3,0.4l0.2,0.4L96.2,176.3z M96.1,195.4v0.4l0.5,0.1l0.3-0.4l-0.4-0.3L96.1,195.4z M97.2,153.5l-0.1-0.4l-0.6-0.3l0.1,0.4
							l0.4,0.1L97.2,153.5z M96.9,172.6l0.4-0.1l0.1-0.2l-0.4-0.1L96.9,172.6z M97.5,200.4l-0.2-0.2h-0.4l0.2,0.4L97.5,200.4z
							 M97.9,169.8l0.3-0.2l-0.3-0.2V169.8z M98.9,199.6h0.4l0.2-0.3l-0.6-0.1V199.6z M99.2,149h0.3v-0.2h-0.3V149z M99.2,176.2
							l0.3,0.1l-0.3-0.4V176.2z M99.7,191.3h0.4l-0.4-0.3V191.3z M100.4,174.3l0.1-0.6h-0.4v0.4L100.4,174.3z M100.9,194.2l0.1-0.4
							l-0.4-0.2l0.1,0.4L100.9,194.2z M100.6,198.3l0.1,0.4h0.5v-0.5h-0.4L100.6,198.3z M102,188.4l0.2-0.1l0.1-0.4l-0.4,0.1
							L102,188.4z M102.3,175.5l0.2-0.4h-0.4L102.3,175.5z M102.4,173.8h0.3v-0.2h-0.3V173.8z M102.9,197.5l0.3,0.1l0.3-0.1l0.1-0.4
							h-0.5L102.9,197.5z M103.4,189.3l-0.1-0.3l-0.3-0.1L103.4,189.3z M104.5,198.8h0.3v-0.3h-0.3V198.8z M105.7,194.9h0.4
							l-0.4-0.3V194.9z M105.9,193.2l0.3-0.2l-0.3-0.2V193.2z M106.1,188.2h0.3l0.1-0.3l-0.4-0.1V188.2z M106.7,199.8l-0.1-0.4
							l-0.3-0.1v0.4L106.7,199.8z M107.4,195.8l0.4-0.6l-0.4-0.1l-0.2,0.3L107.4,195.8z M108.2,194.1h0.2l-0.1-0.3l-0.2,0.1
							L108.2,194.1z M110.2,193.3h0.3V193h-0.3V193.3z"/>
						<path class="st0" d="M156.7,145.5l0.3,0.5l0.6-0.1l1,0.7l0.8,0.2l0.4-0.1l1.3,1l1.2,0.4l0.6,0.6l2.1,1.5l1.1,1.3l0.4,0.3
							l0.5,0.8l-0.1,0.5l-0.2,0.3l1.3,0.9l0.6,0.6l0.1,0.9l0.6,0.8l-0.3,0.8l0.8,0.9l0.3,1.9l-0.1,0.9l-0.1,0.3l-0.4,0.3l0.3,0.6
							l-0.4,0.2l-0.6,0.6l-2.5,0.3h-1.4l-0.1-0.6l-0.6,0.5l-1,0.1l-0.9-0.1l-0.8,0.4l-2.7-0.1l-1.6-0.4l-0.6-0.3l-0.1-0.7l-1.2-1.1
							l-0.3-0.9l-1.4-1.3l-0.6-0.7l-2.5-0.7l-1.1-0.6h-1.9l-1.9,0.2l-1.6,0.4l-0.7,0.3l-1.2,0.9l-1,1.4l0.3,0.9l-0.1,0.4l1,1.3
							l0.6,0.5l0.9,0.4l0.6,0.6l0.5-0.1l1.2,0.4l0.6,0.5l1,0.1l1.1,0.5h0.5l0.6,0.4l2.4,0.9l0.7,0.4l0.9,0.1l3,1.2l0.4,0.1l0.8,0.8
							l0.9,0.1l1.4,0.8l0.7,0.9l0.9,0.1l0.8,0.4l1.4,1.7l0.5,0.1l1.4,1.1l0.5,0.1l0.3,0.8l1.4,1.4l0.4,0.7l0.2,0.9v0.6l0.9,1
							l0.1,0.8l0.5,0.6l-0.1,0.8l0.4,0.6l-0.4,1.6l0.1,0.3l0.3,0.1l-0.1,0.9l0.1,0.9l-0.2,0.9l-0.3,0.4l0.2,0.3v1.3l-0.6,0.6v0.6
							l-0.6,1.6l-0.3,0.4l-0.4,0.1v0.9l-0.5,0.6l-0.6-0.3l-0.2,0.4L167,195l0.1,0.3l0.4,0.1l-1.6,1.5l-0.1,0.5l-0.4,0.1l-0.6,0.5
							l-0.5,0.1l-1.3,1.1l-1,0.1l-0.4,0.6l-0.4-0.1l-1,0.6h-0.6l-0.4,0.3l-0.9,0.3l-0.4,0.4l-1-0.1l-1.4,0.6l-0.5-0.1l-1.2,0.2
							l-0.5-0.4L153,202l-1.7,0.6l-1.6-0.2l-2.1,0.2l-0.1-0.3v-0.5l-0.8,0.3h-0.4l-0.9-0.3l-0.1,0.7l-1.7-0.6l-0.5-0.6l-0.3,0.8
							l-0.3-0.3l-0.8-0.2h-1.4l0.4-0.3l-0.3-0.5H140l-0.3,0.2h-0.4l-0.6-0.4l-2.5-0.4l-1.2-0.4l0.1-0.7l-0.7,0.5l-0.4-0.1l0.1-0.5
							l0.3-0.1l-0.2-0.4l-1.4,0.1l-0.6-0.5l-0.4-0.1h-0.5l-0.4-0.7l-0.9-0.7l-0.5-0.1l-0.4-1l-0.6-0.1l-2-2.9l-0.9-1.6l-0.9-3.4V186
							l1.1-1.5l0.4-0.2l0.9,0.2l1.8-0.2h8.4l1.4,1l2.9,3.1l1,0.8l0.5-0.1l1.8,0.3l0.9,0.4l1.2,0.1l0.4-0.1l0.4,0.1l0.2,0.2l0.8-0.3
							l0.9,0.1l-0.1,0.5l0.2,0.2l0.3-0.2v-0.5l0.1,0.4l0.7-0.4l0.2-0.4h0.6l1.1-0.5l0.6-0.1l0.6-0.6l0.4-0.8l0.6-2.1l-0.3-0.5
							l-0.3-0.2l-0.5-0.1l-0.2-0.9l-0.9-0.1l-1.1-0.7l-0.7-0.2l-0.5,0.1l-0.4-0.7h-1.1l-0.8-0.3l-0.6-0.5l-0.1-0.4l-0.8,0.2
							l-0.4-0.1l-0.6-0.5l-0.9-0.1l-2.3-0.9l-1.4-0.4l-1.1-0.6h-0.8l-1.1-0.9l-0.9-0.2l-1.2-0.9l-0.8-0.2h-0.6l-1.3-1.1l-1.9-1v-0.5
							l-0.5-0.5l-0.9-0.1l-0.4-0.8l-1.1-1.1l-0.1-0.8l-0.6-0.3l0.1-0.6l-0.8-0.1l-0.7-1.1l-0.1-0.8l-0.9-1.4l-0.2-0.9v-0.6l0.6-0.3
							l-0.6-1.8l0.1-0.8l0.2-0.4l-0.4-0.6l-0.1-1l0.2-1l0.5-0.6l-0.1-1l0.2-0.9l0.5-0.6l-0.1-0.8l0.4-0.1l0.3-0.3l0.6-1.6h0.5
							l0.3-0.2l0.4-0.9l0.6-0.6l0.4-0.1l-0.1-0.9l0.2-0.3l1,0.3l0.5-0.1l-0.4-0.9l1-0.9l0.4-0.1l0.1,0.3v0.5l0.4-0.2v-1h0.9l0.2-0.2
							l-0.1-0.4l0.4-0.1l1-0.6h1.1l1-1.2l1.6,0.6l-0.1-0.3v-0.4l0.4-0.1l1.4-0.1l0.2-0.3l0.9,0.4l0.2-0.4l0.5,0.6l0.4-0.3v-0.4
							l0.2-0.3l0.9-0.2l0.6,0.2l0.1,0.4l0.3-0.3h1.4l-0.1,0.8l0.4-0.1l0.1-0.2v-0.4l-0.4-0.1l0.8-0.4h0.4l1.3,0.5l1-0.1l4.1,0.6
							l0.8-0.1l0.4,0.1l0.6,0.5l0.4-0.1L156.7,145.5z M128.4,158.8l0.6-0.3h-0.4L128.4,158.8z M129.3,165.5l0.4-0.1l0.1-0.5
							l-0.4,0.1L129.3,165.5z M130.4,162l-0.1-0.3l-0.3-0.1l0.1,0.4L130.4,162z M130.5,158.3l0.8,0.3l0.4-0.1l-0.4-0.7l-0.6-0.5
							l-0.2,0.3v0.3L130.5,158.3z M130.5,159.7l0.5-0.1l-0.3-0.1L130.5,159.7z M131.2,160.7l-0.1-0.3l-0.4-0.1l0.1,0.4H131.2z
							 M132.2,167.2l-0.1,0.4l0.2,0.4l0.4-0.3l-0.1-0.3l-0.8-0.5l-0.4-0.1l-0.3,0.2l0.4,0.1l0.3-0.1L132.2,167.2z M131.3,156.5v0.3
							l0.4,0.1l0.1-0.1v-0.3l-0.4-0.1L131.3,156.5z M131.7,155.3l0.6-0.2l0.1-0.4l-0.5,0.1L131.7,155.3z M131.7,163.2h0.6l-0.1-0.4
							l-0.4-0.2V163.2z M131.8,165.2l0.3-0.8l-0.4,0.1l-0.1,0.4L131.8,165.2z M132.4,152.9l0.1-0.4l-0.2-0.3l-0.1,0.4L132.4,152.9z
							 M132.6,169.8l-0.1-0.3l-0.3-0.1v0.4L132.6,169.8z M132.6,154.6l0.1-0.4l-0.3-0.3l-0.1,0.4L132.6,154.6z M132.9,157l0.1,0.5
							l0.4,0.2l0.4-0.1l-0.2-0.4l-0.4-0.3L132.9,157z M132.9,158.8l0.2,0.4l0.4,0.2l0.1-0.6l-0.4-0.1L132.9,158.8z M133.4,164.4
							l0.6,0.1l0.2-0.9l-0.4-0.1l-0.4,0.5V164.4z M133.4,166.4l0.3-0.2l-0.3-0.2V166.4z M133.5,161.5v0.4l0.2,0.4l0.4,0.1l0.4-0.1
							l-0.3-0.9h-0.4L133.5,161.5z M133.9,156l0.4,0.3l0.3-0.6l-0.4-0.1L133.9,156z M134.1,154.3l0.3,0.2l0.5,0.1l0.2-0.3v-0.7
							l-0.1-0.4l-0.6,0.3l-0.1,0.4L134.1,154.3z M134.3,166.9l0.8,0.3l-0.1-0.5l-0.2-0.4l-0.4-0.2l-0.2,0.4L134.3,166.9z M134.9,169
							l-0.1-0.6l-0.2-0.3l-0.2,0.4v0.4L134.9,169z M134.4,151.9l0.5,0.2v-0.4l-0.3-0.1L134.4,151.9z M135.1,194.5h0.3l-0.1-0.3
							l-0.3,0.1L135.1,194.5z M135.7,199.3l-0.4-0.1l0.1,0.3L135.7,199.3z M135.8,156.6l-0.1-0.4l-0.4-0.2l-0.1,0.4L135.8,156.6z
							 M135.7,165.6l0.1-0.4l-0.4-0.2v0.4L135.7,165.6z M135.8,158.3v-0.5l-0.4,0.1v0.4L135.8,158.3z M135.8,192.8h0.2l-0.1-0.3
							l-0.2,0.1L135.8,192.8z M136.3,161.3l0.3-0.7l-0.6-0.1l-0.2,0.3l0.1,0.4L136.3,161.3z M135.9,163.6l0.4,0.1l0.3-0.8l-0.6-0.1
							l-0.2,0.4L135.9,163.6z M135.8,176.3h0.4l-0.4-0.3V176.3z M136.6,155.2l-0.1-0.4l-0.5-0.2l0.1,0.4L136.6,155.2z M136.3,153
							l0.7,0.2l0.4-0.1l-0.2-0.4h-0.6L136.3,153z M136.4,168.1l0.4,0.1l0.3-0.3l-0.5-0.4L136.4,168.1z M136.6,173l0.4,0.1l0.8-0.3
							v-0.5l-0.4-0.1l-0.6,0.4L136.6,173z M137.1,166.3l-0.1-0.4l-0.4-0.2l0.1,0.4L137.1,166.3z M137.2,170.8l0.3-0.9h-0.4l-0.1,0.6
							L137.2,170.8z M137.2,157.7l0.6,0.3l0.1-0.6l-0.5-0.1L137.2,157.7z M137.9,155.4l0.1-0.3l-0.1-0.4l-0.4-0.1l-0.1,0.7
							L137.9,155.4z M138.4,161.6l-0.4,0.3l-0.1,0.4l0.1,0.3l0.4-0.1l0.1-0.4L138.4,161.6z M138.5,194.6l-0.2-0.4l-0.1,0.4
							L138.5,194.6z M139.1,160.5l-0.2-0.4l-0.6-0.1v0.4l0.4,0.1H139.1z M139.1,196.5l-0.2-0.4l-0.5-0.1l0.3,0.5L139.1,196.5z
							 M139.3,165.5l0.1-0.5l-0.1-0.5l-0.3-0.2l-0.3,0.7l0.1,0.4L139.3,165.5z M139.1,167.5l0.1-0.4l-0.4-0.1v0.4L139.1,167.5z
							 M139.3,149.6v-0.5l-0.4,0.3L139.3,149.6z M139.1,171.9l0.8,0.3l-0.2-0.9l-0.2-0.4l-0.3,0.4L139.1,171.9z M139.9,156.3
							l0.1-0.5h-0.4l0.1,0.4L139.9,156.3z M139.6,169.7l0.3,0.4l0.2-0.4H139.6z M139.9,154.3h0.2V154h-0.2V154.3z M140.5,174.7v-0.8
							l-0.4-0.1l0.1,0.8L140.5,174.7z M140.5,166.5l0.4,0.1v-0.4l-0.3-0.2L140.5,166.5z M140.8,151.1h0.4v-0.6l-0.4,0.1V151.1z
							 M141.2,170.8l0.3,0.6l0.8-0.4l0.1-0.4l-0.4-0.1l-0.4,0.1L141.2,170.8z M141.6,152.9l0.4,0.7l0.4,0.1l-0.1-0.6l-0.3-0.3
							L141.6,152.9z M142.4,173l0.5,1l0.4-0.1l-0.6-1L142.4,173z M142.9,150.3l0.5-0.1l0.3-0.3l0.3,0.4l-0.1-0.4l-0.5-0.2l-0.2,0.4
							L142.9,150.3z M143.3,170l0.4,0.1l0.9,0.1v-0.5l-0.4-0.1l-0.6,0.1L143.3,170z M143.7,154.9h0.3v-0.3h-0.3V154.9z M144.2,168.3
							l-0.1-0.8h-0.4l0.1,0.5L144.2,168.3z M143.8,152.9l0.6-0.1v-0.4l-0.2-0.2l-0.4,0.2L143.8,152.9z M143.9,176.5v0.3l0.3-0.2
							l-0.1-0.2L143.9,176.5z M144.6,151.2l0.6,0.1V151h-0.4L144.6,151.2z M144.6,172.5l0.1,0.4l0.3,0.2l0.4,0.1l-0.1-0.5l-0.3-0.3
							L144.6,172.5z M145.2,175.1l0.1-0.4l-0.5-0.6l-0.1,0.4l0.1,0.4L145.2,175.1z M144.7,193.7l0.4,0.4l0.1-0.3l-0.1-0.4
							L144.7,193.7z M145.2,192.6l0.1-0.4L145,192v0.4L145.2,192.6z M145.4,149h0.3v-0.3h-0.3V149z M145.8,169.3h0.5v-0.5l-0.4-0.1
							l-0.1,0.3V169.3z M145.9,154.1l0.4-0.1l0.1-0.4l-0.4-0.1l-0.1,0.3V154.1z M146.9,151.6l-0.1-0.4l-0.7-0.4l0.4,0.7L146.9,151.6
							z M146.9,191l-0.1-0.6l-0.3-0.3l-0.1,0.4l0.1,0.4L146.9,191z M147.7,172.2l-0.4-0.6l-0.4-0.1v0.4l0.4,0.3L147.7,172.2z
							 M147.5,148.5l0.3-0.1l0.1-0.6l-0.6,0.5L147.5,148.5z M147.8,171.1h0.2v-0.3h-0.2V171.1z M148.6,151.2l0.4-0.2l-0.1-0.5
							l-0.3-0.2l-0.1,0.5L148.6,151.2z M148.4,173.1l0.7,0.1l0.4-0.1v-0.6l-0.4-0.1l-0.6,0.2L148.4,173.1z M148.6,194.6h0.2v-0.3
							h-0.2V194.6z M148.9,155.2l0.4-0.2l-0.2-0.4L148.9,155.2z M149.4,171l0.1-0.5h-0.4v0.4L149.4,171z M149.7,177.7l0.3-0.6
							l-0.3-0.2l-0.3,0.6L149.7,177.7z M150.4,176l-0.3-0.8l0.1-0.5l-0.5,0.1l-0.1,0.4l0.1,0.4l0.4,0.4L150.4,176z M150.2,197.4
							L150,197l-0.3-0.2l0.1,0.4L150.2,197.4z M149.9,195.7l0.5,0.2l-0.1-0.9l-0.1-0.4l-0.2,0.2l-0.1,0.4V195.7z M150,152l0.4,0.1
							h0.7v-0.5h-0.9L150,152z M150.7,199.8h0.3l0.1-0.4h-0.3L150.7,199.8z M151.1,172.2l0.1-0.1l-0.3-0.3L151.1,172.2z
							 M151.4,176.8h0.4l0.1-0.4h-0.6V176.8z M152,175l0.1-0.4l-0.2-0.2l-0.1,0.4L152,175z M152.2,151.3h0.6l0.1-0.4l-0.3-0.4
							l-0.3,0.4L152.2,151.3z M152.2,198.8l0.7,0.3l0.3-0.1l0.1-0.4l-0.9,0.1L152.2,198.8z M152.4,148.7h0.4v-0.4h-0.3L152.4,148.7z
							 M152.8,171.4h0.2v-0.3h-0.2V171.4z M153.2,153.2l0.4,0.8l0.3,0.3l0.1-0.4l-0.1-0.4l-0.4-0.4L153.2,153.2z M153.3,155.8h0.3
							l0.1-0.4h-0.4V155.8z M154.4,173.9l0.1-0.4l-0.1-0.4l-0.3-0.3h-0.4l-0.1,0.4l0.1,0.4l0.2,0.2L154.4,173.9z M153.6,176l0.4-0.1
							l0.1-0.4l-0.3-0.2l-0.1,0.3L153.6,176z M154.2,195.3l-0.4,0.1l0.3,0.2L154.2,195.3z M154.1,192.9h0.4v-0.4h-0.3L154.1,192.9z
							 M154.2,180.1l0.4,0.1v-0.4h-0.3L154.2,180.1z M155.3,152.8h0.2v-0.3h-0.2V152.8z M155.8,172.3l0.2,0.4l0.4,0.1l0.1-0.6h-0.4
							L155.8,172.3z M156.2,175.1v-0.5l-0.3-0.2l-0.1,0.4L156.2,175.1z M156.1,192l0.7,0.1l0.2-0.3l-0.4-0.3h-0.4L156.1,192z
							 M156.6,169.1l-0.4-0.1l0.1,0.3L156.6,169.1z M156.6,157.5l0.3-0.5h-0.3l-0.1,0.3L156.6,157.5z M157.2,184.2l-0.6-0.4
							l-0.1,0.4l0.3,0.2L157.2,184.2z M156.6,181.7l0.1,0.4l0.4,0.2h0.4l0.2-0.3l-0.3-0.4l-0.5-0.2L156.6,181.7z M156.9,153.8
							l0.1,0.4l0.5,0.1V154l-0.1-0.3L156.9,153.8z M157.5,186.5l0.4,0.6l0.4,0.1l0.2-0.5l-0.1-0.5l-0.3-0.3l-0.4,0.1L157.5,186.5z
							 M157.7,189.2l0.3-0.1l-0.3-0.2V189.2z M158.1,156.3h0.4v-0.4h-0.3L158.1,156.3z M158.9,185.4V185l-0.6,0.1L158.9,185.4z
							 M158.6,191.7l0.5-0.1l0.2-0.4l-0.1-0.5l-0.5,0.1l-0.2,0.4L158.6,191.7z M158.9,180.8l0.6,0.6l0.4,0.2l0.1-0.4l-0.1-0.4
							l-0.7-0.3L158.9,180.8z M159.7,183.3l-0.1-0.4l-0.4-0.1l0.1,0.5L159.7,183.3z M160.2,153.6l-0.1-0.4l-0.3-0.2h-0.4l0.1,0.5
							l0.4,0.1L160.2,153.6z M159.5,178.8l0.4-0.2l-0.4-0.3V178.8z M159.5,188.1h0.5l0.1-0.4l-0.5-0.1L159.5,188.1z M160.3,186.3
							l0.3-0.2l0.2-0.4l-0.2-0.5l-0.4-0.3l-0.4,0.9l0.1,0.4L160.3,186.3z M159.9,194.6h0.3v-0.3h-0.3V194.6z M160.6,192.8l0.1-0.4
							l-0.6-0.1l0.1,0.4L160.6,192.8z M160.6,183.9l0.2,0.4l0.3-0.4H160.6z M161.6,190.3h-0.5l0.1,0.4l0.4-0.1L161.6,190.3z
							 M161.4,182.3l0.5-0.6l-0.3-0.3l-0.4,0.6L161.4,182.3z M161.6,180.5l0.4,0.1l0.2-0.3l-0.4-0.1L161.6,180.5z M162.3,182.3h0.4
							l-0.4-0.3V182.3z M162.7,184.7l-0.3,0.1h0.4l0.2-0.5h-0.4L162.7,184.7z M162.7,190.1h0.4l0.5-0.5v-0.4l-0.4-0.1l-0.5,0.6
							L162.7,190.1z M162.8,187.3l0.3,0.1l0.1-0.3l-0.3-0.1L162.8,187.3z M164,179.4l0.1-0.4l-0.2-0.4l-0.4-0.2l-0.1,0.4l0.3,0.6
							H164z M163.9,181.5l0.3-0.4h-0.4l-0.3,0.1L163.9,181.5z M164.7,186.3l-0.1-0.3l-0.5-0.1l0.1,0.3L164.7,186.3z M164.2,193
							l0.3-0.7l-0.3-0.2l-0.2,0.7L164.2,193z M164.7,184l-0.2-0.5l-0.3-0.3l0.1,0.8H164.7z M165.7,188.7l-0.1-0.4l-0.3-0.2l-0.4-0.1
							l0.1,0.5l0.3,0.3L165.7,188.7z M165,180.3l0.1,0.4h0.3l0.1-0.4l-0.4-0.1L165,180.3z M166.9,187.6l0.8,0.3l-0.1-0.4l-0.4-0.1
							L166.9,187.6z"/>
						<path class="st0" d="M232.1,151.7l-0.1,0.9l0.2,1.3l-0.1,0.4l-0.3,0.2l0.2,0.4v0.4l-0.4,1.4l0.5,0.4l-0.4,0.8h-0.4l-0.1,0.3
							l0.2,0.8l-0.8,0.3l-1.6,0.1l-0.7,0.4l-0.7-0.2l-1.7,0.1l-0.8-0.1l-0.3-0.2l-0.8,0.3h-1.9l-0.6-0.4l-0.1-0.3l-0.7,0.4l-1.4,0.1
							l-0.9-0.4l-0.7,0.3l-0.9,0.1l-0.3-0.2l-0.5,0.5l-0.8,0.3h-0.4l-0.2,0.4l-0.2,0.9l-0.1,3.3l-0.2,0.8l0.5,0.8l-0.1,0.4L214,167
							l-0.1,0.4l0.8-0.1l0.2,0.4l-0.1,0.5l-0.3,0.4l0.1,0.4v0.9l-0.4,1.6l0.5,0.3l-0.2,1.4v0.9l0.2,0.9l-0.5,0.1l0.5,2.2l-0.1,0.9
							l-0.2,0.4l0.5,0.8l-0.1,0.4l-0.1,2.1l-0.3,0.4l0.5,1.2l-0.4,0.6l0.1,1.4l-0.1,1.6l0.1,1.5l-0.2,1.2l0.2,1.7l-0.5,0.6l0.2,0.3
							l0.2,0.8l0.1,1.8l-0.4,0.8l-0.1,0.8l-0.3,0.3l0.6,0.1l0.2,0.4l-0.4,1.6l0.4,0.2l-0.4,0.6l-0.1,0.4l-0.4,0.2l-0.4,0.7l-1.4,0.1
							l-0.8-0.3l-0.4,0.2l-1.6,0.1l-0.4,0.1l-0.2-0.4l-0.4,0.2l-0.7,0.1l-0.8,0.4h-0.4l-0.6-0.3l-0.4,0.1l-0.2,0.2l-0.8-0.2
							l-2.6-0.2l-0.9-0.3l-0.2-0.4l-0.4-1.6l-0.4-0.6l0.2-1.6l-0.1-0.8l0.5-0.2l-0.6-0.6l-0.1-0.5l0.6-0.4l-0.5-1.3l0.1-1.4
							l-0.1-0.4l0.4-0.6l-0.1-0.4l-0.4-3.4l0.6-0.1l-0.5-0.6l0.2-0.7l-0.4-0.7l0.4-1.4l-0.1-0.9l0.6-0.1l-0.6-0.6l-0.2-0.9l0.4,0.1
							l0.3,0.3h0.4l-0.4-0.6l-0.4-0.1l-0.3-1.1l-0.1-1.9l0.2-0.8l-0.2-0.6l0.3-0.5l0.4-0.3l-0.4-0.6l-0.2-2.1l0.3-0.2l0.4-0.6v-0.5
							l-0.4-0.2l-0.2-0.9l-0.3-0.4l0.4-0.3l-0.1-1.4l0.3-0.1l-0.1-1.1l0.4-0.1l0.4,0.4l0.2-0.3l0.1-0.5h0.6l0.1-0.4l-0.2-0.1
							l-0.4,0.1l-0.4-0.3l-0.4-0.6l-0.1-0.7l-0.6-0.7l-0.1-0.9l0.3-1.1l-0.3-0.7v-0.5l-1.6-1.1l-0.6,0.6h-0.2l-0.2-0.8l-0.4-0.3
							l-0.4,0.6l-0.3-0.5l-0.4,0.2v0.4l-1.9-0.2l-0.8,0.1l-0.8,0.4l-2.4-0.4L190,159l-0.4-0.2l-0.6,0.8l-0.4-0.1l-1.6-0.1l-1.2,0.5
							l-0.3-0.3l-2.4-0.6l0.1-0.5l0.6-0.5l-0.3-0.3l-0.8,0.3l0.1-0.4l-0.1-1.4l0.4-0.4l-0.2-0.4l-0.1-0.8l0.4-1.2l-0.4-0.6l-0.1-0.9
							l0.4-0.1l-0.1-0.8l0.8-0.3l-0.3-0.3h-0.8l0.1-0.9l-0.1-0.8l-0.2-0.4l0.6-1l-0.1-0.4l0.3-0.1h0.5l-0.1-0.8l0.6-0.4l0.9-0.1
							l0.6,0.4l1.5-0.4h3.5l0.4,0.1l0.2,0.3l3-0.3l0.3,0.2l0.9,0.2l0.9-0.1l0.8-0.3l0.2-0.2l1.4,0.3h1.6l0.9-0.3l0.1,0.9l0.3-0.2
							l0.1-0.4l0.3-0.2l1.4,0.1l0.9-0.1v0.3l0.2,0.3l0.4-0.2l0.4-0.6l0.9,0.2l1.4-0.2l-0.1,0.7h0.8l0.2-0.1l0.1-0.4l0.8,0.3l0.8-0.4
							h3.9l0.9,0.1l0.4,0.2l0.6-0.4h4.6l1.6,0.2l0.4-0.1l0.8,0.1l0.9-0.4l1.7,0.1l1.6-0.1l0.6,0.6l0.6-0.6l2.1,0.5l0.6,0.4l0.6,1.1
							v1.9l-0.1,0.9l-0.2,0.3l0.5,0.9L232.1,151.7z M188.1,151.9v-0.4l-0.4-0.2l-0.1,0.4l0.3,0.6L188.1,151.9z M190,151l-0.4-0.1
							l-0.1,0.4l0.4,0.1V151z M190.6,155.8l0.3-0.3l-0.5-0.5l-0.3,0.6L190.6,155.8z M191.4,153.3h-0.4l-0.2,1.2h0.6V153.3z
							 M191.4,152.3l0.3-0.1l0.1-0.3h-0.5L191.4,152.3z M192.4,150.3v-0.4l-0.4-0.3l-0.2,0.9l0.4,0.3L192.4,150.3z M192.9,151.1h0.3
							v-0.3h-0.3V151.1z M193.5,152.9l-0.3-0.1v0.4h0.4L193.5,152.9z M194.1,149.3h0.4v-0.9l-0.4,0.1l-0.3,0.3l-0.1,0.4L194.1,149.3
							z M195.1,153.5h-0.7l-0.2,0.3l0.6-0.1l0.3,0.4V153.5z M195.4,150.4l0.4,0.1l0.3-0.2l-0.5-0.2l-0.4,0.1L195.4,150.4z
							 M195.7,151.6h-0.4l0.1,0.4l0.4,0.1V151.6z M196.1,156.5l0.2-0.3l-0.4-0.2v0.9L196.1,156.5z M197.8,151.3v-0.7l-0.4-0.1
							l-0.3,0.4l0.1,0.5L197.8,151.3z M197.6,149.4l0.4,0.1l-0.1-0.4l-0.5-0.1L197.6,149.4z M198.4,147l-0.4-0.1l-0.3,0.2l0.8,0.4
							L198.4,147z M198.5,155.8l-0.1-0.5l-0.3-0.4l-0.4-0.1l0.2,1.1l0.2,0.3L198.5,155.8z M199.3,152l0.2-0.3l-0.4-0.2l-0.4,0.1v0.4
							H199.3z M199.9,150.5l0.1-0.4l-0.1-0.5l-0.4,0.1l-0.2,0.8l0.2,0.1L199.9,150.5z M199.5,148.5l0.4-0.1l0.2-0.3h-0.7
							L199.5,148.5z M200.6,187.6l-0.4-0.3v0.3H200.6z M200.9,188.7l-0.4-0.1v0.4l0.4,0.1L200.9,188.7z M201.8,157.5l-0.5-0.1
							l-0.3,0.4l0.6,0.1L201.8,157.5z M202.2,149.2l0.1-0.4l-0.1-0.4l-0.5-0.2l-0.2,0.7l0.1,0.4l0.4,0.2L202.2,149.2z M202.7,160.5
							l0.1-0.6l-0.5,0.1l-0.3,0.4H202.7z M202.3,153.3l-0.1,0.5l0.4,0.2l0.2-0.4l-0.1-0.5L202.3,153.3z M202.5,164.8l0.3,0.3
							l0.6,0.1l-0.1-0.4l-0.3-0.3l-0.4-0.1L202.5,164.8z M202.9,149.8l-0.1,0.4l0.6,0.1l0.3-0.3l-0.1-0.4l-0.5-0.1L202.9,149.8z
							 M203.1,152.1v-0.2h-0.3v0.2H203.1z M202.8,158.2v0.4h0.3l0.2-0.3l-0.2-0.2L202.8,158.2z M203.6,192.4l0.4-0.2l-0.1-0.4
							l-0.7,0.2l-0.1,0.2l0.4,0.4L203.6,192.4z M203.4,154.7l0.6,0.1l0.3-0.4l-0.7-0.4l-0.4,0.2L203.4,154.7z M203.9,163.3l0.2-0.3
							v-0.4l-0.4-0.1l-0.2,0.9L203.9,163.3z M203.6,178.3l0.4,0.3v-0.4L203.6,178.3z M203.9,185.1h0.5l0.1-0.4l-0.4-0.2h-0.4v0.5
							L203.9,185.1z M203.7,148.4l0.3,0.3l0.3-0.1l-0.4-0.6L203.7,148.4z M204,158.6l-0.3,0.4l0.4,0.3l0.3-0.4L204,158.6z
							 M204,174.3l0.4,0.1l-0.3-0.4L204,174.3z M204.6,168.3v-0.5h-0.4l-0.1,0.4l0.1,0.3L204.6,168.3z M204.6,182.2h-0.3l0.1,0.4
							l0.5-0.3L204.6,182.2z M204.9,189.5l0.5-0.5l-0.4-0.2h-0.4l-0.4,0.2l0.1,0.5H204.9z M204.4,152.6l0.1,0.4h0.5l-0.1-0.5
							l-0.4-0.3L204.4,152.6z M204.9,163.9l0.4,0.1l0.4-0.2l0.2-0.4l-0.3-0.2l-0.9,0.2L204.9,163.9z M205.4,157l-0.2-0.3l-0.4-0.1
							l-0.1,0.4l0.2,0.8l0.3,0.2l0.5-0.8L205.4,157z M204.8,151.5l0.4-0.1l0.1-0.4h-0.6V151.5z M205.9,155.5l-0.5,0.1l0.1,0.4
							l0.4,0.1l0.4-0.1L205.9,155.5z M206.4,162.1v-0.4l0.1-0.3l-0.4-0.2l-0.6-0.1l0.2,0.9l0.4,0.3L206.4,162.1z M205.6,179l0.3,0.1
							l0.1-0.3l-0.3-0.1L205.6,179z M206.1,191.2l-0.4-0.1l-0.2,0.3l0.3,0.2L206.1,191.2z M206.4,183.5l-0.3-0.1l-0.2,0.1H206.4z
							 M206.1,154l0.2-0.1l-0.2-0.2V154z M206.8,160.3l-0.4-0.2l-0.1,0.4l0.4,0.2L206.8,160.3z M206.8,167.3l-0.3-0.2v0.4
							L206.8,167.3z M206.9,196.7l-0.4-0.2v0.2H206.9z M206.9,150.2l-0.3,0.2l0.5,0.3l0.2-0.1l0.1-0.4H206.9z M206.9,148l0.2,0.3
							l0.1-0.5L206.9,148z M207.3,186.1l0.1-0.2l-0.4-0.1l-0.1,0.4L207.3,186.1z M207.6,155.5l-0.4-0.1v0.4h0.3L207.6,155.5z
							 M207.9,162.9l-0.7-0.1l0.1,0.4l0.8,0.1l0.1-0.4L207.9,162.9z M207.1,187h0.4l-0.1-0.4l-0.3-0.2V187z M207.3,178.1l0.4-0.3
							h-0.3L207.3,178.1z M207.7,193.2l0.4-0.1l-0.1-0.3l-0.3-0.1l-0.3,0.6H207.7z M207.7,148.3l0.1,0.4l0.2-0.5L207.7,148.3z
							 M208.1,160.3l-0.4,0.1l0.2,0.8l0.3,0.3l0.3-1.1L208.1,160.3z M208.2,167.9l0.3-0.4l-0.4-0.1l-0.3,0.1l-0.1,0.4L208.2,167.9z
							 M208.4,152.9l-0.4-0.1l-0.2,0.2l0.6,0.2l0.4-0.2v-0.1L208.4,152.9z M208.1,174.7v-0.3h-0.2v0.3H208.1z M208.4,195.3h-0.3v0.3
							h0.3V195.3z M208.4,159.3v0.4l0.3,0.1l0.4-0.4l-0.1-0.3L208.4,159.3z M209.1,165.5l-0.2-0.3l-0.4-0.2l0.2,0.8l0.3,0.1
							L209.1,165.5z M208.9,172.5l-0.3-0.2v0.4L208.9,172.5z M209.4,149.1l-0.4,0.2v0.4h0.6l0.1-0.4L209.4,149.1z M209.3,162.3
							l0.4,0.1l-0.1-0.4h-0.4L209.3,162.3z M209.9,184.4l0.4,0.2v-0.4l-0.1-0.3l-0.4,0.1l-0.1,0.2L209.9,184.4z M209.9,154l-0.2,0.4
							l0.4-0.1l0.2-0.2L209.9,154z M210.1,168.9v-0.3h-0.3v0.3H210.1z M210.1,175.8h0.3l0.1-0.4h-0.4V175.8z M210.1,190.5
							L210.1,190.5l0.3,0.2L210.1,190.5z M210.9,151.9l-0.4-0.1l-0.3,0.2l0.6,0.2V151.9z M210.3,160l-0.1,0.3l0.4-0.1l0.1-0.5h-0.4
							L210.3,160z M210.9,194.5l-0.2-0.4l-0.4-0.1v0.5l0.2,0.3l0.4,0.1V194.5z M210.5,179.5l0.5,0.1v-0.4L210.5,179.5z M210.6,173.7
							l0.4,0.2v-0.3L210.6,173.7z M211.1,156.5l-0.1-0.2l-0.3,0.1L211.1,156.5z M211.1,150.1l-0.2,0.3l-0.1,0.4l0.4-0.1l0.2-0.7
							L211.1,150.1z M211,163.5l0.4,0.1l0.2-0.3l-0.3-0.1l-0.5,0.1L211,163.5z M211.1,186.6l0.2-0.2h-0.4L211.1,186.6z M211.4,178.7
							l0.3-0.3l-0.4-0.1l-0.3,0.3L211.4,178.7z M211.4,148.7l0.1-0.4l-0.4,0.1L211.4,148.7z M211.4,161.3l0.4,0.1l-0.1-0.3l-0.4-0.1
							L211.4,161.3z M211.9,154.3l-0.1-0.4h-0.4l0.2,0.7l0.4,0.1V154.3z M211.8,146.5l0.2,0.4l0.3,0.1l0.1-0.4l-0.1-0.4l-0.4-0.1
							L211.8,146.5z M212.7,151h-0.3l-0.1,0.4h0.6L212.7,151z M213.1,155.3l-0.3-0.3l-0.2,0.3l0.1,0.4l0.4,0.1L213.1,155.3z
							 M213.6,154.2l0.4,0.2l0.1-0.6l-0.3-0.2L213.6,154.2z M214.4,164l-0.6-0.1l0.1,0.4l0.4,0.2L214.4,164z M214.4,152.5l0.3-0.3
							l-0.4-0.1l-0.3,0.3L214.4,152.5z M214.9,154.5h-0.2v0.2h0.2V154.5z M216.1,152.7l-0.4-0.1v0.4l0.4,0.1L216.1,152.7z
							 M216.5,149.3l0.3,0.2h0.8l0.1-0.4l-0.3-0.2l-0.5-0.1l-0.4,0.1V149.3z M216.9,153.6l0.3,0.4l0.5,0.1l-0.1-0.6l-0.6-0.3
							L216.9,153.6z M218.9,150.4l-0.8-0.3l-0.3,0.3l0.5,0.5l0.4,0.1L218.9,150.4z M218.6,152.4l0.1-0.5l-0.4-0.1l-0.2,0.4l0.1,0.4
							L218.6,152.4z M220.6,151.1h0.2l0.1-0.4h-0.4V151.1z M221.1,154.5l0.4-0.1l0.1-0.4l-0.3-0.2h-0.4l-0.1,0.4L221.1,154.5z
							 M222.5,149.9l-0.3,0.5h0.6L222.5,149.9z M222.4,149.1h0.2v-0.3h-0.2V149.1z M223,153.6l0.2,0.3l0.6,0.1l-0.1-0.4l-0.3-0.3
							l-0.4-0.1V153.6z M225.5,154.2l-0.4-0.2l-0.1,0.4l0.2,0.4l0.4-0.1L225.5,154.2z M225.6,153.3l-0.3,0.1l0.1,0.1h0.3
							L225.6,153.3z M226.8,151.1v-0.4h-0.4l-0.1,0.4l0.3,0.2L226.8,151.1z M230.6,155.5l-0.3-0.4v0.3L230.6,155.5z"/>
					</g>
				</g>
			</g>
		</g>
	</g>
	<g>
		<g>
			<g>
				<g>
					<path class="st1" d="M135.4,30.2c-1.1,0.8-2.6,1.9-4.5,3.4c-1.9,1.5-4.4,3.1-7.5,4.7c-3.1,1.6-6.9,3.2-11.3,4.7
						c-4.4,1.5-9.5,2.5-15.5,3.2c0,0.9,0,1.9,0.1,2.9c0.1,1,0.1,2.2,0.1,3.4c0,6.9-1.2,14.7-3.5,23.5c-2.3,8.8-5.9,17-10.6,24.6
						c-4.7,7.7-10.6,14.1-17.6,19.4c-7,5.2-15.3,7.9-24.9,7.9c-7.2,0-13.2-1.4-18-4.1c-4.8-2.7-8.6-6.2-11.5-10.4
						c-2.9-4.2-4.9-8.9-6.1-14C3.6,94.2,3,89.4,3,84.7c0-8.3,1.2-15.6,3.5-21.8c2.3-6.3,5.1-11.6,8.2-16.1c3.1-4.5,6.3-8,9.4-10.7
						c3.1-2.7,5.5-4.5,7-5.6c1.7-0.9,3.1-1.9,4-2.8c0.9-0.9,1.6-1.8,2.1-2.5c0.5-0.7,0.8-1.3,1.1-1.6c0.2-0.4,0.6-0.6,1.1-0.6
						c0.3,0,0.9,0.2,1.6,0.7c-0.3-0.8-0.6-1.7-0.7-2.7c-0.2-1-0.2-1.9-0.2-2.7c0-3.4,0.9-6.1,2.7-8.1c1.8-2,3.9-3.5,6.5-4.6
						c2.5-1.1,5-1.8,7.5-2.1C59.2,3.2,61.2,3,62.6,3c3.8,0,7.3,0.8,10.7,2.3c3.4,1.6,6.4,3.6,9.2,6.2c2.7,2.6,5.1,5.6,7,9
						c2,3.4,3.5,7.1,4.6,11c0.5-0.2,2.4-1.1,5.7-2.7c3.4-1.6,7.1-3.6,11.3-6c4.1-2.3,8.1-4.8,11.9-7.5c3.8-2.7,6.3-5.2,7.5-7.7
						c0.2-0.3,0.8-0.2,1.9,0.4c1.1,0.6,2.3,1.4,3.5,2.6c1.3,1.2,2.4,2.6,3.4,4.3c1,1.7,1.5,3.6,1.5,5.6c0,1.4-0.4,2.9-1.2,4.6
						C138.8,26.8,137.4,28.5,135.4,30.2z M39.6,121c6.7,0,12.5-2,17.2-6c4.8-4,8.7-8.9,11.9-14.8c3.1-5.9,5.4-12.2,6.9-19
						c1.5-6.8,2.2-13,2.2-18.7c0-3.6-0.1-6.8-0.4-9.6c-0.2-2.8-0.5-5.1-0.8-6.8c-1.6,0-3.6-0.3-6-0.8c-2.4-0.5-4.9-1.3-7.5-2.1
						c-2.6-0.9-5.1-1.9-7.5-3.2c-2.4-1.3-4.3-2.7-5.8-4.5c0.2,0.6,0.2,1.5,0.2,2.6c0,1.3-0.4,2.8-1.3,4.7c-0.9,1.9-3.2,3.9-7.2,6.1
						c-1.1,0.6-3,1.8-5.7,3.5c-2.7,1.7-5.6,4.2-8.4,7.5c-2.9,3.3-5.4,7.5-7.6,12.7c-2.2,5.2-3.3,11.5-3.3,19c0,3.3,0.4,6.7,1.3,10.1
						c0.9,3.4,2.2,6.6,4.1,9.5c1.9,2.9,4.3,5.2,7.2,7C32.1,120.1,35.5,121,39.6,121z M62.1,21.5c-0.8,0-1.7,0-2.7,0
						c-1,0-1.6,0.4-1.8,1.2c0,0.8,0.3,1.8,0.8,2.9c0.5,1.2,1.4,2.3,2.7,3.5c1.3,1.2,2.9,2.2,5,3.1c2.1,0.9,4.8,1.3,8.1,1.3
						c-0.9-3.4-2.4-6.3-4.5-8.6C67.8,22.7,65.3,21.5,62.1,21.5z"/>
					<path class="st1" d="M156.2,93.3c0.5,0.3,0.7,0.7,0.7,1.2c0,0.3-0.1,0.6-0.4,0.8c-0.2,0.2-0.4,0.5-0.4,0.8
						c-2.2,3.3-4.3,5.9-6.5,8c-2.1,2-4.6,3.9-7.4,5.6c-2.8,1.7-5.9,2.6-9.4,2.6c-2.2,0-3.9-0.5-5-1.4c-1.2-0.9-2-2-2.6-3.2
						c-0.5-1.2-0.9-2.4-1.1-3.6c-0.2-1.3-0.2-2.3-0.2-3.1c-2.7,3.3-5.6,6-8.8,8.2c-3.2,2.2-6.4,3.3-9.5,3.3c-2.5,0-4.6-0.5-6.3-1.6
						c-1.7-1.1-3.2-2.6-4.3-4.5c-1.2-1.9-2-4-2.6-6.3c-0.5-2.3-0.8-4.7-0.8-7c0-5.8,1.2-12,3.5-18.5c0.5-1.6,1.5-3.9,3.2-7.2
						c1.6-3.2,3.9-6.5,6.8-9.7c2.9-3.3,6.4-6.2,10.6-8.8c4.1-2.6,9-4,14.7-4.3c7,0,12.3,1,15.7,2.9c3.4,2,5.2,4.3,5.2,7.2
						c0,1.3-0.3,2.5-0.8,3.6c-0.6,1.2-1.2,2.2-1.9,3.2c-0.7,0.9-1.4,1.7-2.2,2.3c-0.8,0.6-1.3,0.9-1.6,0.9c-0.9-1.4-1.8-2.5-2.6-3.3
						c-0.8-0.8-1.9-1.5-3.3-2.1c-1.4-0.6-3.1-0.9-4.9-0.9c-4.5,0.2-8.6,1.8-12.2,4.8c-3.6,3-6.7,6.7-9.2,10.9
						c-2.5,4.2-4.4,8.6-5.6,13.1c-1.3,4.5-1.9,8.3-1.9,11.3c0,1.3,0.2,2.7,0.5,4.2c0.3,1.6,0.9,2.3,1.6,2.3c1.9,0,3.7-0.6,5.4-1.9
						c1.7-1.3,3.4-2.8,4.9-4.7c1.6-1.9,3-3.9,4.2-6.2c1.3-2.3,2.3-4.5,3.3-6.7c0.2-0.2,0.4-1.4,0.8-3.6c0.4-2.3,1.1-4.7,2.1-7.3
						c1-2.6,2.4-4.9,4.1-7c1.7-2.1,3.9-3.2,6.6-3.2c1.4,0,2.8,0.3,4.1,0.9c1.3,0.6,2.5,1.3,3.5,2.1c1,0.8,1.8,1.5,2.3,2.1
						c0.5,0.6,0.8,1,0.8,1.2c0,0.3-0.1,0.6-0.4,0.8c-0.2,0.2-0.6,0.6-1.1,1.2c-0.5,0.5-1.1,1.4-1.8,2.5c-0.7,1.1-1.5,2.6-2.5,4.5
						c-0.6,1.3-1.4,3.1-2.5,5.5c-1,2.4-2,4.9-3.1,7.4c-1,2.5-1.9,4.8-2.6,6.9c-0.7,2.1-1.1,3.6-1.1,4.6c0,0.6,0.3,0.9,0.9,0.9
						c0.8,0,1.8-0.2,2.9-0.6c1.2-0.4,2.3-0.8,3.4-1.3c3.1-1.7,5.6-3.2,7.3-4.5c1.7-1.3,3-2.3,3.9-3.1c0.9-0.8,1.5-1.4,1.9-1.8
						C155.3,93.5,155.8,93.3,156.2,93.3z"/>
					<path class="st1" d="M210.9,112.8c2.2,1.4,4.6,2.2,7.2,2.5c2.6,0.2,5-0.4,7.4-2c0,1.3-0.3,2.9-0.8,4.8c-0.6,2-1.4,3.9-2.6,5.7
						c-1.2,1.9-2.6,3.5-4.3,4.8c-1.7,1.3-3.8,2-6.3,2c-2.7,0-5.4-1-8.1-3.1c-2.7-2-5.5-4.5-8.2-7.5c-2.7-3-5.5-6.3-8.3-9.9
						c-2.8-3.6-5.6-6.9-8.4-9.9c-2.8-3-5.6-5.5-8.3-7.5c-2.7-2-5.4-3.1-8.1-3.1c-1.7,2.8-3,5.5-3.9,8.1c-0.9,2.6-1.6,4.9-2.2,7
						c-0.6,2.1-1.1,3.8-1.4,5c-0.3,1.3-0.7,1.9-1.2,1.9c-1.3,0-2.7-0.7-4.2-2.1c-1.6-1.4-2.3-3.8-2.3-7c0-1.9,0.2-4,0.7-6.5
						c0.5-2.4,1.1-5,1.9-7.9c0.8-2.8,1.7-5.7,2.7-8.6c1-2.9,2.1-5.7,3.2-8.3c0.9-2.8,2.2-6.6,3.8-11.3c1.6-4.7,3.2-9.6,5-14.7
						c1.8-5.1,3.6-10,5.3-14.7c1.7-4.7,3.2-8.4,4.5-11.3c0.3-0.8,0.5-1.9,0.5-3.3c0-1.1-0.1-2-0.4-2.7c-0.2-0.7-0.4-1.2-0.4-1.5
						c0-0.6,0.5-0.9,1.4-0.9c0.9,0,2.3,0.1,4.1,0.4c1.8,0.2,3.6,0.7,5.4,1.4c1.8,0.7,3.4,1.6,4.8,2.8c1.4,1.2,2.1,2.8,2.1,4.8
						c0,1.7-1.7,6.4-5,14.1c-3.4,7.7-8.5,18.9-15.4,33.6c2-2.8,4.1-5.6,6.3-8.2c2.2-2.7,4.3-5,6.5-7.2c2.1-2.1,4.1-3.8,6.1-5.2
						c2-1.3,3.8-2,5.5-2c1.4,0,3,0.3,4.8,0.8c1.8,0.6,3.5,1.3,5.2,2.3c1.6,1,3,2.3,4.1,3.8c1.1,1.5,1.6,3.2,1.6,5.3
						c0,1.3-0.7,3.2-2.2,5.8c-1.5,2.6-3.6,5.4-6.2,8.4c-2.7,3.1-5.8,6-9.5,8.9c-3.7,2.9-7.7,5.3-12.1,7.2c2,1.6,4.5,3.5,7.3,5.9
						c2.8,2.3,5.6,4.7,8.4,7.2c2.8,2.4,5.5,4.7,8.1,6.8C207.3,110.1,209.3,111.7,210.9,112.8z M164.2,86.3c0.5,0.2,1.3,0.2,2.3,0.2
						c3.3,0,6.2-0.9,8.8-2.8c2.6-1.9,4.9-4.1,6.9-6.8c2-2.7,3.7-5.4,4.9-8.3c1.3-2.9,2.1-5.4,2.6-7.6c0-0.8-0.1-1.6-0.2-2.3
						c-0.2-0.8-0.6-0.9-1.4-0.5c-3.1,3-5.8,5.7-8.1,8.1c-2.3,2.4-4.8,5.4-7.6,8.8C169.6,78.5,166.9,82.2,164.2,86.3z"/>
					<g>
						<path class="st1" d="M48.8,148.9l-0.2,0.8l0.3,0.4l0.1,1.1l0.1,0.4l-0.4,0.8l0.1,0.4h-0.6l0.2,0.4l-0.4,0.3l0.6,0.9l-0.5,0.3
							l-0.6,0.6l-0.8,0.4l-0.2-0.6l-0.3-0.3l-1.4,0.9l-0.6-0.1l-0.7-0.5l-1.1,0.2l-0.7,0.4l-0.4-0.1l-0.5-0.5l-0.4,0.6l-1.4,0.1
							l-2.6-0.4h-0.9l-0.9,0.4h-1.4l-1.6-0.6l-1.2,0.6l-0.9-0.4l-1.6,0.2l-3.6-0.1l-1.6,0.4l-0.3,0.3L22,157l-0.1,2.7l-0.2,1.6
							l-0.2,0.4l0.2,0.4l0.1,0.6l-0.1,0.9l0.4,0.5l0.7,0.4l-1.3,1.1l0.4-0.2h0.8l0.3,0.3l0.1,0.5l0.4-0.1l0.7-0.6l0.3,0.3l0.1,0.4
							l1.7-0.3l0.7-0.6l0.1-0.4h0.4l-0.6,1l0.3,0.1l0.3,0.4l0.9-0.6l0.4-0.1l0.2,0.6l0.5-0.1L30,166l0.5-0.8l0.4,0.1l0.5-0.1
							l0.1,0.4l0.6-0.1l0.1-0.5l0.5,0.2l0.4,0.5l0.1-0.7l3.1-0.1l0.8,0.1l0.6,0.4l0.4-0.2l2.5-0.2l0.4-0.2l0.4,0.4l0.1,0.4l0.2-0.1
							l0.1-0.4l0.4,0.3h0.4l0.4-0.3l1.1,1.3l0.4,0.3l-0.2,1.6l0.1,1.8l0.4,0.6l-0.2,0.4l0.2,1.4l-0.1,0.4v3.5l-0.4,0.7l-1.2,1.1
							l-0.8,0.3l-0.9-0.1l-0.4-0.3l-2.1,0.4l-1.9,0.1l-1.6-0.6l-0.3,0.3l-0.9,0.2l-1.9-0.1l-0.9,0.1L31,178l-1.8,0.4h-1l-0.8-0.2
							l-0.8,0.2l-3.6,0.1l-0.6,0.4l-0.5,0.7l-0.1,0.9l0.1,1.9l-0.1,0.9l-0.3,0.9l0.3,0.9l-0.3,0.8l0.3,1.1l-0.3,3.5l0.1,1.6l0.2,0.8
							l-0.3,0.7l0.3,0.9v0.9l-0.2,0.8l-0.4,0.8l-2.1,0.8l-0.6-0.1l-0.4-0.3l-0.4,0.2l-1.4-0.1l-0.6,0.4h-1.4l-0.6-0.2l-1.1,0.1
							l-0.4-0.2l-1.1,0.1l-0.4-0.4l-0.4,0.2l-0.9,0.1L9,197.2v-0.9l-0.4,0.3l-0.2,0.4l-0.5-0.1l-0.4-0.6v-1.4l-0.1-0.5l0.1-0.4
							l0.2-0.1l-0.1-0.4l-0.2-0.1l0.1-0.9l-0.1-0.9L7,190.7l0.4-0.5l-0.2-0.4v-1.3l0.2-1.4l-0.3-1.6l0.4-0.7l-0.1-1.2l-0.3-0.7
							l0.2-1.5v-1.6L7,177.9l0.2-0.4l0.1-1l0.2-0.4l-0.4-0.6l0.3-0.4L7.3,174l0.3-0.4l-0.3-0.3l-0.1-0.5l0.3-0.4L7.4,171l0.3-0.8
							l-0.4-0.7l0.1-1.4l-0.1-0.8l0.1-0.3l0.4-0.1l-0.5-0.6l0.3-0.9l-0.4-0.7l0.2-2.8l-0.2-0.7l0.5-1.6l-0.1-0.1l-0.4,0.2v-0.4
							l0.3-0.4L7,156.2l0.2-0.3l0.2-0.8l-0.2-1.3L7,153.5l0.1-0.4l0.1-0.9l0.2-0.7l-0.3-4.8l0.2-3.4l0.3-1.5l1.9-0.6h0.9l0.8,0.3
							l0.9-0.2l2.4-0.2l1,0.6l0.5-0.1l0.3-0.3l0.4,0.3l2.7-0.2h4.5l0.6-0.2l1.3,0.4l2.6-0.3l0.8,0.3l1.1-0.3l3.5,0.3l0.4-0.3
							l0.8,0.1l3.3-0.1L39,142l0.1-0.5l1.8-0.4l0.9,0.1l1.6,0.4l0.6,0.3l0.8-0.4l0.7,0.1l2,1.1l0.4,0.1v0.9l0.5-0.1l-0.1-0.9
							l0.4-0.2l-0.1,0.8l0.2,0.3l-0.1,0.9l0.1,0.9l-0.3,0.9l0.2,0.4l-0.2,1.4l0.4,0.9L48.8,148.9z M8.6,175.8H8.4v0.3h0.2V175.8z
							 M10,172H9.7v0.3H10V172z M10.3,164.2h-0.2v0.3h0.2V164.2z M10.9,179.3l-0.3-0.2l-0.1,0.4l0.4,0.1V179.3z M11,151.5l-0.4,0.1
							l0.3,0.4h0.5v-0.6H11z M10.7,153.3l-0.1,0.3v0.4l0.4-0.2l-0.1-0.9L10.7,153.3z M10.6,168v0.6l0.3-0.1l0.1-0.4L10.6,168z
							 M10.8,166.7l0.3,0.3l0.3-0.4l-0.5-0.3L10.8,166.7z M11.3,173.7l0.2-0.3v-0.9l-0.3-0.3l-0.3,0.6l-0.1,0.9L11.3,173.7z
							 M11.1,160.4l-0.1,0.3l0.2,0.1l0.1-0.2L11.1,160.4z M11.4,159l0.2-0.2l0.1-0.4l-0.4,0.1l-0.2,0.2L11.4,159z M11.6,170.9
							l-0.4,0.1l-0.1,0.3l0.4,0.2l0.4-0.1l0.1-0.3l-0.1-0.4L11.6,170.9z M12,156.5l-0.4-0.1l-0.2,0.3l0.3,0.1h0.5L12,156.5z
							 M11.9,163.8l0.3-0.3l0.1-0.4l-0.2-0.4l-0.4,0.6l-0.1,0.4H11.9z M11.8,169.3l0.4-0.1l-0.1-0.4l-0.4-0.1l-0.2,0.3L11.8,169.3z
							 M11.5,178l0.2,0.3l0.3-0.1l0.1-0.3l-0.1-0.5h-0.5V178z M12.5,180.5l-0.3-0.3l-0.1,0.5L12.5,180.5z M12.1,154.7l0.1,0.4
							l0.5,0.1l-0.1-0.8h-0.4L12.1,154.7z M12.2,161.4l0.1,0.3l0.5-0.1l-0.1-0.4l-0.4-0.1L12.2,161.4z M12.6,166l0.4,0.2l0.4-0.1
							l0.1-0.5l-0.3-0.2l-0.4-0.1l-0.4,0.1L12.6,166z M13,167.4l-0.2-0.3l-0.2,0.4l0.3,0.2L13,167.4z M12.6,152.8l0.1,0.4l0.5-0.1
							v-0.4l-0.4-0.3L12.6,152.8z M12.8,186.9h-0.2v0.3h0.2V186.9z M13,151.2h0.4l-0.4-0.3V151.2z M13.5,157.8l0.2-0.3l0.1-0.5
							l-0.6,0.4l-0.1,0.4H13.5z M13.8,172.2l0.1-0.4l-0.1-0.4l-0.4-0.1l-0.2,0.3l-0.1,0.4l0.1,0.4l0.3,0.2L13.8,172.2z M14,155.5
							l-0.2-0.4l-0.4-0.1l-0.1,0.6l0.5,0.2l0.4-0.1L14,155.5z M14,170l-0.3,0.2v0.4l0.4,0.1l0.2-0.2l0.1-0.4L14,170z M14.1,175.5
							l0.4,0.1l0.4-0.1l-0.1-0.5l-0.8-0.5l-0.4,1.1L14.1,175.5z M14.3,162.8l0.2-0.3l0.1-0.9l-0.4-0.1l-0.5,0.8l-0.1,0.6L14.3,162.8
							z M14.2,176.3h-0.4l0.1,0.4L14.2,176.3z M14.6,197l-0.1-0.3l-0.3,0.1l0.1,0.4L14.6,197z M14.4,145.3l0.2,0.1l-0.3-0.4
							L14.4,145.3z M14.5,160.3l-0.2,0.2l0.4,0.1l0.3-0.2L14.5,160.3z M14.5,168.4l-0.1,0.4l0.4-0.1l0.1-0.4H14.5z M15.2,171.8
							l-0.4,0.1l-0.4,0.6H15L15.2,171.8z M14.7,179.9h-0.2l0.1,0.4h0.1V179.9z M15.4,149.9l-0.1-0.4l-0.3-0.4l-0.4-0.1l-0.1,0.4
							l0.1,0.4l0.3,0.3l0.5,0.1V149.9z M15.2,151.5l0.1-0.4l-0.6,0.1l0.1,0.4L15.2,151.5z M15.5,164.8l-0.3-0.3l-0.4-0.1l-0.1,0.4
							l0.4,0.4l0.5,0.1L15.5,164.8z M14.8,166.6l0.1,0.5l0.4-0.6l-0.3-0.3L14.8,166.6z M15.7,156.9l0.1-0.5h-0.6v0.6L15.7,156.9z
							 M15.2,169.3l0.2,0.4l0.4,0.2l0.4-0.1l-0.4-0.8l-0.4-0.1L15.2,169.3z M15.7,171.5l0.1-0.5l-0.4-0.2l-0.1,0.4v0.6L15.7,171.5z
							 M15.5,182.1l-0.3-0.2v0.4L15.5,182.1z M15.9,154.3l-0.1-0.3l-0.4-0.1v0.5l0.2,0.2l0.4,0.1L15.9,154.3z M15.7,190.8h-0.3v0.3
							h0.3V190.8z M16.2,161.9l0.4-0.1l0.1-0.4l-0.2-0.4l-0.4,0.1l-0.3,0.6L16.2,161.9z M16.2,174.3l0.4,0.1l0.4-0.1l-0.1-0.4
							l-0.2-0.2l-0.4-0.1l-0.2,0.3L16.2,174.3z M16.5,175.9v-0.4l-0.4-0.1v0.7L16.5,175.9z M16.2,145.9l0.4-0.2l-0.3-0.4L16.2,145.9
							z M17.2,165.8l-0.1-0.4l-0.4-0.1l-0.1,0.4l0.1,0.4l0.3,0.2l0.4-0.1L17.2,165.8z M16.9,149.1l0.4,0.2v-0.8l-0.5,0.1L16.9,149.1
							z M16.8,163.6v0.6l0.5,0.2l0.4-0.1l-0.2-0.5l-0.6-0.6L16.8,163.6z M17.3,185.1l-0.2-0.4l-0.2,0.5l0.2,0.3L17.3,185.1z
							 M17,178.5l-0.1,0.3h0.2L17,178.5z M17.5,183l-0.4,0.1l-0.1,0.4l0.2,0.1l0.4-0.1l0.4-0.6H17.5z M17.4,176.9l0.4,0.1v-0.4h-0.4
							L17.4,176.9z M17.5,156h0.4l-0.4-0.3V156z M17.8,188.2l0.2-0.4l-0.1-0.1l-0.5,0.6L17.8,188.2z M18,170.8l0.1-0.4l-0.4-0.8
							l-0.2,0.9l0.1,0.4L18,170.8z M17.8,153.6l-0.2,0.2l0.6,0.2v-0.5L17.8,153.6z M18,147.5l0.1-0.2h-0.4L18,147.5z M18.1,160.3
							h-0.2l-0.1,0.5l0.6-0.8L18.1,160.3z M17.9,174.8l0.1,0.4h0.5l0.4-0.2l-0.1-0.4l-0.3-0.2l-0.4-0.1L17.9,174.8z M18,145.5
							l0.4,0.1l0.4-0.1l-0.3-0.4L18,145.5z M18.3,168.2L18,168l0.1,0.5l0.4,0.1L18.3,168.2z M18.4,173.5l0.4-0.1l-0.2-0.4l-0.4,0.2
							l-0.2,0.4L18.4,173.5z M18.7,185.9l0.2-0.2v-0.4l-0.6,0.2l-0.1,0.4L18.7,185.9z M18.9,158.3h-0.4v0.4h0.3L18.9,158.3z M19,150
							l-0.4,0.1l0.2,0.4h0.5l0.3-0.3l-0.2-0.4L19,150z M18.7,171.1l0.3,0.4h0.4l-0.1-0.5l-0.4-0.3L18.7,171.1z M19.3,179.9l-0.1-0.4
							l-0.4-0.2l-0.2,0.3v0.4l0.4,0.2L19.3,179.9z M19.4,165.3l0.1-0.4l-0.1-0.4l-0.4-0.2l-0.2,0.8l0.1,0.4l0.3,0.2L19.4,165.3z
							 M19.5,178.1l0.1-0.4l-0.4-0.1l-0.2-0.2l-0.1,0.4l0.1,0.6L19.5,178.1z M19.5,169.9H19v0.4h0.3L19.5,169.9z M19.1,147.8
							l0.2,0.4l0.4,0.1l-0.1-0.6l-0.4-0.1L19.1,147.8z M20.7,153.3l-0.2-0.4l-0.8-0.6l-0.4-0.1l0.4,0.8h0.4l0.5,0.7L20.7,153.3z
							 M19.4,154.3l-0.1,0.8l0.6,0.1l0.1-0.8l-0.1-0.3l-0.4-0.1L19.4,154.3z M19.5,175.5l-0.2,0.4h0.5L19.5,175.5z M19.9,168
							l0.5-0.1l-0.1-0.5l-0.6-0.6l-0.1,0.3l-0.1,0.8L19.9,168z M20.1,169.5l-0.1-0.3l-0.4-0.1l-0.1,0.3l0.2,0.4l0.4,0.1V169.5z
							 M20.3,146l-0.2,0.4l0.3,0.4l0.2-0.1l0.1-0.6L20.3,146z M20.6,172.6l0.8,0.1v-0.5l-0.4-0.6h-0.5l-0.4,0.5l0.1,0.4L20.6,172.6z
							 M21,164.5l-0.6,0.5l0.3,0.2l0.6-0.4l-0.1-0.4L21,164.5z M21.8,149.2l-0.1-0.4l-0.8,0.1l-0.1,0.3l0.6,0.5h0.5V149.2z
							 M21.1,176.8l0.2-0.2l-0.6-0.1v0.4L21.1,176.8z M21.8,147.4l-0.4-0.8l-0.3-0.2v1l0.2,0.3l0.4,0.1V147.4z M21.7,173.8l-0.2,0.4
							v0.5l0.2,0.4l0.4-1.2L21.7,173.8z M21.7,168.5h0.4l0.1-0.4l-0.4-0.1L21.7,168.5z M22.5,151.8h-0.4l0.1,0.3l0.3,0.1V151.8z
							 M22.5,143.9l0.3-0.1l-0.4-0.1L22.5,143.9z M22.7,171l-0.2,0.4l0.3,0.3l0.5,0.1l0.1-0.4l-0.1-0.4l-0.2-0.2L22.7,171z
							 M23.6,148.5l0.4-0.1l-0.1-0.5l-0.4-0.1l-0.4,0.2l-0.1,0.4L23.6,148.5z M23.5,169.3l-0.4-0.1l0.1,0.4l0.4,0.1L23.5,169.3z
							 M24.1,153.3l0.1-0.4l-0.4,0.1l-0.1,0.3L24.1,153.3z M23.7,176.2v0.3H24v-0.3H23.7z M24.8,151.1l-0.1-0.4l-0.6-0.6l-0.3,0.3
							v0.4l0.2,0.4l0.8,0.4L24.8,151.1z M23.8,168l0.4,0.2v-0.3L23.8,168z M25.5,165.8l-0.3,0.3l-0.3-0.3l-0.6-0.1l-0.1-0.6l0.5-0.1
							l0.2,0.3l0.9,0.1L25.5,165.8z M24.7,170l-0.3,0.4v0.4l0.4,0.3l0.6-0.6l-0.1-0.5L24.7,170z M24.9,172.8l0.4,0.2v-0.5
							L24.9,172.8z M25.2,147.2l-0.1,0.3l0.1,0.3h0.4l0.4-0.3l-0.3-0.4L25.2,147.2z M25.2,174.8l0.2,0.4h0.4v-0.4l-0.2-0.2
							L25.2,174.8z M25.9,152.5l0.4-0.2l0.1-0.4l-0.4-0.1l-0.4,0.2l-0.1,0.4L25.9,152.5z M25.7,145h0.2v-0.3h-0.2V145z M26.7,150.1
							l-0.2-0.4l-0.3,0.2L26.7,150.1z M26.5,171.7l0.3,0.2l0.5-0.1l-0.1-0.4l-0.2-0.2l-0.4-0.1L26.5,171.7z M27.1,146.7l0.4,0.4h0.4
							l0.3-0.4l-0.4-0.2l-0.9-0.2L27.1,146.7z M27.6,173.8l-0.4,0.1l-0.2,0.3h0.8L27.6,173.8z M28.7,149.6l0.3-0.1l-0.4-0.1
							L28.7,149.6z M28.8,170.7v0.4l0.4-0.1l0.1-0.4l-0.4-0.2L28.8,170.7z M29.2,168.7l0.3-0.1l-0.1-0.2l-0.1,0.1V168.7z
							 M29.3,153.6l0.4,0.1l-0.3-0.4L29.3,153.6z M30,145.2l-0.4,0.2l-0.1,0.5l0.4,0.1l0.5-0.2v-0.5L30,145.2z M30.9,150.3v-0.6
							l-0.5,0.1l-0.6,0.5l0.4,0.3l0.6,0.1L30.9,150.3z M31.2,148.1l-0.1-0.4l-0.4-0.3l-0.2,0.4l0.1,0.4l0.4,0.3L31.2,148.1z
							 M31.7,146.7h-0.2v0.3h0.2V146.7z M31.9,144.8l-0.3-0.3l-0.1,0.7l0.4,0.1L31.9,144.8z M31.7,172.5l0.1,0.4l0.4-0.1l0.2-0.3
							l-0.4-0.3L31.7,172.5z M32.6,149.7l0.8-0.1l-0.1-0.8l-0.9,0.1l-0.2,0.2v0.4L32.6,149.7z M32.6,144.8l0.3,0.1l-0.3-0.4V144.8z
							 M33.3,154.3l0.1-0.4l-0.4,0.1l-0.2,0.4L33.3,154.3z M34,151.9l-0.1-0.4l-0.4-0.3l-0.6-0.1v0.4l0.4,0.6l0.4,0.1L34,151.9z
							 M34.6,148.8l0.4-0.1l0.2-0.4l0.1-0.5l-0.4-0.1l-0.1,0.4l-0.5,0.6L34.6,148.8z M34.7,145.8v0.4l0.3,0.3l0.4,0.1l0.1-0.4
							l-0.1-0.4l-0.2-0.3l-0.4-0.1L34.7,145.8z M35.7,153l-0.1-0.3h-0.4l-0.1,0.4l0.1,0.4l0.6-0.1L35.7,153z M35.8,151l0.4-0.6
							l-0.4-0.1l-0.4,0.2l-0.1,0.4l0.1,0.4L35.8,151z M35.8,173.3H36l0.2-0.4H36L35.8,173.3z M36.2,151.6l-0.3-0.2v0.4L36.2,151.6z
							 M37,147.7l0.9-0.1l-0.1-0.4l-0.3-0.2H37l-0.3,0.2l-0.1,0.4L37,147.7z M36.7,145.3l0.4,0.2V145l-0.4-0.4V145.3z M39.2,146.9
							l0.4-0.1l0.2-0.4l-0.4-0.1l-0.5,0.1l-0.1,0.4L39.2,146.9z M39.6,144l-0.4-0.1v0.4l0.2,0.4l0.3,0.1l0.3-0.3V144L39.6,144z
							 M39.7,151.5l0.4,0.2l0.4-0.1l0.1-0.6l-0.4-0.1l-0.3,0.1L39.7,151.5z M40.7,149.4l-0.1-0.8l-0.3-0.3l-0.4-0.1l0.2,1.2l0.3,0.2
							L40.7,149.4z M41.9,145.8l0.2-0.4l-0.9,0.1l0.3,0.4L41.9,145.8z M42.9,148.5l-0.4-0.1v0.4h0.3L42.9,148.5z M47.5,142l-0.9-0.1
							v-0.6l0.4,0.1l0.6,0.4L47.5,142z M47.8,154.2h-0.4v0.4h0.3L47.8,154.2z M48,147.6h-0.2v0.2H48V147.6z"/>
						<path class="st1" d="M106.7,147.5l0.4,0.7l0.1,0.9l-0.3,2l0.5,1.1l-0.7,2.4l-0.7,0.9l-1.5,0.3l-0.8-0.3l-0.3,0.2l-0.9,0.2
							l-2.4-0.1l-1.1,0.2l-1.2-0.1H96l-0.9-0.2l-0.4,0.1l-0.2,0.2l-0.6-0.4l-1.9,0.1l-0.5-0.6l-0.1,0.5l-3.4,0.1l-2.9,0.2l-0.4-0.1
							l-0.8-0.6l-2.1,0.4l-0.4,0.2l-0.1-0.8l-0.9,0.8l-0.9,0.4l-0.6,0.8l-0.4,0.3v1.2l-0.3,0.6l0.2,0.4l-0.1,0.9l0.2,0.4l-0.3,0.3
							l-0.1,0.5l1,1.8l0.4,0.5l0.8,0.2l0.8-0.5h1.7l0.3-0.1l0.4,0.1l1.8-0.1l0.5,0.4l0.5-0.3l1.1-0.1l0.4-0.2l0.9,0.5l0.4-0.2
							l0.1,0.4l0.4-0.1l0.1-0.3l1.6-0.1l1.6,0.4l0.4-0.1l0.2-0.3l2.6,0.2l0.6,0.2l1.3-0.4l2.9,0.4l0.8,0.9l-0.1,0.5l0.1,2.7
							l-0.1,0.7l-0.4,0.7l0.1,0.4l0.5,0.6v0.5l-0.4,0.1l-0.4-0.2l-0.4,0.1l0.4,0.6v0.5l0.3-0.1l0.1,0.2l0.2,2.3l-0.6,0.4l0.2,0.4
							l-0.1,0.9l-0.6,0.6l-0.4,0.1l-0.4-0.1l0.3-0.3l-0.1-0.4l-0.6,0.9l-0.4-0.1l-0.6-0.4v0.5l-1.9,0.1l-1.7-0.3l-0.8,0.3l-1.7-0.1
							l0.3-0.8l-0.4,0.1l-0.5,0.9l-1-0.3l-0.4,0.1l-0.5-0.1l-0.2-0.4l-0.3,0.4l-1.8,0.1l-0.3-0.8l-0.4-0.1l-0.1,0.4l0.1,0.4
							l-3.6,0.1l-1.6-0.1l-0.9-0.3l-0.9,0.4l-1.5,1.6v3.3l0.3,0.9l0.6,0.9l1.6,0.1l0.7,0.2l0.8-0.2h2.4l0.4-0.1l0.4,0.1l0.6,0.5
							l0.3-0.2l0.1-0.4h0.4l0.4,0.3l0.8-0.3h1.9l1.1,0.4l0.4-0.1l0.1-0.3l0.4-0.1l-0.1,0.4l0.2,0.2l0.8,0.3l0.1-0.4l-0.1-0.4
							l0.4-0.2l0.4,0.1l0.8,0.5l0.3,0.4l0.4-0.2l0.2-0.4l0.9,0.2l1.6-0.4l0.9-0.1v0.5l0.4,0.4l0.3-0.7l1.2,0.4l0.7-0.5l1-0.3
							l0.9,0.4h0.4l0.4-0.2l1.9,0.5l0.5,1.3l0.3,0.3l-0.2,0.7l0.1,1.3l0.1,0.3l0.4,0.2l-0.2,0.8l-0.3,2.7l-0.1,0.4l0.5,0.8l-0.1,0.4
							l-0.4,0.6l0.5,0.1l-0.3,1.3l-0.2,0.1v0.4l0.2,0.4l-0.1,0.4l-1.4,0.9l-0.2,0.3l-0.4-0.1l-1.4,0.3l-1.8-0.3l-0.9,0.2l-0.7-0.3
							l-0.4,0.1l-1.4-0.1l-0.4,0.1l-0.2,0.4l-1.9-0.8l-0.3,0.2l-0.1,0.4l-1-0.1l-0.7-0.4l-0.5,0.2h-0.4l-1.3-0.4l-0.4,0.1l-0.1-0.4
							l-0.3-0.1l-0.1,0.4l0.1,0.4l-0.8,0.1l-2.6-0.2l-0.9,0.1l-0.9,0.4l-0.4-0.1l-0.6-0.4l-0.2,0.3l-0.7,0.3l-0.9-0.2l-1.3-0.1
							l-0.4-0.1l-0.4,0.2l-1.9,0.1l-0.3,0.2l-1.1-0.4l-0.5,0.2l-1.8-0.1l-0.4,0.2l-0.6-0.6l-0.6,0.6l-1.7-0.2l-1.1,0.2l-1.2-0.2
							l-0.7,0.1l-0.4,0.2l-0.9-0.1l-0.6-0.4l-1.3,0.2l-0.7-0.3l-0.6-0.6l-0.4-0.6l0.2-0.4l0.4-0.2l-0.1-0.4l-0.3-0.1l-0.2-0.3
							l0.5-0.1l-0.1-0.9l-0.5-1.6L64,191l0.2-0.4l-0.4-0.9l0.2-0.7l-0.2-2.5l0.4-1.8v-0.9l-0.2-0.4l0.3-0.5l-0.4-0.9l0.3-0.4
							l-0.3-0.4l-0.2-0.8l0.3-0.9v-0.4l1-0.2l-0.9-0.3L64,178l0.1-0.4l0.2-0.2l-0.5-0.7l0.1-0.4l0.6-0.4l-0.8-0.4V175l0.5-1
							l-0.4-0.7l-0.1-0.8l0.1-1.6l-0.2-0.6V166l0.2-0.6l-0.4-2.6L64,162v-1.3l0.4-0.4l-0.4-1.6l0.1-0.4l0.4-0.1l0.4,0.3l-0.2-0.8
							l-0.5-0.6l-0.1-0.9l-0.3-0.8l0.3-0.8l-0.1-1.1l0.2-0.3l-0.2-0.7l-0.1-0.9l0.3-0.6l-0.3-1.2l0.2-2.5l-0.1-0.4l0.1-0.7v-1.9
							l0.4-1.8l0.4-0.7l0.4-0.2l6.4-0.2l0.8,0.5l0.2-0.3l0.4-0.1l0.9,0.2l0.2,0.2l2.3-0.5l0.6,0.2l-0.1,0.3h0.5l0.1-0.4l0.4-0.1
							l1.1,0.1l0.8,0.5l0.1-0.6h5.4l1.1,0.3l0.5-0.4l0.8,0.2l1.6-0.1l0.8,0.1l0.4,0.2l1.6-0.4l3.6,0.1l2.5-0.2l0.8,0.2l1.5-0.3
							l0.9,0.1l1.3,0.4l0.5-0.2h1.7l2,0.9l0.4,1.6l0.1,2.6l-0.4,0.6L106.7,147.5z M64.9,181.1l-0.1-0.5l-0.1,0.3L64.9,181.1z
							 M64.9,193.3h0.3V193h-0.3V193.3z M65.7,183.3l-0.1-0.5l-0.2-0.2l-0.4-0.1l0.4,0.6L65.7,183.3z M65.8,154.3l0.3,0.1l-0.3-0.4
							V154.3z M66.7,187.7l-0.1-0.4l-0.4-0.1l-0.1,0.4l0.3,0.3L66.7,187.7z M66.5,156.8l0.1,0.6l0.4-0.2l0.1-0.4l-0.4-0.1
							L66.5,156.8z M66.6,159.6l0.6-0.1l-0.6-0.4V159.6z M66.7,149.5h0.4V149h-0.4V149.5z M66.7,164.5l0.5-0.1l0.2-0.4l0.1-0.5
							l-0.4-0.1l-0.4,0.7L66.7,164.5z M66.7,192.2l0.6,0.3l0.1-0.7l-0.2-0.2l-0.3,0.3L66.7,192.2z M67,177.8l0.4-0.1l0.1-0.4
							l-0.1-0.7l-0.5,0.1l-0.1,0.3l0.1,0.4L67,177.8z M67.2,155.8l0.4-0.1l0.1-0.2l-0.4-0.3L67.2,155.8z M67.3,162.7l0.4-0.1v-0.3
							l-0.4-0.1V162.7z M67.3,169.5l0.6,0.1l0.3-0.8l-0.4-0.1l-0.4,0.4L67.3,169.5z M67.3,184.2h0.4v-0.4h-0.2L67.3,184.2z
							 M67.9,182.2l0.2-0.7l-0.2-0.3l-0.4-0.1l-0.1,0.4l0.1,0.5L67.9,182.2z M67.4,173.9h0.2v-0.3h-0.2V173.9z M68.1,153.8l-0.4,0.1
							l0.2,0.2L68.1,153.8z M68.3,152.5l-0.1-0.3l-0.3,0.1L68.3,152.5z M68.2,174.1l0.5-0.1l-0.1-0.4l-0.2-0.2l-0.4,0.4L68.2,174.1z
							 M68.4,187.3h0.7l-0.4-1l0.1-0.4l-0.4-0.1l-0.3,0.3l0.1,0.9L68.4,187.3z M68.2,178.8l0.6,0.2l0.4-0.2v-0.6l-0.5,0.1l-0.3,0.2
							L68.2,178.8z M68.3,158.3l0.1,0.4l0.8,0.3l-0.1-0.5l-0.4-0.3L68.3,158.3z M68.9,165.4v-0.2h-0.4L68.9,165.4z M68.7,156.6
							l0.6-0.4l0.1-0.4l-0.2-0.3l-0.6-0.1l-0.1,0.7L68.7,156.6z M68.6,176.4l0.6,0.2l-0.1-0.4l-0.3-0.2L68.6,176.4z M68.9,148.5h0.4
							v-0.4L69,148L68.9,148.5z M69,143.7l0.4,0.1l-0.2-0.4L69,143.7z M69,183.3l0.6,0.4l0.5,0.1l0.2-0.4v-0.4l-0.3-0.3l-0.7-0.1
							l-0.2,0.3L69,183.3z M69.7,191.7l-0.1-0.9l-0.5-0.1v0.7l0.2,0.3L69.7,191.7z M69.2,163.5h0.6l-0.2-0.5l-0.4-0.2V163.5z
							 M69.8,146.8v-1.1h-0.4l-0.1,0.4l0.1,0.4L69.8,146.8z M69.4,161.5l0.4,0.3h0.4l0.2-0.3l-0.4-0.4v-0.4h-0.4l-0.1,0.4
							L69.4,161.5z M69.4,168.6l0.1-0.1l0.7-0.3v-0.4h-0.5l-0.2,0.3L69.4,168.6z M69.7,190l0.5-0.1l-0.1-0.4l-0.4-0.1l-0.1,0.3
							L69.7,190z M69.7,152.9l0.2,0.8l0.3,0.2l0.4,0.1l0.1-1.1l-0.4-0.2H70L69.7,152.9z M69.7,155.4H70l-0.2-0.5L69.7,155.4z
							 M70.7,165.3l-0.4-0.3l-0.3,0.1l-0.2,0.4v0.4l0.2,0.4l0.4,0.1l0.2-0.8L70.7,165.3z M69.9,173.3l0.4,0.1l0.1-0.6l-0.4,0.1
							L69.9,173.3z M70.2,188.1l0.9,0.1l-0.4-0.6l-0.4-0.1l-0.1,0.3L70.2,188.1z M70.4,151.2l-0.2-0.2L70.4,151.2z M70.6,179.8v-0.3
							h-0.4L70.6,179.8z M70.3,157.9l0.4,0.3l0.8-1.1l-0.4-0.1l-0.4,0.1l-0.3,0.4L70.3,157.9z M70.7,171l0.1-0.5l-0.4-0.1l-0.1,0.4
							L70.7,171z M70.6,186.8l0.4-0.1l-0.1-0.8l0.1-0.5l-0.5-0.3l-0.1,0.4l0.3,0.7V186.8z M70.6,143.4l0.4-0.1v-0.4h-0.4V143.4z
							 M71.7,178.2l-0.2-0.4l-0.7-0.4l0.1,0.4l0.4,0.3L71.7,178.2z M70.9,171.6h0.2v-0.3h-0.2V171.6z M70.9,190.6l0.7,0.4l0.2-0.3
							v-0.9l-0.1-0.4l-0.4,0.1l-0.4,0.6V190.6z M71.7,150l-0.2-0.4l-0.4-0.2l-0.1,0.4l0.3,0.3H71.7z M71.1,184.7l0.4,0.1l0.2-0.4
							v-0.5l-0.4,0.1l-0.2,0.4L71.1,184.7z M71.8,147.6l-0.1-0.3l-0.4-0.1l-0.1,0.4l0.1,0.2L71.8,147.6z M71.2,167.1l0.3,0.3
							l0.5-0.1l0.1-0.4l-0.7-0.1L71.2,167.1z M71.4,162l0.1,0.5l0.3,0.1l0.3-0.2l-0.2-0.5L71.4,162z M72,160.2l0.3-0.6l-0.5-0.2
							l-0.3,0.2v0.4L72,160.2z M72.6,152.9l0.6-0.7l-0.6-0.4h-0.5l-0.3,0.2v0.6l0.4,0.2H72.6z M72.6,166l0.2-0.6v-0.9l-0.5-0.2
							l-0.3,0.1l-0.1,0.2v0.4l0.4,0.8L72.6,166z M72,174.8l0.4-0.1l0.1-0.5H72l-0.1,0.4L72,174.8z M72.8,187l-0.4-0.2l-0.6-0.1
							l0.1,0.5h0.4L72.8,187z M72,146.2h0.4v-0.4H72V146.2z M72.3,171.9l0.1,0.8l0.4-0.1l0.1-0.4l-0.1-0.4h-0.4L72.3,171.9z
							 M73.4,157.5l0.2-0.3l-0.1-0.4l-0.4-0.3h-0.6l0.6,0.6L73.4,157.5z M72.4,169.3l0.1,0.5l0.3,0.3v0.5l0.4-0.2l0.2-0.4v-0.5
							l-0.1-0.4h-0.5L72.4,169.3z M72.4,185l0.4-0.1l0.2-0.2l0.1-0.4l-0.4,0.1l-0.2,0.2V185z M72.9,150.1l0.1-0.4l-0.5-0.1v0.4
							L72.9,150.1z M72.7,142.2l0.6-0.1l-0.4-0.4L72.7,142.2z M73.2,149.2l0.2-0.4l-0.5-0.1L73.2,149.2z M72.9,189.2l0.5,0.8
							l0.4,0.1l0.1-0.3V189l-0.4-0.2h-0.4L72.9,189.2z M73.1,154.9l0.4-0.1v-0.3l-0.4-0.1V154.9z M73.4,162l0.6-0.6l0.1-0.4
							l-0.4-0.3l-0.5,0.6L73.4,162z M73.7,177.2L74,177v-0.5l-0.3-0.1h-0.5l0.1,0.5L73.7,177.2z M73.4,147.3l0.4-0.2l0.1-0.5
							l-0.4-0.2l-0.1,0.4V147.3z M73.7,168.6V168l-0.4,0.1v0.3L73.7,168.6z M73.4,181.9l0.8-0.3l0.1-0.4l-0.4-0.1l-0.4,0.1l-0.2,0.3
							L73.4,181.9z M74.2,166.1l-0.1,0.2l-0.2-0.2h-0.4l0.1,0.4l0.4,0.1l0.4-0.1L74.2,166.1z M73.9,174.4l-0.4-0.1l0.2,0.3
							L73.9,174.4z M73.4,175.5h0.4l-0.1-0.3l-0.3-0.1V175.5z M73.6,193.5l0.1,0.4l0.3,0.3l0.4,0.1l0.3-0.6l-0.2-0.3l-0.4-0.1
							L73.6,193.5z M74.4,160l-0.1-1.1l-0.3-0.3l-0.3,0.3v0.4l0.2,0.4L74.4,160z M74.2,164.4l0.5-0.1l0.4-0.8l-0.4-0.3l-0.4,0.1
							L74,164L74.2,164.4z M74.5,173.6v-0.4l-0.4-0.1v0.4L74.5,173.6z M74.5,186.8l0.1-0.4l0.6-0.4l-0.9-0.1l-0.1,0.4L74.5,186.8z
							 M75.2,171.3l-0.1-0.9l-0.5,0.1l-0.2,0.2l0.3,0.6H75.2z M74.7,149.2l0.1-0.3l-0.3-0.2l-0.1,0.3L74.7,149.2z M75.1,152l0.1-0.4
							l-0.2-0.4l-0.4-0.2l-0.2,0.3v0.4l0.2,0.3L75.1,152z M74.8,169.1l0.4-0.1l0.2-0.2l0.1-0.4l-0.6-0.3l-0.1,0.7V169.1z
							 M75.2,192.8v-0.4l-0.4,0.1L75.2,192.8z M75.6,150.3l-0.2-0.4l-0.4-0.1l0.1,0.5H75.6z M75.1,156.6l0.6-0.3v-0.5l-0.2-0.2
							l-0.4-0.1l-0.1,0.6L75.1,156.6z M75.1,176.4l0.4-0.3l0.1-0.5l-0.4,0.1l-0.2,0.3L75.1,176.4z M75.1,173.8h0.4l-0.1-0.6
							l-0.1,0.3L75.1,173.8z M75.3,191l0.5-0.1l0.2-0.4l-0.4-0.1l-0.4,0.2L75.3,191z M75.3,188.9l0.6,0.3l0.2-0.4v-0.5l-0.4-0.3
							l-0.3,0.4L75.3,188.9z M75.4,174.5l0.4-0.1L76,174h-0.4L75.4,174.5z M75.6,165.5h0.5l0.3-0.1l-0.1-0.5l-0.6,0.3L75.6,165.5z
							 M75.7,146.3H76l0.1-0.3l-0.4-0.1V146.3z M76.2,150.7l0.3-0.2l0.1-0.5h-0.9l0.1,0.5L76.2,150.7z M76,158.5h0.2l0.1-0.2
							l-0.4-0.1V158.5z M76.4,172.4l0.1-0.5H76l0.1,0.4L76.4,172.4z M76,192.8l0.1,0.5l0.2,0.3l0.3-0.1l0.2-0.3l0.1-0.6h-0.5
							L76,192.8z M76.8,163.3l0.1-0.4l-0.1-0.4l-0.4-0.2h-0.3l0.2,0.9L76.8,163.3z M76.4,144.8l-0.1-0.5l-0.1,0.3L76.4,144.8z
							 M76.2,170.3l0.5,0.1l0.4-0.2l-0.1-0.4l-0.6-0.1L76.2,170.3z M76.8,167.9h0.6v-0.6l-0.4-0.1l-0.4,0.1l-0.1,0.3L76.8,167.9z
							 M76.8,155.4l0.6,0.1l0.1-0.1v-0.5l-0.6-0.1l-0.1,0.4L76.8,155.4z M77,174.9l0.1,0.5l0.4,0.2l0.2-0.7l-0.4-0.1L77,174.9z
							 M77.2,147.8l0.5-0.1l0.1-0.4l-0.4-0.1l-0.2,0.2L77.2,147.8z M77.6,190.2v-0.5l-0.4,0.3L77.6,190.2z M77.4,172l0.4,0.6v0.5
							l0.4-0.2l0.1-0.4l-0.1-0.4l-0.3-0.2L77.4,172z M77.4,187.5l0.1,0.4h0.5l-0.2-0.4L77.4,187.5z M77.6,154h0.4l-0.4-0.3V154z
							 M78.2,166.3l-0.5-0.1l0.2,0.4L78.2,166.3z M77.9,145.4l0.4-0.1l0.1-0.4l-0.4,0.1L77.9,145.4z M77.9,192.3l1.1,0.3l0.1-0.9
							l-0.3-0.2l-0.7,0.4L77.9,192.3z M78.1,151.7l0.3,0.4l0.2-0.4H78.1z M78.4,171.1h0.4l-0.1-0.3l-0.3-0.1V171.1z M79.7,167.5V167
							h-0.5l0.1,0.4L79.7,167.5z M79.7,146.7v-0.2h-0.4L79.7,146.7z M79.7,171.3l0.6,0.5l0.2,0.4l0.1-0.4v-0.6l-0.7-0.2L79.7,171.3z
							 M79.9,153l-0.1-0.6l-0.1,0.4L79.9,153z M80.4,193.4l0.2,0.3H81l0.1-0.4L80.4,193.4z M81,153.2l0.2,0.4l0.4-0.1l0.2-0.3
							l-0.4-0.3L81,153.2z M81.4,196.2v-0.5l-0.2-0.2v0.5L81.4,196.2z M82,166l-0.1-0.3h-0.4l0.2,0.5L82,166z M81.8,170.7l0.5,0.6
							l0.4-0.1l0.3-0.7l-0.6-0.4l-0.4,0.1L81.8,170.7z M82.6,148l0.4-0.1l0.1-0.2h-0.4L82.6,148z M83.1,167.7l0.6-0.4l-0.1-0.4
							l-0.5,0.4L83.1,167.7z M83.7,172.3l0.6,0.3l0.1-0.5l-0.3-0.1L83.7,172.3z M84.2,169.6l0.5,0.9l0.4-0.3l0.2-0.4l-0.8-0.2
							L84.2,169.6z M84.2,192.2l0.3-0.1l-0.3-0.2V192.2z M85.2,168.8v-0.5l-0.4,0.3L85.2,168.8z M84.9,166.6l0.3-0.2l-0.3-0.2V166.6
							z M85.6,189.7l-0.1-0.3h-0.5l0.1,0.4l0.3,0.1L85.6,189.7z M85.7,151.6h0.6l-0.1-0.4l-0.3-0.2L85.7,151.6z M85.9,171.1l0.1,0.4
							l0.4,0.2l0.3-0.3v-0.3l-0.3-0.1L85.9,171.1z M86,169.1l0.5,0.3h0.4l-0.1-0.3v-0.5l-0.4-0.1l-0.2,0.3L86,169.1z M86.7,191.4
							h0.5V191l-0.4-0.1L86.7,191.4z M87.9,174.4L88,174l-0.6-0.6l0.1,0.9L87.9,174.4z M87.4,195.6l0.3,0.1l-0.3-0.4V195.6z
							 M88.2,170.5l0.4,0.1l0.3-0.2L89,170l-0.3-0.1l-0.4,0.1L88.2,170.5z M89,168.6l0.1-0.4l-0.3-0.3v0.5L89,168.6z M89.3,172.5
							l0.5,0.1v-0.4l-0.4,0.1L89.3,172.5z M90.7,169.3H91l-0.1-0.4L90.7,169.3z M91.4,167.4L91,167l0.1,0.5L91.4,167.4z M91.2,174
							l0.4,0.1l0.2-0.4h-0.4L91.2,174z M91.8,189.3l0.1-0.4l-0.4-0.3l-0.1,0.5L91.8,189.3z M92.2,172.3l0.2-0.4l-0.1-0.4l-0.4-0.2
							l-0.3,0.4l0.2,0.4L92.2,172.3z M92.1,191.4v0.4l0.5,0.1l0.3-0.4l-0.4-0.3L92.1,191.4z M93.2,149.5l-0.1-0.4l-0.6-0.3l0.1,0.4
							l0.4,0.1L93.2,149.5z M92.9,168.6l0.4-0.1l0.1-0.2l-0.4-0.1L92.9,168.6z M93.5,196.4l-0.2-0.2h-0.4l0.2,0.4L93.5,196.4z
							 M93.9,165.8l0.3-0.2l-0.3-0.2V165.8z M94.9,195.6h0.4l0.2-0.3l-0.6-0.1V195.6z M95.2,145h0.3v-0.2h-0.3V145z M95.2,172.2
							l0.3,0.1l-0.3-0.4V172.2z M95.7,187.3H96l-0.4-0.3V187.3z M96.4,170.3l0.1-0.6h-0.4v0.4L96.4,170.3z M96.9,190.2l0.1-0.4
							l-0.4-0.2l0.1,0.4L96.9,190.2z M96.6,194.3l0.1,0.4h0.5v-0.5h-0.4L96.6,194.3z M98,184.4l0.2-0.1l0.1-0.4l-0.4,0.1L98,184.4z
							 M98.3,171.5l0.2-0.4h-0.4L98.3,171.5z M98.4,169.8h0.3v-0.2h-0.3V169.8z M98.9,193.5l0.3,0.1l0.3-0.1l0.1-0.4h-0.5
							L98.9,193.5z M99.4,185.3l-0.1-0.3l-0.3-0.1L99.4,185.3z M100.5,194.8h0.3v-0.3h-0.3V194.8z M101.7,190.9h0.4l-0.4-0.3V190.9z
							 M101.9,189.2l0.3-0.2l-0.3-0.2V189.2z M102.1,184.2h0.3l0.1-0.3l-0.4-0.1V184.2z M102.7,195.8l-0.1-0.4l-0.3-0.1v0.4
							L102.7,195.8z M103.4,191.8l0.4-0.6l-0.4-0.1l-0.2,0.3L103.4,191.8z M104.2,190.1h0.2l-0.1-0.3l-0.2,0.1L104.2,190.1z
							 M106.2,189.3h0.3V189h-0.3V189.3z"/>
						<path class="st1" d="M152.7,141.5l0.3,0.5l0.6-0.1l1,0.7l0.8,0.2l0.4-0.1l1.3,1l1.2,0.4l0.6,0.6l2.1,1.5l1.1,1.3l0.4,0.3
							l0.5,0.8l-0.1,0.5l-0.2,0.3l1.3,0.9l0.6,0.6l0.1,0.9l0.6,0.8l-0.3,0.8l0.8,0.9l0.3,1.9l-0.1,0.9l-0.1,0.3l-0.4,0.3l0.3,0.6
							l-0.4,0.2l-0.6,0.6l-2.5,0.3h-1.4l-0.1-0.6l-0.6,0.5l-1,0.1l-0.9-0.1l-0.8,0.4l-2.7-0.1l-1.6-0.4l-0.6-0.3l-0.1-0.7l-1.2-1.1
							l-0.3-0.9l-1.4-1.3l-0.6-0.7l-2.5-0.7l-1.1-0.6h-1.9l-1.9,0.2l-1.6,0.4l-0.7,0.3l-1.2,0.9l-1,1.4l0.3,0.9l-0.1,0.4l1,1.3
							l0.6,0.5l0.9,0.4l0.6,0.6l0.5-0.1l1.2,0.4l0.6,0.5l1,0.1l1.1,0.5h0.5l0.6,0.4l2.4,0.9l0.7,0.4l0.9,0.1l3,1.2l0.4,0.1l0.8,0.8
							l0.9,0.1l1.4,0.8l0.7,0.9l0.9,0.1l0.8,0.4l1.4,1.7l0.5,0.1l1.4,1.1l0.5,0.1l0.3,0.8l1.4,1.4l0.4,0.7l0.2,0.9v0.6l0.9,1
							l0.1,0.8l0.5,0.6l-0.1,0.8l0.4,0.6l-0.4,1.6l0.1,0.3l0.3,0.1l-0.1,0.9l0.1,0.9l-0.2,0.9l-0.3,0.4l0.2,0.3v1.3l-0.6,0.6v0.6
							l-0.6,1.6l-0.3,0.4l-0.4,0.1v0.9l-0.5,0.6l-0.6-0.3l-0.2,0.4L163,191l0.1,0.3l0.4,0.1l-1.6,1.5l-0.1,0.5l-0.4,0.1l-0.6,0.5
							l-0.5,0.1l-1.3,1.1l-1,0.1l-0.4,0.6l-0.4-0.1l-1,0.6h-0.6l-0.4,0.3l-0.9,0.3l-0.4,0.4l-1-0.1l-1.4,0.6l-0.5-0.1l-1.2,0.2
							l-0.5-0.4L149,198l-1.7,0.6l-1.6-0.2l-2.1,0.2l-0.1-0.3v-0.5l-0.8,0.3h-0.4l-0.9-0.3l-0.1,0.7l-1.7-0.6l-0.5-0.6l-0.3,0.8
							l-0.3-0.3l-0.8-0.2h-1.4l0.4-0.3l-0.3-0.5H136l-0.3,0.2h-0.4l-0.6-0.4l-2.5-0.4l-1.2-0.4l0.1-0.7l-0.7,0.5l-0.4-0.1l0.1-0.5
							l0.3-0.1l-0.2-0.4l-1.4,0.1l-0.6-0.5l-0.4-0.1h-0.5l-0.4-0.7l-0.9-0.7l-0.5-0.1l-0.4-1l-0.6-0.1l-2-2.9l-0.9-1.6l-0.9-3.4V182
							l1.1-1.5l0.4-0.2l0.9,0.2l1.8-0.2h8.4l1.4,1l2.9,3.1l1,0.8l0.5-0.1l1.8,0.3l0.9,0.4l1.2,0.1l0.4-0.1l0.4,0.1l0.2,0.2l0.8-0.3
							l0.9,0.1l-0.1,0.5l0.2,0.2l0.3-0.2v-0.5l0.1,0.4l0.7-0.4l0.2-0.4h0.6l1.1-0.5l0.6-0.1l0.6-0.6l0.4-0.8l0.6-2.1l-0.3-0.5
							l-0.3-0.2l-0.5-0.1l-0.2-0.9l-0.9-0.1l-1.1-0.7l-0.7-0.2l-0.5,0.1l-0.4-0.7h-1.1l-0.8-0.3l-0.6-0.5l-0.1-0.4l-0.8,0.2
							l-0.4-0.1l-0.6-0.5l-0.9-0.1l-2.3-0.9l-1.4-0.4l-1.1-0.6h-0.8l-1.1-0.9l-0.9-0.2l-1.2-0.9l-0.8-0.2h-0.6l-1.3-1.1l-1.9-1v-0.5
							l-0.5-0.5l-0.9-0.1l-0.4-0.8l-1.1-1.1l-0.1-0.8l-0.6-0.3l0.1-0.6l-0.8-0.1l-0.7-1.1l-0.1-0.8l-0.9-1.4l-0.2-0.9v-0.6l0.6-0.3
							l-0.6-1.8l0.1-0.8l0.2-0.4l-0.4-0.6l-0.1-1l0.2-1l0.5-0.6l-0.1-1l0.2-0.9l0.5-0.6l-0.1-0.8l0.4-0.1l0.3-0.3l0.6-1.6h0.5
							l0.3-0.2l0.4-0.9l0.6-0.6l0.4-0.1l-0.1-0.9l0.2-0.3l1,0.3l0.5-0.1l-0.4-0.9l1-0.9l0.4-0.1l0.1,0.3v0.5l0.4-0.2v-1h0.9l0.2-0.2
							l-0.1-0.4l0.4-0.1l1-0.6h1.1l1-1.2l1.6,0.6l-0.1-0.3v-0.4l0.4-0.1l1.4-0.1l0.2-0.3l0.9,0.4l0.2-0.4l0.5,0.6l0.4-0.3v-0.4
							l0.2-0.3l0.9-0.2l0.6,0.2l0.1,0.4l0.3-0.3h1.4l-0.1,0.8l0.4-0.1l0.1-0.2v-0.4l-0.4-0.1l0.8-0.4h0.4l1.3,0.5l1-0.1l4.1,0.6
							l0.8-0.1l0.4,0.1l0.6,0.5l0.4-0.1L152.7,141.5z M124.4,154.8l0.6-0.3h-0.4L124.4,154.8z M125.3,161.5l0.4-0.1l0.1-0.5
							l-0.4,0.1L125.3,161.5z M126.4,158l-0.1-0.3l-0.3-0.1l0.1,0.4L126.4,158z M126.5,154.3l0.8,0.3l0.4-0.1l-0.4-0.7l-0.6-0.5
							l-0.2,0.3v0.3L126.5,154.3z M126.5,155.7l0.5-0.1l-0.3-0.1L126.5,155.7z M127.2,156.7l-0.1-0.3l-0.4-0.1l0.1,0.4H127.2z
							 M128.2,163.2l-0.1,0.4l0.2,0.4l0.4-0.3l-0.1-0.3l-0.8-0.5l-0.4-0.1l-0.3,0.2l0.4,0.1l0.3-0.1L128.2,163.2z M127.3,152.5v0.3
							l0.4,0.1l0.1-0.1v-0.3l-0.4-0.1L127.3,152.5z M127.7,151.3l0.6-0.2l0.1-0.4l-0.5,0.1L127.7,151.3z M127.7,159.2h0.6l-0.1-0.4
							l-0.4-0.2V159.2z M127.8,161.2l0.3-0.8l-0.4,0.1l-0.1,0.4L127.8,161.2z M128.4,148.9l0.1-0.4l-0.2-0.3l-0.1,0.4L128.4,148.9z
							 M128.6,165.8l-0.1-0.3l-0.3-0.1v0.4L128.6,165.8z M128.6,150.6l0.1-0.4l-0.3-0.3l-0.1,0.4L128.6,150.6z M128.9,153l0.1,0.5
							l0.4,0.2l0.4-0.1l-0.2-0.4l-0.4-0.3L128.9,153z M128.9,154.8l0.2,0.4l0.4,0.2l0.1-0.6l-0.4-0.1L128.9,154.8z M129.4,160.4
							l0.6,0.1l0.2-0.9l-0.4-0.1l-0.4,0.5V160.4z M129.4,162.4l0.3-0.2l-0.3-0.2V162.4z M129.5,157.5v0.4l0.2,0.4l0.4,0.1l0.4-0.1
							l-0.3-0.9h-0.4L129.5,157.5z M129.9,152l0.4,0.3l0.3-0.6l-0.4-0.1L129.9,152z M130.1,150.3l0.3,0.2l0.5,0.1l0.2-0.3v-0.7
							l-0.1-0.4l-0.6,0.3l-0.1,0.4L130.1,150.3z M130.3,162.9l0.8,0.3l-0.1-0.5l-0.2-0.4l-0.4-0.2l-0.2,0.4L130.3,162.9z M130.9,165
							l-0.1-0.6l-0.2-0.3l-0.2,0.4v0.4L130.9,165z M130.4,147.9l0.5,0.2v-0.4l-0.3-0.1L130.4,147.9z M131.1,190.5h0.3l-0.1-0.3
							l-0.3,0.1L131.1,190.5z M131.7,195.3l-0.4-0.1l0.1,0.3L131.7,195.3z M131.8,152.6l-0.1-0.4l-0.4-0.2l-0.1,0.4L131.8,152.6z
							 M131.7,161.6l0.1-0.4l-0.4-0.2v0.4L131.7,161.6z M131.8,154.3v-0.5l-0.4,0.1v0.4L131.8,154.3z M131.8,188.8h0.2l-0.1-0.3
							l-0.2,0.1L131.8,188.8z M132.3,157.3l0.3-0.7l-0.6-0.1l-0.2,0.3l0.1,0.4L132.3,157.3z M131.9,159.6l0.4,0.1l0.3-0.8l-0.6-0.1
							l-0.2,0.4L131.9,159.6z M131.8,172.3h0.4l-0.4-0.3V172.3z M132.6,151.2l-0.1-0.4l-0.5-0.2l0.1,0.4L132.6,151.2z M132.3,149
							l0.7,0.2l0.4-0.1l-0.2-0.4h-0.6L132.3,149z M132.4,164.1l0.4,0.1l0.3-0.3l-0.5-0.4L132.4,164.1z M132.6,169l0.4,0.1l0.8-0.3
							v-0.5l-0.4-0.1l-0.6,0.4L132.6,169z M133.1,162.3l-0.1-0.4l-0.4-0.2l0.1,0.4L133.1,162.3z M133.2,166.8l0.3-0.9h-0.4l-0.1,0.6
							L133.2,166.8z M133.2,153.7l0.6,0.3l0.1-0.6l-0.5-0.1L133.2,153.7z M133.9,151.4l0.1-0.3l-0.1-0.4l-0.4-0.1l-0.1,0.7
							L133.9,151.4z M134.4,157.6l-0.4,0.3l-0.1,0.4l0.1,0.3l0.4-0.1l0.1-0.4L134.4,157.6z M134.5,190.6l-0.2-0.4l-0.1,0.4
							L134.5,190.6z M135.1,156.5l-0.2-0.4l-0.6-0.1v0.4l0.4,0.1H135.1z M135.1,192.5l-0.2-0.4l-0.5-0.1l0.3,0.5L135.1,192.5z
							 M135.3,161.5l0.1-0.5l-0.1-0.5l-0.3-0.2l-0.3,0.7l0.1,0.4L135.3,161.5z M135.1,163.5l0.1-0.4l-0.4-0.1v0.4L135.1,163.5z
							 M135.3,145.6v-0.5l-0.4,0.3L135.3,145.6z M135.1,167.9l0.8,0.3l-0.2-0.9l-0.2-0.4l-0.3,0.4L135.1,167.9z M135.9,152.3
							l0.1-0.5h-0.4l0.1,0.4L135.9,152.3z M135.6,165.7l0.3,0.4l0.2-0.4H135.6z M135.9,150.3h0.2V150h-0.2V150.3z M136.5,170.7v-0.8
							l-0.4-0.1l0.1,0.8L136.5,170.7z M136.5,162.5l0.4,0.1v-0.4l-0.3-0.2L136.5,162.5z M136.8,147.1h0.4v-0.6l-0.4,0.1V147.1z
							 M137.2,166.8l0.3,0.6l0.8-0.4l0.1-0.4l-0.4-0.1l-0.4,0.1L137.2,166.8z M137.6,148.9l0.4,0.7l0.4,0.1l-0.1-0.6l-0.3-0.3
							L137.6,148.9z M138.4,169l0.5,1l0.4-0.1l-0.6-1L138.4,169z M138.9,146.3l0.5-0.1l0.3-0.3l0.3,0.4l-0.1-0.4l-0.5-0.2l-0.2,0.4
							L138.9,146.3z M139.3,166l0.4,0.1l0.9,0.1v-0.5l-0.4-0.1l-0.6,0.1L139.3,166z M139.7,150.9h0.3v-0.3h-0.3V150.9z M140.2,164.3
							l-0.1-0.8h-0.4l0.1,0.5L140.2,164.3z M139.8,148.9l0.6-0.1v-0.4l-0.2-0.2l-0.4,0.2L139.8,148.9z M139.9,172.5v0.3l0.3-0.2
							l-0.1-0.2L139.9,172.5z M140.6,147.2l0.6,0.1V147h-0.4L140.6,147.2z M140.6,168.5l0.1,0.4l0.3,0.2l0.4,0.1l-0.1-0.5l-0.3-0.3
							L140.6,168.5z M141.2,171.1l0.1-0.4l-0.5-0.6l-0.1,0.4l0.1,0.4L141.2,171.1z M140.7,189.7l0.4,0.4l0.1-0.3l-0.1-0.4
							L140.7,189.7z M141.2,188.6l0.1-0.4L141,188v0.4L141.2,188.6z M141.4,145h0.3v-0.3h-0.3V145z M141.8,165.3h0.5v-0.5l-0.4-0.1
							l-0.1,0.3V165.3z M141.9,150.1l0.4-0.1l0.1-0.4l-0.4-0.1l-0.1,0.3V150.1z M142.9,147.6l-0.1-0.4l-0.7-0.4l0.4,0.7L142.9,147.6
							z M142.9,187l-0.1-0.6l-0.3-0.3l-0.1,0.4l0.1,0.4L142.9,187z M143.7,168.2l-0.4-0.6l-0.4-0.1v0.4l0.4,0.3L143.7,168.2z
							 M143.5,144.5l0.3-0.1l0.1-0.6l-0.6,0.5L143.5,144.5z M143.8,167.1h0.2v-0.3h-0.2V167.1z M144.6,147.2l0.4-0.2l-0.1-0.5
							l-0.3-0.2l-0.1,0.5L144.6,147.2z M144.4,169.1l0.7,0.1l0.4-0.1v-0.6l-0.4-0.1l-0.6,0.2L144.4,169.1z M144.6,190.6h0.2v-0.3
							h-0.2V190.6z M144.9,151.2l0.4-0.2l-0.2-0.4L144.9,151.2z M145.4,167l0.1-0.5h-0.4v0.4L145.4,167z M145.7,173.7l0.3-0.6
							l-0.3-0.2l-0.3,0.6L145.7,173.7z M146.4,172l-0.3-0.8l0.1-0.5l-0.5,0.1l-0.1,0.4l0.1,0.4l0.4,0.4L146.4,172z M146.2,193.4
							L146,193l-0.3-0.2l0.1,0.4L146.2,193.4z M145.9,191.7l0.5,0.2l-0.1-0.9l-0.1-0.4l-0.2,0.2l-0.1,0.4V191.7z M146,148l0.4,0.1
							h0.7v-0.5h-0.9L146,148z M146.7,195.8h0.3l0.1-0.4h-0.3L146.7,195.8z M147.1,168.2l0.1-0.1l-0.3-0.3L147.1,168.2z
							 M147.4,172.8h0.4l0.1-0.4h-0.6V172.8z M148,171l0.1-0.4l-0.2-0.2l-0.1,0.4L148,171z M148.2,147.3h0.6l0.1-0.4l-0.3-0.4
							l-0.3,0.4L148.2,147.3z M148.2,194.8l0.7,0.3l0.3-0.1l0.1-0.4l-0.9,0.1L148.2,194.8z M148.4,144.7h0.4v-0.4h-0.3L148.4,144.7z
							 M148.8,167.4h0.2v-0.3h-0.2V167.4z M149.2,149.2l0.4,0.8l0.3,0.3l0.1-0.4l-0.1-0.4l-0.4-0.4L149.2,149.2z M149.3,151.8h0.3
							l0.1-0.4h-0.4V151.8z M150.4,169.9l0.1-0.4l-0.1-0.4l-0.3-0.3h-0.4l-0.1,0.4l0.1,0.4l0.2,0.2L150.4,169.9z M149.6,172l0.4-0.1
							l0.1-0.4l-0.3-0.2l-0.1,0.3L149.6,172z M150.2,191.3l-0.4,0.1l0.3,0.2L150.2,191.3z M150.1,188.9h0.4v-0.4h-0.3L150.1,188.9z
							 M150.2,176.1l0.4,0.1v-0.4h-0.3L150.2,176.1z M151.3,148.8h0.2v-0.3h-0.2V148.8z M151.8,168.3l0.2,0.4l0.4,0.1l0.1-0.6h-0.4
							L151.8,168.3z M152.2,171.1v-0.5l-0.3-0.2l-0.1,0.4L152.2,171.1z M152.1,188l0.7,0.1l0.2-0.3l-0.4-0.3h-0.4L152.1,188z
							 M152.6,165.1l-0.4-0.1l0.1,0.3L152.6,165.1z M152.6,153.5l0.3-0.5h-0.3l-0.1,0.3L152.6,153.5z M153.2,180.2l-0.6-0.4
							l-0.1,0.4l0.3,0.2L153.2,180.2z M152.6,177.7l0.1,0.4l0.4,0.2h0.4l0.2-0.3l-0.3-0.4l-0.5-0.2L152.6,177.7z M152.9,149.8
							l0.1,0.4l0.5,0.1V150l-0.1-0.3L152.9,149.8z M153.5,182.5l0.4,0.6l0.4,0.1l0.2-0.5l-0.1-0.5l-0.3-0.3l-0.4,0.1L153.5,182.5z
							 M153.7,185.2l0.3-0.1l-0.3-0.2V185.2z M154.1,152.3h0.4v-0.4h-0.3L154.1,152.3z M154.9,181.4V181l-0.6,0.1L154.9,181.4z
							 M154.6,187.7l0.5-0.1l0.2-0.4l-0.1-0.5l-0.5,0.1l-0.2,0.4L154.6,187.7z M154.9,176.8l0.6,0.6l0.4,0.2l0.1-0.4l-0.1-0.4
							l-0.7-0.3L154.9,176.8z M155.7,179.3l-0.1-0.4l-0.4-0.1l0.1,0.5L155.7,179.3z M156.2,149.6l-0.1-0.4l-0.3-0.2h-0.4l0.1,0.5
							l0.4,0.1L156.2,149.6z M155.5,174.8l0.4-0.2l-0.4-0.3V174.8z M155.5,184.1h0.5l0.1-0.4l-0.5-0.1L155.5,184.1z M156.3,182.3
							l0.3-0.2l0.2-0.4l-0.2-0.5l-0.4-0.3l-0.4,0.9l0.1,0.4L156.3,182.3z M155.9,190.6h0.3v-0.3h-0.3V190.6z M156.6,188.8l0.1-0.4
							l-0.6-0.1l0.1,0.4L156.6,188.8z M156.6,179.9l0.2,0.4l0.3-0.4H156.6z M157.6,186.3h-0.5l0.1,0.4l0.4-0.1L157.6,186.3z
							 M157.4,178.3l0.5-0.6l-0.3-0.3l-0.4,0.6L157.4,178.3z M157.6,176.5l0.4,0.1l0.2-0.3l-0.4-0.1L157.6,176.5z M158.3,178.3h0.4
							l-0.4-0.3V178.3z M158.7,180.7l-0.3,0.1h0.4l0.2-0.5h-0.4L158.7,180.7z M158.7,186.1h0.4l0.5-0.5v-0.4l-0.4-0.1l-0.5,0.6
							L158.7,186.1z M158.8,183.3l0.3,0.1l0.1-0.3l-0.3-0.1L158.8,183.3z M160,175.4l0.1-0.4l-0.2-0.4l-0.4-0.2l-0.1,0.4l0.3,0.6
							H160z M159.9,177.5l0.3-0.4h-0.4l-0.3,0.1L159.9,177.5z M160.7,182.3l-0.1-0.3l-0.5-0.1l0.1,0.3L160.7,182.3z M160.2,189
							l0.3-0.7l-0.3-0.2l-0.2,0.7L160.2,189z M160.7,180l-0.2-0.5l-0.3-0.3l0.1,0.8H160.7z M161.7,184.7l-0.1-0.4l-0.3-0.2l-0.4-0.1
							l0.1,0.5l0.3,0.3L161.7,184.7z M161,176.3l0.1,0.4h0.3l0.1-0.4l-0.4-0.1L161,176.3z M162.9,183.6l0.8,0.3l-0.1-0.4l-0.4-0.1
							L162.9,183.6z"/>
						<path class="st1" d="M228.1,147.7l-0.1,0.9l0.2,1.3l-0.1,0.4l-0.3,0.2l0.2,0.4v0.4l-0.4,1.4l0.5,0.4l-0.4,0.8h-0.4l-0.1,0.3
							l0.2,0.8l-0.8,0.3l-1.6,0.1l-0.7,0.4l-0.7-0.2l-1.7,0.1l-0.8-0.1l-0.3-0.2l-0.8,0.3h-1.9l-0.6-0.4l-0.1-0.3l-0.7,0.4l-1.4,0.1
							l-0.9-0.4l-0.7,0.3l-0.9,0.1l-0.3-0.2l-0.5,0.5l-0.8,0.3h-0.4l-0.2,0.4l-0.2,0.9l-0.1,3.3l-0.2,0.8l0.5,0.8l-0.1,0.4L210,163
							l-0.1,0.4l0.8-0.1l0.2,0.4l-0.1,0.5l-0.3,0.4l0.1,0.4v0.9l-0.4,1.6l0.5,0.3l-0.2,1.4v0.9l0.2,0.9l-0.5,0.1l0.5,2.2l-0.1,0.9
							l-0.2,0.4l0.5,0.8l-0.1,0.4l-0.1,2.1l-0.3,0.4l0.5,1.2l-0.4,0.6l0.1,1.4l-0.1,1.6l0.1,1.5l-0.2,1.2l0.2,1.7l-0.5,0.6l0.2,0.3
							l0.2,0.8l0.1,1.8l-0.4,0.8l-0.1,0.8l-0.3,0.3l0.6,0.1l0.2,0.4l-0.4,1.6l0.4,0.2l-0.4,0.6l-0.1,0.4l-0.4,0.2l-0.4,0.7l-1.4,0.1
							l-0.8-0.3l-0.4,0.2l-1.6,0.1l-0.4,0.1l-0.2-0.4l-0.4,0.2l-0.7,0.1l-0.8,0.4h-0.4l-0.6-0.3l-0.4,0.1l-0.2,0.2l-0.8-0.2
							l-2.6-0.2l-0.9-0.3l-0.2-0.4l-0.4-1.6l-0.4-0.6l0.2-1.6l-0.1-0.8l0.5-0.2l-0.6-0.6l-0.1-0.5l0.6-0.4l-0.5-1.3l0.1-1.4
							l-0.1-0.4l0.4-0.6l-0.1-0.4l-0.4-3.4l0.6-0.1l-0.5-0.6l0.2-0.7l-0.4-0.7l0.4-1.4l-0.1-0.9l0.6-0.1l-0.6-0.6l-0.2-0.9l0.4,0.1
							l0.3,0.3h0.4l-0.4-0.6l-0.4-0.1l-0.3-1.1l-0.1-1.9l0.2-0.8l-0.2-0.6l0.3-0.5l0.4-0.3l-0.4-0.6l-0.2-2.1l0.3-0.2l0.4-0.6v-0.5
							l-0.4-0.2l-0.2-0.9l-0.3-0.4l0.4-0.3l-0.1-1.4l0.3-0.1l-0.1-1.1l0.4-0.1l0.4,0.4l0.2-0.3l0.1-0.5h0.6l0.1-0.4l-0.2-0.1
							l-0.4,0.1l-0.4-0.3l-0.4-0.6l-0.1-0.7l-0.6-0.7l-0.1-0.9l0.3-1.1l-0.3-0.7v-0.5l-1.6-1.1l-0.6,0.6h-0.2l-0.2-0.8l-0.4-0.3
							l-0.4,0.6l-0.3-0.5l-0.4,0.2v0.4l-1.9-0.2l-0.8,0.1l-0.8,0.4l-2.4-0.4L186,155l-0.4-0.2l-0.6,0.8l-0.4-0.1l-1.6-0.1l-1.2,0.5
							l-0.3-0.3l-2.4-0.6l0.1-0.5l0.6-0.5l-0.3-0.3l-0.8,0.3l0.1-0.4l-0.1-1.4l0.4-0.4l-0.2-0.4l-0.1-0.8l0.4-1.2l-0.4-0.6l-0.1-0.9
							l0.4-0.1l-0.1-0.8l0.8-0.3l-0.3-0.3h-0.8l0.1-0.9l-0.1-0.8l-0.2-0.4l0.6-1l-0.1-0.4l0.3-0.1h0.5l-0.1-0.8l0.6-0.4l0.9-0.1
							l0.6,0.4l1.5-0.4h3.5l0.4,0.1l0.2,0.3l3-0.3l0.3,0.2l0.9,0.2l0.9-0.1l0.8-0.3l0.2-0.2l1.4,0.3h1.6l0.9-0.3l0.1,0.9l0.3-0.2
							l0.1-0.4l0.3-0.2l1.4,0.1l0.9-0.1v0.3l0.2,0.3l0.4-0.2l0.4-0.6l0.9,0.2l1.4-0.2l-0.1,0.7h0.8l0.2-0.1l0.1-0.4l0.8,0.3l0.8-0.4
							h3.9l0.9,0.1l0.4,0.2l0.6-0.4h4.6l1.6,0.2l0.4-0.1l0.8,0.1l0.9-0.4l1.7,0.1l1.6-0.1l0.6,0.6l0.6-0.6l2.1,0.5l0.6,0.4l0.6,1.1
							v1.9l-0.1,0.9l-0.2,0.3l0.5,0.9L228.1,147.7z M184.1,147.9v-0.4l-0.4-0.2l-0.1,0.4l0.3,0.6L184.1,147.9z M186,147l-0.4-0.1
							l-0.1,0.4l0.4,0.1V147z M186.6,151.8l0.3-0.3l-0.5-0.5l-0.3,0.6L186.6,151.8z M187.4,149.3h-0.4l-0.2,1.2h0.6V149.3z
							 M187.4,148.3l0.3-0.1l0.1-0.3h-0.5L187.4,148.3z M188.4,146.3v-0.4l-0.4-0.3l-0.2,0.9l0.4,0.3L188.4,146.3z M188.9,147.1h0.3
							v-0.3h-0.3V147.1z M189.5,148.9l-0.3-0.1v0.4h0.4L189.5,148.9z M190.1,145.3h0.4v-0.9l-0.4,0.1l-0.3,0.3l-0.1,0.4L190.1,145.3
							z M191.1,149.5h-0.7l-0.2,0.3l0.6-0.1l0.3,0.4V149.5z M191.4,146.4l0.4,0.1l0.3-0.2l-0.5-0.2l-0.4,0.1L191.4,146.4z
							 M191.7,147.6h-0.4l0.1,0.4l0.4,0.1V147.6z M192.1,152.5l0.2-0.3l-0.4-0.2v0.9L192.1,152.5z M193.8,147.3v-0.7l-0.4-0.1
							l-0.3,0.4l0.1,0.5L193.8,147.3z M193.6,145.4l0.4,0.1l-0.1-0.4l-0.5-0.1L193.6,145.4z M194.4,143l-0.4-0.1l-0.3,0.2l0.8,0.4
							L194.4,143z M194.5,151.8l-0.1-0.5l-0.3-0.4l-0.4-0.1l0.2,1.1l0.2,0.3L194.5,151.8z M195.3,148l0.2-0.3l-0.4-0.2l-0.4,0.1v0.4
							H195.3z M195.9,146.5l0.1-0.4l-0.1-0.5l-0.4,0.1l-0.2,0.8l0.2,0.1L195.9,146.5z M195.5,144.5l0.4-0.1l0.2-0.3h-0.7
							L195.5,144.5z M196.6,183.6l-0.4-0.3v0.3H196.6z M196.9,184.7l-0.4-0.1v0.4l0.4,0.1L196.9,184.7z M197.8,153.5l-0.5-0.1
							l-0.3,0.4l0.6,0.1L197.8,153.5z M198.2,145.2l0.1-0.4l-0.1-0.4l-0.5-0.2l-0.2,0.7l0.1,0.4l0.4,0.2L198.2,145.2z M198.7,156.5
							l0.1-0.6l-0.5,0.1l-0.3,0.4H198.7z M198.3,149.3l-0.1,0.5l0.4,0.2l0.2-0.4l-0.1-0.5L198.3,149.3z M198.5,160.8l0.3,0.3
							l0.6,0.1l-0.1-0.4l-0.3-0.3l-0.4-0.1L198.5,160.8z M198.9,145.8l-0.1,0.4l0.6,0.1l0.3-0.3l-0.1-0.4l-0.5-0.1L198.9,145.8z
							 M199.1,148.1v-0.2h-0.3v0.2H199.1z M198.8,154.2v0.4h0.3l0.2-0.3l-0.2-0.2L198.8,154.2z M199.6,188.4l0.4-0.2l-0.1-0.4
							l-0.7,0.2l-0.1,0.2l0.4,0.4L199.6,188.4z M199.4,150.7l0.6,0.1l0.3-0.4l-0.7-0.4l-0.4,0.2L199.4,150.7z M199.9,159.3l0.2-0.3
							v-0.4l-0.4-0.1l-0.2,0.9L199.9,159.3z M199.6,174.3l0.4,0.3v-0.4L199.6,174.3z M199.9,181.1h0.5l0.1-0.4l-0.4-0.2h-0.4v0.5
							L199.9,181.1z M199.7,144.4l0.3,0.3l0.3-0.1l-0.4-0.6L199.7,144.4z M200,154.6l-0.3,0.4l0.4,0.3l0.3-0.4L200,154.6z
							 M200,170.3l0.4,0.1l-0.3-0.4L200,170.3z M200.6,164.3v-0.5h-0.4l-0.1,0.4l0.1,0.3L200.6,164.3z M200.6,178.2h-0.3l0.1,0.4
							l0.5-0.3L200.6,178.2z M200.9,185.5l0.5-0.5l-0.4-0.2h-0.4l-0.4,0.2l0.1,0.5H200.9z M200.4,148.6l0.1,0.4h0.5l-0.1-0.5
							l-0.4-0.3L200.4,148.6z M200.9,159.9l0.4,0.1l0.4-0.2l0.2-0.4l-0.3-0.2l-0.9,0.2L200.9,159.9z M201.4,153l-0.2-0.3l-0.4-0.1
							l-0.1,0.4l0.2,0.8l0.3,0.2l0.5-0.8L201.4,153z M200.8,147.5l0.4-0.1l0.1-0.4h-0.6V147.5z M201.9,151.5l-0.5,0.1l0.1,0.4
							l0.4,0.1l0.4-0.1L201.9,151.5z M202.4,158.1v-0.4l0.1-0.3l-0.4-0.2l-0.6-0.1l0.2,0.9l0.4,0.3L202.4,158.1z M201.6,175l0.3,0.1
							l0.1-0.3l-0.3-0.1L201.6,175z M202.1,187.2l-0.4-0.1l-0.2,0.3l0.3,0.2L202.1,187.2z M202.4,179.5l-0.3-0.1l-0.2,0.1H202.4z
							 M202.1,150l0.2-0.1l-0.2-0.2V150z M202.8,156.3l-0.4-0.2l-0.1,0.4l0.4,0.2L202.8,156.3z M202.8,163.3l-0.3-0.2v0.4
							L202.8,163.3z M202.9,192.7l-0.4-0.2v0.2H202.9z M202.9,146.2l-0.3,0.2l0.5,0.3l0.2-0.1l0.1-0.4H202.9z M202.9,144l0.2,0.3
							l0.1-0.5L202.9,144z M203.3,182.1l0.1-0.2l-0.4-0.1l-0.1,0.4L203.3,182.1z M203.6,151.5l-0.4-0.1v0.4h0.3L203.6,151.5z
							 M203.9,158.9l-0.7-0.1l0.1,0.4l0.8,0.1l0.1-0.4L203.9,158.9z M203.1,183h0.4l-0.1-0.4l-0.3-0.2V183z M203.3,174.1l0.4-0.3
							h-0.3L203.3,174.1z M203.7,189.2l0.4-0.1l-0.1-0.3l-0.3-0.1l-0.3,0.6H203.7z M203.7,144.3l0.1,0.4l0.2-0.5L203.7,144.3z
							 M204.1,156.3l-0.4,0.1l0.2,0.8l0.3,0.3l0.3-1.1L204.1,156.3z M204.2,163.9l0.3-0.4l-0.4-0.1l-0.3,0.1l-0.1,0.4L204.2,163.9z
							 M204.4,148.9l-0.4-0.1l-0.2,0.2l0.6,0.2l0.4-0.2v-0.1L204.4,148.9z M204.1,170.7v-0.3h-0.2v0.3H204.1z M204.4,191.3h-0.3v0.3
							h0.3V191.3z M204.4,155.3v0.4l0.3,0.1l0.4-0.4l-0.1-0.3L204.4,155.3z M205.1,161.5l-0.2-0.3l-0.4-0.2l0.2,0.8l0.3,0.1
							L205.1,161.5z M204.9,168.5l-0.3-0.2v0.4L204.9,168.5z M205.4,145.1l-0.4,0.2v0.4h0.6l0.1-0.4L205.4,145.1z M205.3,158.3
							l0.4,0.1l-0.1-0.4h-0.4L205.3,158.3z M205.9,180.4l0.4,0.2v-0.4l-0.1-0.3l-0.4,0.1l-0.1,0.2L205.9,180.4z M205.9,150l-0.2,0.4
							l0.4-0.1l0.2-0.2L205.9,150z M206.1,164.9v-0.3h-0.3v0.3H206.1z M206.1,171.8h0.3l0.1-0.4h-0.4V171.8z M206.1,186.5
							L206.1,186.5l0.3,0.2L206.1,186.5z M206.9,147.9l-0.4-0.1l-0.3,0.2l0.6,0.2V147.9z M206.3,156l-0.1,0.3l0.4-0.1l0.1-0.5h-0.4
							L206.3,156z M206.9,190.5l-0.2-0.4l-0.4-0.1v0.5l0.2,0.3l0.4,0.1V190.5z M206.5,175.5l0.5,0.1v-0.4L206.5,175.5z M206.6,169.7
							l0.4,0.2v-0.3L206.6,169.7z M207.1,152.5l-0.1-0.2l-0.3,0.1L207.1,152.5z M207.1,146.1l-0.2,0.3l-0.1,0.4l0.4-0.1l0.2-0.7
							L207.1,146.1z M207,159.5l0.4,0.1l0.2-0.3l-0.3-0.1l-0.5,0.1L207,159.5z M207.1,182.6l0.2-0.2h-0.4L207.1,182.6z M207.4,174.7
							l0.3-0.3l-0.4-0.1l-0.3,0.3L207.4,174.7z M207.4,144.7l0.1-0.4l-0.4,0.1L207.4,144.7z M207.4,157.3l0.4,0.1l-0.1-0.3l-0.4-0.1
							L207.4,157.3z M207.9,150.3l-0.1-0.4h-0.4l0.2,0.7l0.4,0.1V150.3z M207.8,142.5l0.2,0.4l0.3,0.1l0.1-0.4l-0.1-0.4l-0.4-0.1
							L207.8,142.5z M208.7,147h-0.3l-0.1,0.4h0.6L208.7,147z M209.1,151.3l-0.3-0.3l-0.2,0.3l0.1,0.4l0.4,0.1L209.1,151.3z
							 M209.6,150.2l0.4,0.2l0.1-0.6l-0.3-0.2L209.6,150.2z M210.4,160l-0.6-0.1l0.1,0.4l0.4,0.2L210.4,160z M210.4,148.5l0.3-0.3
							l-0.4-0.1l-0.3,0.3L210.4,148.5z M210.9,150.5h-0.2v0.2h0.2V150.5z M212.1,148.7l-0.4-0.1v0.4l0.4,0.1L212.1,148.7z
							 M212.5,145.3l0.3,0.2h0.8l0.1-0.4l-0.3-0.2l-0.5-0.1l-0.4,0.1V145.3z M212.9,149.6l0.3,0.4l0.5,0.1l-0.1-0.6l-0.6-0.3
							L212.9,149.6z M214.9,146.4l-0.8-0.3l-0.3,0.3l0.5,0.5l0.4,0.1L214.9,146.4z M214.6,148.4l0.1-0.5l-0.4-0.1l-0.2,0.4l0.1,0.4
							L214.6,148.4z M216.6,147.1h0.2l0.1-0.4h-0.4V147.1z M217.1,150.5l0.4-0.1l0.1-0.4l-0.3-0.2h-0.4l-0.1,0.4L217.1,150.5z
							 M218.5,145.9l-0.3,0.5h0.6L218.5,145.9z M218.4,145.1h0.2v-0.3h-0.2V145.1z M219,149.6l0.2,0.3l0.6,0.1l-0.1-0.4l-0.3-0.3
							l-0.4-0.1V149.6z M221.5,150.2l-0.4-0.2l-0.1,0.4l0.2,0.4l0.4-0.1L221.5,150.2z M221.6,149.3l-0.3,0.1l0.1,0.1h0.3
							L221.6,149.3z M222.8,147.1v-0.4h-0.4l-0.1,0.4l0.3,0.2L222.8,147.1z M226.6,151.5l-0.3-0.4v0.3L226.6,151.5z"/>
					</g>
				</g>
			</g>
		</g>
	</g>
</g>
</svg>
