<?xml version="1.0" encoding="utf-8"?>
<!-- Generator: Adobe Illustrator 18.1.1, SVG Export Plug-In . SVG Version: 6.00 Build 0)  -->
<svg xmlns="http://www.w3.org/2000/svg" xmlns:xlink="http://www.w3.org/1999/xlink" version="1.1" id="Layer_1" x="0px" y="0px" width="300px" height="114px" viewBox="-461 340 300 114" style="enable-background:new -461 340 300 114;" xml:space="preserve">
<path style="fill:#1D1214;" d="M-174.4,339h-272.7h-13.5v55.9v43v2c0,7.4,6.1,13.5,13.5,13.5h272.6c7.4,0,13.5-6.1,13.5-13.5v-2v-43  V339H-174.4z"/>
<circle style="fill:#FFFFFF;" cx="-415.1" cy="397" r="29.5"/>
<circle style="fill:#1D1214;" cx="-415.1" cy="397" r="27.5"/>
<circle style="fill:#BE1E2D;" cx="-415.1" cy="397" r="25.4"/>
<path style="fill:#E1CCA9;" d="M-373,415.5v4.6h-1.6v-11.5h2.8c1.3,0,2.2,0.3,2.8,0.8s0.9,1.4,0.9,2.5c0,1.4-0.6,2.4-1.9,3l2.8,5.1  h-1.8l-2.4-4.6h-1.6V415.5z M-373,414h1.1c0.8,0,1.3-0.2,1.6-0.5c0.3-0.3,0.5-0.8,0.5-1.4s-0.2-1.1-0.6-1.4  c-0.4-0.3-0.9-0.4-1.7-0.4h-0.9V414z"/>
<path style="fill:#E1CCA9;" d="M-358.7,420.1h-5.6v-11.5h5.6v1.6h-4v3.1h3.7v1.6h-3.7v3.6h4V420.1z"/>
<path style="fill:#E1CCA9;" d="M-349.5,417c0,1-0.3,1.8-1,2.4c-0.6,0.6-1.5,0.9-2.6,0.9s-2-0.2-2.8-0.6v-1.8  c0.5,0.2,0.9,0.4,1.4,0.6c0.5,0.1,1,0.2,1.4,0.2c0.6,0,1.1-0.1,1.4-0.4c0.3-0.3,0.5-0.7,0.5-1.1c0-0.4-0.1-0.8-0.4-1.1  c-0.3-0.3-0.9-0.6-1.7-1.1c-0.9-0.4-1.5-0.9-1.9-1.4c-0.4-0.5-0.6-1.2-0.6-2c0-1,0.3-1.7,0.9-2.3c0.6-0.5,1.4-0.8,2.4-0.8  s1.9,0.2,2.8,0.7l-0.5,1.5c-0.9-0.4-1.7-0.6-2.4-0.6c-0.5,0-0.9,0.1-1.2,0.4c-0.3,0.3-0.4,0.6-0.4,1c0,0.3,0.1,0.6,0.2,0.8  c0.1,0.2,0.3,0.4,0.5,0.6c0.2,0.2,0.7,0.4,1.3,0.7c0.7,0.3,1.3,0.7,1.6,1c0.3,0.3,0.6,0.6,0.7,1C-349.5,416-349.5,416.5-349.5,417z"/>
<path style="fill:#E1CCA9;" d="M-342.7,420.1h-1.6v-9.8h-2.9v-1.6h7.5v1.6h-2.9v9.8H-342.7z"/>
<path style="fill:#E1CCA9;" d="M-331.3,420.1l-1-3.2h-3.7l-1,3.2h-1.7l3.7-11.5h1.8l3.7,11.5H-331.3z M-332.7,415.3l-0.9-3.1  c-0.1-0.2-0.2-0.5-0.3-1c-0.1-0.4-0.2-0.8-0.2-1c-0.1,0.6-0.3,1.3-0.5,2.1l-0.9,3H-332.7z"/>
<path style="fill:#E1CCA9;" d="M-319,408.6v7.4c0,0.8-0.2,1.6-0.5,2.2c-0.3,0.6-0.8,1.1-1.4,1.5c-0.6,0.3-1.3,0.5-2.1,0.5  c-1.2,0-2.2-0.4-2.9-1.1c-0.7-0.8-1-1.8-1-3.1v-7.4h1.6v7.2c0,0.9,0.2,1.6,0.6,2.1c0.4,0.4,1,0.7,1.8,0.7c1.5,0,2.3-0.9,2.3-2.8  v-7.2C-320.6,408.6-319,408.6-319,408.6z"/>
<path style="fill:#E1CCA9;" d="M-314,415.5v4.6h-1.6v-11.5h2.8c1.3,0,2.2,0.3,2.8,0.8s0.9,1.4,0.9,2.5c0,1.4-0.6,2.4-1.9,3l2.8,5.1  h-1.8l-2.4-4.6h-1.6V415.5z M-314,414h1.1c0.8,0,1.3-0.2,1.6-0.5s0.5-0.8,0.5-1.4s-0.2-1.1-0.6-1.4c-0.4-0.3-0.9-0.4-1.7-0.4h-0.9  V414z"/>
<path style="fill:#E1CCA9;" d="M-299.2,420.1l-1-3.2h-3.8l-1,3.2h-1.7l3.7-11.5h1.8l3.7,11.5H-299.2z M-300.6,415.3l-0.9-3.1  c-0.1-0.2-0.2-0.5-0.3-1c-0.1-0.4-0.2-0.8-0.2-1c-0.1,0.6-0.3,1.3-0.5,2.1l-0.9,3H-300.6z"/>
<path style="fill:#E1CCA9;" d="M-286.5,420.1h-2l-4.9-9.1h-0.1v0.5c0.1,1,0.1,1.9,0.1,2.7v5.9h-1.5v-11.5h2l4.9,9.1l0,0  c0-0.1,0-0.6-0.1-1.3c0-0.8,0-1.3,0-1.8v-6h1.5v11.5H-286.5z"/>
<path style="fill:#E1CCA9;" d="M-279.6,420.1h-1.6v-9.8h-2.9v-1.6h7.5v1.6h-2.9v9.8H-279.6z"/>
<path style="fill:#E1CCA9;" d="M-270.8,414.4c0-0.4,0.1-0.8,0.3-1c0.2-0.2,0.5-0.4,0.9-0.4s0.7,0.1,0.9,0.4c0.2,0.2,0.3,0.6,0.3,1  s-0.1,0.8-0.3,1c-0.2,0.2-0.5,0.4-0.9,0.4s-0.7-0.1-0.9-0.4C-270.7,415.2-270.8,414.9-270.8,414.4z"/>
<path style="fill:#E1CCA9;" d="M-256.5,417.1c0,0.9-0.3,1.7-0.9,2.2s-1.4,0.8-2.4,0.8c-1.2,0-2.1-0.2-2.8-0.5v-0.8  c0.7,0.3,1.6,0.5,2.7,0.5c0.8,0,1.5-0.2,1.9-0.6c0.5-0.4,0.7-1,0.7-1.7c0-0.4-0.1-0.8-0.2-1.1c-0.2-0.3-0.4-0.5-0.8-0.8  c-0.4-0.2-0.9-0.5-1.6-0.7c-1-0.4-1.9-0.8-2.3-1.3c-0.4-0.5-0.6-1.1-0.6-1.8c0-0.8,0.3-1.5,0.9-2.1c0.6-0.5,1.5-0.8,2.4-0.8  s1.8,0.2,2.6,0.6l-0.3,0.7c-0.8-0.4-1.6-0.6-2.4-0.6c-0.7,0-1.3,0.2-1.8,0.6c-0.4,0.4-0.7,0.9-0.7,1.6c0,0.4,0.1,0.8,0.2,1  s0.4,0.5,0.7,0.7c0.3,0.2,0.8,0.5,1.6,0.8c0.8,0.3,1.3,0.5,1.8,0.7c0.4,0.2,0.7,0.3,1,0.8C-256.4,415.8-256.5,416.6-256.5,417.1z"/>
<path style="fill:#E1CCA9;" d="M-253,420.1v-11.5h0.7V420h-0.7V420.1z"/>
<path style="fill:#E1CCA9;" d="M-240.8,420.1h-0.7l-5.9-10.1h-0.1c0.1,1.2,0.1,2.1,0.1,2.7v7.4h-0.7v-11.5h0.7l5.9,10.1l0,0  c0-0.9-0.1-1.8-0.1-2.7v-7.5h0.7v11.6H-240.8z"/>
<path style="fill:#E1CCA9;" d="M-232.4,409.2c-1.2,0-2.2,0.5-2.9,1.4s-1.1,2.2-1.1,3.8s0.3,2.9,1,3.8c0.7,0.9,1.6,1.4,2.9,1.4  c0.8,0,1.6-0.1,2.3-0.4v0.7c-0.7,0.3-1.5,0.4-2.5,0.4c-1.4,0-2.5-0.5-3.3-1.6c-0.8-1-1.2-2.5-1.2-4.3c0-1.2,0.2-2.2,0.6-3.1  c0.4-0.9,0.9-1.6,1.7-2.1c0.7-0.5,1.6-0.7,2.5-0.7c1,0,1.8,0.2,2.6,0.6l-0.3,0.7C-230.8,409.4-231.6,409.2-232.4,409.2z"/>
<path style="fill:#E1CCA9;" d="M-221.1,420.1h-5.4v-11.5h5.4v0.7h-4.7v4.3h4.5v0.7h-4.5v4.9h4.7V420.1z"/>
<path style="fill:#E1CCA9;" d="M-209.3,420.1h-0.7v-8.3c0-0.8,0-1.5,0.1-2.4c-0.1,0.1-0.1,0.2-0.2,0.2c-0.1,0.1-0.8,0.7-2.1,1.9  l-0.4-0.6l2.7-2.3h0.6L-209.3,420.1L-209.3,420.1z"/>
<path style="fill:#E1CCA9;" d="M-198.3,413.5c0,1.5-0.2,2.8-0.5,3.8s-0.8,1.8-1.5,2.2c-0.7,0.5-1.4,0.7-2.4,0.7  c-0.5,0-0.9-0.1-1.3-0.2v-0.7c0.2,0.1,0.4,0.1,0.7,0.2c0.3,0,0.5,0.1,0.6,0.1c1.1,0,2-0.5,2.6-1.4c0.6-0.9,0.9-1.9,1-3.7h-0.1  c-0.2,0.3-0.6,0.6-1.1,0.9c-0.5,0.3-1.1,0.3-1.4,0.3c-0.9,0-1.6-0.3-2.2-0.9c-0.5-0.6-0.8-1.4-0.8-2.5c0-1.1,0.3-2.1,0.8-2.8  c0.6-0.7,1.3-1.1,2.2-1.1c0.7,0,1.4,0.2,1.9,0.6c0.5,0.4,0.8,0.9,1.2,1.6C-198.2,411.5-198.3,412.5-198.3,413.5z M-201.6,409.2  c-0.7,0-1.3,0.3-1.7,0.8c-0.4,0.6-0.6,1.3-0.6,2.3c0,0.9,0.2,1.6,0.6,2.1s1,0.7,1.7,0.7c0.5,0,1-0.2,1.4-0.5  c0.2-0.2,0.6-0.4,0.8-0.8c0.2-0.4,0.4-0.8,0.4-1.2c0-0.6-0.1-1.2-0.3-1.7c-0.2-0.5-0.5-0.9-0.9-1.2  C-200.7,409.3-201.1,409.2-201.6,409.2z"/>
<path style="fill:#E1CCA9;" d="M-188.3,417.2h-1.7v2.9h-0.6v-2.9h-5.1v-0.5l4.9-8.1h0.8v7.9h1.7L-188.3,417.2L-188.3,417.2z   M-190.6,416.5v-3.3c0-1.6,0-2.9,0.1-4h-0.1c-0.1,0.2-0.4,0.7-0.8,1.5l-3.5,5.8H-190.6z"/>
<g>
	<path style="fill:#FFFFFF;" d="M-375.8,379.3v-2.8h8.4v2.8l-2.2,0.5v6.8h8.3v-6.8l-2.2-0.5v-2.8h2.2h4.1h2.2v2.8l-2.2,0.5v16.8   l2.2,0.5v2.8h-8.4v-2.8l2.2-0.5v-6.4h-8.3v6.4l2.2,0.5v2.8h-8.4v-2.8l2.2-0.5v-16.8L-375.8,379.3z"/>
	<path style="fill:#FFFFFF;" d="M-340.3,389.6h-6.9v6.7h6.6l0.2-2.8h3.1v6.4h-16.1v-2.8l2.2-0.5v-16.8l-2.2-0.5v-2.8h2.2h13.9v6.4   h-3.1l-0.2-2.8h-6.5v5.9h6.9L-340.3,389.6L-340.3,389.6z"/>
	<path style="fill:#FFFFFF;" d="M-314.3,376.5v2.8l-2.2,0.5v20.1h-4.1l-8.2-15.8h-0.1v12.5l2.2,0.5v2.8h-8.4v-2.8l2.2-0.5v-16.8   l-2.2-0.5v-2.8h2.2h4.1l8.2,15.8h0.1v-12.5l-2.2-0.5v-2.8h6.3H-314.3z"/>
	<path style="fill:#FFFFFF;" d="M-303.8,376.5c2.5,0,4.5,0.9,6.2,2.7c1.6,1.8,2.4,4.2,2.4,7v3.9c0,2.9-0.8,5.2-2.4,7   c-1.6,1.8-3.7,2.7-6.2,2.7h-9.2V397l2.2-0.5v-16.7l-2.2-0.5v-2.8h2.2H-303.8z M-306.7,380.1v16.2h2.7c1.5,0,2.6-0.6,3.4-1.7   c0.8-1.1,1.2-2.6,1.2-4.5v-3.9c0-1.8-0.4-3.3-1.2-4.4c-0.8-1.1-2-1.7-3.4-1.7C-304,380.1-306.7,380.1-306.7,380.1z"/>
	<path style="fill:#FFFFFF;" d="M-280.6,389.6h-6.9v6.7h6.6l0.2-2.8h3.1v6.4h-16.1v-2.8l2.2-0.5v-16.8l-2.2-0.5v-2.8h2.2h13.9v6.4   h-3.1l-0.2-2.8h-6.5v5.9h6.9v3.6H-280.6z"/>
	<path style="fill:#FFFFFF;" d="M-266.3,376.5c2.3,0,4.1,0.6,5.4,1.8c1.3,1.2,2,2.9,2,5c0,1.2-0.3,2.2-0.8,3.1   c-0.6,0.9-1.4,1.6-2.4,2.1c1.2,0.4,2.1,1.1,2.6,2s0.8,2.1,0.8,3.5v1.2c0,0.5,0.1,0.9,0.3,1.2c0.2,0.3,0.5,0.5,0.9,0.5l0.5,0.1v2.8   h-2.1c-1.3,0-2.3-0.4-2.8-1.2c-0.5-0.8-0.8-1.9-0.8-3.2v-1.3c0-1.1-0.3-2-0.8-2.7c-0.5-0.6-1.3-1-2.2-1h-3.3v6.2l2.2,0.5v2.8h-8.4   v-2.8l2.2-0.5v-16.8l-2.2-0.5v-2.8h2.2H-266.3z M-269.2,386.8h2.8c1.1,0,2-0.3,2.6-0.8c0.6-0.6,0.9-1.4,0.9-2.4   c0-1.1-0.3-1.9-0.8-2.5c-0.6-0.6-1.4-0.9-2.5-0.9h-2.9v6.6H-269.2z"/>
	<path style="fill:#FFFFFF;" d="M-240.3,383.9h-3.1l-0.5-3.2c-0.4-0.3-0.9-0.5-1.6-0.7c-0.7-0.2-1.4-0.3-2.2-0.3   c-1.1,0-2,0.3-2.6,0.8s-0.9,1.2-0.9,2.1c0,0.8,0.3,1.4,1,2c0.6,0.5,1.7,1,3.3,1.6c2.2,0.7,4,1.7,5.1,2.8c1.2,1.2,1.7,2.7,1.7,4.7   s-0.7,3.6-2.1,4.7c-1.4,1.2-3.2,1.7-5.5,1.7c-1.6,0-3.1-0.3-4.4-0.9c-1.3-0.6-2.4-1.4-3.3-2.4V392h3.2l0.4,3.3c0.4,0.4,1,0.7,1.7,1   c0.7,0.3,1.5,0.4,2.4,0.4c1.1,0,2-0.3,2.6-0.8s0.9-1.2,0.9-2.1c0-0.9-0.3-1.6-0.8-2.2c-0.6-0.5-1.5-1.1-2.9-1.5   c-2.4-0.8-4.2-1.8-5.5-2.9c-1.2-1.1-1.9-2.6-1.9-4.5c0-1.9,0.7-3.5,2.1-4.7c1.4-1.2,3.2-1.8,5.3-1.9c1.6,0,3,0.3,4.3,0.8   s2.4,1.3,3.2,2.2v4.8H-240.3z"/>
	<path style="fill:#FFFFFF;" d="M-219.7,388.3c0,3.4-0.9,6.3-2.6,8.5c-1.7,2.2-3.9,3.4-6.7,3.4s-5-1.1-6.7-3.4   c-1.7-2.3-2.5-5.1-2.5-8.5V388c0-3.4,0.8-6.2,2.5-8.5s3.9-3.4,6.7-3.4s5,1.1,6.7,3.4s2.6,5.1,2.6,8.5V388.3z M-223.8,388   c0-2.4-0.4-4.4-1.3-5.9c-0.9-1.5-2.2-2.3-3.9-2.3s-3,0.8-3.8,2.3s-1.3,3.5-1.3,5.9v0.4c0,2.5,0.4,4.5,1.3,6   c0.9,1.5,2.1,2.3,3.8,2.3s3-0.8,3.9-2.3s1.3-3.5,1.3-6V388z"/>
	<path style="fill:#FFFFFF;" d="M-198.3,376.5v2.8l-2.2,0.5v20.1h-4.1l-8.2-15.8h-0.1v12.5l2.2,0.5v2.8h-8.4v-2.8l2.2-0.5v-16.8   l-2.2-0.5v-2.8h2.2h4.1l8.2,15.8h0.1v-12.5l-2.2-0.5v-2.8h6.3H-198.3z"/>
	<path style="fill:#FFFFFF;" d="M-177.7,383.9h-3.1l-0.5-3.2c-0.4-0.3-0.9-0.5-1.6-0.7s-1.4-0.3-2.2-0.3c-1.1,0-2,0.3-2.6,0.8   s-0.9,1.2-0.9,2.1c0,0.8,0.3,1.4,1,2c0.6,0.5,1.7,1,3.3,1.6c2.3,0.7,4,1.7,5.1,2.8c1.2,1.2,1.7,2.7,1.7,4.7s-0.7,3.6-2.1,4.7   c-1.4,1.2-3.2,1.7-5.5,1.7c-1.6,0-3.1-0.3-4.4-0.9c-1.3-0.6-2.4-1.4-3.3-2.4V392h3.2l0.4,3.3c0.4,0.4,1,0.7,1.7,1   c0.7,0.3,1.5,0.4,2.4,0.4c1.1,0,2-0.3,2.6-0.8s0.9-1.2,0.9-2.1c0-0.9-0.3-1.6-0.8-2.2c-0.6-0.5-1.5-1.1-2.9-1.5   c-2.4-0.8-4.2-1.8-5.5-2.9c-1.2-1.1-1.9-2.6-1.9-4.5c0-1.9,0.7-3.5,2.1-4.7s3.2-1.8,5.3-1.9c1.6,0,3,0.3,4.3,0.8s2.4,1.3,3.2,2.2   L-177.7,383.9L-177.7,383.9z"/>
</g>
<path style="fill:#510000;" d="M-427.2,407.7l12.1,14.6c0,0,18.2,0.8,24.5-18.5l-17.8-20.7l6,11.3L-403,410l-3.8-0.6l-3.4,3  L-427.2,407.7z"/>
<g>
	<g>
		<g>
			<g>
				<path style="fill:#510000;" d="M-405.2,387.4l-3.1-4.3l-12.1-4.1l-2-0.5l-0.3,5.4l0.4,0.1l-3.5,5.7l-1.4,18l16.8,5.1l3.6-2.7      l3.8-0.1l1-15.7L-405.2,387.4z M-421.5,380l11.9,4.4l-0.7,1.9l-11.2-3.8V380z M-411.7,394.4l-0.2,15.7l-13.7-3.6l0.6-15.5      l13.4,3.5l-12.3-4.3l3.4-5.6l11.2,3.3l0.8-3.1l1.8,2.4L-411.7,394.4z M-404,408.9l-2.9-0.5l-2.9,2l-0.2-15.5l3.9-5.8l3.2,5.1      L-404,408.9z"/>
			</g>
		</g>
	</g>
</g>
<g>
	<polygon style="fill:#E1CCA9;" points="-421.5,379.9 -409.6,384.3 -410.2,386.3 -421.5,382.5  "/>
	<polygon style="fill:#E1CCA9;" points="-411.7,394.3 -411.8,410 -425.5,406.4 -424.9,390.9 -411.5,394.4 -423.8,390.1    -420.4,384.5 -409.2,387.8 -408.4,384.8 -406.6,387.2  "/>
	<polygon style="fill:#E1CCA9;" points="-404,408.8 -406.9,408.4 -409.8,410.4 -410,394.8 -406.2,389 -403,394.1  "/>
</g>
<g>
	<path style="fill:#FFFFFF;" d="M-193.2,378.3c0,0.7-0.2,1.4-0.6,2.1c-0.4,0.7-0.8,1.3-1.4,1.8l-1.4-0.8c0.3-0.5,0.4-0.9,0.6-1.4   c0.1-0.5,0.2-1,0.2-1.6v-2.1h2.6L-193.2,378.3z"/>
</g>
<path style="fill:#E1CCA9;" d="M-179.7,413.5c0,1.5-0.2,2.8-0.5,3.8s-0.8,1.8-1.5,2.2c-0.7,0.5-1.4,0.7-2.4,0.7  c-0.5,0-0.9-0.1-1.3-0.2v-0.7c0.2,0.1,0.4,0.1,0.7,0.2c0.3,0,0.5,0.1,0.6,0.1c1.1,0,2-0.5,2.6-1.4c0.6-0.9,0.9-1.9,1-3.7h-0.1  c-0.2,0.3-0.6,0.6-1.1,0.9c-0.5,0.3-1.1,0.3-1.4,0.3c-0.9,0-1.6-0.3-2.2-0.9c-0.5-0.6-0.8-1.4-0.8-2.5c0-1.1,0.3-2.1,0.8-2.8  c0.6-0.7,1.3-1.1,2.2-1.1c0.7,0,1.4,0.2,1.9,0.6c0.5,0.4,0.8,0.9,1.2,1.6C-179.6,411.5-179.7,412.5-179.7,413.5z M-183,409.2  c-0.7,0-1.3,0.3-1.7,0.8c-0.4,0.6-0.6,1.3-0.6,2.3c0,0.9,0.2,1.6,0.6,2.1s1,0.7,1.7,0.7c0.5,0,1-0.2,1.4-0.5  c0.2-0.2,0.6-0.4,0.8-0.8c0.2-0.4,0.4-0.8,0.4-1.2c0-0.6-0.1-1.2-0.3-1.7c-0.2-0.5-0.5-0.9-0.9-1.2  C-182.1,409.3-182.5,409.2-183,409.2z"/>
</svg>
