<svg id="Layer_1" data-name="Layer 1" xmlns="http://www.w3.org/2000/svg" viewBox="0 0 351.13 240.4"><defs><style>.cls-1{fill:#8b1931;}.cls-2,.cls-3{fill:#fff;}.cls-2{stroke:#fff;stroke-width:0.04px;}</style></defs><title>georgia-farm-bureau-logo</title><path class="cls-1" d="M744.93,880.1a14.18,14.18,0,0,0,14-14.38V654.08a14.18,14.18,0,0,0-14-14.38H446.86a14.18,14.18,0,0,0-14,14.38V865.72a14.18,14.18,0,0,0,14,14.38Z" transform="translate(-432.9 -639.7)"/><path class="cls-1" d="M595.9,759.9" transform="translate(-432.9 -639.7)"/><path class="cls-2" d="M557.75,698.53h12.17V709H557.75V726.1l-12.24.58v-50h26.06l3,11.23H557.75Z" transform="translate(-432.9 -639.7)"/><path class="cls-2" d="M593.31,675.56l26.64,49.17-12.45,2.52-5-10.58H583.66l-5,10.58-11.88-2.52,26.35-49.17Zm-6.7,32h13.1l-6.55-12.09Z" transform="translate(-432.9 -639.7)"/><path class="cls-2" d="M622.91,676.71H636.8c11.52,0,19.94,4,19.94,15.26,0,5.11-3,10.65-8,12.53l13.32,18.79-12.38,4-14.4-23.33h-.14v21.6l-12.24,1.15ZM635.14,701c5.26.36,9.36-1.37,9.36-7.2s-4.32-6.84-9.36-6.62Z" transform="translate(-432.9 -639.7)"/><path class="cls-2" d="M707.21,675.56h.14l13.1,50-12.31,1.73L703.9,703.5h-.14l-13,23.76h-.14l-11.81-23.69h-.14l-4.25,23.69-12.53-1.73,13.53-50h.14l15.55,30.24Z" transform="translate(-432.9 -639.7)"/><path class="cls-2" d="M482,737.91c9.79,0,19.37,2.88,19.37,13a11,11,0,0,1-6.48,10.37v.14a12.84,12.84,0,0,1,7.92,12.17c0,7.85-5.33,13.75-17.93,13.75H468V737.91Zm-1.73,19.65h3.1c3.89,0,5.76-2,5.76-5.11,0-3.74-3.31-4.82-6.19-4.82h-2.66Zm0,20h3.24c3.74,0,7.06-1,7.06-5,0-4.61-3.46-5.26-7.2-5.26h-3.1Z" transform="translate(-432.9 -639.7)"/><path class="cls-2" d="M549,770.17c0,11.52-9,18.29-21.38,18.29-11.52,0-19.58-5.4-19.58-17.42V737.91l12.24-1.15v30.81c0,5.26,1.51,9.65,7.63,9.65,7.92,0,8.85-5.54,8.85-12.31v-27L549,736.76Z" transform="translate(-432.9 -639.7)"/><path class="cls-2" d="M555.22,737.91h13.89c11.52,0,19.94,4,19.94,15.26,0,5.11-3,10.65-8,12.53l13.32,18.79-12.38,4-14.4-23.33h-.14v21.6l-12.24,1.15Zm12.24,24.26c5.26.36,9.36-1.37,9.36-7.2s-4.32-6.84-9.36-6.62Z" transform="translate(-432.9 -639.7)"/><path class="cls-2" d="M597.83,787.3V737.91h27.93l2.16,10.44H610.07v8.57h12.74v10.44H610.07v9.5h19.37l-3,10.44Z" transform="translate(-432.9 -639.7)"/><path class="cls-2" d="M655.43,736.76l26.64,49.17-12.45,2.52-5-10.58H645.79l-5,10.58-11.88-2.52,26.35-49.17Zm-6.7,32h13.1l-6.55-12.09Z" transform="translate(-432.9 -639.7)"/><path class="cls-2" d="M721.09,770.17c0,11.52-9,18.29-21.38,18.29-11.52,0-19.58-5.4-19.58-17.42V737.91l12.24-1.15v30.81c0,5.26,1.51,9.65,7.63,9.65,7.92,0,8.86-5.54,8.86-12.31v-27l12.24-1.15Z" transform="translate(-432.9 -639.7)"/><path class="cls-2" d="M573.06,822.78a9.65,9.65,0,0,0-6.44-2.52,7.88,7.88,0,0,0-8.2,8.12c0,5.12,4,8.12,8.72,8.12,1,0,3.12-.2,3.92-1v-4h-7.12l2-5.8h12v14.2a25.46,25.46,0,0,1-11.6,2.8,14.36,14.36,0,1,1,0-28.71,16.57,16.57,0,0,1,10.8,3.84Z" transform="translate(-432.9 -639.7)"/><path class="cls-2" d="M582,842.1V814.66h15.52l1.2,5.8h-9.92v4.76h7.08V831h-7.08v5.28h10.76l-1.68,5.8Z" transform="translate(-432.9 -639.7)"/><path class="cls-2" d="M630.4,828.38A14.64,14.64,0,1,1,615.76,814,14.51,14.51,0,0,1,630.4,828.38Zm-22.48,0a7.84,7.84,0,1,0,7.84-8.12A8.18,8.18,0,0,0,607.92,828.38Z" transform="translate(-432.9 -639.7)"/><path class="cls-2" d="M633.11,814.66h7.72c6.4,0,11.08,2.24,11.08,8.48a7.45,7.45,0,0,1-4.44,7l7.4,10.44-6.88,2.2-8-13h-.08v12l-6.8.64Zm6.8,13.48c2.92.2,5.2-.76,5.2-4s-2.4-3.8-5.2-3.68Z" transform="translate(-432.9 -639.7)"/><path class="cls-2" d="M676.53,822.78a9.65,9.65,0,0,0-6.44-2.52,7.88,7.88,0,0,0-8.2,8.12c0,5.12,4,8.12,8.72,8.12,1,0,3.12-.2,3.92-1v-4h-7.12l2-5.8h12v14.2a25.45,25.45,0,0,1-11.6,2.8,14.36,14.36,0,1,1,0-28.71,16.57,16.57,0,0,1,10.8,3.84Z" transform="translate(-432.9 -639.7)"/><path class="cls-2" d="M692.32,814v27.76l-6.8.64V814.66Z" transform="translate(-432.9 -639.7)"/><path class="cls-2" d="M708.1,814l14.8,27.32-6.92,1.4-2.8-5.88H702.75L700,842.74l-6.6-1.4L708,814Zm-3.72,17.76h7.28L708,825.06Z" transform="translate(-432.9 -639.7)"/><path class="cls-3" d="M451,870.66a8.65,8.65,0,0,1-8.64-8.67h0V657.41a8.65,8.65,0,0,1,8.64-8.67H740.42a8.65,8.65,0,0,1,8.64,8.67h0V862a8.65,8.65,0,0,1-8.64,8.67h0v-4.32a4.34,4.34,0,0,0,4.32-4.35h0V657.41a4.34,4.34,0,0,0-4.32-4.35H451a4.34,4.34,0,0,0-4.32,4.35h0V862a4.34,4.34,0,0,0,4.32,4.35H740.42v4.32Z" transform="translate(-432.9 -639.7)"/><path class="cls-3" d="M595.7,759.7" transform="translate(-432.9 -639.7)"/><polygon class="cls-3" points="35.14 160.4 35.14 157.2 288.38 157.2 288.38 160.4 35.14 160.4 35.14 160.4"/><path class="cls-1" d="M774.31,859.95a9.92,9.92,0,1,1-9.86,9.9,9.77,9.77,0,0,1,9.86-9.9Zm0,1.54a8.39,8.39,0,0,0,0,16.76,8.4,8.4,0,0,0,0-16.76Zm-1.85,14.12h-1.76v-11a19.73,19.73,0,0,1,3.12-.26,5.8,5.8,0,0,1,3.43.84,2.64,2.64,0,0,1,1,2.29,2.75,2.75,0,0,1-2.16,2.68v.09c1,.18,1.63,1.06,1.85,2.68a9.06,9.06,0,0,0,.7,2.73h-1.85a8.17,8.17,0,0,1-.75-2.82,2.06,2.06,0,0,0-2.37-1.94h-1.23Zm0-6.12h1.28c1.45,0,2.68-.53,2.68-1.89,0-1-.7-1.94-2.68-1.94a8.6,8.6,0,0,0-1.28.09Z" transform="translate(-432.9 -639.7)"/></svg>