<?xml version="1.0" encoding="utf-8"?>
<!-- Generator: Adobe Illustrator 23.0.3, SVG Export Plug-In . SVG Version: 6.00 Build 0)  -->
<svg version="1.1" id="Layer_1" xmlns="http://www.w3.org/2000/svg" xmlns:xlink="http://www.w3.org/1999/xlink" x="0px" y="0px"
	 viewBox="0 0 394 243" style="enable-background:new 0 0 394 243;" xml:space="preserve">
<style type="text/css">
	.st0{fill:#6ABF4B;}
	.st1{fill:#1A428A;}
</style>
<g>
	<g>
		<path class="st0" d="M30.5,110.5c0-4.7,0.8-9.2,2.4-13.4c1.6-4.2,4-7.9,7.1-11c3.1-3.2,6.8-5.7,11.2-7.6c4.4-1.9,9.3-2.8,14.8-2.8
			c7.4,0,13.6,1.6,18.8,4.7c5.2,3.2,9,7.3,11.6,12.5l-16.8,5.1c-1.5-2.5-3.4-4.4-5.8-5.7c-2.4-1.3-5-2-8-2c-2.5,0-4.8,0.5-6.9,1.5
			c-2.1,1-4,2.4-5.6,4.1c-1.6,1.8-2.8,3.9-3.7,6.4c-0.9,2.5-1.3,5.2-1.3,8.2c0,3,0.5,5.7,1.4,8.2c0.9,2.5,2.2,4.6,3.8,6.4
			c1.6,1.8,3.4,3.2,5.6,4.2c2.1,1,4.4,1.5,6.8,1.5c3.1,0,5.9-0.8,8.5-2.3c2.6-1.5,4.4-3.4,5.5-5.6l16.8,5.1
			c-2.3,5.1-6.1,9.3-11.4,12.6c-5.3,3.3-11.7,4.9-19.1,4.9c-5.5,0-10.4-0.9-14.8-2.8c-4.4-1.9-8.1-4.4-11.2-7.6
			c-3.1-3.2-5.5-6.9-7.1-11.2C31.3,119.6,30.5,115.1,30.5,110.5"/>
		<path class="st0" d="M161.9,144.1h-17.2v-37.7c0-5.4-0.9-9.3-2.8-11.8c-1.9-2.5-4.5-3.7-7.8-3.7c-1.7,0-3.5,0.3-5.3,1
			c-1.8,0.7-3.5,1.6-5.1,2.9c-1.6,1.2-3,2.7-4.3,4.4c-1.3,1.7-2.2,3.6-2.8,5.6v39.3H99.4V76.9H115v12.5c2.5-4.3,6.1-7.6,10.8-10
			c4.7-2.4,10-3.6,15.9-3.6c4.2,0,7.6,0.8,10.3,2.3c2.7,1.5,4.7,3.6,6.2,6c1.5,2.5,2.5,5.3,3,8.5c0.6,3.2,0.8,6.4,0.8,9.6V144.1z"/>
		<path class="st0" d="M194.7,145.4c-5.6,0-11.2-0.9-16.6-2.7c-5.4-1.8-10-4.4-13.9-7.7l6.4-10.8c4.1,2.9,8.1,5.1,12,6.6
			c3.9,1.5,7.8,2.2,11.6,2.2c3.4,0,6.1-0.6,8.1-1.9c2-1.3,3-3.1,3-5.5c0-2.4-1.2-4.1-3.5-5.3c-2.3-1.1-6.1-2.4-11.3-3.9
			c-4.4-1.2-8.1-2.4-11.2-3.5c-3.1-1.1-5.6-2.4-7.4-3.8c-1.9-1.4-3.3-3-4.1-4.9c-0.9-1.8-1.3-4-1.3-6.6c0-3.4,0.7-6.5,2-9.2
			c1.3-2.7,3.2-5.1,5.6-7c2.4-1.9,5.2-3.4,8.4-4.4c3.2-1,6.7-1.5,10.5-1.5c5,0,9.8,0.7,14.2,2.2c4.4,1.5,8.4,3.8,12.1,7.1l-6.9,10.4
			c-3.4-2.6-6.7-4.4-9.9-5.6c-3.2-1.2-6.4-1.8-9.6-1.8c-2.9,0-5.3,0.6-7.3,1.8c-2,1.2-3,3.1-3,5.8c0,1.2,0.2,2.2,0.7,3
			c0.5,0.8,1.2,1.5,2.2,2.1c1,0.6,2.4,1.2,4,1.7c1.7,0.6,3.7,1.1,6.2,1.7c4.6,1.2,8.6,2.4,11.9,3.6c3.3,1.2,6,2.6,8.1,4.1
			c2.1,1.5,3.6,3.3,4.6,5.3c1,2,1.5,4.4,1.5,7.3c0,6.6-2.4,11.8-7.3,15.6C209.7,143.5,203,145.4,194.7,145.4"/>
	</g>
	<g>
		<path class="st1" d="M162.6,218h-17.2v-37.7c0-5.4-0.9-9.3-2.8-11.8c-1.9-2.5-4.5-3.7-7.8-3.7c-1.7,0-3.5,0.3-5.3,1
			c-1.8,0.7-3.5,1.6-5.1,2.9c-1.6,1.2-3,2.7-4.3,4.4c-1.3,1.7-2.2,3.6-2.8,5.6V218h-17.2v-67.3h15.5v12.4c2.5-4.3,6.1-7.6,10.8-10
			c4.7-2.4,10-3.6,15.9-3.6c4.2,0,7.6,0.8,10.3,2.3c2.7,1.5,4.7,3.6,6.2,6c1.5,2.5,2.5,5.3,3,8.5c0.6,3.2,0.8,6.4,0.8,9.6V218z"/>
		<path class="st1" d="M202.6,219.3c-5.4,0-10.3-0.9-14.6-2.8c-4.4-1.8-8.1-4.3-11.2-7.5c-3.1-3.2-5.5-6.8-7.1-11
			c-1.7-4.2-2.5-8.6-2.5-13.2c0-4.8,0.8-9.3,2.4-13.5c1.6-4.2,4-8,7.1-11.2c3.1-3.2,6.8-5.8,11.2-7.6c4.4-1.9,9.3-2.8,14.8-2.8
			c5.5,0,10.4,0.9,14.7,2.8c4.3,1.9,8,4.4,11,7.6c3,3.2,5.3,6.8,6.9,11c1.6,4.2,2.4,8.6,2.4,13.1c0,1.1,0,2.2-0.1,3.2
			c0,1-0.2,1.9-0.3,2.6h-52c0.3,2.7,0.9,5,1.9,7.1c1,2.1,2.4,3.8,4,5.3c1.6,1.5,3.5,2.6,5.5,3.3c2.1,0.8,4.2,1.2,6.4,1.2
			c3.4,0,6.7-0.8,9.7-2.5c3-1.7,5.1-3.9,6.2-6.6l14.8,4.1c-2.5,5.1-6.4,9.3-11.9,12.6C216.6,217.6,210.1,219.3,202.6,219.3
			 M220.1,178.7c-0.4-5-2.3-9.1-5.6-12.1c-3.3-3-7.3-4.6-12-4.6c-2.3,0-4.5,0.4-6.5,1.2c-2,0.8-3.8,1.9-5.3,3.4
			c-1.5,1.5-2.8,3.2-3.8,5.3c-1,2.1-1.6,4.3-1.7,6.8H220.1z"/>
		<path class="st1" d="M342.5,214.5c-2.3,1-5.1,2.1-8.5,3.1c-3.3,1-6.8,1.5-10.5,1.5c-2.4,0-4.6-0.3-6.7-0.9
			c-2.1-0.6-3.9-1.6-5.5-2.9c-1.6-1.3-2.8-3-3.8-5.1c-0.9-2.1-1.4-4.6-1.4-7.6v-38.6h-8.9v-13.2h8.9v-21.8h17.2v21.8h14.1v13.2
			h-14.1v32.9c0,2.4,0.6,4.1,1.9,5.1c1.2,1,2.8,1.5,4.6,1.5c1.8,0,3.5-0.3,5.3-0.9c1.7-0.6,3.1-1.1,4.1-1.5L342.5,214.5z"/>
		<g>
			<polygon class="st0" points="296.2,23.7 294.7,91.8 339.8,45.1 296.9,87.2 			"/>
			<polygon class="st0" points="295.7,94 343.2,92 302.7,95.3 363.5,130.5 			"/>
			<polygon class="st0" points="338.7,123.9 295,95.4 296,148 296.6,100.4 311.5,126 298.2,100 			"/>
			<polygon class="st0" points="293.8,95.8 262.2,161.6 292.3,102.3 289.1,141 			"/>
			<polygon class="st0" points="291.7,94.7 242.2,133.8 285.9,97.9 246.1,114.5 284,97.4 261.7,101.2 			"/>
			<polygon class="st0" points="291.6,92.8 238.8,84.6 284.5,90 238.1,50.4 			"/>
			<polygon class="st0" points="292.8,91.7 285.2,32.6 290.2,85.6 255.2,48.1 			"/>
			<polygon class="st0" points="295.5,92.9 350,83 303.5,88.7 334.7,64.1 			"/>
			<polygon class="st0" points="292,97.2 260.5,134.5 291.1,96.5 292.6,95.7 			"/>
			<path class="st0" d="M271.8,184.5l24-33.8h-17.7l-14.4,21l-1.3,2.3l-1-2.3l-14.5-21c-14.5-18.4-24.7-52.2,44.5-56.8
				c-51.7-0.7-80.8,28.1-62.1,56.8l23.9,33.8L229,218h17.7l14.8-20.9l1-2.2l1.2,2.2l14.9,20.9h17.7L271.8,184.5z"/>
		</g>
	</g>
</g>
</svg>
