<svg id="Layer_1" data-name="Layer 1" xmlns="http://www.w3.org/2000/svg" viewBox="0 0 93.96 41.21"><defs><style>.cls-1{font-size:12px;fill:#fff;font-family:MyriadPro-Regular, Myriad Pro;}.cls-2{fill:#231f20;}.cls-3{fill:#13274d;}.cls-4{fill:#7d7d7d;}</style></defs><title>williamscpa-logo-updated</title><text class="cls-1" transform="translate(55.81 13.89)"></text><polygon class="cls-2" points="32.55 13.25 31.53 17.49 31.58 17.49 32.07 15.6 32.67 13.25 32.55 13.25"/><polygon class="cls-3" points="77.14 36.63 4.17 36.63 4.17 5.59 35.59 5.59 34.98 7.94 34.49 9.84 29.53 29.09 25.89 29.09 22.82 18.02 19.66 29.09 16.03 29.09 11.53 13.22 14.93 13.22 17.98 25.48 21.18 13.22 24.8 13.22 27.82 25.36 32.01 7.94 6.52 7.94 6.52 34.28 76.34 34.28 77.14 36.63"/><polygon class="cls-2" points="80.54 36.63 80.5 36.63 79.69 34.28 79.75 34.28 80.54 36.63"/><path class="cls-4" d="M43.35,26.32a4.63,4.63,0,0,1-3.51-1.42,5.24,5.24,0,0,1-1.35-3.77,5.25,5.25,0,0,1,1.35-3.77,4.63,4.63,0,0,1,3.51-1.42A3.76,3.76,0,0,1,47,18h3.84A7.24,7.24,0,0,0,48,14.31,8.21,8.21,0,0,0,43.35,13a7.94,7.94,0,0,0-5.76,2.3,7.79,7.79,0,0,0-2.35,5.82,7.8,7.8,0,0,0,2.34,5.82,7.92,7.92,0,0,0,5.77,2.3A8.26,8.26,0,0,0,48,27.92a7.17,7.17,0,0,0,2.87-3.69H47a3.78,3.78,0,0,1-3.64,2.09"/><path class="cls-4" d="M63.69,14.6a6,6,0,0,0-4.24-1.38H53.6V29.09h3.2V22.77h2.64a7.74,7.74,0,0,0,2.74-.44A4.14,4.14,0,0,0,64,21.13a5,5,0,0,0,1.21-3.3,4.27,4.27,0,0,0-1.49-3.24m-2.4,5.09a2.52,2.52,0,0,1-1.84.63H56.81V15.68h2.64a2.52,2.52,0,0,1,1.84.62A2.27,2.27,0,0,1,61.92,18a2.27,2.27,0,0,1-.64,1.69"/><polygon class="cls-4" points="88.74 5.59 88.74 36.63 80.54 36.63 79.75 34.28 76.16 23.66 73.88 17.04 71.63 23.66 74.13 23.66 74.46 26.11 70.79 26.11 69.77 29.09 66.38 29.09 72 13.18 75.79 13.18 83.08 34.28 86.39 34.28 86.39 7.94 37.95 7.94 38.56 5.59 88.74 5.59"/></svg>